<?xml version="1.0" encoding="UTF-8"?>
<svg id="Layer_1" data-name="Layer 1" xmlns="http://www.w3.org/2000/svg" version="1.1" xmlns:xlink="http://www.w3.org/1999/xlink" viewBox="0 0 755.2 407.1">
  <defs>
    <style>
      .cls-1 {
        fill: #000;
      }

      .cls-1, .cls-2, .cls-3, .cls-4, .cls-5, .cls-6, .cls-7, .cls-8, .cls-9, .cls-10, .cls-11, .cls-12, .cls-13, .cls-14, .cls-15, .cls-16, .cls-17 {
        stroke-width: 0px;
      }

      .cls-2 {
        fill: url(#radial-gradient-8);
      }

      .cls-3 {
        fill: url(#radial-gradient-13);
      }

      .cls-4 {
        fill: url(#radial-gradient-12);
      }

      .cls-5 {
        fill: url(#radial-gradient-2);
      }

      .cls-6 {
        fill: url(#radial-gradient-7);
      }

      .cls-7 {
        fill: url(#radial-gradient-5);
      }

      .cls-8 {
        fill: url(#radial-gradient);
      }

      .cls-9 {
        fill: url(#radial-gradient-14);
      }

      .cls-10 {
        fill: url(#radial-gradient-10);
      }

      .cls-11 {
        fill: #fff;
      }

      .cls-12 {
        fill: url(#radial-gradient-6);
      }

      .cls-13 {
        fill: url(#radial-gradient-15);
      }

      .cls-14 {
        fill: url(#radial-gradient-9);
      }

      .cls-15 {
        fill: url(#radial-gradient-3);
      }

      .cls-16 {
        fill: url(#radial-gradient-11);
      }

      .cls-17 {
        fill: url(#radial-gradient-4);
      }
    </style>
    <radialGradient id="radial-gradient" cx="543.9" cy="114.6" fx="543.9" fy="114.6" r="23.1" gradientUnits="userSpaceOnUse">
      <stop offset="0" stop-color="#bc961b"/>
      <stop offset=".3" stop-color="#b29126"/>
      <stop offset=".8" stop-color="#998644"/>
      <stop offset="1" stop-color="#8f8252"/>
    </radialGradient>
    <radialGradient id="radial-gradient-2" cx="545.7" cy="198.3" fx="545.7" fy="198.3" r="32.6" xlink:href="#radial-gradient"/>
    <radialGradient id="radial-gradient-3" cx="71" cy="239.8" fx="71" fy="239.8" r="34.8" xlink:href="#radial-gradient"/>
    <radialGradient id="radial-gradient-4" cx="285.1" cy="74.5" fx="285.1" fy="74.5" r="24.5" xlink:href="#radial-gradient"/>
    <radialGradient id="radial-gradient-5" cx="65.4" cy="286.3" fx="65.4" fy="286.3" r=".7" xlink:href="#radial-gradient"/>
    <radialGradient id="radial-gradient-6" cx="374.3" cy="137.9" fx="374.3" fy="137.9" r="106.1" xlink:href="#radial-gradient"/>
    <radialGradient id="radial-gradient-7" cx="158.7" cy="196.9" fx="158.7" fy="196.9" r="117.2" xlink:href="#radial-gradient"/>
    <radialGradient id="radial-gradient-8" cx="637.5" cy="79.8" fx="637.5" fy="79.8" r="1.6" xlink:href="#radial-gradient"/>
    <radialGradient id="radial-gradient-9" cx="669.7" cy="175.2" fx="669.7" fy="175.2" r="1.3" xlink:href="#radial-gradient"/>
    <radialGradient id="radial-gradient-10" cx="644.7" cy="131.7" fx="644.7" fy="131.7" r="35.2" xlink:href="#radial-gradient"/>
    <radialGradient id="radial-gradient-11" cx="634" cy="26.5" fx="634" fy="26.5" r="25.3" xlink:href="#radial-gradient"/>
    <radialGradient id="radial-gradient-12" cx="622.5" cy="70.3" fx="622.5" fy="70.3" r="10.4" xlink:href="#radial-gradient"/>
    <radialGradient id="radial-gradient-13" cx="614" cy="282.1" fx="614" fy="282.1" r="1.1" xlink:href="#radial-gradient"/>
    <radialGradient id="radial-gradient-14" cx="637.6" cy="231.9" fx="637.6" fy="231.9" r="41.7" xlink:href="#radial-gradient"/>
    <radialGradient id="radial-gradient-15" cx="613.1" cy="90.8" fx="613.1" fy="90.8" r=".5" xlink:href="#radial-gradient"/>
  </defs>
  <g>
    <g>
      <g>
        <path class="cls-1" d="M72.4,361.4c-.1-.3-.3-.5-.4-.6-.2-.2-.5-.2-.9-.2h-2.8c-.4,0-.7,0-.9.2-.2.2-.3.4-.4.6l-10.1,26.2c0,.2,0,.3,0,.4,0,.2,0,.4.2.6.2.2.4.2.6.2h2.1c.3,0,.6,0,.7-.2.2-.2.3-.3.3-.4l2.2-5.8h13.3l2.2,5.8c0,.1.2.3.3.4.1.2.4.2.7.2h2.1c.2,0,.4,0,.6-.2.2-.2.2-.4.2-.6s0-.3,0-.4l-10-26.2ZM64.3,379l5.5-14.4,5.5,14.4h-11Z"/>
        <path class="cls-1" d="M101.4,368.6c-1.2-.8-2.7-1.2-4.5-1.2s-3,.3-4.1.9c-1.1.6-2,1.3-2.7,2.3v-1.8c0-.3,0-.5-.3-.7-.2-.2-.4-.3-.7-.3h-1.9c-.3,0-.5,0-.7.3-.2.2-.3.4-.3.7v19.2c0,.3,0,.5.3.7.2.2.4.3.7.3h2c.3,0,.5,0,.7-.3.2-.2.3-.4.3-.7v-11.2c0-1.9.5-3.4,1.5-4.4,1-1.1,2.4-1.6,4-1.6s3.1.5,4.1,1.6c.9,1.1,1.4,2.5,1.4,4.4v11.2c0,.3,0,.5.3.7.2.2.4.3.7.3h2c.3,0,.5,0,.7-.3.2-.2.3-.4.3-.7v-11.4c0-1.8-.3-3.4-1-4.8-.6-1.4-1.6-2.4-2.8-3.2Z"/>
        <path class="cls-1" d="M125.7,369.7c-.6-.7-1.5-1.3-2.6-1.7-1.1-.4-2.5-.6-4.1-.6s-2.7.2-3.7.6c-1,.4-1.8.9-2.5,1.4-.6.6-1.1,1.1-1.4,1.7-.3.6-.5,1.1-.5,1.5s0,.5.2.6c.1.2.4.3.7.3h1.8c.4,0,.7-.2.9-.6.3-.8.8-1.4,1.6-1.9s1.7-.7,2.9-.7,2.9.4,3.6,1.1c.7.7,1.1,1.7,1.1,3v1.2l-6,.9c-2.4.4-4.4,1.1-5.9,2.2-1.5,1.1-2.3,2.6-2.3,4.5s.3,2.2,1,3.1c.7.9,1.6,1.6,2.7,2.2,1.1.5,2.3.8,3.7.8s2.4-.2,3.3-.5,1.6-.7,2.2-1.2c.6-.5,1.1-1,1.4-1.4v1.7c0,.3,0,.5.2.7.2.2.4.3.7.3h1.9c.3,0,.5,0,.7-.3.2-.2.3-.4.3-.7v-13.1c0-.9-.1-1.8-.4-2.7s-.7-1.7-1.4-2.4ZM123.7,379.6c0,1.5-.3,2.8-.8,3.8-.5,1-1.3,1.7-2.2,2.2-.9.5-1.9.7-3,.7s-1.4-.1-2.1-.4c-.7-.2-1.3-.6-1.7-1.1-.4-.5-.7-1.1-.7-1.9s.5-1.8,1.5-2.4c1-.6,2.4-1.1,4.3-1.4l4.7-.7v1.1Z"/>
        <path class="cls-1" d="M146.5,378.3c-1-.6-2.4-1.1-4.2-1.4-1.7-.4-2.9-.7-3.7-1.1-.8-.3-1.4-.7-1.7-1.1s-.4-.9-.4-1.4c0-.9.3-1.6,1-2.1.7-.6,1.7-.9,3-.9s1.7.1,2.3.3c.6.2,1.1.5,1.4.9.4.4.7.7,1,1.1.1.1.2.2.3.3.1,0,.3.1.5.1h1.7c.2,0,.5,0,.6-.3.2-.2.3-.4.2-.7,0-.4-.2-.8-.5-1.3-.3-.5-.8-1-1.5-1.6-.6-.5-1.5-1-2.5-1.3-1-.4-2.2-.5-3.6-.5s-3.2.3-4.3.9c-1.1.6-2,1.4-2.6,2.3s-.9,1.9-.9,2.9.2,1.8.6,2.6c.4.8,1.1,1.4,2,2,.9.6,2.2,1,3.9,1.4,1.6.4,2.9.7,3.8,1s1.6.7,1.9,1.1.5.9.5,1.6c0,1-.4,1.8-1.3,2.3s-2,.8-3.4.8-1.7-.1-2.4-.4c-.6-.2-1.2-.6-1.6-.9-.4-.4-.8-.8-1.2-1.1-.2-.2-.3-.3-.4-.3,0,0-.2,0-.3,0h-1.8c-.2,0-.4,0-.6.2-.2.2-.3.4-.3.7,0,.3.2.8.5,1.3.3.5.8,1.1,1.5,1.6.7.5,1.6,1,2.6,1.4,1.1.4,2.4.6,3.9.6s3.5-.3,4.8-.8c1.3-.6,2.3-1.3,2.9-2.3.6-.9,1-2,1-3.1s-.2-1.9-.6-2.7c-.4-.8-1.2-1.5-2.2-2.1Z"/>
        <path class="cls-1" d="M182.5,385.5h-14.1v-9.2h12.9c.3,0,.5,0,.7-.3.2-.2.2-.4.2-.7v-1.5c0-.3,0-.5-.2-.7-.2-.2-.4-.3-.7-.3h-12.9v-8.9h13.8c.3,0,.5,0,.7-.2s.2-.4.2-.7v-1.5c0-.3,0-.5-.2-.7-.2-.2-.4-.3-.7-.3h-16.8c-.3,0-.5,0-.7.3-.2.2-.2.4-.2.7v26.5c0,.3,0,.5.2.7.2.2.4.3.7.3h17.1c.3,0,.5,0,.7-.3.2-.2.2-.4.2-.7v-1.6c0-.3,0-.5-.2-.7-.2-.2-.4-.2-.7-.2Z"/>
        <path class="cls-1" d="M205.4,360.1h-1.9c-.3,0-.5,0-.7.3-.2.2-.3.4-.3.7v9.3c-.7-.8-1.5-1.5-2.6-2.1s-2.4-.9-4-.9-2.8.3-3.9.8c-1.1.5-2,1.3-2.7,2.2-.7.9-1.2,2-1.5,3.1-.3,1.2-.5,2.4-.6,3.7,0,.4,0,.8,0,1.2s0,.8,0,1.2c0,1.3.2,2.5.6,3.7.3,1.2.9,2.2,1.5,3.1.7.9,1.6,1.6,2.7,2.1,1.1.5,2.4.8,3.9.8s3-.3,4.1-.9,2-1.3,2.6-2.2v1.7c0,.3,0,.5.2.7.2.2.4.3.7.3h1.8c.3,0,.5,0,.7-.3.2-.2.3-.4.3-.7v-26.9c0-.3,0-.5-.3-.7-.2-.2-.4-.3-.7-.3ZM202.6,379.8c0,1-.2,2-.6,2.9-.4,1-1,1.8-1.8,2.4-.8.6-1.9.9-3.2.9s-2.5-.3-3.3-.9-1.4-1.4-1.7-2.4c-.4-1-.6-2-.6-3.2,0-.8,0-1.6,0-2.4,0-1.1.3-2.2.6-3.2.4-1,.9-1.8,1.7-2.4s1.9-.9,3.3-.9,2.4.3,3.2.9c.8.6,1.4,1.4,1.9,2.3.4.9.6,1.9.7,2.8,0,.4,0,1,0,1.6s0,1.1,0,1.6Z"/>
        <path class="cls-1" d="M229.6,360.1h-1.9c-.3,0-.5,0-.7.3-.2.2-.3.4-.3.7v9.3c-.7-.8-1.5-1.5-2.6-2.1s-2.4-.9-4-.9-2.8.3-3.9.8c-1.1.5-2,1.3-2.7,2.2-.7.9-1.2,2-1.5,3.1-.3,1.2-.5,2.4-.6,3.7,0,.4,0,.8,0,1.2s0,.8,0,1.2c0,1.3.2,2.5.6,3.7.3,1.2.9,2.2,1.5,3.1.7.9,1.6,1.6,2.7,2.1,1.1.5,2.4.8,3.9.8s3-.3,4.1-.9,2-1.3,2.6-2.2v1.7c0,.3,0,.5.2.7.2.2.4.3.7.3h1.8c.3,0,.5,0,.7-.3.2-.2.3-.4.3-.7v-26.9c0-.3,0-.5-.3-.7-.2-.2-.4-.3-.7-.3ZM226.7,379.8c0,1-.2,2-.6,2.9-.4,1-1,1.8-1.8,2.4-.8.6-1.9.9-3.2.9s-2.5-.3-3.3-.9-1.4-1.4-1.7-2.4c-.4-1-.6-2-.6-3.2,0-.8,0-1.6,0-2.4,0-1.1.3-2.2.6-3.2.4-1,.9-1.8,1.7-2.4s1.9-.9,3.3-.9,2.4.3,3.2.9c.8.6,1.4,1.4,1.9,2.3.4.9.6,1.9.7,2.8,0,.4,0,1,0,1.6s0,1.1,0,1.6Z"/>
        <path class="cls-1" d="M251.3,369.7c-.6-.7-1.5-1.3-2.6-1.7-1.1-.4-2.5-.6-4.1-.6s-2.7.2-3.7.6c-1,.4-1.8.9-2.5,1.4-.6.6-1.1,1.1-1.4,1.7-.3.6-.5,1.1-.5,1.5s0,.5.2.6c.1.2.4.3.7.3h1.8c.4,0,.7-.2.9-.6.3-.8.8-1.4,1.6-1.9s1.7-.7,2.9-.7,2.9.4,3.6,1.1c.7.7,1.1,1.7,1.1,3v1.2l-6,.9c-2.4.4-4.4,1.1-5.9,2.2-1.5,1.1-2.3,2.6-2.3,4.5s.3,2.2,1,3.1c.7.9,1.6,1.6,2.7,2.2s2.3.8,3.7.8,2.4-.2,3.3-.5,1.6-.7,2.2-1.2c.6-.5,1.1-1,1.4-1.4v1.7c0,.3,0,.5.2.7.2.2.4.3.7.3h1.9c.3,0,.5,0,.7-.3.2-.2.3-.4.3-.7v-13.1c0-.9-.1-1.8-.4-2.7-.3-.9-.7-1.7-1.4-2.4ZM249.3,379.6c0,1.5-.3,2.8-.8,3.8-.5,1-1.3,1.7-2.2,2.2-.9.5-1.9.7-3,.7s-1.4-.1-2.1-.4c-.7-.2-1.3-.6-1.7-1.1-.4-.5-.7-1.1-.7-1.9s.5-1.8,1.5-2.4c1-.6,2.4-1.1,4.3-1.4l4.7-.7v1.1Z"/>
        <path class="cls-1" d="M274,368.6c-1.2-.8-2.7-1.2-4.5-1.2s-3,.3-4.1.9c-1.1.6-2,1.3-2.7,2.3v-1.8c0-.3,0-.5-.3-.7-.2-.2-.4-.3-.7-.3h-1.9c-.3,0-.5,0-.7.3-.2.2-.3.4-.3.7v19.2c0,.3,0,.5.3.7.2.2.4.3.7.3h2c.3,0,.5,0,.7-.3.2-.2.3-.4.3-.7v-11.2c0-1.9.5-3.4,1.5-4.4,1-1.1,2.4-1.6,4-1.6s3.1.5,4.1,1.6c.9,1.1,1.4,2.5,1.4,4.4v11.2c0,.3,0,.5.3.7.2.2.4.3.7.3h2c.3,0,.5,0,.7-.3.2-.2.3-.4.3-.7v-11.4c0-1.8-.3-3.4-1-4.8-.6-1.4-1.6-2.4-2.8-3.2Z"/>
        <path class="cls-1" d="M294.7,358.9h-2.4c-1.7,0-3.1.3-4.1.9-1,.6-1.8,1.4-2.2,2.4-.5,1-.7,2.3-.7,3.6v2h-3.4c-.3,0-.5,0-.7.3-.2.2-.3.4-.3.7v1.4c0,.3,0,.5.3.7.2.2.4.3.7.3h3.4v16.9c0,.3,0,.5.3.7.2.2.4.3.7.3h1.9c.3,0,.5,0,.7-.3.2-.2.3-.4.3-.7v-16.9h5.2c.3,0,.5,0,.7-.3.2-.2.3-.4.3-.7v-1.4c0-.3,0-.5-.3-.7-.2-.2-.4-.3-.7-.3h-5.2v-1.8c0-1.2.2-2.2.7-2.9.5-.7,1.3-1,2.6-1h2.4c.3,0,.5,0,.7-.3s.3-.4.3-.7v-1.4c0-.3,0-.5-.3-.7-.2-.2-.4-.3-.7-.3Z"/>
        <path class="cls-1" d="M315.4,371.8c-.7-1.4-1.8-2.5-3.2-3.2-1.4-.8-3.1-1.2-5.1-1.2s-3.7.4-5.1,1.2c-1.4.8-2.4,1.9-3.2,3.2-.7,1.4-1.2,3-1.2,4.8,0,.4,0,1,0,1.7s0,1.3,0,1.8c0,1.8.5,3.4,1.2,4.8.7,1.4,1.8,2.5,3.2,3.3,1.4.8,3.1,1.2,5.2,1.2s3.8-.4,5.2-1.2c1.4-.8,2.4-1.9,3.2-3.3.7-1.4,1.1-3,1.2-4.8,0-.5,0-1,0-1.8s0-1.3,0-1.7c0-1.8-.5-3.4-1.2-4.8ZM312.7,379.9c0,2.1-.6,3.6-1.6,4.7-1,1.1-2.3,1.6-4,1.6s-3-.5-4-1.6c-1-1.1-1.5-2.6-1.6-4.7,0-.4,0-.9,0-1.5s0-1.1,0-1.5c0-2.1.6-3.6,1.6-4.7,1-1.1,2.4-1.6,4-1.6s3,.5,4,1.6c1,1.1,1.5,2.6,1.6,4.7,0,.4,0,.9,0,1.5s0,1.1,0,1.5Z"/>
        <path class="cls-1" d="M333.4,368.1c-.2-.2-.4-.3-.7-.3h-1.6c-1.4,0-2.5.2-3.4.7-.9.5-1.7,1.2-2.2,2.1v-1.8c0-.3,0-.5-.3-.7-.2-.2-.4-.3-.7-.3h-1.9c-.3,0-.5,0-.7.3-.2.2-.3.4-.3.7v19.2c0,.3,0,.5.3.7.2.2.4.3.7.3h2c.3,0,.5,0,.7-.3.2-.2.3-.4.3-.7v-11.9c0-1.5.4-2.6,1.3-3.5s2-1.3,3.4-1.3h2.4c.3,0,.5,0,.7-.2s.3-.4.3-.6v-1.7c0-.3,0-.5-.3-.7Z"/>
      </g>
      <g>
        <path class="cls-11" d="M72.4,361.4c-.1-.3-.3-.5-.4-.6-.2-.2-.5-.2-.9-.2h-2.8c-.4,0-.7,0-.9.2-.2.2-.3.4-.4.6l-10.1,26.2c0,.2,0,.3,0,.4,0,.2,0,.4.2.6.2.2.4.2.6.2h2.1c.3,0,.6,0,.7-.2.2-.2.3-.3.3-.4l2.2-5.8h13.3l2.2,5.8c0,.1.2.3.3.4.1.2.4.2.7.2h2.1c.2,0,.4,0,.6-.2.2-.2.2-.4.2-.6s0-.3,0-.4l-10-26.2ZM64.3,379l5.5-14.4,5.5,14.4h-11Z"/>
        <path class="cls-11" d="M101.4,368.6c-1.2-.8-2.7-1.2-4.5-1.2s-3,.3-4.1.9c-1.1.6-2,1.3-2.7,2.3v-1.8c0-.3,0-.5-.3-.7-.2-.2-.4-.3-.7-.3h-1.9c-.3,0-.5,0-.7.3-.2.2-.3.4-.3.7v19.2c0,.3,0,.5.3.7.2.2.4.3.7.3h2c.3,0,.5,0,.7-.3.2-.2.3-.4.3-.7v-11.2c0-1.9.5-3.4,1.5-4.4,1-1.1,2.4-1.6,4-1.6s3.1.5,4.1,1.6c.9,1.1,1.4,2.5,1.4,4.4v11.2c0,.3,0,.5.3.7.2.2.4.3.7.3h2c.3,0,.5,0,.7-.3.2-.2.3-.4.3-.7v-11.4c0-1.8-.3-3.4-1-4.8-.6-1.4-1.6-2.4-2.8-3.2Z"/>
        <path class="cls-11" d="M125.7,369.7c-.6-.7-1.5-1.3-2.6-1.7-1.1-.4-2.5-.6-4.1-.6s-2.7.2-3.7.6c-1,.4-1.8.9-2.5,1.4-.6.6-1.1,1.1-1.4,1.7-.3.6-.5,1.1-.5,1.5s0,.5.2.6c.1.2.4.3.7.3h1.8c.4,0,.7-.2.9-.6.3-.8.8-1.4,1.6-1.9s1.7-.7,2.9-.7,2.9.4,3.6,1.1c.7.7,1.1,1.7,1.1,3v1.2l-6,.9c-2.4.4-4.4,1.1-5.9,2.2-1.5,1.1-2.3,2.6-2.3,4.5s.3,2.2,1,3.1c.7.9,1.6,1.6,2.7,2.2,1.1.5,2.3.8,3.7.8s2.4-.2,3.3-.5,1.6-.7,2.2-1.2c.6-.5,1.1-1,1.4-1.4v1.7c0,.3,0,.5.2.7.2.2.4.3.7.3h1.9c.3,0,.5,0,.7-.3.2-.2.3-.4.3-.7v-13.1c0-.9-.1-1.8-.4-2.7s-.7-1.7-1.4-2.4ZM123.7,379.6c0,1.5-.3,2.8-.8,3.8-.5,1-1.3,1.7-2.2,2.2-.9.5-1.9.7-3,.7s-1.4-.1-2.1-.4c-.7-.2-1.3-.6-1.7-1.1-.4-.5-.7-1.1-.7-1.9s.5-1.8,1.5-2.4c1-.6,2.4-1.1,4.3-1.4l4.7-.7v1.1Z"/>
        <path class="cls-11" d="M146.5,378.3c-1-.6-2.4-1.1-4.2-1.4-1.7-.4-2.9-.7-3.7-1.1-.8-.3-1.4-.7-1.7-1.1s-.4-.9-.4-1.4c0-.9.3-1.6,1-2.1.7-.6,1.7-.9,3-.9s1.7.1,2.3.3c.6.2,1.1.5,1.4.9.4.4.7.7,1,1.1.1.1.2.2.3.3.1,0,.3.1.5.1h1.7c.2,0,.5,0,.6-.3.2-.2.3-.4.2-.7,0-.4-.2-.8-.5-1.3-.3-.5-.8-1-1.5-1.6-.6-.5-1.5-1-2.5-1.3-1-.4-2.2-.5-3.6-.5s-3.2.3-4.3.9c-1.1.6-2,1.4-2.6,2.3s-.9,1.9-.9,2.9.2,1.8.6,2.6c.4.8,1.1,1.4,2,2,.9.6,2.2,1,3.9,1.4,1.6.4,2.9.7,3.8,1s1.6.7,1.9,1.1.5.9.5,1.6c0,1-.4,1.8-1.3,2.3s-2,.8-3.4.8-1.7-.1-2.4-.4c-.6-.2-1.2-.6-1.6-.9-.4-.4-.8-.8-1.2-1.1-.2-.2-.3-.3-.4-.3,0,0-.2,0-.3,0h-1.8c-.2,0-.4,0-.6.2-.2.2-.3.4-.3.7,0,.3.2.8.5,1.3.3.5.8,1.1,1.5,1.6.7.5,1.6,1,2.6,1.4,1.1.4,2.4.6,3.9.6s3.5-.3,4.8-.8c1.3-.6,2.3-1.3,2.9-2.3.6-.9,1-2,1-3.1s-.2-1.9-.6-2.7c-.4-.8-1.2-1.5-2.2-2.1Z"/>
        <path class="cls-11" d="M182.5,385.5h-14.1v-9.2h12.9c.3,0,.5,0,.7-.3.2-.2.2-.4.2-.7v-1.5c0-.3,0-.5-.2-.7-.2-.2-.4-.3-.7-.3h-12.9v-8.9h13.8c.3,0,.5,0,.7-.2s.2-.4.2-.7v-1.5c0-.3,0-.5-.2-.7-.2-.2-.4-.3-.7-.3h-16.8c-.3,0-.5,0-.7.3-.2.2-.2.4-.2.7v26.5c0,.3,0,.5.2.7.2.2.4.3.7.3h17.1c.3,0,.5,0,.7-.3.2-.2.2-.4.2-.7v-1.6c0-.3,0-.5-.2-.7-.2-.2-.4-.2-.7-.2Z"/>
        <path class="cls-11" d="M205.4,360.1h-1.9c-.3,0-.5,0-.7.3-.2.2-.3.4-.3.7v9.3c-.7-.8-1.5-1.5-2.6-2.1s-2.4-.9-4-.9-2.8.3-3.9.8c-1.1.5-2,1.3-2.7,2.2-.7.9-1.2,2-1.5,3.1-.3,1.2-.5,2.4-.6,3.7,0,.4,0,.8,0,1.2s0,.8,0,1.2c0,1.3.2,2.5.6,3.7.3,1.2.9,2.2,1.5,3.1.7.9,1.6,1.6,2.7,2.1,1.1.5,2.4.8,3.9.8s3-.3,4.1-.9,2-1.3,2.6-2.2v1.7c0,.3,0,.5.2.7.2.2.4.3.7.3h1.8c.3,0,.5,0,.7-.3.2-.2.3-.4.3-.7v-26.9c0-.3,0-.5-.3-.7-.2-.2-.4-.3-.7-.3ZM202.6,379.8c0,1-.2,2-.6,2.9-.4,1-1,1.8-1.8,2.4-.8.6-1.9.9-3.2.9s-2.5-.3-3.3-.9-1.4-1.4-1.7-2.4c-.4-1-.6-2-.6-3.2,0-.8,0-1.6,0-2.4,0-1.1.3-2.2.6-3.2.4-1,.9-1.8,1.7-2.4s1.9-.9,3.3-.9,2.4.3,3.2.9c.8.6,1.4,1.4,1.9,2.3.4.9.6,1.9.7,2.8,0,.4,0,1,0,1.6s0,1.1,0,1.6Z"/>
        <path class="cls-11" d="M229.6,360.1h-1.9c-.3,0-.5,0-.7.3-.2.2-.3.4-.3.7v9.3c-.7-.8-1.5-1.5-2.6-2.1s-2.4-.9-4-.9-2.8.3-3.9.8c-1.1.5-2,1.3-2.7,2.2-.7.9-1.2,2-1.5,3.1-.3,1.2-.5,2.4-.6,3.7,0,.4,0,.8,0,1.2s0,.8,0,1.2c0,1.3.2,2.5.6,3.7.3,1.2.9,2.2,1.5,3.1.7.9,1.6,1.6,2.7,2.1,1.1.5,2.4.8,3.9.8s3-.3,4.1-.9,2-1.3,2.6-2.2v1.7c0,.3,0,.5.2.7.2.2.4.3.7.3h1.8c.3,0,.5,0,.7-.3.2-.2.3-.4.3-.7v-26.9c0-.3,0-.5-.3-.7-.2-.2-.4-.3-.7-.3ZM226.7,379.8c0,1-.2,2-.6,2.9-.4,1-1,1.8-1.8,2.4-.8.6-1.9.9-3.2.9s-2.5-.3-3.3-.9-1.4-1.4-1.7-2.4c-.4-1-.6-2-.6-3.2,0-.8,0-1.6,0-2.4,0-1.1.3-2.2.6-3.2.4-1,.9-1.8,1.7-2.4s1.9-.9,3.3-.9,2.4.3,3.2.9c.8.6,1.4,1.4,1.9,2.3.4.9.6,1.9.7,2.8,0,.4,0,1,0,1.6s0,1.1,0,1.6Z"/>
        <path class="cls-11" d="M251.3,369.7c-.6-.7-1.5-1.3-2.6-1.7-1.1-.4-2.5-.6-4.1-.6s-2.7.2-3.7.6c-1,.4-1.8.9-2.5,1.4-.6.6-1.1,1.1-1.4,1.7-.3.6-.5,1.1-.5,1.5s0,.5.2.6c.1.2.4.3.7.3h1.8c.4,0,.7-.2.9-.6.3-.8.8-1.4,1.6-1.9s1.7-.7,2.9-.7,2.9.4,3.6,1.1c.7.7,1.1,1.7,1.1,3v1.2l-6,.9c-2.4.4-4.4,1.1-5.9,2.2-1.5,1.1-2.3,2.6-2.3,4.5s.3,2.2,1,3.1c.7.9,1.6,1.6,2.7,2.2s2.3.8,3.7.8,2.4-.2,3.3-.5,1.6-.7,2.2-1.2c.6-.5,1.1-1,1.4-1.4v1.7c0,.3,0,.5.2.7.2.2.4.3.7.3h1.9c.3,0,.5,0,.7-.3.2-.2.3-.4.3-.7v-13.1c0-.9-.1-1.8-.4-2.7-.3-.9-.7-1.7-1.4-2.4ZM249.3,379.6c0,1.5-.3,2.8-.8,3.8-.5,1-1.3,1.7-2.2,2.2-.9.5-1.9.7-3,.7s-1.4-.1-2.1-.4c-.7-.2-1.3-.6-1.7-1.1-.4-.5-.7-1.1-.7-1.9s.5-1.8,1.5-2.4c1-.6,2.4-1.1,4.3-1.4l4.7-.7v1.1Z"/>
        <path class="cls-11" d="M274,368.6c-1.2-.8-2.7-1.2-4.5-1.2s-3,.3-4.1.9c-1.1.6-2,1.3-2.7,2.3v-1.8c0-.3,0-.5-.3-.7-.2-.2-.4-.3-.7-.3h-1.9c-.3,0-.5,0-.7.3-.2.2-.3.4-.3.7v19.2c0,.3,0,.5.3.7.2.2.4.3.7.3h2c.3,0,.5,0,.7-.3.2-.2.3-.4.3-.7v-11.2c0-1.9.5-3.4,1.5-4.4,1-1.1,2.4-1.6,4-1.6s3.1.5,4.1,1.6c.9,1.1,1.4,2.5,1.4,4.4v11.2c0,.3,0,.5.3.7.2.2.4.3.7.3h2c.3,0,.5,0,.7-.3.2-.2.3-.4.3-.7v-11.4c0-1.8-.3-3.4-1-4.8-.6-1.4-1.6-2.4-2.8-3.2Z"/>
        <path class="cls-11" d="M294.7,358.9h-2.4c-1.7,0-3.1.3-4.1.9-1,.6-1.8,1.4-2.2,2.4-.5,1-.7,2.3-.7,3.6v2h-3.4c-.3,0-.5,0-.7.3-.2.2-.3.4-.3.7v1.4c0,.3,0,.5.3.7.2.2.4.3.7.3h3.4v16.9c0,.3,0,.5.3.7.2.2.4.3.7.3h1.9c.3,0,.5,0,.7-.3.2-.2.3-.4.3-.7v-16.9h5.2c.3,0,.5,0,.7-.3.2-.2.3-.4.3-.7v-1.4c0-.3,0-.5-.3-.7-.2-.2-.4-.3-.7-.3h-5.2v-1.8c0-1.2.2-2.2.7-2.9.5-.7,1.3-1,2.6-1h2.4c.3,0,.5,0,.7-.3s.3-.4.3-.7v-1.4c0-.3,0-.5-.3-.7-.2-.2-.4-.3-.7-.3Z"/>
        <path class="cls-11" d="M315.4,371.8c-.7-1.4-1.8-2.5-3.2-3.2-1.4-.8-3.1-1.2-5.1-1.2s-3.7.4-5.1,1.2c-1.4.8-2.4,1.9-3.2,3.2-.7,1.4-1.2,3-1.2,4.8,0,.4,0,1,0,1.7s0,1.3,0,1.8c0,1.8.5,3.4,1.2,4.8.7,1.4,1.8,2.5,3.2,3.3,1.4.8,3.1,1.2,5.2,1.2s3.8-.4,5.2-1.2c1.4-.8,2.4-1.9,3.2-3.3.7-1.4,1.1-3,1.2-4.8,0-.5,0-1,0-1.8s0-1.3,0-1.7c0-1.8-.5-3.4-1.2-4.8ZM312.7,379.9c0,2.1-.6,3.6-1.6,4.7-1,1.1-2.3,1.6-4,1.6s-3-.5-4-1.6c-1-1.1-1.5-2.6-1.6-4.7,0-.4,0-.9,0-1.5s0-1.1,0-1.5c0-2.1.6-3.6,1.6-4.7,1-1.1,2.4-1.6,4-1.6s3,.5,4,1.6c1,1.1,1.5,2.6,1.6,4.7,0,.4,0,.9,0,1.5s0,1.1,0,1.5Z"/>
        <path class="cls-11" d="M333.4,368.1c-.2-.2-.4-.3-.7-.3h-1.6c-1.4,0-2.5.2-3.4.7-.9.5-1.7,1.2-2.2,2.1v-1.8c0-.3,0-.5-.3-.7-.2-.2-.4-.3-.7-.3h-1.9c-.3,0-.5,0-.7.3-.2.2-.3.4-.3.7v19.2c0,.3,0,.5.3.7.2.2.4.3.7.3h2c.3,0,.5,0,.7-.3.2-.2.3-.4.3-.7v-11.9c0-1.5.4-2.6,1.3-3.5s2-1.3,3.4-1.3h2.4c.3,0,.5,0,.7-.2s.3-.4.3-.6v-1.7c0-.3,0-.5-.3-.7Z"/>
      </g>
    </g>
    <g>
      <path class="cls-11" d="M433.3,375.1c-.1-.6-.3-1-.5-1.1-.2-.1-.5-.2-.8,0l-1.5.4c-.4.1-.6.3-.7.5,0,.2,0,.6,0,1.1.4,1.4.7,2.6,1,3.8.3,1.2.4,2.5.4,3.8s-.2,3.4-.7,4.8c-.5,1.4-1.3,2.5-2.4,3.2-1.1.8-2.6,1.2-4.4,1.2h-1.6c-.3,0-.6,0-.8.2-.2.1-.3.4-.3.7v1.7c0,.3,0,.6.2.8.1.2.4.3.7.3h2.1c2.4,0,4.4-.6,6-1.7,1.6-1.1,2.7-2.6,3.4-4.5.7-1.9,1.1-4,1.1-6.3s-.1-2.8-.4-4.4c-.3-1.6-.6-3.1-1-4.6Z"/>
      <path class="cls-11" d="M478.6,365.1c.2.1.3.2.5.2.2,0,.4,0,.5-.2l1.5-1.5c.4-.4.3-.7,0-1.1l-1.5-1.5c-.1-.2-.3-.2-.5-.2s-.3,0-.5.2l-1.5,1.5c-.1.1-.2.3-.2.5s0,.4.2.5l1.5,1.5Z"/>
      <path class="cls-11" d="M497.3,375.6l-.8-3.6c-.1-.6-.5-.9-1.1-.7l-1.5.3c-.3,0-.5.2-.6.3-.1.1-.2.4,0,.7l.7,3.1c.1.5.2.9.3,1.4,0,.4,0,.9,0,1.4,0,1.4-.3,2.5-.8,3.2-.6.7-1.5,1.1-2.8,1.1h-.5s0,0,0,0c0,0,0,0,0,0-1.2,0-2.3,0-3.1,0-.8,0-1.5,0-2.2-.1-.7,0-1.4-.2-2.3-.3,1.2-.9,2-1.9,2.6-2.8.6-1,.9-2.1.9-3.3s-.3-2.5-.9-3.5c-.6-1-1.4-1.8-2.5-2.4-1-.6-2.2-.9-3.4-.9s-2.5.3-3.6.9c-1.1.6-2,1.4-2.7,2.5s-1,2.3-1,3.7c0,.9.2,1.8.5,2.5.3.7.8,1.4,1.3,1.9.5.6,1,1,1.6,1.4-.5.1-1,.2-1.6.3-.6,0-1.4.2-2.2.2-.9,0-1.8,0-3,0h-14.4c0-3.3-.7-5.7-1.8-7.4-1.2-1.6-2.9-2.5-5.3-2.5s-2,.2-2.9.6c-.9.4-1.6.9-2.2,1.5-.6.6-1,1.4-1.4,2.2-.3.8-.5,1.7-.5,2.7,0,1.4.3,2.6,1,3.5.6,1,1.6,1.7,2.8,2.2,1.2.5,2.6.8,4.3.8h2.9c-.4,2.1-1.4,3.7-2.9,4.7-1.5,1.1-3.6,1.6-6.3,1.6h-2.4c-.4,0-.7,0-.9.2-.2.1-.3.4-.3.7v1.8c0,.4.1.7.4.8.2.2.6.3,1.1.3h1.8c3.5,0,6.2-.8,8.3-2.3,2.1-1.6,3.4-4.1,4.2-7.6h3c0,0,0,0,.1,0,0,0,.1,0,.2,0h10.9s0,0,0,0c0,0,0,0,0,0,1.6,0,2.9,0,3.9-.1s2-.2,2.7-.3c.8-.1,1.4-.3,2.1-.6.6-.2,1.3-.5,2-.9.8.4,1.6.7,2.3.9.7.2,1.4.4,2.2.5.8.1,1.7.2,2.7.3s2.3.1,3.7.1,0,0,0,0c0,0,0,0,0,0h1.7c2.1,0,3.7-.7,4.8-2.1,1.1-1.4,1.6-3.2,1.6-5.5s0-.9-.1-1.6c0-.7-.2-1.3-.3-1.9ZM447.8,382.8c-1.7,0-2.9-.3-3.8-.8-.9-.5-1.4-1.3-1.4-2.5s.1-1,.4-1.5c.3-.5.7-.9,1.2-1.3.5-.4,1.3-.5,2.1-.5,1.5,0,2.6.6,3.4,1.7.7,1.1,1.1,2.8,1.2,4.9h-3.1ZM479,381.1c-1.1-.7-2.1-1.4-2.8-2.1-.7-.7-1.1-1.7-1.1-2.8s.4-2,1.2-2.6c.8-.6,1.7-.9,2.7-.9s2.1.3,2.8,1c.7.7,1,1.5,1,2.7s-.3,1.7-1,2.5c-.6.8-1.6,1.6-2.8,2.3Z"/>
      <path class="cls-11" d="M493.9,367.8c.2.1.3.2.5.2.2,0,.4,0,.5-.2l1.5-1.5c.4-.4.3-.7,0-1.1l-1.5-1.5c-.1-.2-.3-.2-.5-.2s-.3,0-.5.2l-1.5,1.5c-.1.1-.2.3-.2.5s0,.4.2.5l1.5,1.5Z"/>
      <path class="cls-11" d="M532.1,356.1h-1.5c-.3,0-.5,0-.7.3-.2.2-.3.4-.3.7v20.6c0,1.4-.1,2.4-.4,3.1-.3.7-.8,1.2-1.4,1.5-.6.3-1.4.4-2.4.4s0,0,0,0,0,0,0,0c-.9,0-1.6-.1-2.1-.4-.6-.2-1.1-.7-1.5-1.4-.4-.7-.9-1.7-1.4-3.1l-3.7-10c-.1-.3-.3-.5-.5-.6-.2,0-.5,0-.9.1l-1.5.6c-.3.1-.5.3-.5.6s0,.6.1.9l3,8c.2.5.3,1,.4,1.4.1.4.2.8.2,1.1,0,1.1-.4,1.9-1.2,2.3-.8.4-1.9.6-3.4.6h-3.9c-.7,0-1.2-.2-1.6-.5-.4-.4-.5-.8-.5-1.4v-1.2c0-.3,0-.6-.2-.7-.1-.2-.4-.2-.7-.2h-1.4c-.4,0-.6,0-.8.3-.1.2-.2.4-.2.8v1.2c0,1.8.5,3.2,1.4,4.2.9,1,2.3,1.6,4.1,1.6h3.4c1.9,0,3.4-.4,4.5-1.1,1.1-.7,1.9-1.7,2.3-2.9.8,1.5,1.8,2.6,2.9,3.1,1.1.5,2.2.8,3.2.8s0,0,0,0,0,0,0,0c1.4,0,2.7-.2,3.7-.5,1-.3,1.9-.9,2.5-1.6.7-.7,1.1-1.7,1.5-2.9.3-1.2.5-2.6.5-4.2v-20.3c0-.3,0-.5-.2-.7-.2-.2-.4-.3-.7-.3Z"/>
      <path class="cls-11" d="M543.6,356.1h-1.5c-.3,0-.5,0-.7.3s-.3.4-.3.7v28.8c0,.3,0,.5.3.7s.4.3.7.3h1.5c.3,0,.5,0,.7-.3s.2-.4.2-.7v-28.8c0-.3,0-.5-.2-.7s-.4-.3-.7-.3Z"/>
      <path class="cls-11" d="M681.4,367.8c.2.1.3.2.5.2.2,0,.4,0,.5-.2l1.5-1.5c.4-.4.3-.7,0-1.1l-1.5-1.5c-.1-.2-.3-.2-.5-.2s-.3,0-.5.2l-1.5,1.5c-.1.1-.2.3-.2.5s0,.4.2.5l1.5,1.5Z"/>
      <path class="cls-11" d="M684.9,375.6l-.8-3.6c-.1-.6-.5-.9-1.1-.7l-1.5.3c-.3,0-.5.2-.6.3-.1.1-.2.4,0,.7l.7,3.1c.1.5.2.9.3,1.4,0,.4,0,.9,0,1.4,0,1.4-.3,2.5-.8,3.2-.6.7-1.5,1.1-2.8,1.1h-68.5c-1.7,0-3-.3-3.7-.9-.7-.6-1.1-1.6-1.1-3.1v-3.5c0-.3,0-.5-.2-.7-.1-.2-.4-.3-.6-.3h-1.7c-.3,0-.5,0-.6.3-.1.2-.2.4-.2.7v3.5c0,1.4-.3,2.4-.8,3.1-.5.7-1.5,1.1-2.9,1.1s-2.4-.3-2.9-1c-.6-.6-.9-1.7-.9-3.1v-3.2c0-.3,0-.5-.2-.7-.1-.2-.4-.3-.7-.3h-1.6c-.3,0-.5,0-.6.3-.2.2-.2.4-.2.7v3.2c0,1.4-.3,2.4-.8,3.1-.5.7-1.5,1-2.9,1s-2.1-.2-2.7-.6c-.6-.4-1.1-1.1-1.3-2-.1-.5-.2-1.1-.4-1.7-.2-.6-.3-1.3-.5-2,0-.3-.2-.5-.3-.7-.2-.2-.4-.2-.7-.2l-1.7.3c-.3,0-.5.2-.6.4-.1.2-.1.5,0,.8.3,1.2.6,2.3.8,3.4.2,1.1.3,2,.3,2.6,0,2.7-.7,4.8-2.1,6.2-1.4,1.4-3.4,2.1-6.1,2.1s-4.4-.6-5.7-1.9c-1.3-1.3-1.9-3.1-1.9-5.4s0-1.6.2-2.4c.1-.8.4-1.6.7-2.4.1-.3.1-.5,0-.7,0-.2-.3-.3-.7-.4l-1.3-.4c-.3,0-.5,0-.7,0-.2.1-.4.3-.5.7-.4,1.1-.7,2.2-1,3.2-.2,1-.3,2-.3,2.9,0,2.1.4,3.9,1.3,5.5.8,1.6,2.1,2.8,3.7,3.7,1.6.9,3.6,1.3,5.9,1.3s2.6-.2,3.9-.6c1.3-.4,2.4-1,3.5-1.8,1.1-.8,1.9-1.9,2.7-3.2.7-1.3,1.2-2.9,1.3-4.7.5.6,1,1.1,1.7,1.4.6.3,1.5.4,2.5.4s1.6-.1,2.3-.3c.7-.2,1.2-.5,1.7-1,.5-.4.8-.9,1-1.5.5,1,1.3,1.7,2.3,2.1s2.1.7,3.5.7,2.2-.2,3.1-.7c.9-.4,1.6-1.1,1.9-2.1.6.9,1.5,1.6,2.7,2,1.1.4,2.5.6,4.3.6s0,0,.1,0c0,0,.1,0,.2,0h10.9c0,0,.1,0,.2,0,0,0,0,0,.1,0h10.9c0,0,.1,0,.2,0,0,0,0,0,.1,0h10.9c0,0,.1,0,.2,0,0,0,0,0,.1,0h10.9c0,0,.1,0,.2,0,0,0,0,0,.1,0h10.9c0,0,.1,0,.2,0,0,0,0,0,.1,0h10.9s0,0,0,0c0,0,0,0,0,0h1.7c2.1,0,3.7-.7,4.8-2.1,1.1-1.4,1.6-3.2,1.6-5.5s0-.9-.1-1.6c0-.7-.2-1.3-.3-1.9Z"/>
      <path class="cls-11" d="M698.1,356c-.1,0-.3-.1-.6,0l-1.3.3c-1,.2-1.8.2-2.4,0-.6-.3-.9-.7-.9-1.3s.2-.7.5-1c.3-.2.8-.4,1.3-.4s.7,0,1,.1c.4,0,.7.2,1,.3.3.1.4,0,.4-.3v-1c0-.3-.2-.5-.5-.7-.2-.1-.5-.2-.8-.3-.3,0-.7-.1-1-.1-1.1,0-2.1.3-2.8,1-.7.7-1.1,1.5-1.1,2.6s0,.8.3,1.2c.2.4.4.6.7.9l-1.2.3c-.2,0-.4.2-.5.3-.1.1-.2.3-.2.7v.7c0,.2,0,.4.2.5.1.1.3.1.5,0l7.1-1.8c.4-.1.5-.4.5-.8v-.8c0-.2,0-.4-.2-.5Z"/>
      <path class="cls-11" d="M695,361.1l-2,.6c-.2,0-.4.1-.5.2,0,.1-.1.3-.1.6v23.3c0,.3,0,.5.3.7s.4.3.7.3h1.5c.3,0,.5,0,.7-.3s.2-.4.2-.7v-24.1c0-.2,0-.4-.2-.5-.1-.1-.3-.1-.6,0Z"/>
    </g>
    <g>
      <circle class="cls-11" cx="377.4" cy="374.1" r="4.9"/>
      <circle class="cls-11" cx="358.6" cy="374.1" r="4.9"/>
      <circle class="cls-11" cx="396.2" cy="374.1" r="4.9"/>
    </g>
    <g>
      <g>
        <g>
          <g>
            <path class="cls-8" d="M544.1,138.3c4.3-15.1,8.6-18,22.3-23.8-13.7-5.8-18-8.6-22.3-23.8-4.3,15.1-8.3,18-22.7,23.8,14,5.8,18.7,8.6,22.7,23.8Z"/>
            <path class="cls-5" d="M555.3,157.9c-9,0-12.9,5.4-14,13.7-9,1.1-13.3,7.6-13.7,16.2,1.1-.7,2.9-1.4,4.3-1.4,4.3,0,4.7,4.3,4.7,7.9v20h-13.2l5.9,24.5h31.3v-70.1c0-4,2.2-6.1,5.8-6.1l1.4.4c-3.6-2.9-7.9-5.1-12.6-5.1Z"/>
          </g>
          <g>
            <path class="cls-15" d="M65.6,282.1c5.5-1.8,9.8-7.1,12.8-15.9-1.2-6.4-1.8-13.3-1.8-20.5,0-22.3,6-37.5,18.2-45.6.4-.3.8-.6,1.3-.8-.4,0-.7-.2-1-.3-3.5-.9-6.8-1.5-9.1-1.5-4,0-7.9,2.9-11.1,8.3h-3.6c-8.3,0-14,1.4-17.6,4.3-4,3.2-6.5,8.6-7.6,15.8,3.6-1.1,6.8-1.4,9.4-1.4,6.5,0,9,5.4,9,16.5v27c0,4.9.4,9.6,1.3,14.1Z"/>
            <path class="cls-17" d="M273.7,78.7h9.7s14.7,24.1,14.7,24.1v-51.8h7.2c-4.3-3.3-8.6-4.7-12.9-4.7s-9,1.9-11.3,5.7c-.1.2-.3.5-.4.7-.7,1.4-1.3,3-1.7,4.9-.1.6-.2,1.3-.3,2-8.6,1.1-13.3,6.8-13.7,16.2,1.4-.7,2.9-1.4,4-1.4,2.7,0,4.2,1.4,4.8,4.3Z"/>
            <path class="cls-7" d="M64.5,286.6l1.9-.6h0c-.6.2-1.2.3-1.8.4,0,0,0,.1-.1.2Z"/>
            <path class="cls-12" d="M478.6,214.3h-104.5V46.6c0-2.9,1.2-4.8,3.3-5.6.8-.3,1.7-.5,2.8-.5h.4c0,.1.7.4.7.4-.3-.3-.7-.5-1-.8-.9-.7-1.9-1.4-2.9-1.9-1.3-.7-2.6-1.3-3.9-1.7-.4-.1-.7-.2-1.1-.3-1.2-.3-2.5-.4-3.7-.4s-1.7,0-2.5.2c-.4,0-.7.1-1.1.2-1,.2-2,.5-2.8,1-4.1,2-6.6,6.1-7.6,12.3-8.6,1.1-13,6.5-13.7,16.2,1.8-1.1,3.3-1.4,4.3-1.4,3.2,0,5,2.5,5,7.9v142.2h-52.2v-35l-19.1-32.8-5-8.6v76.4l-7.6.2h-2.1v25.5h8.3s32.6-.2,32.6-.2l28.2-.2h4.5s27.2-.2,27.2-.2h2.9s4.4,0,4.4,0h5s44.4-.3,44.4-.3h7.9c0,0,0,0,0,0h4s0,0,0,0h15.6c0,0,28.7-.3,28.7-.3h1.8s4.3,0,4.3,0l-5.7-24.5Z"/>
            <path class="cls-6" d="M214.9,215.8h-3.8c0,0-1.7.1-1.7.1V69.1c0-4,1.8-5.8,5.8-5.8h1.1c-4-3.6-8.3-5.4-12.6-5.4-7.9,0-12.6,5-14,13.7-4.1.7-7.3,2.3-9.6,4.9-1.2,1.4-2.2,3-2.8,4.9-.7,1.9-1.1,4-1.3,6.5,1-.4,1.9-.7,2.7-.9.6-.2,1.2-.2,1.7-.2,1,0,1.8.2,2.5.7,1.5,1.1,2.2,3.3,2.2,6.8v164.4c0,10.2-3.1,19.7-8.3,27.7-.4.6-.8,1.2-1.2,1.8-1,1.4-2,2.7-3.1,3.9-10.1,11.7-25.2,19.1-41.4,19.1s-33.5-7.3-42.1-19.1h-20.6c9,26.3,32.8,43.6,63.4,43.6s57.9-17.9,68.7-43.6c.5-1.3,1.1-2.6,1.5-3.9.8-2.3,1.6-4.6,2.3-7,.4-1.4.8-2.7,1.1-4.1.5-1.8.9-3.5,1.2-5.3,2-10,2.9-20.6,2.9-31.5l39.7-.2v-25.2l-19,.5-15.3.4Z"/>
          </g>
          <g>
            <path class="cls-2" d="M635.3,79.7l4.4.3c-1.4-.2-2.9-.2-4.4-.3Z"/>
            <path class="cls-14" d="M671.3,176c-1.1-.6-2.2-1.1-3.3-1.7,1.1.6,2.2,1.1,3.3,1.7h0Z"/>
            <path class="cls-10" d="M657.8,129.6l-14,13.3-3.6-3.2v-40c0-3.6.9-5.9,2.6-6.9.7-.4,1.5-.6,2.4-.6h0c-2.4-.5-5-.9-7.8-1.1-1.2-.1-2.4-.2-4-.2-6.6,0-12.3.9-17.1,2.7v52.5s1.3,1.2,1.3,1.2c2,1.2,4.1,2.3,6.5,3.5,6.5,3.2,13.7,6.2,21.3,9.3,9.3,3.8,18.8,7.7,27.8,12.4l-15.4-15.6,13.7-14-13.7-13.3Z"/>
            <path class="cls-16" d="M658.1,48.6l-4.7-9.7h-16.5c-3.3,0-6.1-1.1-8.3-3.3-2.9-2.2-4-4.7-4-8.3,0-6.1,5.8-10.8,11.9-10.8s6.1,1.4,9.7,4.3c.7-1.4.7-2.5.7-3.3,0-2.2-1.4-3.6-3.2-5,1.4-1.4,1.8-2.9,1.8-4.7s-1.1-5-4-7.9c-.4,2.9-1.4,4.7-2.5,5.4-1.1.7-3.6,1.4-7.2,2.2-9.7,1.8-17.6,9.7-17.6,19.4s1.8,9.4,5.8,13c-6.5,2.5-9.7,6.8-10.1,13,2.9-2.9,6.5-4.3,11.2-4.3h37.1Z"/>
            <path class="cls-4" d="M616.4,74.5v2.8c5.4-1.1,11.1-1.6,17.1-1.6s1.4,0,2.1,0c-1.4-8-6-12.4-13.8-12.4s-8.3,1.8-12.2,5.4h1.4c3.6,0,5.4,1.8,5.4,5.8Z"/>
            <path class="cls-3" d="M612.4,281.9l3.1.6c-1.1-.2-2.1-.5-3.1-.7h0Z"/>
            <path class="cls-9" d="M658.9,209.1c-1.8-1.1-3.7-2.2-5.8-3.2-6.6-3.4-13.9-6.3-21.6-9.4-9.4-3.8-19.2-7.7-28-12.7h-.1c0,.1,25.6,25,25.6,25l-12.6,12.2v57.6c3.5.7,7.1,1.1,10.9,1.2.7,0,1.4,0,2.1,0,6.9,0,12.9-.8,18.2-2.3-4.9-2.1-7.4-5.7-7.4-10.5v-39.6l3.6-3.2,14,13.7,14-13.7-14-14,1.2-1.2Z"/>
            <path class="cls-13" d="M613.1,90.7c.2,0,.4-.2.6-.3l-1.3.5h0c.2,0,.5-.1.7-.2Z"/>
          </g>
        </g>
        <g>
          <g>
            <path class="cls-11" d="M544.1,138.3c4.3-15.1,8.6-18,22.3-23.8-13.7-5.8-18-8.6-22.3-23.8-4.3,15.1-8.3,18-22.7,23.8,14,5.8,18.7,8.6,22.7,23.8Z"/>
            <path class="cls-11" d="M555.3,157.9c-9,0-12.9,5.4-14,13.7-9,1.1-13.3,7.6-13.7,16.2,1.1-.7,2.9-1.4,4.3-1.4,4.3,0,4.7,4.3,4.7,7.9v20h-13.2l5.9,24.5h31.3v-70.1c0-4,2.2-6.1,5.8-6.1l1.4.4c-3.6-2.9-7.9-5.1-12.6-5.1Z"/>
          </g>
          <g>
            <path class="cls-11" d="M65.6,282.1c5.5-1.8,9.8-7.1,12.8-15.9-1.2-6.4-1.8-13.3-1.8-20.5,0-22.3,6-37.5,18.2-45.6.4-.3.8-.6,1.3-.8-.4,0-.7-.2-1-.3-3.5-.9-6.8-1.5-9.1-1.5-4,0-7.9,2.9-11.1,8.3h-3.6c-8.3,0-14,1.4-17.6,4.3-4,3.2-6.5,8.6-7.6,15.8,3.6-1.1,6.8-1.4,9.4-1.4,6.5,0,9,5.4,9,16.5v27c0,4.9.4,9.6,1.3,14.1Z"/>
            <path class="cls-11" d="M273.7,78.7h9.7s14.7,24.1,14.7,24.1v-51.8h7.2c-4.3-3.3-8.6-4.7-12.9-4.7s-9,1.9-11.3,5.7c-.1.2-.3.5-.4.7-.7,1.4-1.3,3-1.7,4.9-.1.6-.2,1.3-.3,2-8.6,1.1-13.3,6.8-13.7,16.2,1.4-.7,2.9-1.4,4-1.4,2.7,0,4.2,1.4,4.8,4.3Z"/>
            <path class="cls-11" d="M64.5,286.6l1.9-.6h0c-.6.2-1.2.3-1.8.4,0,0,0,.1-.1.2Z"/>
            <path class="cls-11" d="M478.6,214.3h-104.5V46.6c0-2.9,1.2-4.8,3.3-5.6.8-.3,1.7-.5,2.8-.5h.4c0,.1.7.4.7.4-.3-.3-.7-.5-1-.8-.9-.7-1.9-1.4-2.9-1.9-1.3-.7-2.6-1.3-3.9-1.7-.4-.1-.7-.2-1.1-.3-1.2-.3-2.5-.4-3.7-.4s-1.7,0-2.5.2c-.4,0-.7.1-1.1.2-1,.2-2,.5-2.8,1-4.1,2-6.6,6.1-7.6,12.3-8.6,1.1-13,6.5-13.7,16.2,1.8-1.1,3.3-1.4,4.3-1.4,3.2,0,5,2.5,5,7.9v142.2h-52.2v-35l-19.1-32.8-5-8.6v76.4l-7.6.2h-2.1v25.5h8.3s32.6-.2,32.6-.2l28.2-.2h4.5s27.2-.2,27.2-.2h2.9s4.4,0,4.4,0h5s44.4-.3,44.4-.3h7.9c0,0,0,0,0,0h4s0,0,0,0h15.6c0,0,28.7-.3,28.7-.3h1.8s4.3,0,4.3,0l-5.7-24.5Z"/>
            <path class="cls-11" d="M214.9,215.8h-3.8c0,0-1.7.1-1.7.1V69.1c0-4,1.8-5.8,5.8-5.8h1.1c-4-3.6-8.3-5.4-12.6-5.4-7.9,0-12.6,5-14,13.7-4.1.7-7.3,2.3-9.6,4.9-1.2,1.4-2.2,3-2.8,4.9-.7,1.9-1.1,4-1.3,6.5,1-.4,1.9-.7,2.7-.9.6-.2,1.2-.2,1.7-.2,1,0,1.8.2,2.5.7,1.5,1.1,2.2,3.3,2.2,6.8v164.4c0,10.2-3.1,19.7-8.3,27.7-.4.6-.8,1.2-1.2,1.8-1,1.4-2,2.7-3.1,3.9-10.1,11.7-25.2,19.1-41.4,19.1s-33.5-7.3-42.1-19.1h-20.6c9,26.3,32.8,43.6,63.4,43.6s57.9-17.9,68.7-43.6c.5-1.3,1.1-2.6,1.5-3.9.8-2.3,1.6-4.6,2.3-7,.4-1.4.8-2.7,1.1-4.1.5-1.8.9-3.5,1.2-5.3,2-10,2.9-20.6,2.9-31.5l39.7-.2v-25.2l-19,.5-15.3.4Z"/>
          </g>
          <g>
            <path class="cls-11" d="M635.3,79.7l4.4.3c-1.4-.2-2.9-.2-4.4-.3Z"/>
            <path class="cls-11" d="M671.3,176c-1.1-.6-2.2-1.1-3.3-1.7,1.1.6,2.2,1.1,3.3,1.7h0Z"/>
            <path class="cls-11" d="M657.8,129.6l-14,13.3-3.6-3.2v-40c0-3.6.9-5.9,2.6-6.9.7-.4,1.5-.6,2.4-.6h0c-2.4-.5-5-.9-7.8-1.1-1.2-.1-2.4-.2-4-.2-6.6,0-12.3.9-17.1,2.7v52.5s1.3,1.2,1.3,1.2c2,1.2,4.1,2.3,6.5,3.5,6.5,3.2,13.7,6.2,21.3,9.3,9.3,3.8,18.8,7.7,27.8,12.4l-15.4-15.6,13.7-14-13.7-13.3Z"/>
            <path class="cls-11" d="M658.1,48.6l-4.7-9.7h-16.5c-3.3,0-6.1-1.1-8.3-3.3-2.9-2.2-4-4.7-4-8.3,0-6.1,5.8-10.8,11.9-10.8s6.1,1.4,9.7,4.3c.7-1.4.7-2.5.7-3.3,0-2.2-1.4-3.6-3.2-5,1.4-1.4,1.8-2.9,1.8-4.7s-1.1-5-4-7.9c-.4,2.9-1.4,4.7-2.5,5.4-1.1.7-3.6,1.4-7.2,2.2-9.7,1.8-17.6,9.7-17.6,19.4s1.8,9.4,5.8,13c-6.5,2.5-9.7,6.8-10.1,13,2.9-2.9,6.5-4.3,11.2-4.3h37.1Z"/>
            <path class="cls-11" d="M616.4,74.5v2.8c5.4-1.1,11.1-1.6,17.1-1.6s1.4,0,2.1,0c-1.4-8-6-12.4-13.8-12.4s-8.3,1.8-12.2,5.4h1.4c3.6,0,5.4,1.8,5.4,5.8Z"/>
            <path class="cls-11" d="M612.4,281.9l3.1.6c-1.1-.2-2.1-.5-3.1-.7h0Z"/>
            <path class="cls-11" d="M658.9,209.1c-1.8-1.1-3.7-2.2-5.8-3.2-6.6-3.4-13.9-6.3-21.6-9.4-9.4-3.8-19.2-7.7-28-12.7h-.1c0,.1,25.6,25,25.6,25l-12.6,12.2v57.6c3.5.7,7.1,1.1,10.9,1.2.7,0,1.4,0,2.1,0,6.9,0,12.9-.8,18.2-2.3-4.9-2.1-7.4-5.7-7.4-10.5v-39.6l3.6-3.2,14,13.7,14-13.7-14-14,1.2-1.2Z"/>
            <path class="cls-11" d="M613.1,90.7c.2,0,.4-.2.6-.3l-1.3.5h0c.2,0,.5-.1.7-.2Z"/>
          </g>
        </g>
      </g>
      <g>
        <path class="cls-11" d="M178.6,180.1l-1.4-5.6-8.2-33.7-7.7-31.5c-4.1-16.7,0-25.3,8.5-25.3v-1.5h-60.5v1.5c11.5,0,15.6,8.5,11.5,25.3l-21.2,87-1.5,6.3h0l-.7,3-13.6,55.9c-.4,1.6-.9,3.3-1.4,5h0s-.3,1-.3,1c-.2.6-.4,1.2-.7,1.8-.2.5-.4,1-.6,1.5,0,.2-.2.5-.3.7-.2.5-.4.9-.6,1.4-.4.8-.7,1.5-1.2,2.3-.3.5-.6,1.1-1,1.6-.2.4-.5.8-.8,1.2-.3.4-.6.8-.9,1.2-.9,1.2-1.9,2.2-3,3.2-.3.2-.5.5-.8.6,0,0,0,0,0,0-.3.2-.6.5-.9.6,0,0-.2.2-.4.2-.3.2-.6.4-1,.6-.4.2-.7.4-1.1.6-.5.3-1.1.5-1.7.7-.3,0-.5.2-.8.3-.5.2-1,.3-1.6.4-1.2.3-2.6.4-4,.4v1.5h42v-1.5c-5.6,0-9-2.2-10.8-5.7-.3-.5-.5-1.1-.7-1.6,0-.1,0-.3-.1-.4-.2-.5-.3-1.1-.5-1.7,0-.2,0-.3-.1-.5-.1-.7-.2-1.4-.3-2.1,0-.4,0-.8,0-1.2,0-.4,0-.7,0-1.1,0-.5,0-1.1,0-1.6,0-.2,0-.4,0-.6,0-.6,0-1.3.2-1.9,0,0,0-.2,0-.3.3-2.2.7-4.5,1.2-6.7l2.8-11.7,1.6-6.8h0l4.9-20.3h55.2l4.2,17.3,5.2,21.5c2.6,11.5.9,25.3-11.2,25.3v1.5h15.9c.6-.8,1.2-1.5,1.7-2.3.3-.4.6-.8.9-1.2l.3-.5c5-7.6,7.6-16.5,7.6-25.5v-68.6l-2.4-10ZM108,211.5l20.8-85.6,20.8,85.6h-41.6Z"/>
        <g>
          <path class="cls-11" d="M346.4,189.6l-44.4-72.9-3.9-6.4-16.9-27.7h-45.2v1.5c13.8,0,17,8.5,17,25.3v152.2c0,16.7-3.2,25.3-17,25.3v1.5h41.4v-1.5c-13.8,0-17-8.5-17-25.3V106.8l7.9,13.5.3.5,1.5,2.6,3.9,6.7,6.7,11.4,17.5,30,3.9,6.7,18.7,32.2h25.6v-20.7Z"/>
          <polygon class="cls-11" points="368 243.4 366.2 243.4 365 243.4 340.1 243.5 366.1 288.2 373.5 288.2 373.5 243.3 368 243.4"/>
        </g>
        <g>
          <path class="cls-11" d="M424.3,261.5l2.8-11.7,1.6-6.8h-7.9s-4.5,18.5-4.5,18.5c-2.9,12-9.1,25.3-22.9,25.3v1.5h42v-1.5c-13.8,0-14.1-13.2-11.2-25.3Z"/>
          <path class="cls-11" d="M530.9,261.5l-5.5-22.7-6-24.5-25.5-105c-4.1-16.7,0-25.3,8.5-25.3v-1.5h-60.5v1.5c11.5,0,15.6,8.5,11.5,25.3l-24.6,101.1h7.9l24.6-101.1,24.6,101.1,1,3.9.3,1.1,1.1,4.5v.5c.1,0,.7,2.4.7,2.4l3.9,16.1,5.5,22.7c2.6,11.5.9,25.3-11.2,25.3v1.5h66.7v-1.5c-12.3,0-20.3-13.8-22.9-25.3Z"/>
        </g>
        <path class="cls-11" d="M684.4,184c-2.1-1.5-4.2-2.9-6.4-4.3-2.2-1.3-4.3-2.5-6.6-3.7-1.1-.6-2.2-1.1-3.3-1.7-1.1-.5-2.2-1.1-3.4-1.6-1.1-.5-2.3-1.1-3.4-1.6l-3.4-1.5c-7.4-3.2-14.9-6.2-22-9.1-1.9-.8-3.7-1.6-5.5-2.4,0,0-.1,0-.2,0-1-.5-2-.9-3-1.3h0c-1.6-.8-3.3-1.5-4.8-2.3-2.5-1.3-4.7-2.4-6.7-3.6l-.4-.2h0c-1.2-.7-2.3-1.4-3.4-2.2-.4-.3-.9-.6-1.3-.9-.4-.3-.8-.6-1.3-.9,0,0,0,0-.1,0-.5-.4-1-.7-1.5-1.1-.3-.2-.5-.4-.8-.6-1.6-1.3-3-2.6-4.3-4.1-.2-.2-.4-.5-.6-.7-.9-1-1.7-2.1-2.4-3.1-.3-.4-.5-.7-.7-1.1-1.4-2.3-2.4-4.8-3.1-7.4,0-.4-.2-.7-.2-1.1,0-.3-.1-.6-.2-1,0-.3-.1-.6-.2-1,0-.5,0-.9-.2-1.4,0-.3,0-.7,0-1,0-.4,0-.8,0-1.2-.2-13.6,5.1-24.3,16.4-30.1.4-.2.7-.4,1.1-.5.2-.1.5-.2.7-.3.2,0,.4-.2.6-.3l.9-.3.4-.2c.5-.2.9-.3,1.4-.5.5-.2.9-.3,1.4-.4.3,0,.6-.2.9-.3,1.7-.5,3.5-.8,5.3-1.1.3,0,.6,0,1-.1.3,0,.6,0,1-.1.8,0,1.6-.2,2.4-.2.4,0,.7,0,1.1,0,1.3,0,2.7-.1,4.1-.1s1.4,0,2.1,0c.7,0,1.4,0,2.1.1.7,0,1.4,0,2,.2,0,0,.1,0,.2,0,.5,0,1,0,1.5.2.7,0,1.4.2,2,.3.7.1,1.4.3,2.1.4.2,0,.4,0,.5.1.9.2,1.8.4,2.6.6.2,0,.4,0,.5.2,0,0,0,0,0,0,.3,0,.6.2,1,.3.1,0,.3,0,.4.1h.4c0,.1.4.3.4.3h.4c0,.1.8.4.8.4h.2c0,0,0,0,0,0,.4.2.8.3,1.3.5.4.2.8.4,1.2.5.1,0,.2,0,.4.2.4.2.8.4,1.2.6.4.2.8.4,1.2.6.8.5,1.7.9,2.4,1.4.6.4,1.3.8,1.9,1.2.2.2.5.3.7.5,0,0,0,0,0,0,.4.3.9.6,1.3,1h0c0,0,.1.1.2.2.3.2.5.4.8.6.5.5,1.1.9,1.6,1.4.6.5,1.2,1.1,1.7,1.6,1.1,1.1,2.1,2.2,3,3.3.4.4.7.9,1.1,1.3.4.5.8,1,1.1,1.4.4.6.8,1.2,1.2,1.8,0,0,.2.2.2.3.4.6.8,1.1,1.1,1.7.3.5.6,1,.9,1.5.4.7.8,1.4,1.2,2.1.4.7.7,1.4,1.1,2.1.2.4.4.7.5,1.1.3.7.6,1.4.9,2.1.2.5.4,1,.6,1.5.2.5.4,1,.6,1.5.3.7.5,1.3.7,2,.1.3.2.6.3,1,0,.3.2.5.3.8.1.4.2.7.3,1.1,0,.3.2.6.3.9,0,.3.2.5.2.8,0,.3.2.5.2.8.3,1.2.6,2.3.8,3.3,0,.2,0,.4.1.6,0,.2,0,.5.1.6,0,.2,0,.4.1.6,0,.2,0,.4,0,.6,0,.2,0,.4,0,.5,0,.2,0,.3,0,.5,0,.2,0,.3,0,.5,0,.3,0,.5.1.8,0,.2,0,.3,0,.4,0,.1,0,.2,0,.3,0,.2,0,.3,0,.3h2.1v-56.1h-1.5c-6.9,20.1-16.1,1.7-43.7-2.2-.3,0-.5,0-.8-.1-.9-.1-1.8-.2-2.8-.3,0,0,0,0-.1,0,0,0,0,0,0,0-1.4-.2-2.9-.2-4.4-.3-.6,0-1.2,0-1.9,0-1.1,0-2.1,0-3.2,0-.9,0-1.9,0-2.8.1-.8,0-1.5,0-2.3.2-1.7.1-3.3.3-4.9.6-.7,0-1.4.2-2,.3-.7.1-1.4.2-2,.4-1.7.3-3.4.7-5,1.2-25,7-38.4,26-38.4,47.4s11.4,37.2,26.8,47.1c1,.7,2.1,1.3,3.2,1.9,0,0,0,0,.1,0,1.1.7,2.3,1.3,3.4,1.9,15.6,8.5,33.9,14,48.5,21.5,2.4,1.2,4.7,2.5,6.9,3.8,1.2.7,2.3,1.4,3.3,2.2.6.4,1.2.9,1.8,1.3.5.4,1.1.8,1.6,1.3.1,0,.2.2.4.3.5.4.9.8,1.3,1.1.4.4.8.8,1.2,1.2.3.3.6.6.9.9.4.4.8.8,1.1,1.2.5.5.9,1,1.3,1.6.5.6.9,1.2,1.4,1.8.4.6.9,1.3,1.3,2,.3.5.5.9.8,1.4,0,0,0,0,0,.1.3.5.5,1,.7,1.6,0,0,0,.1,0,.2.2.5.5,1.1.7,1.7.2.6.4,1.3.6,1.9,0,.2.2.5.2.7.2.7.4,1.4.5,2.1,0,.5.2,1,.3,1.6,0,0,0,0,0,.1,0,.3,0,.6.1,1,0,0,0,.1,0,.2,0,.4,0,.7,0,1.1,0,.2,0,.4,0,.6,0,.7,0,1.5,0,2.3s0,1.3,0,1.9c0,.5,0,1,0,1.5,0,.4,0,.8,0,1.2,0,1.1-.2,2.1-.4,3.2,0,.5-.2,1-.3,1.5,0,.5-.2.9-.3,1.4,0,.2,0,.3-.1.5,0,.4-.2.8-.3,1.2-.1.5-.3,1-.4,1.4,0,.2-.1.5-.2.7,0,0,0,.2,0,.3,0,.4-.2.7-.3,1.1-.2.6-.4,1.2-.7,1.8-.2.6-.5,1.2-.7,1.8-1.1,2.4-2.4,4.7-3.9,6.9,0,0,0,0-.1.2-.3.5-.6.9-1,1.3-.4.5-.8,1-1.2,1.5-.4.5-.9,1-1.3,1.5-.4.5-.8.9-1.2,1.3,0,0-.2.2-.3.3-.4.4-.8.7-1.2,1.1-.9.8-1.9,1.6-2.9,2.4-.4.3-.8.6-1.3.9-.4.3-.8.6-1.3.8-.9.6-1.9,1.2-2.9,1.7l-1.5.8c-.6.3-1.2.6-1.8.9-.6.3-1.3.6-1.9.8-.5.2-1,.4-1.6.6-.5.2-1.1.4-1.7.6,0,0-.1,0-.2,0-.5.1-.9.3-1.4.4-.4.1-.8.3-1.3.4-.5.1-.9.2-1.3.3-.4.1-.9.2-1.4.3-.3,0-.6.1-.9.2-.3,0-.6.1-.9.2-.8.2-1.5.3-2.3.4-.9.1-1.8.3-2.8.4-.8,0-1.6.2-2.4.2-.4,0-.7,0-1.1,0-.1,0-.2,0-.4,0-.7,0-1.4,0-2.1.1-1,0-2.1,0-3.1,0s-1.5,0-2.2,0c-1.4,0-2.7,0-4-.2-.6,0-1.3,0-1.9-.2-.6,0-1.3-.2-1.9-.3-.5,0-1.1-.1-1.6-.3-.5,0-1-.1-1.4-.2-.2,0-.4,0-.6-.1,0,0-.1,0-.2,0-1.1-.2-2.1-.5-3.1-.7-.4,0-.7-.2-1.1-.3-32.8-9.2-39.6-42.5-40.6-48.5s-.5-.9-1.1-.9h0c-.6,0-1.1.5-1.1,1.1v55h1.5c3.8-18.9,17.2-5,41.3.7,1.6.4,3.3.7,5,1,1.4.2,2.8.5,4.2.6,2.8.3,5.7.5,8.8.5s.6,0,1,0c38.2-.3,78.9-18.3,78.9-60.5s-10.4-36.3-24.9-46.7ZM644.5,193.3l-1.9,1.8-11.2-11.2,10.8-11.9,11.9,11.9-9.6,9.3Z"/>
      </g>
    </g>
  </g>
  <g>
    <g>
      <g>
        <path class="cls-11" d="M72.4,361.4c-.1-.3-.3-.5-.4-.6-.2-.2-.5-.2-.9-.2h-2.8c-.4,0-.7,0-.9.2-.2.2-.3.4-.4.6l-10.1,26.2c0,.2,0,.3,0,.4,0,.2,0,.4.2.6.2.2.4.2.6.2h2.1c.3,0,.6,0,.7-.2.2-.2.3-.3.3-.4l2.2-5.8h13.3l2.2,5.8c0,.1.2.3.3.4.1.2.4.2.7.2h2.1c.2,0,.4,0,.6-.2.2-.2.2-.4.2-.6s0-.3,0-.4l-10-26.2ZM64.3,379l5.5-14.4,5.5,14.4h-11Z"/>
        <path class="cls-11" d="M101.4,368.6c-1.2-.8-2.7-1.2-4.5-1.2s-3,.3-4.1.9c-1.1.6-2,1.3-2.7,2.3v-1.8c0-.3,0-.5-.3-.7-.2-.2-.4-.3-.7-.3h-1.9c-.3,0-.5,0-.7.3-.2.2-.3.4-.3.7v19.2c0,.3,0,.5.3.7.2.2.4.3.7.3h2c.3,0,.5,0,.7-.3.2-.2.3-.4.3-.7v-11.2c0-1.9.5-3.4,1.5-4.4,1-1.1,2.4-1.6,4-1.6s3.1.5,4.1,1.6c.9,1.1,1.4,2.5,1.4,4.4v11.2c0,.3,0,.5.3.7.2.2.4.3.7.3h2c.3,0,.5,0,.7-.3.2-.2.3-.4.3-.7v-11.4c0-1.8-.3-3.4-1-4.8-.6-1.4-1.6-2.4-2.8-3.2Z"/>
        <path class="cls-11" d="M125.7,369.7c-.6-.7-1.5-1.3-2.6-1.7-1.1-.4-2.5-.6-4.1-.6s-2.7.2-3.7.6c-1,.4-1.8.9-2.5,1.4-.6.6-1.1,1.1-1.4,1.7-.3.6-.5,1.1-.5,1.5s0,.5.2.6c.1.2.4.3.7.3h1.8c.4,0,.7-.2.9-.6.3-.8.8-1.4,1.6-1.9s1.7-.7,2.9-.7,2.9.4,3.6,1.1c.7.7,1.1,1.7,1.1,3v1.2l-6,.9c-2.4.4-4.4,1.1-5.9,2.2-1.5,1.1-2.3,2.6-2.3,4.5s.3,2.2,1,3.1c.7.9,1.6,1.6,2.7,2.2,1.1.5,2.3.8,3.7.8s2.4-.2,3.3-.5,1.6-.7,2.2-1.2c.6-.5,1.1-1,1.4-1.4v1.7c0,.3,0,.5.2.7.2.2.4.3.7.3h1.9c.3,0,.5,0,.7-.3.2-.2.3-.4.3-.7v-13.1c0-.9-.1-1.8-.4-2.7s-.7-1.7-1.4-2.4ZM123.7,379.6c0,1.5-.3,2.8-.8,3.8-.5,1-1.3,1.7-2.2,2.2-.9.5-1.9.7-3,.7s-1.4-.1-2.1-.4c-.7-.2-1.3-.6-1.7-1.1-.4-.5-.7-1.1-.7-1.9s.5-1.8,1.5-2.4c1-.6,2.4-1.1,4.3-1.4l4.7-.7v1.1Z"/>
        <path class="cls-11" d="M146.5,378.3c-1-.6-2.4-1.1-4.2-1.4-1.7-.4-2.9-.7-3.7-1.1-.8-.3-1.4-.7-1.7-1.1s-.4-.9-.4-1.4c0-.9.3-1.6,1-2.1.7-.6,1.7-.9,3-.9s1.7.1,2.3.3c.6.2,1.1.5,1.4.9.4.4.7.7,1,1.1.1.1.2.2.3.3.1,0,.3.1.5.1h1.7c.2,0,.5,0,.6-.3.2-.2.3-.4.2-.7,0-.4-.2-.8-.5-1.3-.3-.5-.8-1-1.5-1.6-.6-.5-1.5-1-2.5-1.3-1-.4-2.2-.5-3.6-.5s-3.2.3-4.3.9c-1.1.6-2,1.4-2.6,2.3s-.9,1.9-.9,2.9.2,1.8.6,2.6c.4.8,1.1,1.4,2,2,.9.6,2.2,1,3.9,1.4,1.6.4,2.9.7,3.8,1s1.6.7,1.9,1.1.5.9.5,1.6c0,1-.4,1.8-1.3,2.3s-2,.8-3.4.8-1.7-.1-2.4-.4c-.6-.2-1.2-.6-1.6-.9-.4-.4-.8-.8-1.2-1.1-.2-.2-.3-.3-.4-.3,0,0-.2,0-.3,0h-1.8c-.2,0-.4,0-.6.2-.2.2-.3.4-.3.7,0,.3.2.8.5,1.3.3.5.8,1.1,1.5,1.6.7.5,1.6,1,2.6,1.4,1.1.4,2.4.6,3.9.6s3.5-.3,4.8-.8c1.3-.6,2.3-1.3,2.9-2.3.6-.9,1-2,1-3.1s-.2-1.9-.6-2.7c-.4-.8-1.2-1.5-2.2-2.1Z"/>
        <path class="cls-11" d="M182.5,385.5h-14.1v-9.2h12.9c.3,0,.5,0,.7-.3.2-.2.2-.4.2-.7v-1.5c0-.3,0-.5-.2-.7-.2-.2-.4-.3-.7-.3h-12.9v-8.9h13.8c.3,0,.5,0,.7-.2s.2-.4.2-.7v-1.5c0-.3,0-.5-.2-.7-.2-.2-.4-.3-.7-.3h-16.8c-.3,0-.5,0-.7.3-.2.2-.2.4-.2.7v26.5c0,.3,0,.5.2.7.2.2.4.3.7.3h17.1c.3,0,.5,0,.7-.3.2-.2.2-.4.2-.7v-1.6c0-.3,0-.5-.2-.7-.2-.2-.4-.2-.7-.2Z"/>
        <path class="cls-11" d="M205.4,360.1h-1.9c-.3,0-.5,0-.7.3-.2.2-.3.4-.3.7v9.3c-.7-.8-1.5-1.5-2.6-2.1s-2.4-.9-4-.9-2.8.3-3.9.8c-1.1.5-2,1.3-2.7,2.2-.7.9-1.2,2-1.5,3.1-.3,1.2-.5,2.4-.6,3.7,0,.4,0,.8,0,1.2s0,.8,0,1.2c0,1.3.2,2.5.6,3.7.3,1.2.9,2.2,1.5,3.1.7.9,1.6,1.6,2.7,2.1,1.1.5,2.4.8,3.9.8s3-.3,4.1-.9,2-1.3,2.6-2.2v1.7c0,.3,0,.5.2.7.2.2.4.3.7.3h1.8c.3,0,.5,0,.7-.3.2-.2.3-.4.3-.7v-26.9c0-.3,0-.5-.3-.7-.2-.2-.4-.3-.7-.3ZM202.6,379.8c0,1-.2,2-.6,2.9-.4,1-1,1.8-1.8,2.4-.8.6-1.9.9-3.2.9s-2.5-.3-3.3-.9-1.4-1.4-1.7-2.4c-.4-1-.6-2-.6-3.2,0-.8,0-1.6,0-2.4,0-1.1.3-2.2.6-3.2.4-1,.9-1.8,1.7-2.4s1.9-.9,3.3-.9,2.4.3,3.2.9c.8.6,1.4,1.4,1.9,2.3.4.9.6,1.9.7,2.8,0,.4,0,1,0,1.6s0,1.1,0,1.6Z"/>
        <path class="cls-11" d="M229.6,360.1h-1.9c-.3,0-.5,0-.7.3-.2.2-.3.4-.3.7v9.3c-.7-.8-1.5-1.5-2.6-2.1s-2.4-.9-4-.9-2.8.3-3.9.8c-1.1.5-2,1.3-2.7,2.2-.7.9-1.2,2-1.5,3.1-.3,1.2-.5,2.4-.6,3.7,0,.4,0,.8,0,1.2s0,.8,0,1.2c0,1.3.2,2.5.6,3.7.3,1.2.9,2.2,1.5,3.1.7.9,1.6,1.6,2.7,2.1,1.1.5,2.4.8,3.9.8s3-.3,4.1-.9,2-1.3,2.6-2.2v1.7c0,.3,0,.5.2.7.2.2.4.3.7.3h1.8c.3,0,.5,0,.7-.3.2-.2.3-.4.3-.7v-26.9c0-.3,0-.5-.3-.7-.2-.2-.4-.3-.7-.3ZM226.7,379.8c0,1-.2,2-.6,2.9-.4,1-1,1.8-1.8,2.4-.8.6-1.9.9-3.2.9s-2.5-.3-3.3-.9-1.4-1.4-1.7-2.4c-.4-1-.6-2-.6-3.2,0-.8,0-1.6,0-2.4,0-1.1.3-2.2.6-3.2.4-1,.9-1.8,1.7-2.4s1.9-.9,3.3-.9,2.4.3,3.2.9c.8.6,1.4,1.4,1.9,2.3.4.9.6,1.9.7,2.8,0,.4,0,1,0,1.6s0,1.1,0,1.6Z"/>
        <path class="cls-11" d="M251.3,369.7c-.6-.7-1.5-1.3-2.6-1.7-1.1-.4-2.5-.6-4.1-.6s-2.7.2-3.7.6c-1,.4-1.8.9-2.5,1.4-.6.6-1.1,1.1-1.4,1.7-.3.6-.5,1.1-.5,1.5s0,.5.2.6c.1.2.4.3.7.3h1.8c.4,0,.7-.2.9-.6.3-.8.8-1.4,1.6-1.9s1.7-.7,2.9-.7,2.9.4,3.6,1.1c.7.7,1.1,1.7,1.1,3v1.2l-6,.9c-2.4.4-4.4,1.1-5.9,2.2-1.5,1.1-2.3,2.6-2.3,4.5s.3,2.2,1,3.1c.7.9,1.6,1.6,2.7,2.2s2.3.8,3.7.8,2.4-.2,3.3-.5,1.6-.7,2.2-1.2c.6-.5,1.1-1,1.4-1.4v1.7c0,.3,0,.5.2.7.2.2.4.3.7.3h1.9c.3,0,.5,0,.7-.3.2-.2.3-.4.3-.7v-13.1c0-.9-.1-1.8-.4-2.7-.3-.9-.7-1.7-1.4-2.4ZM249.3,379.6c0,1.5-.3,2.8-.8,3.8-.5,1-1.3,1.7-2.2,2.2-.9.5-1.9.7-3,.7s-1.4-.1-2.1-.4c-.7-.2-1.3-.6-1.7-1.1-.4-.5-.7-1.1-.7-1.9s.5-1.8,1.5-2.4c1-.6,2.4-1.1,4.3-1.4l4.7-.7v1.1Z"/>
        <path class="cls-11" d="M274,368.6c-1.2-.8-2.7-1.2-4.5-1.2s-3,.3-4.1.9c-1.1.6-2,1.3-2.7,2.3v-1.8c0-.3,0-.5-.3-.7-.2-.2-.4-.3-.7-.3h-1.9c-.3,0-.5,0-.7.3-.2.2-.3.4-.3.7v19.2c0,.3,0,.5.3.7.2.2.4.3.7.3h2c.3,0,.5,0,.7-.3.2-.2.3-.4.3-.7v-11.2c0-1.9.5-3.4,1.5-4.4,1-1.1,2.4-1.6,4-1.6s3.1.5,4.1,1.6c.9,1.1,1.4,2.5,1.4,4.4v11.2c0,.3,0,.5.3.7.2.2.4.3.7.3h2c.3,0,.5,0,.7-.3.2-.2.3-.4.3-.7v-11.4c0-1.8-.3-3.4-1-4.8-.6-1.4-1.6-2.4-2.8-3.2Z"/>
        <path class="cls-11" d="M294.7,358.9h-2.4c-1.7,0-3.1.3-4.1.9-1,.6-1.8,1.4-2.2,2.4-.5,1-.7,2.3-.7,3.6v2h-3.4c-.3,0-.5,0-.7.3-.2.2-.3.4-.3.7v1.4c0,.3,0,.5.3.7.2.2.4.3.7.3h3.4v16.9c0,.3,0,.5.3.7.2.2.4.3.7.3h1.9c.3,0,.5,0,.7-.3.2-.2.3-.4.3-.7v-16.9h5.2c.3,0,.5,0,.7-.3.2-.2.3-.4.3-.7v-1.4c0-.3,0-.5-.3-.7-.2-.2-.4-.3-.7-.3h-5.2v-1.8c0-1.2.2-2.2.7-2.9.5-.7,1.3-1,2.6-1h2.4c.3,0,.5,0,.7-.3s.3-.4.3-.7v-1.4c0-.3,0-.5-.3-.7-.2-.2-.4-.3-.7-.3Z"/>
        <path class="cls-11" d="M315.4,371.8c-.7-1.4-1.8-2.5-3.2-3.2-1.4-.8-3.1-1.2-5.1-1.2s-3.7.4-5.1,1.2c-1.4.8-2.4,1.9-3.2,3.2-.7,1.4-1.2,3-1.2,4.8,0,.4,0,1,0,1.7s0,1.3,0,1.8c0,1.8.5,3.4,1.2,4.8.7,1.4,1.8,2.5,3.2,3.3,1.4.8,3.1,1.2,5.2,1.2s3.8-.4,5.2-1.2c1.4-.8,2.4-1.9,3.2-3.3.7-1.4,1.1-3,1.2-4.8,0-.5,0-1,0-1.8s0-1.3,0-1.7c0-1.8-.5-3.4-1.2-4.8ZM312.7,379.9c0,2.1-.6,3.6-1.6,4.7-1,1.1-2.3,1.6-4,1.6s-3-.5-4-1.6c-1-1.1-1.5-2.6-1.6-4.7,0-.4,0-.9,0-1.5s0-1.1,0-1.5c0-2.1.6-3.6,1.6-4.7,1-1.1,2.4-1.6,4-1.6s3,.5,4,1.6c1,1.1,1.5,2.6,1.6,4.7,0,.4,0,.9,0,1.5s0,1.1,0,1.5Z"/>
        <path class="cls-11" d="M333.4,368.1c-.2-.2-.4-.3-.7-.3h-1.6c-1.4,0-2.5.2-3.4.7-.9.5-1.7,1.2-2.2,2.1v-1.8c0-.3,0-.5-.3-.7-.2-.2-.4-.3-.7-.3h-1.9c-.3,0-.5,0-.7.3-.2.2-.3.4-.3.7v19.2c0,.3,0,.5.3.7.2.2.4.3.7.3h2c.3,0,.5,0,.7-.3.2-.2.3-.4.3-.7v-11.9c0-1.5.4-2.6,1.3-3.5s2-1.3,3.4-1.3h2.4c.3,0,.5,0,.7-.2s.3-.4.3-.6v-1.7c0-.3,0-.5-.3-.7Z"/>
      </g>
      <g>
        <path class="cls-11" d="M72.4,361.4c-.1-.3-.3-.5-.4-.6-.2-.2-.5-.2-.9-.2h-2.8c-.4,0-.7,0-.9.2-.2.2-.3.4-.4.6l-10.1,26.2c0,.2,0,.3,0,.4,0,.2,0,.4.2.6.2.2.4.2.6.2h2.1c.3,0,.6,0,.7-.2.2-.2.3-.3.3-.4l2.2-5.8h13.3l2.2,5.8c0,.1.2.3.3.4.1.2.4.2.7.2h2.1c.2,0,.4,0,.6-.2.2-.2.2-.4.2-.6s0-.3,0-.4l-10-26.2ZM64.3,379l5.5-14.4,5.5,14.4h-11Z"/>
        <path class="cls-11" d="M101.4,368.6c-1.2-.8-2.7-1.2-4.5-1.2s-3,.3-4.1.9c-1.1.6-2,1.3-2.7,2.3v-1.8c0-.3,0-.5-.3-.7-.2-.2-.4-.3-.7-.3h-1.9c-.3,0-.5,0-.7.3-.2.2-.3.4-.3.7v19.2c0,.3,0,.5.3.7.2.2.4.3.7.3h2c.3,0,.5,0,.7-.3.2-.2.3-.4.3-.7v-11.2c0-1.9.5-3.4,1.5-4.4,1-1.1,2.4-1.6,4-1.6s3.1.5,4.1,1.6c.9,1.1,1.4,2.5,1.4,4.4v11.2c0,.3,0,.5.3.7.2.2.4.3.7.3h2c.3,0,.5,0,.7-.3.2-.2.3-.4.3-.7v-11.4c0-1.8-.3-3.4-1-4.8-.6-1.4-1.6-2.4-2.8-3.2Z"/>
        <path class="cls-11" d="M125.7,369.7c-.6-.7-1.5-1.3-2.6-1.7-1.1-.4-2.5-.6-4.1-.6s-2.7.2-3.7.6c-1,.4-1.8.9-2.5,1.4-.6.6-1.1,1.1-1.4,1.7-.3.6-.5,1.1-.5,1.5s0,.5.2.6c.1.2.4.3.7.3h1.8c.4,0,.7-.2.9-.6.3-.8.8-1.4,1.6-1.9s1.7-.7,2.9-.7,2.9.4,3.6,1.1c.7.7,1.1,1.7,1.1,3v1.2l-6,.9c-2.4.4-4.4,1.1-5.9,2.2-1.5,1.1-2.3,2.6-2.3,4.5s.3,2.2,1,3.1c.7.9,1.6,1.6,2.7,2.2,1.1.5,2.3.8,3.7.8s2.4-.2,3.3-.5,1.6-.7,2.2-1.2c.6-.5,1.1-1,1.4-1.4v1.7c0,.3,0,.5.2.7.2.2.4.3.7.3h1.9c.3,0,.5,0,.7-.3.2-.2.3-.4.3-.7v-13.1c0-.9-.1-1.8-.4-2.7s-.7-1.7-1.4-2.4ZM123.7,379.6c0,1.5-.3,2.8-.8,3.8-.5,1-1.3,1.7-2.2,2.2-.9.5-1.9.7-3,.7s-1.4-.1-2.1-.4c-.7-.2-1.3-.6-1.7-1.1-.4-.5-.7-1.1-.7-1.9s.5-1.8,1.5-2.4c1-.6,2.4-1.1,4.3-1.4l4.7-.7v1.1Z"/>
        <path class="cls-11" d="M146.5,378.3c-1-.6-2.4-1.1-4.2-1.4-1.7-.4-2.9-.7-3.7-1.1-.8-.3-1.4-.7-1.7-1.1s-.4-.9-.4-1.4c0-.9.3-1.6,1-2.1.7-.6,1.7-.9,3-.9s1.7.1,2.3.3c.6.2,1.1.5,1.4.9.4.4.7.7,1,1.1.1.1.2.2.3.3.1,0,.3.1.5.1h1.7c.2,0,.5,0,.6-.3.2-.2.3-.4.2-.7,0-.4-.2-.8-.5-1.3-.3-.5-.8-1-1.5-1.6-.6-.5-1.5-1-2.5-1.3-1-.4-2.2-.5-3.6-.5s-3.2.3-4.3.9c-1.1.6-2,1.4-2.6,2.3s-.9,1.9-.9,2.9.2,1.8.6,2.6c.4.8,1.1,1.4,2,2,.9.6,2.2,1,3.9,1.4,1.6.4,2.9.7,3.8,1s1.6.7,1.9,1.1.5.9.5,1.6c0,1-.4,1.8-1.3,2.3s-2,.8-3.4.8-1.7-.1-2.4-.4c-.6-.2-1.2-.6-1.6-.9-.4-.4-.8-.8-1.2-1.1-.2-.2-.3-.3-.4-.3,0,0-.2,0-.3,0h-1.8c-.2,0-.4,0-.6.2-.2.2-.3.4-.3.7,0,.3.2.8.5,1.3.3.5.8,1.1,1.5,1.6.7.5,1.6,1,2.6,1.4,1.1.4,2.4.6,3.9.6s3.5-.3,4.8-.8c1.3-.6,2.3-1.3,2.9-2.3.6-.9,1-2,1-3.1s-.2-1.9-.6-2.7c-.4-.8-1.2-1.5-2.2-2.1Z"/>
        <path class="cls-11" d="M182.5,385.5h-14.1v-9.2h12.9c.3,0,.5,0,.7-.3.2-.2.2-.4.2-.7v-1.5c0-.3,0-.5-.2-.7-.2-.2-.4-.3-.7-.3h-12.9v-8.9h13.8c.3,0,.5,0,.7-.2s.2-.4.2-.7v-1.5c0-.3,0-.5-.2-.7-.2-.2-.4-.3-.7-.3h-16.8c-.3,0-.5,0-.7.3-.2.2-.2.4-.2.7v26.5c0,.3,0,.5.2.7.2.2.4.3.7.3h17.1c.3,0,.5,0,.7-.3.2-.2.2-.4.2-.7v-1.6c0-.3,0-.5-.2-.7-.2-.2-.4-.2-.7-.2Z"/>
        <path class="cls-11" d="M205.4,360.1h-1.9c-.3,0-.5,0-.7.3-.2.2-.3.4-.3.7v9.3c-.7-.8-1.5-1.5-2.6-2.1s-2.4-.9-4-.9-2.8.3-3.9.8c-1.1.5-2,1.3-2.7,2.2-.7.9-1.2,2-1.5,3.1-.3,1.2-.5,2.4-.6,3.7,0,.4,0,.8,0,1.2s0,.8,0,1.2c0,1.3.2,2.5.6,3.7.3,1.2.9,2.2,1.5,3.1.7.9,1.6,1.6,2.7,2.1,1.1.5,2.4.8,3.9.8s3-.3,4.1-.9,2-1.3,2.6-2.2v1.7c0,.3,0,.5.2.7.2.2.4.3.7.3h1.8c.3,0,.5,0,.7-.3.2-.2.3-.4.3-.7v-26.9c0-.3,0-.5-.3-.7-.2-.2-.4-.3-.7-.3ZM202.6,379.8c0,1-.2,2-.6,2.9-.4,1-1,1.8-1.8,2.4-.8.6-1.9.9-3.2.9s-2.5-.3-3.3-.9-1.4-1.4-1.7-2.4c-.4-1-.6-2-.6-3.2,0-.8,0-1.6,0-2.4,0-1.1.3-2.2.6-3.2.4-1,.9-1.8,1.7-2.4s1.9-.9,3.3-.9,2.4.3,3.2.9c.8.6,1.4,1.4,1.9,2.3.4.9.6,1.9.7,2.8,0,.4,0,1,0,1.6s0,1.1,0,1.6Z"/>
        <path class="cls-11" d="M229.6,360.1h-1.9c-.3,0-.5,0-.7.3-.2.2-.3.4-.3.7v9.3c-.7-.8-1.5-1.5-2.6-2.1s-2.4-.9-4-.9-2.8.3-3.9.8c-1.1.5-2,1.3-2.7,2.2-.7.9-1.2,2-1.5,3.1-.3,1.2-.5,2.4-.6,3.7,0,.4,0,.8,0,1.2s0,.8,0,1.2c0,1.3.2,2.5.6,3.7.3,1.2.9,2.2,1.5,3.1.7.9,1.6,1.6,2.7,2.1,1.1.5,2.4.8,3.9.8s3-.3,4.1-.9,2-1.3,2.6-2.2v1.7c0,.3,0,.5.2.7.2.2.4.3.7.3h1.8c.3,0,.5,0,.7-.3.2-.2.3-.4.3-.7v-26.9c0-.3,0-.5-.3-.7-.2-.2-.4-.3-.7-.3ZM226.7,379.8c0,1-.2,2-.6,2.9-.4,1-1,1.8-1.8,2.4-.8.6-1.9.9-3.2.9s-2.5-.3-3.3-.9-1.4-1.4-1.7-2.4c-.4-1-.6-2-.6-3.2,0-.8,0-1.6,0-2.4,0-1.1.3-2.2.6-3.2.4-1,.9-1.8,1.7-2.4s1.9-.9,3.3-.9,2.4.3,3.2.9c.8.6,1.4,1.4,1.9,2.3.4.9.6,1.9.7,2.8,0,.4,0,1,0,1.6s0,1.1,0,1.6Z"/>
        <path class="cls-11" d="M251.3,369.7c-.6-.7-1.5-1.3-2.6-1.7-1.1-.4-2.5-.6-4.1-.6s-2.7.2-3.7.6c-1,.4-1.8.9-2.5,1.4-.6.6-1.1,1.1-1.4,1.7-.3.6-.5,1.1-.5,1.5s0,.5.2.6c.1.2.4.3.7.3h1.8c.4,0,.7-.2.9-.6.3-.8.8-1.4,1.6-1.9s1.7-.7,2.9-.7,2.9.4,3.6,1.1c.7.7,1.1,1.7,1.1,3v1.2l-6,.9c-2.4.4-4.4,1.1-5.9,2.2-1.5,1.1-2.3,2.6-2.3,4.5s.3,2.2,1,3.1c.7.9,1.6,1.6,2.7,2.2s2.3.8,3.7.8,2.4-.2,3.3-.5,1.6-.7,2.2-1.2c.6-.5,1.1-1,1.4-1.4v1.7c0,.3,0,.5.2.7.2.2.4.3.7.3h1.9c.3,0,.5,0,.7-.3.2-.2.3-.4.3-.7v-13.1c0-.9-.1-1.8-.4-2.7-.3-.9-.7-1.7-1.4-2.4ZM249.3,379.6c0,1.5-.3,2.8-.8,3.8-.5,1-1.3,1.7-2.2,2.2-.9.5-1.9.7-3,.7s-1.4-.1-2.1-.4c-.7-.2-1.3-.6-1.7-1.1-.4-.5-.7-1.1-.7-1.9s.5-1.8,1.5-2.4c1-.6,2.4-1.1,4.3-1.4l4.7-.7v1.1Z"/>
        <path class="cls-11" d="M274,368.6c-1.2-.8-2.7-1.2-4.5-1.2s-3,.3-4.1.9c-1.1.6-2,1.3-2.7,2.3v-1.8c0-.3,0-.5-.3-.7-.2-.2-.4-.3-.7-.3h-1.9c-.3,0-.5,0-.7.3-.2.2-.3.4-.3.7v19.2c0,.3,0,.5.3.7.2.2.4.3.7.3h2c.3,0,.5,0,.7-.3.2-.2.3-.4.3-.7v-11.2c0-1.9.5-3.4,1.5-4.4,1-1.1,2.4-1.6,4-1.6s3.1.5,4.1,1.6c.9,1.1,1.4,2.5,1.4,4.4v11.2c0,.3,0,.5.3.7.2.2.4.3.7.3h2c.3,0,.5,0,.7-.3.2-.2.3-.4.3-.7v-11.4c0-1.8-.3-3.4-1-4.8-.6-1.4-1.6-2.4-2.8-3.2Z"/>
        <path class="cls-11" d="M294.7,358.9h-2.4c-1.7,0-3.1.3-4.1.9-1,.6-1.8,1.4-2.2,2.4-.5,1-.7,2.3-.7,3.6v2h-3.4c-.3,0-.5,0-.7.3-.2.2-.3.4-.3.7v1.4c0,.3,0,.5.3.7.2.2.4.3.7.3h3.4v16.9c0,.3,0,.5.3.7.2.2.4.3.7.3h1.9c.3,0,.5,0,.7-.3.2-.2.3-.4.3-.7v-16.9h5.2c.3,0,.5,0,.7-.3.2-.2.3-.4.3-.7v-1.4c0-.3,0-.5-.3-.7-.2-.2-.4-.3-.7-.3h-5.2v-1.8c0-1.2.2-2.2.7-2.9.5-.7,1.3-1,2.6-1h2.4c.3,0,.5,0,.7-.3s.3-.4.3-.7v-1.4c0-.3,0-.5-.3-.7-.2-.2-.4-.3-.7-.3Z"/>
        <path class="cls-11" d="M315.4,371.8c-.7-1.4-1.8-2.5-3.2-3.2-1.4-.8-3.1-1.2-5.1-1.2s-3.7.4-5.1,1.2c-1.4.8-2.4,1.9-3.2,3.2-.7,1.4-1.2,3-1.2,4.8,0,.4,0,1,0,1.7s0,1.3,0,1.8c0,1.8.5,3.4,1.2,4.8.7,1.4,1.8,2.5,3.2,3.3,1.4.8,3.1,1.2,5.2,1.2s3.8-.4,5.2-1.2c1.4-.8,2.4-1.9,3.2-3.3.7-1.4,1.1-3,1.2-4.8,0-.5,0-1,0-1.8s0-1.3,0-1.7c0-1.8-.5-3.4-1.2-4.8ZM312.7,379.9c0,2.1-.6,3.6-1.6,4.7-1,1.1-2.3,1.6-4,1.6s-3-.5-4-1.6c-1-1.1-1.5-2.6-1.6-4.7,0-.4,0-.9,0-1.5s0-1.1,0-1.5c0-2.1.6-3.6,1.6-4.7,1-1.1,2.4-1.6,4-1.6s3,.5,4,1.6c1,1.1,1.5,2.6,1.6,4.7,0,.4,0,.9,0,1.5s0,1.1,0,1.5Z"/>
        <path class="cls-11" d="M333.4,368.1c-.2-.2-.4-.3-.7-.3h-1.6c-1.4,0-2.5.2-3.4.7-.9.5-1.7,1.2-2.2,2.1v-1.8c0-.3,0-.5-.3-.7-.2-.2-.4-.3-.7-.3h-1.9c-.3,0-.5,0-.7.3-.2.2-.3.4-.3.7v19.2c0,.3,0,.5.3.7.2.2.4.3.7.3h2c.3,0,.5,0,.7-.3.2-.2.3-.4.3-.7v-11.9c0-1.5.4-2.6,1.3-3.5s2-1.3,3.4-1.3h2.4c.3,0,.5,0,.7-.2s.3-.4.3-.6v-1.7c0-.3,0-.5-.3-.7Z"/>
      </g>
      <g>
        <path class="cls-11" d="M72.4,361.4c-.1-.3-.3-.5-.4-.6-.2-.2-.5-.2-.9-.2h-2.8c-.4,0-.7,0-.9.2-.2.2-.3.4-.4.6l-10.1,26.2c0,.2,0,.3,0,.4,0,.2,0,.4.2.6.2.2.4.2.6.2h2.1c.3,0,.6,0,.7-.2.2-.2.3-.3.3-.4l2.2-5.8h13.3l2.2,5.8c0,.1.2.3.3.4.1.2.4.2.7.2h2.1c.2,0,.4,0,.6-.2.2-.2.2-.4.2-.6s0-.3,0-.4l-10-26.2ZM64.3,379l5.5-14.4,5.5,14.4h-11Z"/>
        <path class="cls-11" d="M101.4,368.6c-1.2-.8-2.7-1.2-4.5-1.2s-3,.3-4.1.9c-1.1.6-2,1.3-2.7,2.3v-1.8c0-.3,0-.5-.3-.7-.2-.2-.4-.3-.7-.3h-1.9c-.3,0-.5,0-.7.3-.2.2-.3.4-.3.7v19.2c0,.3,0,.5.3.7.2.2.4.3.7.3h2c.3,0,.5,0,.7-.3.2-.2.3-.4.3-.7v-11.2c0-1.9.5-3.4,1.5-4.4,1-1.1,2.4-1.6,4-1.6s3.1.5,4.1,1.6c.9,1.1,1.4,2.5,1.4,4.4v11.2c0,.3,0,.5.3.7.2.2.4.3.7.3h2c.3,0,.5,0,.7-.3.2-.2.3-.4.3-.7v-11.4c0-1.8-.3-3.4-1-4.8-.6-1.4-1.6-2.4-2.8-3.2Z"/>
        <path class="cls-11" d="M125.7,369.7c-.6-.7-1.5-1.3-2.6-1.7-1.1-.4-2.5-.6-4.1-.6s-2.7.2-3.7.6c-1,.4-1.8.9-2.5,1.4-.6.6-1.1,1.1-1.4,1.7-.3.6-.5,1.1-.5,1.5s0,.5.2.6c.1.2.4.3.7.3h1.8c.4,0,.7-.2.9-.6.3-.8.8-1.4,1.6-1.9s1.7-.7,2.9-.7,2.9.4,3.6,1.1c.7.7,1.1,1.7,1.1,3v1.2l-6,.9c-2.4.4-4.4,1.1-5.9,2.2-1.5,1.1-2.3,2.6-2.3,4.5s.3,2.2,1,3.1c.7.9,1.6,1.6,2.7,2.2,1.1.5,2.3.8,3.7.8s2.4-.2,3.3-.5,1.6-.7,2.2-1.2c.6-.5,1.1-1,1.4-1.4v1.7c0,.3,0,.5.2.7.2.2.4.3.7.3h1.9c.3,0,.5,0,.7-.3.2-.2.3-.4.3-.7v-13.1c0-.9-.1-1.8-.4-2.7s-.7-1.7-1.4-2.4ZM123.7,379.6c0,1.5-.3,2.8-.8,3.8-.5,1-1.3,1.7-2.2,2.2-.9.5-1.9.7-3,.7s-1.4-.1-2.1-.4c-.7-.2-1.3-.6-1.7-1.1-.4-.5-.7-1.1-.7-1.9s.5-1.8,1.5-2.4c1-.6,2.4-1.1,4.3-1.4l4.7-.7v1.1Z"/>
        <path class="cls-11" d="M146.5,378.3c-1-.6-2.4-1.1-4.2-1.4-1.7-.4-2.9-.7-3.7-1.1-.8-.3-1.4-.7-1.7-1.1s-.4-.9-.4-1.4c0-.9.3-1.6,1-2.1.7-.6,1.7-.9,3-.9s1.7.1,2.3.3c.6.2,1.1.5,1.4.9.4.4.7.7,1,1.1.1.1.2.2.3.3.1,0,.3.1.5.1h1.7c.2,0,.5,0,.6-.3.2-.2.3-.4.2-.7,0-.4-.2-.8-.5-1.3-.3-.5-.8-1-1.5-1.6-.6-.5-1.5-1-2.5-1.3-1-.4-2.2-.5-3.6-.5s-3.2.3-4.3.9c-1.1.6-2,1.4-2.6,2.3s-.9,1.9-.9,2.9.2,1.8.6,2.6c.4.8,1.1,1.4,2,2,.9.6,2.2,1,3.9,1.4,1.6.4,2.9.7,3.8,1s1.6.7,1.9,1.1.5.9.5,1.6c0,1-.4,1.8-1.3,2.3s-2,.8-3.4.8-1.7-.1-2.4-.4c-.6-.2-1.2-.6-1.6-.9-.4-.4-.8-.8-1.2-1.1-.2-.2-.3-.3-.4-.3,0,0-.2,0-.3,0h-1.8c-.2,0-.4,0-.6.2-.2.2-.3.4-.3.7,0,.3.2.8.5,1.3.3.5.8,1.1,1.5,1.6.7.5,1.6,1,2.6,1.4,1.1.4,2.4.6,3.9.6s3.5-.3,4.8-.8c1.3-.6,2.3-1.3,2.9-2.3.6-.9,1-2,1-3.1s-.2-1.9-.6-2.7c-.4-.8-1.2-1.5-2.2-2.1Z"/>
        <path class="cls-11" d="M182.5,385.5h-14.1v-9.2h12.9c.3,0,.5,0,.7-.3.2-.2.2-.4.2-.7v-1.5c0-.3,0-.5-.2-.7-.2-.2-.4-.3-.7-.3h-12.9v-8.9h13.8c.3,0,.5,0,.7-.2s.2-.4.2-.7v-1.5c0-.3,0-.5-.2-.7-.2-.2-.4-.3-.7-.3h-16.8c-.3,0-.5,0-.7.3-.2.2-.2.4-.2.7v26.5c0,.3,0,.5.2.7.2.2.4.3.7.3h17.1c.3,0,.5,0,.7-.3.2-.2.2-.4.2-.7v-1.6c0-.3,0-.5-.2-.7-.2-.2-.4-.2-.7-.2Z"/>
        <path class="cls-11" d="M205.4,360.1h-1.9c-.3,0-.5,0-.7.3-.2.2-.3.4-.3.7v9.3c-.7-.8-1.5-1.5-2.6-2.1s-2.4-.9-4-.9-2.8.3-3.9.8c-1.1.5-2,1.3-2.7,2.2-.7.9-1.2,2-1.5,3.1-.3,1.2-.5,2.4-.6,3.7,0,.4,0,.8,0,1.2s0,.8,0,1.2c0,1.3.2,2.5.6,3.7.3,1.2.9,2.2,1.5,3.1.7.9,1.6,1.6,2.7,2.1,1.1.5,2.4.8,3.9.8s3-.3,4.1-.9,2-1.3,2.6-2.2v1.7c0,.3,0,.5.2.7.2.2.4.3.7.3h1.8c.3,0,.5,0,.7-.3.2-.2.3-.4.3-.7v-26.9c0-.3,0-.5-.3-.7-.2-.2-.4-.3-.7-.3ZM202.6,379.8c0,1-.2,2-.6,2.9-.4,1-1,1.8-1.8,2.4-.8.6-1.9.9-3.2.9s-2.5-.3-3.3-.9-1.4-1.4-1.7-2.4c-.4-1-.6-2-.6-3.2,0-.8,0-1.6,0-2.4,0-1.1.3-2.2.6-3.2.4-1,.9-1.8,1.7-2.4s1.9-.9,3.3-.9,2.4.3,3.2.9c.8.6,1.4,1.4,1.9,2.3.4.9.6,1.9.7,2.8,0,.4,0,1,0,1.6s0,1.1,0,1.6Z"/>
        <path class="cls-11" d="M229.6,360.1h-1.9c-.3,0-.5,0-.7.3-.2.2-.3.4-.3.7v9.3c-.7-.8-1.5-1.5-2.6-2.1s-2.4-.9-4-.9-2.8.3-3.9.8c-1.1.5-2,1.3-2.7,2.2-.7.9-1.2,2-1.5,3.1-.3,1.2-.5,2.4-.6,3.7,0,.4,0,.8,0,1.2s0,.8,0,1.2c0,1.3.2,2.5.6,3.7.3,1.2.9,2.2,1.5,3.1.7.9,1.6,1.6,2.7,2.1,1.1.5,2.4.8,3.9.8s3-.3,4.1-.9,2-1.3,2.6-2.2v1.7c0,.3,0,.5.2.7.2.2.4.3.7.3h1.8c.3,0,.5,0,.7-.3.2-.2.3-.4.3-.7v-26.9c0-.3,0-.5-.3-.7-.2-.2-.4-.3-.7-.3ZM226.7,379.8c0,1-.2,2-.6,2.9-.4,1-1,1.8-1.8,2.4-.8.6-1.9.9-3.2.9s-2.5-.3-3.3-.9-1.4-1.4-1.7-2.4c-.4-1-.6-2-.6-3.2,0-.8,0-1.6,0-2.4,0-1.1.3-2.2.6-3.2.4-1,.9-1.8,1.7-2.4s1.9-.9,3.3-.9,2.4.3,3.2.9c.8.6,1.4,1.4,1.9,2.3.4.9.6,1.9.7,2.8,0,.4,0,1,0,1.6s0,1.1,0,1.6Z"/>
        <path class="cls-11" d="M251.3,369.7c-.6-.7-1.5-1.3-2.6-1.7-1.1-.4-2.5-.6-4.1-.6s-2.7.2-3.7.6c-1,.4-1.8.9-2.5,1.4-.6.6-1.1,1.1-1.4,1.7-.3.6-.5,1.1-.5,1.5s0,.5.2.6c.1.2.4.3.7.3h1.8c.4,0,.7-.2.9-.6.3-.8.8-1.4,1.6-1.9s1.7-.7,2.9-.7,2.9.4,3.6,1.1c.7.7,1.1,1.7,1.1,3v1.2l-6,.9c-2.4.4-4.4,1.1-5.9,2.2-1.5,1.1-2.3,2.6-2.3,4.5s.3,2.2,1,3.1c.7.9,1.6,1.6,2.7,2.2s2.3.8,3.7.8,2.4-.2,3.3-.5,1.6-.7,2.2-1.2c.6-.5,1.1-1,1.4-1.4v1.7c0,.3,0,.5.2.7.2.2.4.3.7.3h1.9c.3,0,.5,0,.7-.3.2-.2.3-.4.3-.7v-13.1c0-.9-.1-1.8-.4-2.7-.3-.9-.7-1.7-1.4-2.4ZM249.3,379.6c0,1.5-.3,2.8-.8,3.8-.5,1-1.3,1.7-2.2,2.2-.9.5-1.9.7-3,.7s-1.4-.1-2.1-.4c-.7-.2-1.3-.6-1.7-1.1-.4-.5-.7-1.1-.7-1.9s.5-1.8,1.5-2.4c1-.6,2.4-1.1,4.3-1.4l4.7-.7v1.1Z"/>
        <path class="cls-11" d="M274,368.6c-1.2-.8-2.7-1.2-4.5-1.2s-3,.3-4.1.9c-1.1.6-2,1.3-2.7,2.3v-1.8c0-.3,0-.5-.3-.7-.2-.2-.4-.3-.7-.3h-1.9c-.3,0-.5,0-.7.3-.2.2-.3.4-.3.7v19.2c0,.3,0,.5.3.7.2.2.4.3.7.3h2c.3,0,.5,0,.7-.3.2-.2.3-.4.3-.7v-11.2c0-1.9.5-3.4,1.5-4.4,1-1.1,2.4-1.6,4-1.6s3.1.5,4.1,1.6c.9,1.1,1.4,2.5,1.4,4.4v11.2c0,.3,0,.5.3.7.2.2.4.3.7.3h2c.3,0,.5,0,.7-.3.2-.2.3-.4.3-.7v-11.4c0-1.8-.3-3.4-1-4.8-.6-1.4-1.6-2.4-2.8-3.2Z"/>
        <path class="cls-11" d="M294.7,358.9h-2.4c-1.7,0-3.1.3-4.1.9-1,.6-1.8,1.4-2.2,2.4-.5,1-.7,2.3-.7,3.6v2h-3.4c-.3,0-.5,0-.7.3-.2.2-.3.4-.3.7v1.4c0,.3,0,.5.3.7.2.2.4.3.7.3h3.4v16.9c0,.3,0,.5.3.7.2.2.4.3.7.3h1.9c.3,0,.5,0,.7-.3.2-.2.3-.4.3-.7v-16.9h5.2c.3,0,.5,0,.7-.3.2-.2.3-.4.3-.7v-1.4c0-.3,0-.5-.3-.7-.2-.2-.4-.3-.7-.3h-5.2v-1.8c0-1.2.2-2.2.7-2.9.5-.7,1.3-1,2.6-1h2.4c.3,0,.5,0,.7-.3s.3-.4.3-.7v-1.4c0-.3,0-.5-.3-.7-.2-.2-.4-.3-.7-.3Z"/>
        <path class="cls-11" d="M315.4,371.8c-.7-1.4-1.8-2.5-3.2-3.2-1.4-.8-3.1-1.2-5.1-1.2s-3.7.4-5.1,1.2c-1.4.8-2.4,1.9-3.2,3.2-.7,1.4-1.2,3-1.2,4.8,0,.4,0,1,0,1.7s0,1.3,0,1.8c0,1.8.5,3.4,1.2,4.8.7,1.4,1.8,2.5,3.2,3.3,1.4.8,3.1,1.2,5.2,1.2s3.8-.4,5.2-1.2c1.4-.8,2.4-1.9,3.2-3.3.7-1.4,1.1-3,1.2-4.8,0-.5,0-1,0-1.8s0-1.3,0-1.7c0-1.8-.5-3.4-1.2-4.8ZM312.7,379.9c0,2.1-.6,3.6-1.6,4.7-1,1.1-2.3,1.6-4,1.6s-3-.5-4-1.6c-1-1.1-1.5-2.6-1.6-4.7,0-.4,0-.9,0-1.5s0-1.1,0-1.5c0-2.1.6-3.6,1.6-4.7,1-1.1,2.4-1.6,4-1.6s3,.5,4,1.6c1,1.1,1.5,2.6,1.6,4.7,0,.4,0,.9,0,1.5s0,1.1,0,1.5Z"/>
        <path class="cls-11" d="M333.4,368.1c-.2-.2-.4-.3-.7-.3h-1.6c-1.4,0-2.5.2-3.4.7-.9.5-1.7,1.2-2.2,2.1v-1.8c0-.3,0-.5-.3-.7-.2-.2-.4-.3-.7-.3h-1.9c-.3,0-.5,0-.7.3-.2.2-.3.4-.3.7v19.2c0,.3,0,.5.3.7.2.2.4.3.7.3h2c.3,0,.5,0,.7-.3.2-.2.3-.4.3-.7v-11.9c0-1.5.4-2.6,1.3-3.5s2-1.3,3.4-1.3h2.4c.3,0,.5,0,.7-.2s.3-.4.3-.6v-1.7c0-.3,0-.5-.3-.7Z"/>
      </g>
    </g>
    <g>
      <path class="cls-11" d="M433.3,375.1c-.1-.6-.3-1-.5-1.1-.2-.1-.5-.2-.8,0l-1.5.4c-.4.1-.6.3-.7.5,0,.2,0,.6,0,1.1.4,1.4.7,2.6,1,3.8.3,1.2.4,2.5.4,3.8s-.2,3.4-.7,4.8c-.5,1.4-1.3,2.5-2.4,3.2-1.1.8-2.6,1.2-4.4,1.2h-1.6c-.3,0-.6,0-.8.2-.2.1-.3.4-.3.7v1.7c0,.3,0,.6.2.8.1.2.4.3.7.3h2.1c2.4,0,4.4-.6,6-1.7,1.6-1.1,2.7-2.6,3.4-4.5.7-1.9,1.1-4,1.1-6.3s-.1-2.8-.4-4.4c-.3-1.6-.6-3.1-1-4.6Z"/>
      <path class="cls-11" d="M478.6,365.1c.2.1.3.2.5.2.2,0,.4,0,.5-.2l1.5-1.5c.4-.4.3-.7,0-1.1l-1.5-1.5c-.1-.2-.3-.2-.5-.2s-.3,0-.5.2l-1.5,1.5c-.1.1-.2.3-.2.5s0,.4.2.5l1.5,1.5Z"/>
      <path class="cls-11" d="M497.3,375.6l-.8-3.6c-.1-.6-.5-.9-1.1-.7l-1.5.3c-.3,0-.5.2-.6.3-.1.1-.2.4,0,.7l.7,3.1c.1.5.2.9.3,1.4,0,.4,0,.9,0,1.4,0,1.4-.3,2.5-.8,3.2-.6.7-1.5,1.1-2.8,1.1h-.5s0,0,0,0c0,0,0,0,0,0-1.2,0-2.3,0-3.1,0-.8,0-1.5,0-2.2-.1-.7,0-1.4-.2-2.3-.3,1.2-.9,2-1.9,2.6-2.8.6-1,.9-2.1.9-3.3s-.3-2.5-.9-3.5c-.6-1-1.4-1.8-2.5-2.4-1-.6-2.2-.9-3.4-.9s-2.5.3-3.6.9c-1.1.6-2,1.4-2.7,2.5s-1,2.3-1,3.7c0,.9.2,1.8.5,2.5.3.7.8,1.4,1.3,1.9.5.6,1,1,1.6,1.4-.5.1-1,.2-1.6.3-.6,0-1.4.2-2.2.2-.9,0-1.8,0-3,0h-14.4c0-3.3-.7-5.7-1.8-7.4-1.2-1.6-2.9-2.5-5.3-2.5s-2,.2-2.9.6c-.9.4-1.6.9-2.2,1.5-.6.6-1,1.4-1.4,2.2-.3.8-.5,1.7-.5,2.7,0,1.4.3,2.6,1,3.5.6,1,1.6,1.7,2.8,2.2,1.2.5,2.6.8,4.3.8h2.9c-.4,2.1-1.4,3.7-2.9,4.7-1.5,1.1-3.6,1.6-6.3,1.6h-2.4c-.4,0-.7,0-.9.2-.2.1-.3.4-.3.7v1.8c0,.4.1.7.4.8.2.2.6.3,1.1.3h1.8c3.5,0,6.2-.8,8.3-2.3,2.1-1.6,3.4-4.1,4.2-7.6h3c0,0,0,0,.1,0,0,0,.1,0,.2,0h10.9s0,0,0,0c0,0,0,0,0,0,1.6,0,2.9,0,3.9-.1s2-.2,2.7-.3c.8-.1,1.4-.3,2.1-.6.6-.2,1.3-.5,2-.9.8.4,1.6.7,2.3.9.7.2,1.4.4,2.2.5.8.1,1.7.2,2.7.3s2.3.1,3.7.1,0,0,0,0c0,0,0,0,0,0h1.7c2.1,0,3.7-.7,4.8-2.1,1.1-1.4,1.6-3.2,1.6-5.5s0-.9-.1-1.6c0-.7-.2-1.3-.3-1.9ZM447.8,382.8c-1.7,0-2.9-.3-3.8-.8-.9-.5-1.4-1.3-1.4-2.5s.1-1,.4-1.5c.3-.5.7-.9,1.2-1.3.5-.4,1.3-.5,2.1-.5,1.5,0,2.6.6,3.4,1.7.7,1.1,1.1,2.8,1.2,4.9h-3.1ZM479,381.1c-1.1-.7-2.1-1.4-2.8-2.1-.7-.7-1.1-1.7-1.1-2.8s.4-2,1.2-2.6c.8-.6,1.7-.9,2.7-.9s2.1.3,2.8,1c.7.7,1,1.5,1,2.7s-.3,1.7-1,2.5c-.6.8-1.6,1.6-2.8,2.3Z"/>
      <path class="cls-11" d="M493.9,367.8c.2.1.3.2.5.2.2,0,.4,0,.5-.2l1.5-1.5c.4-.4.3-.7,0-1.1l-1.5-1.5c-.1-.2-.3-.2-.5-.2s-.3,0-.5.2l-1.5,1.5c-.1.1-.2.3-.2.5s0,.4.2.5l1.5,1.5Z"/>
      <path class="cls-11" d="M532.1,356.1h-1.5c-.3,0-.5,0-.7.3-.2.2-.3.4-.3.7v20.6c0,1.4-.1,2.4-.4,3.1-.3.7-.8,1.2-1.4,1.5-.6.3-1.4.4-2.4.4s0,0,0,0,0,0,0,0c-.9,0-1.6-.1-2.1-.4-.6-.2-1.1-.7-1.5-1.4-.4-.7-.9-1.7-1.4-3.1l-3.7-10c-.1-.3-.3-.5-.5-.6-.2,0-.5,0-.9.1l-1.5.6c-.3.1-.5.3-.5.6s0,.6.1.9l3,8c.2.5.3,1,.4,1.4.1.4.2.8.2,1.1,0,1.1-.4,1.9-1.2,2.3-.8.4-1.9.6-3.4.6h-3.9c-.7,0-1.2-.2-1.6-.5-.4-.4-.5-.8-.5-1.4v-1.2c0-.3,0-.6-.2-.7-.1-.2-.4-.2-.7-.2h-1.4c-.4,0-.6,0-.8.3-.1.2-.2.4-.2.8v1.2c0,1.8.5,3.2,1.4,4.2.9,1,2.3,1.6,4.1,1.6h3.4c1.9,0,3.4-.4,4.5-1.1,1.1-.7,1.9-1.7,2.3-2.9.8,1.5,1.8,2.6,2.9,3.1,1.1.5,2.2.8,3.2.8s0,0,0,0,0,0,0,0c1.4,0,2.7-.2,3.7-.5,1-.3,1.9-.9,2.5-1.6.7-.7,1.1-1.7,1.5-2.9.3-1.2.5-2.6.5-4.2v-20.3c0-.3,0-.5-.2-.7-.2-.2-.4-.3-.7-.3Z"/>
      <path class="cls-11" d="M543.6,356.1h-1.5c-.3,0-.5,0-.7.3s-.3.4-.3.7v28.8c0,.3,0,.5.3.7s.4.3.7.3h1.5c.3,0,.5,0,.7-.3s.2-.4.2-.7v-28.8c0-.3,0-.5-.2-.7s-.4-.3-.7-.3Z"/>
      <path class="cls-11" d="M681.4,367.8c.2.1.3.2.5.2.2,0,.4,0,.5-.2l1.5-1.5c.4-.4.3-.7,0-1.1l-1.5-1.5c-.1-.2-.3-.2-.5-.2s-.3,0-.5.2l-1.5,1.5c-.1.1-.2.3-.2.5s0,.4.2.5l1.5,1.5Z"/>
      <path class="cls-11" d="M684.9,375.6l-.8-3.6c-.1-.6-.5-.9-1.1-.7l-1.5.3c-.3,0-.5.2-.6.3-.1.1-.2.4,0,.7l.7,3.1c.1.5.2.9.3,1.4,0,.4,0,.9,0,1.4,0,1.4-.3,2.5-.8,3.2-.6.7-1.5,1.1-2.8,1.1h-68.5c-1.7,0-3-.3-3.7-.9-.7-.6-1.1-1.6-1.1-3.1v-3.5c0-.3,0-.5-.2-.7-.1-.2-.4-.3-.6-.3h-1.7c-.3,0-.5,0-.6.3-.1.2-.2.4-.2.7v3.5c0,1.4-.3,2.4-.8,3.1-.5.7-1.5,1.1-2.9,1.1s-2.4-.3-2.9-1c-.6-.6-.9-1.7-.9-3.1v-3.2c0-.3,0-.5-.2-.7-.1-.2-.4-.3-.7-.3h-1.6c-.3,0-.5,0-.6.3-.2.2-.2.4-.2.7v3.2c0,1.4-.3,2.4-.8,3.1-.5.7-1.5,1-2.9,1s-2.1-.2-2.7-.6c-.6-.4-1.1-1.1-1.3-2-.1-.5-.2-1.1-.4-1.7-.2-.6-.3-1.3-.5-2,0-.3-.2-.5-.3-.7-.2-.2-.4-.2-.7-.2l-1.7.3c-.3,0-.5.2-.6.4-.1.2-.1.5,0,.8.3,1.2.6,2.3.8,3.4.2,1.1.3,2,.3,2.6,0,2.7-.7,4.8-2.1,6.2-1.4,1.4-3.4,2.1-6.1,2.1s-4.4-.6-5.7-1.9c-1.3-1.3-1.9-3.1-1.9-5.4s0-1.6.2-2.4c.1-.8.4-1.6.7-2.4.1-.3.1-.5,0-.7,0-.2-.3-.3-.7-.4l-1.3-.4c-.3,0-.5,0-.7,0-.2.1-.4.3-.5.7-.4,1.1-.7,2.2-1,3.2-.2,1-.3,2-.3,2.9,0,2.1.4,3.9,1.3,5.5.8,1.6,2.1,2.8,3.7,3.7,1.6.9,3.6,1.3,5.9,1.3s2.6-.2,3.9-.6c1.3-.4,2.4-1,3.5-1.8,1.1-.8,1.9-1.9,2.7-3.2.7-1.3,1.2-2.9,1.3-4.7.5.6,1,1.1,1.7,1.4.6.3,1.5.4,2.5.4s1.6-.1,2.3-.3c.7-.2,1.2-.5,1.7-1,.5-.4.8-.9,1-1.5.5,1,1.3,1.7,2.3,2.1s2.1.7,3.5.7,2.2-.2,3.1-.7c.9-.4,1.6-1.1,1.9-2.1.6.9,1.5,1.6,2.7,2,1.1.4,2.5.6,4.3.6s0,0,.1,0c0,0,.1,0,.2,0h10.9c0,0,.1,0,.2,0,0,0,0,0,.1,0h10.9c0,0,.1,0,.2,0,0,0,0,0,.1,0h10.9c0,0,.1,0,.2,0,0,0,0,0,.1,0h10.9c0,0,.1,0,.2,0,0,0,0,0,.1,0h10.9c0,0,.1,0,.2,0,0,0,0,0,.1,0h10.9s0,0,0,0c0,0,0,0,0,0h1.7c2.1,0,3.7-.7,4.8-2.1,1.1-1.4,1.6-3.2,1.6-5.5s0-.9-.1-1.6c0-.7-.2-1.3-.3-1.9Z"/>
      <path class="cls-11" d="M698.1,356c-.1,0-.3-.1-.6,0l-1.3.3c-1,.2-1.8.2-2.4,0-.6-.3-.9-.7-.9-1.3s.2-.7.5-1c.3-.2.8-.4,1.3-.4s.7,0,1,.1c.4,0,.7.2,1,.3.3.1.4,0,.4-.3v-1c0-.3-.2-.5-.5-.7-.2-.1-.5-.2-.8-.3-.3,0-.7-.1-1-.1-1.1,0-2.1.3-2.8,1-.7.7-1.1,1.5-1.1,2.6s0,.8.3,1.2c.2.4.4.6.7.9l-1.2.3c-.2,0-.4.2-.5.3-.1.1-.2.3-.2.7v.7c0,.2,0,.4.2.5.1.1.3.1.5,0l7.1-1.8c.4-.1.5-.4.5-.8v-.8c0-.2,0-.4-.2-.5Z"/>
      <path class="cls-11" d="M695,361.1l-2,.6c-.2,0-.4.1-.5.2,0,.1-.1.3-.1.6v23.3c0,.3,0,.5.3.7s.4.3.7.3h1.5c.3,0,.5,0,.7-.3s.2-.4.2-.7v-24.1c0-.2,0-.4-.2-.5-.1-.1-.3-.1-.6,0Z"/>
    </g>
    <g>
      <g>
        <circle class="cls-11" cx="377.4" cy="374.1" r="4.9"/>
        <path class="cls-11" d="M377.4,370.3c2.1,0,3.9,1.7,3.9,3.9s-1.7,3.9-3.9,3.9-3.9-1.7-3.9-3.9,1.7-3.9,3.9-3.9M377.4,369.3c-2.7,0-4.9,2.2-4.9,4.9s2.2,4.9,4.9,4.9,4.9-2.2,4.9-4.9-2.2-4.9-4.9-4.9h0Z"/>
      </g>
      <circle class="cls-11" cx="358.6" cy="374.1" r="4.9"/>
      <circle class="cls-11" cx="396.2" cy="374.1" r="4.9"/>
    </g>
    <g>
      <g>
        <g>
          <g>
            <path class="cls-11" d="M544.1,138.3c4.3-15.1,8.6-18,22.3-23.8-13.7-5.8-18-8.6-22.3-23.8-4.3,15.1-8.3,18-22.7,23.8,14,5.8,18.7,8.6,22.7,23.8Z"/>
            <path class="cls-11" d="M555.3,157.9c-9,0-12.9,5.4-14,13.7-9,1.1-13.3,7.6-13.7,16.2,1.1-.7,2.9-1.4,4.3-1.4,4.3,0,4.7,4.3,4.7,7.9v20h-13.2l5.9,24.5h31.3v-70.1c0-4,2.2-6.1,5.8-6.1l1.4.4c-3.6-2.9-7.9-5.1-12.6-5.1Z"/>
          </g>
          <g>
            <path class="cls-11" d="M65.6,282.1c5.5-1.8,9.8-7.1,12.8-15.9-1.2-6.4-1.8-13.3-1.8-20.5,0-22.3,6-37.5,18.2-45.6.4-.3.8-.6,1.3-.8-.4,0-.7-.2-1-.3-3.5-.9-6.8-1.5-9.1-1.5-4,0-7.9,2.9-11.1,8.3h-3.6c-8.3,0-14,1.4-17.6,4.3-4,3.2-6.5,8.6-7.6,15.8,3.6-1.1,6.8-1.4,9.4-1.4,6.5,0,9,5.4,9,16.5v27c0,4.9.4,9.6,1.3,14.1Z"/>
            <path class="cls-11" d="M273.7,78.7h9.7s14.7,24.1,14.7,24.1v-51.8h7.2c-4.3-3.3-8.6-4.7-12.9-4.7s-9,1.9-11.3,5.7c-.1.2-.3.5-.4.7-.7,1.4-1.3,3-1.7,4.9-.1.6-.2,1.3-.3,2-8.6,1.1-13.3,6.8-13.7,16.2,1.4-.7,2.9-1.4,4-1.4,2.7,0,4.2,1.4,4.8,4.3Z"/>
            <path class="cls-11" d="M64.5,286.6l1.9-.6h0c-.6.2-1.2.3-1.8.4,0,0,0,.1-.1.2Z"/>
            <path class="cls-11" d="M478.6,214.3h-104.5V46.6c0-2.9,1.2-4.8,3.3-5.6.8-.3,1.7-.5,2.8-.5h.4c0,.1.7.4.7.4-.3-.3-.7-.5-1-.8-.9-.7-1.9-1.4-2.9-1.9-1.3-.7-2.6-1.3-3.9-1.7-.4-.1-.7-.2-1.1-.3-1.2-.3-2.5-.4-3.7-.4s-1.7,0-2.5.2c-.4,0-.7.1-1.1.2-1,.2-2,.5-2.8,1-4.1,2-6.6,6.1-7.6,12.3-8.6,1.1-13,6.5-13.7,16.2,1.8-1.1,3.3-1.4,4.3-1.4,3.2,0,5,2.5,5,7.9v142.2h-52.2v-35l-19.1-32.8-5-8.6v76.4l-7.6.2h-2.1v25.5h8.3s32.6-.2,32.6-.2l28.2-.2h4.5s27.2-.2,27.2-.2h2.9s4.4,0,4.4,0h5s44.4-.3,44.4-.3h7.9c0,0,0,0,0,0h4s0,0,0,0h15.6c0,0,28.7-.3,28.7-.3h1.8s4.3,0,4.3,0l-5.7-24.5Z"/>
            <path class="cls-11" d="M214.9,215.8h-3.8c0,0-1.7.1-1.7.1V69.1c0-4,1.8-5.8,5.8-5.8h1.1c-4-3.6-8.3-5.4-12.6-5.4-7.9,0-12.6,5-14,13.7-4.1.7-7.3,2.3-9.6,4.9-1.2,1.4-2.2,3-2.8,4.9-.7,1.9-1.1,4-1.3,6.5,1-.4,1.9-.7,2.7-.9.6-.2,1.2-.2,1.7-.2,1,0,1.8.2,2.5.7,1.5,1.1,2.2,3.3,2.2,6.8v164.4c0,10.2-3.1,19.7-8.3,27.7-.4.6-.8,1.2-1.2,1.8-1,1.4-2,2.7-3.1,3.9-10.1,11.7-25.2,19.1-41.4,19.1s-33.5-7.3-42.1-19.1h-20.6c9,26.3,32.8,43.6,63.4,43.6s57.9-17.9,68.7-43.6c.5-1.3,1.1-2.6,1.5-3.9.8-2.3,1.6-4.6,2.3-7,.4-1.4.8-2.7,1.1-4.1.5-1.8.9-3.5,1.2-5.3,2-10,2.9-20.6,2.9-31.5l39.7-.2v-25.2l-19,.5-15.3.4Z"/>
          </g>
          <g>
            <path class="cls-11" d="M635.3,79.7l4.4.3c-1.4-.2-2.9-.2-4.4-.3Z"/>
            <path class="cls-11" d="M671.3,176c-1.1-.6-2.2-1.1-3.3-1.7,1.1.6,2.2,1.1,3.3,1.7h0Z"/>
            <path class="cls-11" d="M657.8,129.6l-14,13.3-3.6-3.2v-40c0-3.6.9-5.9,2.6-6.9.7-.4,1.5-.6,2.4-.6h0c-2.4-.5-5-.9-7.8-1.1-1.2-.1-2.4-.2-4-.2-6.6,0-12.3.9-17.1,2.7v52.5s1.3,1.2,1.3,1.2c2,1.2,4.1,2.3,6.5,3.5,6.5,3.2,13.7,6.2,21.3,9.3,9.3,3.8,18.8,7.7,27.8,12.4l-15.4-15.6,13.7-14-13.7-13.3Z"/>
            <path class="cls-11" d="M658.1,48.6l-4.7-9.7h-16.5c-3.3,0-6.1-1.1-8.3-3.3-2.9-2.2-4-4.7-4-8.3,0-6.1,5.8-10.8,11.9-10.8s6.1,1.4,9.7,4.3c.7-1.4.7-2.5.7-3.3,0-2.2-1.4-3.6-3.2-5,1.4-1.4,1.8-2.9,1.8-4.7s-1.1-5-4-7.9c-.4,2.9-1.4,4.7-2.5,5.4-1.1.7-3.6,1.4-7.2,2.2-9.7,1.8-17.6,9.7-17.6,19.4s1.8,9.4,5.8,13c-6.5,2.5-9.7,6.8-10.1,13,2.9-2.9,6.5-4.3,11.2-4.3h37.1Z"/>
            <path class="cls-11" d="M616.4,74.5v2.8c5.4-1.1,11.1-1.6,17.1-1.6s1.4,0,2.1,0c-1.4-8-6-12.4-13.8-12.4s-8.3,1.8-12.2,5.4h1.4c3.6,0,5.4,1.8,5.4,5.8Z"/>
            <path class="cls-11" d="M612.4,281.9l3.1.6c-1.1-.2-2.1-.5-3.1-.7h0Z"/>
            <path class="cls-11" d="M658.9,209.1c-1.8-1.1-3.7-2.2-5.8-3.2-6.6-3.4-13.9-6.3-21.6-9.4-9.4-3.8-19.2-7.7-28-12.7h-.1c0,.1,25.6,25,25.6,25l-12.6,12.2v57.6c3.5.7,7.1,1.1,10.9,1.2.7,0,1.4,0,2.1,0,6.9,0,12.9-.8,18.2-2.3-4.9-2.1-7.4-5.7-7.4-10.5v-39.6l3.6-3.2,14,13.7,14-13.7-14-14,1.2-1.2Z"/>
            <path class="cls-11" d="M613.1,90.7c.2,0,.4-.2.6-.3l-1.3.5h0c.2,0,.5-.1.7-.2Z"/>
          </g>
        </g>
        <g>
          <g>
            <path class="cls-11" d="M544.1,138.3c4.3-15.1,8.6-18,22.3-23.8-13.7-5.8-18-8.6-22.3-23.8-4.3,15.1-8.3,18-22.7,23.8,14,5.8,18.7,8.6,22.7,23.8Z"/>
            <path class="cls-11" d="M555.3,157.9c-9,0-12.9,5.4-14,13.7-9,1.1-13.3,7.6-13.7,16.2,1.1-.7,2.9-1.4,4.3-1.4,4.3,0,4.7,4.3,4.7,7.9v20h-13.2l5.9,24.5h31.3v-70.1c0-4,2.2-6.1,5.8-6.1l1.4.4c-3.6-2.9-7.9-5.1-12.6-5.1Z"/>
          </g>
          <g>
            <path class="cls-11" d="M65.6,282.1c5.5-1.8,9.8-7.1,12.8-15.9-1.2-6.4-1.8-13.3-1.8-20.5,0-22.3,6-37.5,18.2-45.6.4-.3.8-.6,1.3-.8-.4,0-.7-.2-1-.3-3.5-.9-6.8-1.5-9.1-1.5-4,0-7.9,2.9-11.1,8.3h-3.6c-8.3,0-14,1.4-17.6,4.3-4,3.2-6.5,8.6-7.6,15.8,3.6-1.1,6.8-1.4,9.4-1.4,6.5,0,9,5.4,9,16.5v27c0,4.9.4,9.6,1.3,14.1Z"/>
            <path class="cls-11" d="M273.7,78.7h9.7s14.7,24.1,14.7,24.1v-51.8h7.2c-4.3-3.3-8.6-4.7-12.9-4.7s-9,1.9-11.3,5.7c-.1.2-.3.5-.4.7-.7,1.4-1.3,3-1.7,4.9-.1.6-.2,1.3-.3,2-8.6,1.1-13.3,6.8-13.7,16.2,1.4-.7,2.9-1.4,4-1.4,2.7,0,4.2,1.4,4.8,4.3Z"/>
            <path class="cls-11" d="M64.5,286.6l1.9-.6h0c-.6.2-1.2.3-1.8.4,0,0,0,.1-.1.2Z"/>
            <path class="cls-11" d="M478.6,214.3h-104.5V46.6c0-2.9,1.2-4.8,3.3-5.6.8-.3,1.7-.5,2.8-.5h.4c0,.1.7.4.7.4-.3-.3-.7-.5-1-.8-.9-.7-1.9-1.4-2.9-1.9-1.3-.7-2.6-1.3-3.9-1.7-.4-.1-.7-.2-1.1-.3-1.2-.3-2.5-.4-3.7-.4s-1.7,0-2.5.2c-.4,0-.7.1-1.1.2-1,.2-2,.5-2.8,1-4.1,2-6.6,6.1-7.6,12.3-8.6,1.1-13,6.5-13.7,16.2,1.8-1.1,3.3-1.4,4.3-1.4,3.2,0,5,2.5,5,7.9v142.2h-52.2v-35l-19.1-32.8-5-8.6v76.4l-7.6.2h-2.1v25.5h8.3s32.6-.2,32.6-.2l28.2-.2h4.5s27.2-.2,27.2-.2h2.9s4.4,0,4.4,0h5s44.4-.3,44.4-.3h7.9c0,0,0,0,0,0h4s0,0,0,0h15.6c0,0,28.7-.3,28.7-.3h1.8s4.3,0,4.3,0l-5.7-24.5Z"/>
            <path class="cls-11" d="M214.9,215.8h-3.8c0,0-1.7.1-1.7.1V69.1c0-4,1.8-5.8,5.8-5.8h1.1c-4-3.6-8.3-5.4-12.6-5.4-7.9,0-12.6,5-14,13.7-4.1.7-7.3,2.3-9.6,4.9-1.2,1.4-2.2,3-2.8,4.9-.7,1.9-1.1,4-1.3,6.5,1-.4,1.9-.7,2.7-.9.6-.2,1.2-.2,1.7-.2,1,0,1.8.2,2.5.7,1.5,1.1,2.2,3.3,2.2,6.8v164.4c0,10.2-3.1,19.7-8.3,27.7-.4.6-.8,1.2-1.2,1.8-1,1.4-2,2.7-3.1,3.9-10.1,11.7-25.2,19.1-41.4,19.1s-33.5-7.3-42.1-19.1h-20.6c9,26.3,32.8,43.6,63.4,43.6s57.9-17.9,68.7-43.6c.5-1.3,1.1-2.6,1.5-3.9.8-2.3,1.6-4.6,2.3-7,.4-1.4.8-2.7,1.1-4.1.5-1.8.9-3.5,1.2-5.3,2-10,2.9-20.6,2.9-31.5l39.7-.2v-25.2l-19,.5-15.3.4Z"/>
          </g>
          <g>
            <path class="cls-11" d="M635.3,79.7l4.4.3c-1.4-.2-2.9-.2-4.4-.3Z"/>
            <path class="cls-11" d="M671.3,176c-1.1-.6-2.2-1.1-3.3-1.7,1.1.6,2.2,1.1,3.3,1.7h0Z"/>
            <path class="cls-11" d="M657.8,129.6l-14,13.3-3.6-3.2v-40c0-3.6.9-5.9,2.6-6.9.7-.4,1.5-.6,2.4-.6h0c-2.4-.5-5-.9-7.8-1.1-1.2-.1-2.4-.2-4-.2-6.6,0-12.3.9-17.1,2.7v52.5s1.3,1.2,1.3,1.2c2,1.2,4.1,2.3,6.5,3.5,6.5,3.2,13.7,6.2,21.3,9.3,9.3,3.8,18.8,7.7,27.8,12.4l-15.4-15.6,13.7-14-13.7-13.3Z"/>
            <path class="cls-11" d="M658.1,48.6l-4.7-9.7h-16.5c-3.3,0-6.1-1.1-8.3-3.3-2.9-2.2-4-4.7-4-8.3,0-6.1,5.8-10.8,11.9-10.8s6.1,1.4,9.7,4.3c.7-1.4.7-2.5.7-3.3,0-2.2-1.4-3.6-3.2-5,1.4-1.4,1.8-2.9,1.8-4.7s-1.1-5-4-7.9c-.4,2.9-1.4,4.7-2.5,5.4-1.1.7-3.6,1.4-7.2,2.2-9.7,1.8-17.6,9.7-17.6,19.4s1.8,9.4,5.8,13c-6.5,2.5-9.7,6.8-10.1,13,2.9-2.9,6.5-4.3,11.2-4.3h37.1Z"/>
            <path class="cls-11" d="M616.4,74.5v2.8c5.4-1.1,11.1-1.6,17.1-1.6s1.4,0,2.1,0c-1.4-8-6-12.4-13.8-12.4s-8.3,1.8-12.2,5.4h1.4c3.6,0,5.4,1.8,5.4,5.8Z"/>
            <path class="cls-11" d="M612.4,281.9l3.1.6c-1.1-.2-2.1-.5-3.1-.7h0Z"/>
            <path class="cls-11" d="M658.9,209.1c-1.8-1.1-3.7-2.2-5.8-3.2-6.6-3.4-13.9-6.3-21.6-9.4-9.4-3.8-19.2-7.7-28-12.7h-.1c0,.1,25.6,25,25.6,25l-12.6,12.2v57.6c3.5.7,7.1,1.1,10.9,1.2.7,0,1.4,0,2.1,0,6.9,0,12.9-.8,18.2-2.3-4.9-2.1-7.4-5.7-7.4-10.5v-39.6l3.6-3.2,14,13.7,14-13.7-14-14,1.2-1.2Z"/>
            <path class="cls-11" d="M613.1,90.7c.2,0,.4-.2.6-.3l-1.3.5h0c.2,0,.5-.1.7-.2Z"/>
          </g>
        </g>
        <g>
          <g>
            <path class="cls-11" d="M544.1,138.3c4.3-15.1,8.6-18,22.3-23.8-13.7-5.8-18-8.6-22.3-23.8-4.3,15.1-8.3,18-22.7,23.8,14,5.8,18.7,8.6,22.7,23.8Z"/>
            <path class="cls-11" d="M555.3,157.9c-9,0-12.9,5.4-14,13.7-9,1.1-13.3,7.6-13.7,16.2,1.1-.7,2.9-1.4,4.3-1.4,4.3,0,4.7,4.3,4.7,7.9v20h-13.2l5.9,24.5h31.3v-70.1c0-4,2.2-6.1,5.8-6.1l1.4.4c-3.6-2.9-7.9-5.1-12.6-5.1Z"/>
          </g>
          <g>
            <path class="cls-11" d="M65.6,282.1c5.5-1.8,9.8-7.1,12.8-15.9-1.2-6.4-1.8-13.3-1.8-20.5,0-22.3,6-37.5,18.2-45.6.4-.3.8-.6,1.3-.8-.4,0-.7-.2-1-.3-3.5-.9-6.8-1.5-9.1-1.5-4,0-7.9,2.9-11.1,8.3h-3.6c-8.3,0-14,1.4-17.6,4.3-4,3.2-6.5,8.6-7.6,15.8,3.6-1.1,6.8-1.4,9.4-1.4,6.5,0,9,5.4,9,16.5v27c0,4.9.4,9.6,1.3,14.1Z"/>
            <path class="cls-11" d="M273.7,78.7h9.7s14.7,24.1,14.7,24.1v-51.8h7.2c-4.3-3.3-8.6-4.7-12.9-4.7s-9,1.9-11.3,5.7c-.1.2-.3.5-.4.7-.7,1.4-1.3,3-1.7,4.9-.1.6-.2,1.3-.3,2-8.6,1.1-13.3,6.8-13.7,16.2,1.4-.7,2.9-1.4,4-1.4,2.7,0,4.2,1.4,4.8,4.3Z"/>
            <path class="cls-11" d="M64.5,286.6l1.9-.6h0c-.6.2-1.2.3-1.8.4,0,0,0,.1-.1.2Z"/>
            <path class="cls-11" d="M478.6,214.3h-104.5V46.6c0-2.9,1.2-4.8,3.3-5.6.8-.3,1.7-.5,2.8-.5h.4c0,.1.7.4.7.4-.3-.3-.7-.5-1-.8-.9-.7-1.9-1.4-2.9-1.9-1.3-.7-2.6-1.3-3.9-1.7-.4-.1-.7-.2-1.1-.3-1.2-.3-2.5-.4-3.7-.4s-1.7,0-2.5.2c-.4,0-.7.1-1.1.2-1,.2-2,.5-2.8,1-4.1,2-6.6,6.1-7.6,12.3-8.6,1.1-13,6.5-13.7,16.2,1.8-1.1,3.3-1.4,4.3-1.4,3.2,0,5,2.5,5,7.9v142.2h-52.2v-35l-19.1-32.8-5-8.6v76.4l-7.6.2h-2.1v25.5h8.3s32.6-.2,32.6-.2l28.2-.2h4.5s27.2-.2,27.2-.2h2.9s4.4,0,4.4,0h5s44.4-.3,44.4-.3h7.9c0,0,0,0,0,0h4s0,0,0,0h15.6c0,0,28.7-.3,28.7-.3h1.8s4.3,0,4.3,0l-5.7-24.5Z"/>
            <path class="cls-11" d="M214.9,215.8h-3.8c0,0-1.7.1-1.7.1V69.1c0-4,1.8-5.8,5.8-5.8h1.1c-4-3.6-8.3-5.4-12.6-5.4-7.9,0-12.6,5-14,13.7-4.1.7-7.3,2.3-9.6,4.9-1.2,1.4-2.2,3-2.8,4.9-.7,1.9-1.1,4-1.3,6.5,1-.4,1.9-.7,2.7-.9.6-.2,1.2-.2,1.7-.2,1,0,1.8.2,2.5.7,1.5,1.1,2.2,3.3,2.2,6.8v164.4c0,10.2-3.1,19.7-8.3,27.7-.4.6-.8,1.2-1.2,1.8-1,1.4-2,2.7-3.1,3.9-10.1,11.7-25.2,19.1-41.4,19.1s-33.5-7.3-42.1-19.1h-20.6c9,26.3,32.8,43.6,63.4,43.6s57.9-17.9,68.7-43.6c.5-1.3,1.1-2.6,1.5-3.9.8-2.3,1.6-4.6,2.3-7,.4-1.4.8-2.7,1.1-4.1.5-1.8.9-3.5,1.2-5.3,2-10,2.9-20.6,2.9-31.5l39.7-.2v-25.2l-19,.5-15.3.4Z"/>
          </g>
          <g>
            <path class="cls-11" d="M635.3,79.7l4.4.3c-1.4-.2-2.9-.2-4.4-.3Z"/>
            <path class="cls-11" d="M671.3,176c-1.1-.6-2.2-1.1-3.3-1.7,1.1.6,2.2,1.1,3.3,1.7h0Z"/>
            <path class="cls-11" d="M657.8,129.6l-14,13.3-3.6-3.2v-40c0-3.6.9-5.9,2.6-6.9.7-.4,1.5-.6,2.4-.6h0c-2.4-.5-5-.9-7.8-1.1-1.2-.1-2.4-.2-4-.2-6.6,0-12.3.9-17.1,2.7v52.5s1.3,1.2,1.3,1.2c2,1.2,4.1,2.3,6.5,3.5,6.5,3.2,13.7,6.2,21.3,9.3,9.3,3.8,18.8,7.7,27.8,12.4l-15.4-15.6,13.7-14-13.7-13.3Z"/>
            <path class="cls-11" d="M658.1,48.6l-4.7-9.7h-16.5c-3.3,0-6.1-1.1-8.3-3.3-2.9-2.2-4-4.7-4-8.3,0-6.1,5.8-10.8,11.9-10.8s6.1,1.4,9.7,4.3c.7-1.4.7-2.5.7-3.3,0-2.2-1.4-3.6-3.2-5,1.4-1.4,1.8-2.9,1.8-4.7s-1.1-5-4-7.9c-.4,2.9-1.4,4.7-2.5,5.4-1.1.7-3.6,1.4-7.2,2.2-9.7,1.8-17.6,9.7-17.6,19.4s1.8,9.4,5.8,13c-6.5,2.5-9.7,6.8-10.1,13,2.9-2.9,6.5-4.3,11.2-4.3h37.1Z"/>
            <path class="cls-11" d="M616.4,74.5v2.8c5.4-1.1,11.1-1.6,17.1-1.6s1.4,0,2.1,0c-1.4-8-6-12.4-13.8-12.4s-8.3,1.8-12.2,5.4h1.4c3.6,0,5.4,1.8,5.4,5.8Z"/>
            <path class="cls-11" d="M612.4,281.9l3.1.6c-1.1-.2-2.1-.5-3.1-.7h0Z"/>
            <path class="cls-11" d="M658.9,209.1c-1.8-1.1-3.7-2.2-5.8-3.2-6.6-3.4-13.9-6.3-21.6-9.4-9.4-3.8-19.2-7.7-28-12.7h-.1c0,.1,25.6,25,25.6,25l-12.6,12.2v57.6c3.5.7,7.1,1.1,10.9,1.2.7,0,1.4,0,2.1,0,6.9,0,12.9-.8,18.2-2.3-4.9-2.1-7.4-5.7-7.4-10.5v-39.6l3.6-3.2,14,13.7,14-13.7-14-14,1.2-1.2Z"/>
            <path class="cls-11" d="M613.1,90.7c.2,0,.4-.2.6-.3l-1.3.5h0c.2,0,.5-.1.7-.2Z"/>
          </g>
        </g>
      </g>
      <g>
        <g>
          <path class="cls-11" d="M178.6,180.1l-1.4-5.6-8.2-33.7-7.7-31.5c-4.1-16.7,0-25.3,8.5-25.3v-1.5h-60.5v1.5c11.5,0,15.6,8.5,11.5,25.3l-21.2,87-1.5,6.3h0l-.7,3-13.6,55.9c-.4,1.6-.9,3.3-1.4,5h0s-.3,1-.3,1c-.2.6-.4,1.2-.7,1.8-.2.5-.4,1-.6,1.5,0,.2-.2.5-.3.7-.2.5-.4.9-.6,1.4-.4.8-.7,1.5-1.2,2.3-.3.5-.6,1.1-1,1.6-.2.4-.5.8-.8,1.2-.3.4-.6.8-.9,1.2-.9,1.2-1.9,2.2-3,3.2-.3.2-.5.5-.8.6,0,0,0,0,0,0-.3.2-.6.5-.9.6,0,0-.2.2-.4.2-.3.2-.6.4-1,.6-.4.2-.7.4-1.1.6-.5.3-1.1.5-1.7.7-.3,0-.5.2-.8.3-.5.2-1,.3-1.6.4-1.2.3-2.6.4-4,.4v1.5h42v-1.5c-5.6,0-9-2.2-10.8-5.7-.3-.5-.5-1.1-.7-1.6,0-.1,0-.3-.1-.4-.2-.5-.3-1.1-.5-1.7,0-.2,0-.3-.1-.5-.1-.7-.2-1.4-.3-2.1,0-.4,0-.8,0-1.2,0-.4,0-.7,0-1.1,0-.5,0-1.1,0-1.6,0-.2,0-.4,0-.6,0-.6,0-1.3.2-1.9,0,0,0-.2,0-.3.3-2.2.7-4.5,1.2-6.7l2.8-11.7,1.6-6.8h0l4.9-20.3h55.2l4.2,17.3,5.2,21.5c2.6,11.5.9,25.3-11.2,25.3v1.5h15.9c.6-.8,1.2-1.5,1.7-2.3.3-.4.6-.8.9-1.2l.3-.5c5-7.6,7.6-16.5,7.6-25.5v-68.6l-2.4-10ZM108,211.5l20.8-85.6,20.8,85.6h-41.6Z"/>
          <g>
            <path class="cls-11" d="M346.4,189.6l-44.4-72.9-3.9-6.4-16.9-27.7h-45.2v1.5c13.8,0,17,8.5,17,25.3v152.2c0,16.7-3.2,25.3-17,25.3v1.5h41.4v-1.5c-13.8,0-17-8.5-17-25.3V106.8l7.9,13.5.3.5,1.5,2.6,3.9,6.7,6.7,11.4,17.5,30,3.9,6.7,18.7,32.2h25.6v-20.7Z"/>
            <polygon class="cls-11" points="368 243.4 366.2 243.4 365 243.4 340.1 243.5 366.1 288.2 373.5 288.2 373.5 243.3 368 243.4"/>
          </g>
          <g>
            <path class="cls-11" d="M424.3,261.5l2.8-11.7,1.6-6.8h-7.9s-4.5,18.5-4.5,18.5c-2.9,12-9.1,25.3-22.9,25.3v1.5h42v-1.5c-13.8,0-14.1-13.2-11.2-25.3Z"/>
            <path class="cls-11" d="M530.9,261.5l-5.5-22.7-6-24.5-25.5-105c-4.1-16.7,0-25.3,8.5-25.3v-1.5h-60.5v1.5c11.5,0,15.6,8.5,11.5,25.3l-24.6,101.1h7.9l24.6-101.1,24.6,101.1,1,3.9.3,1.1,1.1,4.5v.5c.1,0,.7,2.4.7,2.4l3.9,16.1,5.5,22.7c2.6,11.5.9,25.3-11.2,25.3v1.5h66.7v-1.5c-12.3,0-20.3-13.8-22.9-25.3Z"/>
          </g>
          <path class="cls-11" d="M684.4,184c-2.1-1.5-4.2-2.9-6.4-4.3-2.2-1.3-4.3-2.5-6.6-3.7-1.1-.6-2.2-1.1-3.3-1.7-1.1-.5-2.2-1.1-3.4-1.6-1.1-.5-2.3-1.1-3.4-1.6l-3.4-1.5c-7.4-3.2-14.9-6.2-22-9.1-1.9-.8-3.7-1.6-5.5-2.4,0,0-.1,0-.2,0-1-.5-2-.9-3-1.3h0c-1.6-.8-3.3-1.5-4.8-2.3-2.5-1.3-4.7-2.4-6.7-3.6l-.4-.2h0c-1.2-.7-2.3-1.4-3.4-2.2-.4-.3-.9-.6-1.3-.9-.4-.3-.8-.6-1.3-.9,0,0,0,0-.1,0-.5-.4-1-.7-1.5-1.1-.3-.2-.5-.4-.8-.6-1.6-1.3-3-2.6-4.3-4.1-.2-.2-.4-.5-.6-.7-.9-1-1.7-2.1-2.4-3.1-.3-.4-.5-.7-.7-1.1-1.4-2.3-2.4-4.8-3.1-7.4,0-.4-.2-.7-.2-1.1,0-.3-.1-.6-.2-1,0-.3-.1-.6-.2-1,0-.5,0-.9-.2-1.4,0-.3,0-.7,0-1,0-.4,0-.8,0-1.2-.2-13.6,5.1-24.3,16.4-30.1.4-.2.7-.4,1.1-.5.2-.1.5-.2.7-.3.2,0,.4-.2.6-.3l.9-.3.4-.2c.5-.2.9-.3,1.4-.5.5-.2.9-.3,1.4-.4.3,0,.6-.2.9-.3,1.7-.5,3.5-.8,5.3-1.1.3,0,.6,0,1-.1.3,0,.6,0,1-.1.8,0,1.6-.2,2.4-.2.4,0,.7,0,1.1,0,1.3,0,2.7-.1,4.1-.1s1.4,0,2.1,0c.7,0,1.4,0,2.1.1.7,0,1.4,0,2,.2,0,0,.1,0,.2,0,.5,0,1,0,1.5.2.7,0,1.4.2,2,.3.7.1,1.4.3,2.1.4.2,0,.4,0,.5.1.9.2,1.8.4,2.6.6.2,0,.4,0,.5.2,0,0,0,0,0,0,.3,0,.6.2,1,.3.1,0,.3,0,.4.1h.4c0,.1.4.3.4.3h.4c0,.1.8.4.8.4h.2c0,0,0,0,0,0,.4.2.8.3,1.3.5.4.2.8.4,1.2.5.1,0,.2,0,.4.2.4.2.8.4,1.2.6.4.2.8.4,1.2.6.8.5,1.7.9,2.4,1.4.6.4,1.3.8,1.9,1.2.2.2.5.3.7.5,0,0,0,0,0,0,.4.3.9.6,1.3,1h0c0,0,.1.1.2.2.3.2.5.4.8.6.5.5,1.1.9,1.6,1.4.6.5,1.2,1.1,1.7,1.6,1.1,1.1,2.1,2.2,3,3.3.4.4.7.9,1.1,1.3.4.5.8,1,1.1,1.4.4.6.8,1.2,1.2,1.8,0,0,.2.2.2.3.4.6.8,1.1,1.1,1.7.3.5.6,1,.9,1.5.4.7.8,1.4,1.2,2.1.4.7.7,1.4,1.1,2.1.2.4.4.7.5,1.1.3.7.6,1.4.9,2.1.2.5.4,1,.6,1.5.2.5.4,1,.6,1.5.3.7.5,1.3.7,2,.1.3.2.6.3,1,0,.3.2.5.3.8.1.4.2.7.3,1.1,0,.3.2.6.3.9,0,.3.2.5.2.8,0,.3.2.5.2.8.3,1.2.6,2.3.8,3.3,0,.2,0,.4.1.6,0,.2,0,.5.1.6,0,.2,0,.4.1.6,0,.2,0,.4,0,.6,0,.2,0,.4,0,.5,0,.2,0,.3,0,.5,0,.2,0,.3,0,.5,0,.3,0,.5.1.8,0,.2,0,.3,0,.4,0,.1,0,.2,0,.3,0,.2,0,.3,0,.3h2.1v-56.1h-1.5c-6.9,20.1-16.1,1.7-43.7-2.2-.3,0-.5,0-.8-.1-.9-.1-1.8-.2-2.8-.3,0,0,0,0-.1,0,0,0,0,0,0,0-1.4-.2-2.9-.2-4.4-.3-.6,0-1.2,0-1.9,0-1.1,0-2.1,0-3.2,0-.9,0-1.9,0-2.8.1-.8,0-1.5,0-2.3.2-1.7.1-3.3.3-4.9.6-.7,0-1.4.2-2,.3-.7.1-1.4.2-2,.4-1.7.3-3.4.7-5,1.2-25,7-38.4,26-38.4,47.4s11.4,37.2,26.8,47.1c1,.7,2.1,1.3,3.2,1.9,0,0,0,0,.1,0,1.1.7,2.3,1.3,3.4,1.9,15.6,8.5,33.9,14,48.5,21.5,2.4,1.2,4.7,2.5,6.9,3.8,1.2.7,2.3,1.4,3.3,2.2.6.4,1.2.9,1.8,1.3.5.4,1.1.8,1.6,1.3.1,0,.2.2.4.3.5.4.9.8,1.3,1.1.4.4.8.8,1.2,1.2.3.3.6.6.9.9.4.4.8.8,1.1,1.2.5.5.9,1,1.3,1.6.5.6.9,1.2,1.4,1.8.4.6.9,1.3,1.3,2,.3.5.5.9.8,1.4,0,0,0,0,0,.1.3.5.5,1,.7,1.6,0,0,0,.1,0,.2.2.5.5,1.1.7,1.7.2.6.4,1.3.6,1.9,0,.2.2.5.2.7.2.7.4,1.4.5,2.1,0,.5.2,1,.3,1.6,0,0,0,0,0,.1,0,.3,0,.6.1,1,0,0,0,.1,0,.2,0,.4,0,.7,0,1.1,0,.2,0,.4,0,.6,0,.7,0,1.5,0,2.3s0,1.3,0,1.9c0,.5,0,1,0,1.5,0,.4,0,.8,0,1.2,0,1.1-.2,2.1-.4,3.2,0,.5-.2,1-.3,1.5,0,.5-.2.9-.3,1.4,0,.2,0,.3-.1.5,0,.4-.2.8-.3,1.2-.1.5-.3,1-.4,1.4,0,.2-.1.5-.2.7,0,0,0,.2,0,.3,0,.4-.2.7-.3,1.1-.2.6-.4,1.2-.7,1.8-.2.6-.5,1.2-.7,1.8-1.1,2.4-2.4,4.7-3.9,6.9,0,0,0,0-.1.2-.3.5-.6.9-1,1.3-.4.5-.8,1-1.2,1.5-.4.5-.9,1-1.3,1.5-.4.5-.8.9-1.2,1.3,0,0-.2.2-.3.3-.4.4-.8.7-1.2,1.1-.9.8-1.9,1.6-2.9,2.4-.4.3-.8.6-1.3.9-.4.3-.8.6-1.3.8-.9.6-1.9,1.2-2.9,1.7l-1.5.8c-.6.3-1.2.6-1.8.9-.6.3-1.3.6-1.9.8-.5.2-1,.4-1.6.6-.5.2-1.1.4-1.7.6,0,0-.1,0-.2,0-.5.1-.9.3-1.4.4-.4.1-.8.3-1.3.4-.5.1-.9.2-1.3.3-.4.1-.9.2-1.4.3-.3,0-.6.1-.9.2-.3,0-.6.1-.9.2-.8.2-1.5.3-2.3.4-.9.1-1.8.3-2.8.4-.8,0-1.6.2-2.4.2-.4,0-.7,0-1.1,0-.1,0-.2,0-.4,0-.7,0-1.4,0-2.1.1-1,0-2.1,0-3.1,0s-1.5,0-2.2,0c-1.4,0-2.7,0-4-.2-.6,0-1.3,0-1.9-.2-.6,0-1.3-.2-1.9-.3-.5,0-1.1-.1-1.6-.3-.5,0-1-.1-1.4-.2-.2,0-.4,0-.6-.1,0,0-.1,0-.2,0-1.1-.2-2.1-.5-3.1-.7-.4,0-.7-.2-1.1-.3-32.8-9.2-39.6-42.5-40.6-48.5s-.5-.9-1.1-.9h0c-.6,0-1.1.5-1.1,1.1v55h1.5c3.8-18.9,17.2-5,41.3.7,1.6.4,3.3.7,5,1,1.4.2,2.8.5,4.2.6,2.8.3,5.7.5,8.8.5s.6,0,1,0c38.2-.3,78.9-18.3,78.9-60.5s-10.4-36.3-24.9-46.7ZM644.5,193.3l-1.9,1.8-11.2-11.2,10.8-11.9,11.9,11.9-9.6,9.3Z"/>
        </g>
        <g>
          <path class="cls-11" d="M178.6,180.1l-1.4-5.6-8.2-33.7-7.7-31.5c-4.1-16.7,0-25.3,8.5-25.3v-1.5h-60.5v1.5c11.5,0,15.6,8.5,11.5,25.3l-21.2,87-1.5,6.3h0l-.7,3-13.6,55.9c-.4,1.6-.9,3.3-1.4,5h0s-.3,1-.3,1c-.2.6-.4,1.2-.7,1.8-.2.5-.4,1-.6,1.5,0,.2-.2.5-.3.7-.2.5-.4.9-.6,1.4-.4.8-.7,1.5-1.2,2.3-.3.5-.6,1.1-1,1.6-.2.4-.5.8-.8,1.2-.3.4-.6.8-.9,1.2-.9,1.2-1.9,2.2-3,3.2-.3.2-.5.5-.8.6,0,0,0,0,0,0-.3.2-.6.5-.9.6,0,0-.2.2-.4.2-.3.2-.6.4-1,.6-.4.2-.7.4-1.1.6-.5.3-1.1.5-1.7.7-.3,0-.5.2-.8.3-.5.2-1,.3-1.6.4-1.2.3-2.6.4-4,.4v1.5h42v-1.5c-5.6,0-9-2.2-10.8-5.7-.3-.5-.5-1.1-.7-1.6,0-.1,0-.3-.1-.4-.2-.5-.3-1.1-.5-1.7,0-.2,0-.3-.1-.5-.1-.7-.2-1.4-.3-2.1,0-.4,0-.8,0-1.2,0-.4,0-.7,0-1.1,0-.5,0-1.1,0-1.6,0-.2,0-.4,0-.6,0-.6,0-1.3.2-1.9,0,0,0-.2,0-.3.3-2.2.7-4.5,1.2-6.7l2.8-11.7,1.6-6.8h0l4.9-20.3h55.2l4.2,17.3,5.2,21.5c2.6,11.5.9,25.3-11.2,25.3v1.5h15.9c.6-.8,1.2-1.5,1.7-2.3.3-.4.6-.8.9-1.2l.3-.5c5-7.6,7.6-16.5,7.6-25.5v-68.6l-2.4-10ZM108,211.5l20.8-85.6,20.8,85.6h-41.6Z"/>
          <g>
            <path class="cls-11" d="M346.4,189.6l-44.4-72.9-3.9-6.4-16.9-27.7h-45.2v1.5c13.8,0,17,8.5,17,25.3v152.2c0,16.7-3.2,25.3-17,25.3v1.5h41.4v-1.5c-13.8,0-17-8.5-17-25.3V106.8l7.9,13.5.3.5,1.5,2.6,3.9,6.7,6.7,11.4,17.5,30,3.9,6.7,18.7,32.2h25.6v-20.7Z"/>
            <polygon class="cls-11" points="368 243.4 366.2 243.4 365 243.4 340.1 243.5 366.1 288.2 373.5 288.2 373.5 243.3 368 243.4"/>
          </g>
          <g>
            <path class="cls-11" d="M424.3,261.5l2.8-11.7,1.6-6.8h-7.9s-4.5,18.5-4.5,18.5c-2.9,12-9.1,25.3-22.9,25.3v1.5h42v-1.5c-13.8,0-14.1-13.2-11.2-25.3Z"/>
            <path class="cls-11" d="M530.9,261.5l-5.5-22.7-6-24.5-25.5-105c-4.1-16.7,0-25.3,8.5-25.3v-1.5h-60.5v1.5c11.5,0,15.6,8.5,11.5,25.3l-24.6,101.1h7.9l24.6-101.1,24.6,101.1,1,3.9.3,1.1,1.1,4.5v.5c.1,0,.7,2.4.7,2.4l3.9,16.1,5.5,22.7c2.6,11.5.9,25.3-11.2,25.3v1.5h66.7v-1.5c-12.3,0-20.3-13.8-22.9-25.3Z"/>
          </g>
          <path class="cls-11" d="M684.4,184c-2.1-1.5-4.2-2.9-6.4-4.3-2.2-1.3-4.3-2.5-6.6-3.7-1.1-.6-2.2-1.1-3.3-1.7-1.1-.5-2.2-1.1-3.4-1.6-1.1-.5-2.3-1.1-3.4-1.6l-3.4-1.5c-7.4-3.2-14.9-6.2-22-9.1-1.9-.8-3.7-1.6-5.5-2.4,0,0-.1,0-.2,0-1-.5-2-.9-3-1.3h0c-1.6-.8-3.3-1.5-4.8-2.3-2.5-1.3-4.7-2.4-6.7-3.6l-.4-.2h0c-1.2-.7-2.3-1.4-3.4-2.2-.4-.3-.9-.6-1.3-.9-.4-.3-.8-.6-1.3-.9,0,0,0,0-.1,0-.5-.4-1-.7-1.5-1.1-.3-.2-.5-.4-.8-.6-1.6-1.3-3-2.6-4.3-4.1-.2-.2-.4-.5-.6-.7-.9-1-1.7-2.1-2.4-3.1-.3-.4-.5-.7-.7-1.1-1.4-2.3-2.4-4.8-3.1-7.4,0-.4-.2-.7-.2-1.1,0-.3-.1-.6-.2-1,0-.3-.1-.6-.2-1,0-.5,0-.9-.2-1.4,0-.3,0-.7,0-1,0-.4,0-.8,0-1.2-.2-13.6,5.1-24.3,16.4-30.1.4-.2.7-.4,1.1-.5.2-.1.5-.2.7-.3.2,0,.4-.2.6-.3l.9-.3.4-.2c.5-.2.9-.3,1.4-.5.5-.2.9-.3,1.4-.4.3,0,.6-.2.9-.3,1.7-.5,3.5-.8,5.3-1.1.3,0,.6,0,1-.1.3,0,.6,0,1-.1.8,0,1.6-.2,2.4-.2.4,0,.7,0,1.1,0,1.3,0,2.7-.1,4.1-.1s1.4,0,2.1,0c.7,0,1.4,0,2.1.1.7,0,1.4,0,2,.2,0,0,.1,0,.2,0,.5,0,1,0,1.5.2.7,0,1.4.2,2,.3.7.1,1.4.3,2.1.4.2,0,.4,0,.5.1.9.2,1.8.4,2.6.6.2,0,.4,0,.5.2,0,0,0,0,0,0,.3,0,.6.2,1,.3.1,0,.3,0,.4.1h.4c0,.1.4.3.4.3h.4c0,.1.8.4.8.4h.2c0,0,0,0,0,0,.4.2.8.3,1.3.5.4.2.8.4,1.2.5.1,0,.2,0,.4.2.4.2.8.4,1.2.6.4.2.8.4,1.2.6.8.5,1.7.9,2.4,1.4.6.4,1.3.8,1.9,1.2.2.2.5.3.7.5,0,0,0,0,0,0,.4.3.9.6,1.3,1h0c0,0,.1.1.2.2.3.2.5.4.8.6.5.5,1.1.9,1.6,1.4.6.5,1.2,1.1,1.7,1.6,1.1,1.1,2.1,2.2,3,3.3.4.4.7.9,1.1,1.3.4.5.8,1,1.1,1.4.4.6.8,1.2,1.2,1.8,0,0,.2.2.2.3.4.6.8,1.1,1.1,1.7.3.5.6,1,.9,1.5.4.7.8,1.4,1.2,2.1.4.7.7,1.4,1.1,2.1.2.4.4.7.5,1.1.3.7.6,1.4.9,2.1.2.5.4,1,.6,1.5.2.5.4,1,.6,1.5.3.7.5,1.3.7,2,.1.3.2.6.3,1,0,.3.2.5.3.8.1.4.2.7.3,1.1,0,.3.2.6.3.9,0,.3.2.5.2.8,0,.3.2.5.2.8.3,1.2.6,2.3.8,3.3,0,.2,0,.4.1.6,0,.2,0,.5.1.6,0,.2,0,.4.1.6,0,.2,0,.4,0,.6,0,.2,0,.4,0,.5,0,.2,0,.3,0,.5,0,.2,0,.3,0,.5,0,.3,0,.5.1.8,0,.2,0,.3,0,.4,0,.1,0,.2,0,.3,0,.2,0,.3,0,.3h2.1v-56.1h-1.5c-6.9,20.1-16.1,1.7-43.7-2.2-.3,0-.5,0-.8-.1-.9-.1-1.8-.2-2.8-.3,0,0,0,0-.1,0,0,0,0,0,0,0-1.4-.2-2.9-.2-4.4-.3-.6,0-1.2,0-1.9,0-1.1,0-2.1,0-3.2,0-.9,0-1.9,0-2.8.1-.8,0-1.5,0-2.3.2-1.7.1-3.3.3-4.9.6-.7,0-1.4.2-2,.3-.7.1-1.4.2-2,.4-1.7.3-3.4.7-5,1.2-25,7-38.4,26-38.4,47.4s11.4,37.2,26.8,47.1c1,.7,2.1,1.3,3.2,1.9,0,0,0,0,.1,0,1.1.7,2.3,1.3,3.4,1.9,15.6,8.5,33.9,14,48.5,21.5,2.4,1.2,4.7,2.5,6.9,3.8,1.2.7,2.3,1.4,3.3,2.2.6.4,1.2.9,1.8,1.3.5.4,1.1.8,1.6,1.3.1,0,.2.2.4.3.5.4.9.8,1.3,1.1.4.4.8.8,1.2,1.2.3.3.6.6.9.9.4.4.8.8,1.1,1.2.5.5.9,1,1.3,1.6.5.6.9,1.2,1.4,1.8.4.6.9,1.3,1.3,2,.3.5.5.9.8,1.4,0,0,0,0,0,.1.3.5.5,1,.7,1.6,0,0,0,.1,0,.2.2.5.5,1.1.7,1.7.2.6.4,1.3.6,1.9,0,.2.2.5.2.7.2.7.4,1.4.5,2.1,0,.5.2,1,.3,1.6,0,0,0,0,0,.1,0,.3,0,.6.1,1,0,0,0,.1,0,.2,0,.4,0,.7,0,1.1,0,.2,0,.4,0,.6,0,.7,0,1.5,0,2.3s0,1.3,0,1.9c0,.5,0,1,0,1.5,0,.4,0,.8,0,1.2,0,1.1-.2,2.1-.4,3.2,0,.5-.2,1-.3,1.5,0,.5-.2.9-.3,1.4,0,.2,0,.3-.1.5,0,.4-.2.8-.3,1.2-.1.5-.3,1-.4,1.4,0,.2-.1.5-.2.7,0,0,0,.2,0,.3,0,.4-.2.7-.3,1.1-.2.6-.4,1.2-.7,1.8-.2.6-.5,1.2-.7,1.8-1.1,2.4-2.4,4.7-3.9,6.9,0,0,0,0-.1.2-.3.5-.6.9-1,1.3-.4.5-.8,1-1.2,1.5-.4.5-.9,1-1.3,1.5-.4.5-.8.9-1.2,1.3,0,0-.2.2-.3.3-.4.4-.8.7-1.2,1.1-.9.8-1.9,1.6-2.9,2.4-.4.3-.8.6-1.3.9-.4.3-.8.6-1.3.8-.9.6-1.9,1.2-2.9,1.7l-1.5.8c-.6.3-1.2.6-1.8.9-.6.3-1.3.6-1.9.8-.5.2-1,.4-1.6.6-.5.2-1.1.4-1.7.6,0,0-.1,0-.2,0-.5.1-.9.3-1.4.4-.4.1-.8.3-1.3.4-.5.1-.9.2-1.3.3-.4.1-.9.2-1.4.3-.3,0-.6.1-.9.2-.3,0-.6.1-.9.2-.8.2-1.5.3-2.3.4-.9.1-1.8.3-2.8.4-.8,0-1.6.2-2.4.2-.4,0-.7,0-1.1,0-.1,0-.2,0-.4,0-.7,0-1.4,0-2.1.1-1,0-2.1,0-3.1,0s-1.5,0-2.2,0c-1.4,0-2.7,0-4-.2-.6,0-1.3,0-1.9-.2-.6,0-1.3-.2-1.9-.3-.5,0-1.1-.1-1.6-.3-.5,0-1-.1-1.4-.2-.2,0-.4,0-.6-.1,0,0-.1,0-.2,0-1.1-.2-2.1-.5-3.1-.7-.4,0-.7-.2-1.1-.3-32.8-9.2-39.6-42.5-40.6-48.5s-.5-.9-1.1-.9h0c-.6,0-1.1.5-1.1,1.1v55h1.5c3.8-18.9,17.2-5,41.3.7,1.6.4,3.3.7,5,1,1.4.2,2.8.5,4.2.6,2.8.3,5.7.5,8.8.5s.6,0,1,0c38.2-.3,78.9-18.3,78.9-60.5s-10.4-36.3-24.9-46.7ZM644.5,193.3l-1.9,1.8-11.2-11.2,10.8-11.9,11.9,11.9-9.6,9.3Z"/>
        </g>
        <g>
          <path class="cls-11" d="M178.6,180.1l-1.4-5.6-8.2-33.7-7.7-31.5c-4.1-16.7,0-25.3,8.5-25.3v-1.5h-60.5v1.5c11.5,0,15.6,8.5,11.5,25.3l-21.2,87-1.5,6.3h0l-.7,3-13.6,55.9c-.4,1.6-.9,3.3-1.4,5h0s-.3,1-.3,1c-.2.6-.4,1.2-.7,1.8-.2.5-.4,1-.6,1.5,0,.2-.2.5-.3.7-.2.5-.4.9-.6,1.4-.4.8-.7,1.5-1.2,2.3-.3.5-.6,1.1-1,1.6-.2.4-.5.8-.8,1.2-.3.4-.6.8-.9,1.2-.9,1.2-1.9,2.2-3,3.2-.3.2-.5.5-.8.6,0,0,0,0,0,0-.3.2-.6.5-.9.6,0,0-.2.2-.4.2-.3.2-.6.4-1,.6-.4.2-.7.4-1.1.6-.5.3-1.1.5-1.7.7-.3,0-.5.2-.8.3-.5.2-1,.3-1.6.4-1.2.3-2.6.4-4,.4v1.5h42v-1.5c-5.6,0-9-2.2-10.8-5.7-.3-.5-.5-1.1-.7-1.6,0-.1,0-.3-.1-.4-.2-.5-.3-1.1-.5-1.7,0-.2,0-.3-.1-.5-.1-.7-.2-1.4-.3-2.1,0-.4,0-.8,0-1.2,0-.4,0-.7,0-1.1,0-.5,0-1.1,0-1.6,0-.2,0-.4,0-.6,0-.6,0-1.3.2-1.9,0,0,0-.2,0-.3.3-2.2.7-4.5,1.2-6.7l2.8-11.7,1.6-6.8h0l4.9-20.3h55.2l4.2,17.3,5.2,21.5c2.6,11.5.9,25.3-11.2,25.3v1.5h15.9c.6-.8,1.2-1.5,1.7-2.3.3-.4.6-.8.9-1.2l.3-.5c5-7.6,7.6-16.5,7.6-25.5v-68.6l-2.4-10ZM108,211.5l20.8-85.6,20.8,85.6h-41.6Z"/>
          <g>
            <path class="cls-11" d="M346.4,189.6l-44.4-72.9-3.9-6.4-16.9-27.7h-45.2v1.5c13.8,0,17,8.5,17,25.3v152.2c0,16.7-3.2,25.3-17,25.3v1.5h41.4v-1.5c-13.8,0-17-8.5-17-25.3V106.8l7.9,13.5.3.5,1.5,2.6,3.9,6.7,6.7,11.4,17.5,30,3.9,6.7,18.7,32.2h25.6v-20.7Z"/>
            <polygon class="cls-11" points="368 243.4 366.2 243.4 365 243.4 340.1 243.5 366.1 288.2 373.5 288.2 373.5 243.3 368 243.4"/>
          </g>
          <g>
            <path class="cls-11" d="M424.3,261.5l2.8-11.7,1.6-6.8h-7.9s-4.5,18.5-4.5,18.5c-2.9,12-9.1,25.3-22.9,25.3v1.5h42v-1.5c-13.8,0-14.1-13.2-11.2-25.3Z"/>
            <path class="cls-11" d="M530.9,261.5l-5.5-22.7-6-24.5-25.5-105c-4.1-16.7,0-25.3,8.5-25.3v-1.5h-60.5v1.5c11.5,0,15.6,8.5,11.5,25.3l-24.6,101.1h7.9l24.6-101.1,24.6,101.1,1,3.9.3,1.1,1.1,4.5v.5c.1,0,.7,2.4.7,2.4l3.9,16.1,5.5,22.7c2.6,11.5.9,25.3-11.2,25.3v1.5h66.7v-1.5c-12.3,0-20.3-13.8-22.9-25.3Z"/>
          </g>
          <path class="cls-11" d="M684.4,184c-2.1-1.5-4.2-2.9-6.4-4.3-2.2-1.3-4.3-2.5-6.6-3.7-1.1-.6-2.2-1.1-3.3-1.7-1.1-.5-2.2-1.1-3.4-1.6-1.1-.5-2.3-1.1-3.4-1.6l-3.4-1.5c-7.4-3.2-14.9-6.2-22-9.1-1.9-.8-3.7-1.6-5.5-2.4,0,0-.1,0-.2,0-1-.5-2-.9-3-1.3h0c-1.6-.8-3.3-1.5-4.8-2.3-2.5-1.3-4.7-2.4-6.7-3.6l-.4-.2h0c-1.2-.7-2.3-1.4-3.4-2.2-.4-.3-.9-.6-1.3-.9-.4-.3-.8-.6-1.3-.9,0,0,0,0-.1,0-.5-.4-1-.7-1.5-1.1-.3-.2-.5-.4-.8-.6-1.6-1.3-3-2.6-4.3-4.1-.2-.2-.4-.5-.6-.7-.9-1-1.7-2.1-2.4-3.1-.3-.4-.5-.7-.7-1.1-1.4-2.3-2.4-4.8-3.1-7.4,0-.4-.2-.7-.2-1.1,0-.3-.1-.6-.2-1,0-.3-.1-.6-.2-1,0-.5,0-.9-.2-1.4,0-.3,0-.7,0-1,0-.4,0-.8,0-1.2-.2-13.6,5.1-24.3,16.4-30.1.4-.2.7-.4,1.1-.5.2-.1.5-.2.7-.3.2,0,.4-.2.6-.3l.9-.3.4-.2c.5-.2.9-.3,1.4-.5.5-.2.9-.3,1.4-.4.3,0,.6-.2.9-.3,1.7-.5,3.5-.8,5.3-1.1.3,0,.6,0,1-.1.3,0,.6,0,1-.1.8,0,1.6-.2,2.4-.2.4,0,.7,0,1.1,0,1.3,0,2.7-.1,4.1-.1s1.4,0,2.1,0c.7,0,1.4,0,2.1.1.7,0,1.4,0,2,.2,0,0,.1,0,.2,0,.5,0,1,0,1.5.2.7,0,1.4.2,2,.3.7.1,1.4.3,2.1.4.2,0,.4,0,.5.1.9.2,1.8.4,2.6.6.2,0,.4,0,.5.2,0,0,0,0,0,0,.3,0,.6.2,1,.3.1,0,.3,0,.4.1h.4c0,.1.4.3.4.3h.4c0,.1.8.4.8.4h.2c0,0,0,0,0,0,.4.2.8.3,1.3.5.4.2.8.4,1.2.5.1,0,.2,0,.4.2.4.2.8.4,1.2.6.4.2.8.4,1.2.6.8.5,1.7.9,2.4,1.4.6.4,1.3.8,1.9,1.2.2.2.5.3.7.5,0,0,0,0,0,0,.4.3.9.6,1.3,1h0c0,0,.1.1.2.2.3.2.5.4.8.6.5.5,1.1.9,1.6,1.4.6.5,1.2,1.1,1.7,1.6,1.1,1.1,2.1,2.2,3,3.3.4.4.7.9,1.1,1.3.4.5.8,1,1.1,1.4.4.6.8,1.2,1.2,1.8,0,0,.2.2.2.3.4.6.8,1.1,1.1,1.7.3.5.6,1,.9,1.5.4.7.8,1.4,1.2,2.1.4.7.7,1.4,1.1,2.1.2.4.4.7.5,1.1.3.7.6,1.4.9,2.1.2.5.4,1,.6,1.5.2.5.4,1,.6,1.5.3.7.5,1.3.7,2,.1.3.2.6.3,1,0,.3.2.5.3.8.1.4.2.7.3,1.1,0,.3.2.6.3.9,0,.3.2.5.2.8,0,.3.2.5.2.8.3,1.2.6,2.3.8,3.3,0,.2,0,.4.1.6,0,.2,0,.5.1.6,0,.2,0,.4.1.6,0,.2,0,.4,0,.6,0,.2,0,.4,0,.5,0,.2,0,.3,0,.5,0,.2,0,.3,0,.5,0,.3,0,.5.1.8,0,.2,0,.3,0,.4,0,.1,0,.2,0,.3,0,.2,0,.3,0,.3h2.1v-56.1h-1.5c-6.9,20.1-16.1,1.7-43.7-2.2-.3,0-.5,0-.8-.1-.9-.1-1.8-.2-2.8-.3,0,0,0,0-.1,0,0,0,0,0,0,0-1.4-.2-2.9-.2-4.4-.3-.6,0-1.2,0-1.9,0-1.1,0-2.1,0-3.2,0-.9,0-1.9,0-2.8.1-.8,0-1.5,0-2.3.2-1.7.1-3.3.3-4.9.6-.7,0-1.4.2-2,.3-.7.1-1.4.2-2,.4-1.7.3-3.4.7-5,1.2-25,7-38.4,26-38.4,47.4s11.4,37.2,26.8,47.1c1,.7,2.1,1.3,3.2,1.9,0,0,0,0,.1,0,1.1.7,2.3,1.3,3.4,1.9,15.6,8.5,33.9,14,48.5,21.5,2.4,1.2,4.7,2.5,6.9,3.8,1.2.7,2.3,1.4,3.3,2.2.6.4,1.2.9,1.8,1.3.5.4,1.1.8,1.6,1.3.1,0,.2.2.4.3.5.4.9.8,1.3,1.1.4.4.8.8,1.2,1.2.3.3.6.6.9.9.4.4.8.8,1.1,1.2.5.5.9,1,1.3,1.6.5.6.9,1.2,1.4,1.8.4.6.9,1.3,1.3,2,.3.5.5.9.8,1.4,0,0,0,0,0,.1.3.5.5,1,.7,1.6,0,0,0,.1,0,.2.2.5.5,1.1.7,1.7.2.6.4,1.3.6,1.9,0,.2.2.5.2.7.2.7.4,1.4.5,2.1,0,.5.2,1,.3,1.6,0,0,0,0,0,.1,0,.3,0,.6.1,1,0,0,0,.1,0,.2,0,.4,0,.7,0,1.1,0,.2,0,.4,0,.6,0,.7,0,1.5,0,2.3s0,1.3,0,1.9c0,.5,0,1,0,1.5,0,.4,0,.8,0,1.2,0,1.1-.2,2.1-.4,3.2,0,.5-.2,1-.3,1.5,0,.5-.2.9-.3,1.4,0,.2,0,.3-.1.5,0,.4-.2.8-.3,1.2-.1.5-.3,1-.4,1.4,0,.2-.1.5-.2.7,0,0,0,.2,0,.3,0,.4-.2.7-.3,1.1-.2.6-.4,1.2-.7,1.8-.2.6-.5,1.2-.7,1.8-1.1,2.4-2.4,4.7-3.9,6.9,0,0,0,0-.1.2-.3.5-.6.9-1,1.3-.4.5-.8,1-1.2,1.5-.4.5-.9,1-1.3,1.5-.4.5-.8.9-1.2,1.3,0,0-.2.2-.3.3-.4.4-.8.7-1.2,1.1-.9.8-1.9,1.6-2.9,2.4-.4.3-.8.6-1.3.9-.4.3-.8.6-1.3.8-.9.6-1.9,1.2-2.9,1.7l-1.5.8c-.6.3-1.2.6-1.8.9-.6.3-1.3.6-1.9.8-.5.2-1,.4-1.6.6-.5.2-1.1.4-1.7.6,0,0-.1,0-.2,0-.5.1-.9.3-1.4.4-.4.1-.8.3-1.3.4-.5.1-.9.2-1.3.3-.4.1-.9.2-1.4.3-.3,0-.6.1-.9.2-.3,0-.6.1-.9.2-.8.2-1.5.3-2.3.4-.9.1-1.8.3-2.8.4-.8,0-1.6.2-2.4.2-.4,0-.7,0-1.1,0-.1,0-.2,0-.4,0-.7,0-1.4,0-2.1.1-1,0-2.1,0-3.1,0s-1.5,0-2.2,0c-1.4,0-2.7,0-4-.2-.6,0-1.3,0-1.9-.2-.6,0-1.3-.2-1.9-.3-.5,0-1.1-.1-1.6-.3-.5,0-1-.1-1.4-.2-.2,0-.4,0-.6-.1,0,0-.1,0-.2,0-1.1-.2-2.1-.5-3.1-.7-.4,0-.7-.2-1.1-.3-32.8-9.2-39.6-42.5-40.6-48.5s-.5-.9-1.1-.9h0c-.6,0-1.1.5-1.1,1.1v55h1.5c3.8-18.9,17.2-5,41.3.7,1.6.4,3.3.7,5,1,1.4.2,2.8.5,4.2.6,2.8.3,5.7.5,8.8.5s.6,0,1,0c38.2-.3,78.9-18.3,78.9-60.5s-10.4-36.3-24.9-46.7ZM644.5,193.3l-1.9,1.8-11.2-11.2,10.8-11.9,11.9,11.9-9.6,9.3Z"/>
        </g>
      </g>
    </g>
  </g>
</svg>