<?xml version="1.0" encoding="UTF-8"?>
<svg id="Layer_1" data-name="Layer 1" xmlns="http://www.w3.org/2000/svg" version="1.1" xmlns:xlink="http://www.w3.org/1999/xlink" viewBox="0 0 94 50">
  <defs>
    <style>
      .cls-1 {
        fill: url(#radial-gradient-8);
      }

      .cls-1, .cls-2, .cls-3, .cls-4, .cls-5, .cls-6, .cls-7, .cls-8, .cls-9, .cls-10, .cls-11, .cls-12, .cls-13, .cls-14, .cls-15, .cls-16, .cls-17, .cls-18 {
        stroke-width: 0px;
      }

      .cls-2 {
        fill: url(#radial-gradient-13);
      }

      .cls-3 {
        fill: url(#radial-gradient-12);
      }

      .cls-19 {
        fill: none;
        stroke: #fff;
        stroke-linecap: round;
        stroke-linejoin: round;
        stroke-width: 22.96px;
      }

      .cls-4 {
        fill: #dedede;
      }

      .cls-5 {
        fill: url(#radial-gradient-2);
      }

      .cls-6 {
        fill: url(#radial-gradient-7);
      }

      .cls-7 {
        fill: url(#radial-gradient-5);
      }

      .cls-8 {
        fill: url(#radial-gradient);
      }

      .cls-9 {
        fill: #262626;
      }

      .cls-10 {
        fill: url(#radial-gradient-14);
      }

      .cls-11 {
        fill: url(#radial-gradient-10);
      }

      .cls-12 {
        fill: #fff;
      }

      .cls-20 {
        display: none;
      }

      .cls-13 {
        fill: url(#radial-gradient-6);
      }

      .cls-14 {
        fill: url(#radial-gradient-15);
      }

      .cls-15 {
        fill: url(#radial-gradient-9);
      }

      .cls-16 {
        fill: url(#radial-gradient-3);
      }

      .cls-17 {
        fill: url(#radial-gradient-11);
      }

      .cls-18 {
        fill: url(#radial-gradient-4);
      }
    </style>
    <radialGradient id="radial-gradient" cx="69.91" cy="18.31" fx="69.91" fy="18.31" r="3.17" gradientUnits="userSpaceOnUse">
      <stop offset="0" stop-color="#bc961b"/>
      <stop offset=".29" stop-color="#b29126"/>
      <stop offset=".8" stop-color="#998644"/>
      <stop offset="1" stop-color="#8f8252"/>
    </radialGradient>
    <radialGradient id="radial-gradient-2" cx="70.15" cy="29.79" fx="70.15" fy="29.79" r="4.47" xlink:href="#radial-gradient"/>
    <radialGradient id="radial-gradient-3" cx="5.11" cy="35.47" fx="5.11" fy="35.47" r="4.76" xlink:href="#radial-gradient"/>
    <radialGradient id="radial-gradient-4" cx="34.45" cy="12.82" fx="34.45" fy="12.82" r="3.36" xlink:href="#radial-gradient"/>
    <radialGradient id="radial-gradient-5" cx="4.35" cy="41.84" fx="4.35" fy="41.84" r=".1" xlink:href="#radial-gradient"/>
    <radialGradient id="radial-gradient-6" cx="46.67" cy="21.51" fx="46.67" fy="21.51" r="14.54" xlink:href="#radial-gradient"/>
    <radialGradient id="radial-gradient-7" cx="17.12" cy="29.59" fx="17.12" fy="29.59" r="16.06" xlink:href="#radial-gradient"/>
    <radialGradient id="radial-gradient-8" cx="82.73" cy="13.55" fx="82.73" fy="13.55" r=".21" xlink:href="#radial-gradient"/>
    <radialGradient id="radial-gradient-9" cx="87.14" cy="26.61" fx="87.14" fy="26.61" r=".18" xlink:href="#radial-gradient"/>
    <radialGradient id="radial-gradient-10" cx="83.72" cy="20.66" fx="83.72" fy="20.66" r="4.82" xlink:href="#radial-gradient"/>
    <radialGradient id="radial-gradient-11" cx="82.25" cy="6.24" fx="82.25" fy="6.24" r="3.47" xlink:href="#radial-gradient"/>
    <radialGradient id="radial-gradient-12" cx="80.68" cy="12.25" fx="80.68" fy="12.25" r="1.43" xlink:href="#radial-gradient"/>
    <radialGradient id="radial-gradient-13" cx="79.51" cy="41.27" fx="79.51" fy="41.27" r=".16" xlink:href="#radial-gradient"/>
    <radialGradient id="radial-gradient-14" cx="82.74" cy="34.38" fx="82.74" fy="34.38" r="5.71" xlink:href="#radial-gradient"/>
    <radialGradient id="radial-gradient-15" cx="79.38" cy="15.05" fx="79.38" fy="15.05" r=".07" xlink:href="#radial-gradient"/>
  </defs>
  <g class="cls-20">
    <g>
      <path class="cls-19" d="M-140.24-162.37c3.23,3.01,28.98-40.88,33.87-36.32.12.12-34.99,29.49-27.32,36.64,4.57,4.26,23.93-32.62,27.4-29.38,13.33,12.43-33.8,17.96-21.57,29.37,0,0,21.69-25.38,22.75-24.39,10.63,9.91-24.63,16.17-15.82,24.38,4.34,4.05,17.55-27.01,21.63-23.2,11.13,10.38-30.82,12.82-19.69,23.19,4.03,3.76,20.81-23.38,21.34-22.88"/>
      <path class="cls-19" d="M78.15-187.09c7.03,6.56,29.34-50.5,38.83-41.64,10.06,9.38-44.92,26.19-32.76,37.53,10.82,10.09,22.89-46.25,33.71-36.15,15.66,14.6-47.65,19.2-30.63,35.08,2.01,1.88,21.84-42.69,31.45-33.73"/>
      <path class="cls-19" d="M78.53-261.72c.22.21,20.53-25.56,22.3-23.91,1.39,1.29-23.3,22.82-21.75,24.26.98.91,17.63-28.42,22.38-24,1.28,1.2-27.65,21.93-13.98,34.68,6.08,5.67,21.81-29.51,24.87-26.66,7.78,7.26-37.78,15.87-24.1,28.63,4.94,4.61,23.51-26.4,24.1-25.85"/>
      <path class="cls-19" d="M38.47-227.22c13.13,12.24,29.46-68.49,47.86-51.33,4.42,4.12-62.88,37.65-43.36,55.86.04.03,38.78-53.13,44.54-47.76,24.47,22.82-60.16,34.34-37.74,55.25,9.96,9.29,34.55-59.43,45.71-49.02,24.67,23-46.39,48.55-40.98,53.59,12.26,11.43,37.47-56.67,45.69-49"/>
      <path class="cls-19" d="M53.96-193.59c16.96,15.82,29.22-67.71,47.36-50.79,8.54,7.97-31.46,15.1-19.96,25.82,8.58,8-.52-36.76,18.09-19.4,26.22,24.46-71.71,30.99-45.49,55.44,17.03,15.88,48.74-59.28,52.23-56.01"/>
      <path class="cls-19" d="M44.7-165.05c4.66,4.34,21.96-24.06,22.22-23.82,10.47,9.76-15.55,18.41-5.08,28.18,6.63,6.19,25.95-29.91,26.99-28.94,9.24,8.62-14.27,25.99-13.85,26.38,19.32,18.02,27.69-68.43,47.01-50.42,6.12,5.71-70.45,28.45-45.26,51.94,17.44,16.27,42.61-52.62,46.07-49.4,23.78,22.18-66.82,26.58-43.04,48.75,15.82,14.75,42.99-46.19,43.04-46.15,21.91,20.44-51.47,33.9-39.42,45.14,13.74,12.81,31.17-49.44,39.15-41.99"/>
      <path class="cls-19" d="M24.47-187.34c5.66,5.27,22.35-27.44,24.08-25.82,3.21,3-33.27,20.73-19.02,34.02,5.46,5.1,19.17-29.68,23.72-25.44"/>
      <path class="cls-19" d="M-11.99-162.37c.5.47,45.42-75.95,59.01-63.28C69.35-204.83-.57-162.3-.31-162.06c2.51,2.34,31.73-34.03,31.73-34.03,7.89,7.36-35.3,23.5-24.03,34.02,0,0,24.03-30.01,26.14-28.03,10.85,10.12-20.67,17.89-9.82,28.01,0,0,22.56-45.13,33-35.39,16.29,15.19-27.05,35.38-27.05,35.38,6.52,6.08,24.96-36.46,29.8-31.95"/>
      <path class="cls-19" d="M71.86-284.44c2.24,2.09,17.71-28.66,22.53-24.16,3.2,2.98-24.64,19.63-19.78,24.16,3.85,3.59,16.86-25.8,20.71-22.21,1.95,1.82-28.07,12.53-17.69,22.21,1.27,1.19,16.11-22.5,18.72-20.07"/>
      <path class="cls-19" d="M31.95-243.67c13.23,12.34,30.21-71.04,49.49-53.07,22.52,21-66.37,40.12-49.05,56.27,1.05.98,42.19-62.34,50.72-54.39"/>
      <path class="cls-19" d="M53.16-296.53c2.22,2.07,22.57-44.65,32.77-35.14,7.85,7.32-36.8,40.9-34.85,42.72,9.77,9.11,28.25-48.5,37.33-40.03"/>
      <path class="cls-19" d="M5.99-251.86c9.61,8.97,27.48-37.46,31.46-33.74,16.67,15.55-47.14,19.11-31.44,33.75,9.61,8.96,28.5-36.47,31.45-33.73,1.89,1.76-27.18,34.16-23.75,37.36,7.16,6.68,20.51-34.78,26.89-28.84,15.25,14.22-37.3,21.63-23.7,34.31,7.39,6.89,20.61-38.51,28.79-30.88,16.23,15.14-27.8,34.6-27.8,34.6,11.53,10.75,33.4-60.13,45.53-48.82"/>
      <path class="cls-19" d="M-19.59-233.82s23.75-45.29,33.63-36.07-51.54,27.57-31.04,46.69c3.77,3.52,32.08-36.61,33.18-35.58,19.33,18.02-49.17,25.95-31.51,42.42,2.32,2.16,33.18-35.58,33.18-35.58,8.45,7.88-43.28,27.64-32.71,37.5s22.65-45.41,33.18-35.58"/>
      <path class="cls-19" d="M-26.35-187.25c3.44,3.21,29.31-67.98,47.54-50.98,23.6,22-39.61,50.94-39.61,50.94,20.09,18.73,39.91-81.91,59.42-63.72,20,18.65-53.66,24.45-33.66,43.09,11.05,10.31-10.66-36.4,13.2-14.15,1.53,1.42-45.31,25.12-26.99,42.2,15.88,14.81,49.18-61.3,53.45-57.32"/>
      <path class="cls-19" d="M-44.04-179.31c9.32,8.69-17.14-27.12,5.55-5.96.09.08-20.38,21.36-18.38,23.22,11.96,11.15,23.88-49.57,35.83-38.42,18.01,16.79-31.47,37.81-30.82,38.41,5.89,5.49,24.43-35.48,29.06-31.16,12.83,11.97-19.65,27.91-16.19,31.14.7.66,17.95-26.66,21.65-23.21,7.28,6.79-19.18,13-15.05,16.86.5.47,1.91-3.98,2.87-3.08"/>
      <path class="cls-19" d="M-35.09-266.62c3.57,3.33,19.9-24.22,21.33-22.88,13.8,12.87-24.39,26.4-16.09,34.14,6.02,5.61,22.03-43.33,31.86-34.17,6.04,5.63-21.2,12.17-14.89,18.06,11.24,10.49-1.6-20.83,9.65-10.34,8.69,8.1-28.82,35.5-28.82,35.5,8.33,7.77,32.1-50.87,40.3-43.22,15.7,14.64-60.9,33.91-42.26,51.29C-15.62-221.1-.57-302.97,13.83-289.55c3.99,3.72-38.81,43.16-32.54,49.01,7.24,6.75-.65-17,8.18-8.77"/>
      <path class="cls-19" d="M-54.25-187.06c14.51,13.53,31.97-51.59,40.6-43.54,1.26,1.18-49.4,28.98-33.05,44.23,10.68,9.96,29.31-39.74,33.45-35.87"/>
      <path class="cls-19" d="M-77.6-286.2c1.81,1.69-11-10.67.2-.22,1.09,1.02-13.83,16.46-4.48,25.18,9.3,8.68,24.16-44.73,33.55-35.98,1.07,1-46.74,42.49-33.55,54.79,6.31,5.89,24.49-44.45,33.56-35.99,11.45,10.68-51.81,25.83-33.56,42.85,10.74,10.02,33.41-36.14,33.57-36"/>
      <path class="cls-19" d="M-104.83-194.41c16.29,15.19,27.52-44.17,34.83-37.35,20.22,18.86-37.67,39.84-32.17,44.98,4.42,4.12,39.34-71.33,53.88-57.77,25.52,23.79-64.79,33.88-39.28,57.67,13.81,12.88,25.48-55.01,39.29-42.13,21,19.58-51.74,30.26-39.02,42.13,3.52,3.29,25.35-54.58,39.02-41.84l-26.77,31.03c7.74,7.22-4.62-17.41,6.54-7.01,12.12,11.31-18.37,23.83-10.03,31.6,11.32,10.55,28.52-65.33,45.85-49.17,6.43,5.99-49.34,50.23-40.31,58.65,2.39,2.23,19.38-30.84,24.39-26.16,10.89,10.15-36.3,15.41-23.1,27.71,5.14,4.79,17.97-29.57,23.11-24.78,10.74,10.01-33.09,13.86-21.38,24.78,4.21,3.93,17.32-26.72,21.38-22.93"/>
      <path class="cls-19" d="M-138.09-186.58c21.72,20.26,48.76-79.82,62.49-67.01,5.53,5.15-72.78,52.51-57.28,66.96,16.28,15.18,34.77-86.51,59.32-63.61,32.85,30.64-59.13,67.56-58,68.62,25.11,23.42,35.53-87.9,60.37-64.74"/>
      <path class="cls-19" d="M-140.24-266.62c.57.53,21.35-22.9,21.35-22.9,5.02,4.68,9.38-14.09,15.89-8.02,12.9,12.03-6.88-19.57,6.56-7.04,9.81,9.15-56.05,25.58-35.15,45.07,11.58,10.8,33.21-56.96,43.85-47.03,23.66,22.06-58.47,33.94-43.83,47.59,8.48,7.91,27.76-62.74,44.2-47.4,26.07,24.31-62.31,45.27-44.18,62.18,16.56,15.45,33.51-57.82,44.42-47.64s-70.39,31.17-44.42,55.38c8.51,7.94,27.86-63.09,44.43-47.64,29.67,27.67-49.44,63.21-44.43,67.89,0,0,33.6-64.15,47.62-51.07,20.89,19.48-67.42,32.94-47.62,51.41,13.35,12.45,40.74-57.74,47.75-51.2"/>
      <path class="cls-19" d="M-166.37-259.03c7.1,6.62,30.86-44.21,36.4-39.04,6.21,5.79-39.73,45.26-36.37,48.39,2.79,2.6,25.7-44.1,33.95-36.4"/>
      <path class="cls-19" d="M-189.39-225.35c9.14,8.53,26.8-44.84,34.83-37.35,17.2,16.04-40.03,39.81-32.52,46.81,15.75,14.68,32.63-79.24,54.7-58.66"/>
      <path class="cls-19" d="M-194.1-195.53c25.84,24.1,37.06-89.21,61.73-66.2,30.35,28.3-67.32,50.1-50.06,66.19,19.59,18.27,39.28-63.77,50.07-53.7,26.65,24.85-75.94,28.84-49.29,53.7,2.03,1.89,43.14-58.59,49.29-52.86,12.57,11.72-20.58,27.54-20.58,27.54,17.95,16.74-2.26-28.23,13.03-13.97,11.21,10.45-60.44,32.49-36.35,54.96,15.21,14.19,40.93-49.87,43.91-47.09"/>
      <path class="cls-19" d="M-231.64-160.21c5.03,4.69,36.16-50.4,41.96-44.99,8.53,7.95-54.04,30.06-32.16,50.47,8.36,7.79,27.89-32.36,29.12-31.22,12.08,11.26-37.63,24.68-21.05,40.14,7.15,6.67,26.87-28.81,26.87-28.81,14.16,13.21-34.32,20.06-20.8,32.67,5,4.66,26.36-33.09,28.77-30.85,0,0-29.4,29.61-27.35,31.52,3.23,3.02,20.86-39.34,29.32-31.44,15.24,14.21-25.64,32.87-25.64,32.87,2.75,2.56,26.51-37.71,31.14-33.39.74.69-10.86,13.57-4.84,19.19,0,0,32.66-134.39,82.23-88.18,8.59,8.01-130.47,71.04-94.7,104.4,20.53,19.15,51.28-64.69,56.12-60.18,29.04,27.08-67.83,47.77-54.56,60.14,0,0,43.54-68.5,54.41-58.35.26.25-28.85,25.87-21.35,32.86.99.92-8.45-8.58.35-.37"/>
      <path class="cls-19" d="M-237.82-194.43c4.87,4.54,24.41-37.35,29.98-32.15,13.2,12.31-20.78,32.45-20.34,32.86,9.52,8.88,45.66-101.17,71.7-76.89,23.96,22.35-113.93,52.13-71.4,91.79,17.34,16.17,28.54-65.37,45.88-49.2"/>
      <path class="cls-19" d="M-204.89-266.56c4.21,3.93,21.14-23.16,21.39-22.93,0,0-26.35,20.81-15.39,31.03,4.63,4.31,25.39-34.36,28.95-31.04,16.95,15.81-43.59,22.14-26.63,37.95,10.49,9.78,9.24-32,20.26-21.73,15.92,14.85-47.25,25.09-29.17,41.94,24.43,22.79,55.05-80.87,65.94-70.71,14.13,13.18-36.56,19.29-25.13,29.94,30.02,27.99-20.42-38.28,9.6-10.29"/>
    </g>
    <path class="cls-12" d="M-56.24-307.68c-.69.36-1.52.09-2.23-.08-.92-.23-1.83-.45-2.78-.55-1.82-.19-3.69,0-5.46.44-3.69.92-6.95,3-9.96,5.25-1.03.77-.94,2.31.36,2.74,2.54.85,4.96-.22,7.36-1.01,2.55-.84,5.19-1.17,7.87-1.04,1.57.08,1.92-2.02.76-2.8-2.4-1.6-5.27-2.09-8.09-1.54-.84.16-1.19,1.1-1.05,1.85.25,1.36,1.2,2.38,2.33,3.12s2.51,1.02,3.48,1.96l.66-2.51c-2.79.51-5.55,1.14-8.29,1.89-1.38.38-1.48,2.57,0,2.89,2.6.57,5.21.21,7.55-1.07,1.07-.59.93-2.51-.36-2.74-3.2-.59-6.12-.19-8.6,2.06-1.86,1.69-3.76,5.18-2.53,7.71.62,1.27,2.01,1.96,3.4,1.91,1.57-.05,2.86-1.08,3.77-2.28,2.24-2.97,2.01-6.6,2.12-10.13.02-.77-.71-1.56-1.5-1.5-2.23.17-3.2,2.5-3.97,4.31-.45,1.05-.81,2.12-1.06,3.23-.24,1.05-.51,2.21.26,3.11.62.74,1.65.96,2.55.67,1.05-.34,1.7-1.35,2.41-2.12,1.58-1.68,3.36-3.11,5.32-4.32.69-.42.96-1.34.54-2.05-1.03-1.75-3.38-.9-3.58.93-.09.81.75,1.49,1.5,1.5.88,0,1.41-.7,1.5-1.5l.02-.16-.2.76-.74.52-.76-.2-.32-.33.54-2.05c-2.48,1.52-4.73,3.39-6.64,5.58-.43.49-.71.45-.1.97.69.6.47.12.61-.5.16-.69.35-1.37.59-2.04s.52-1.29.84-1.92c.16-.31.34-.62.52-.93.14-.22.49-.47.18-.45l-1.5-1.5c-.07,2.24.22,4.89-.71,6.98-.36.81-.93,1.79-1.73,2.25-.53.3-1.15.3-1.19-.38-.1-1.57,1.1-3.26,2.27-4.18,1.63-1.28,3.42-1.41,5.4-1.05l-.36-2.74c-1.62.88-3.43,1.16-5.24.77v2.89c2.73-.75,5.5-1.38,8.29-1.89,1.12-.2,1.43-1.77.66-2.51-.87-.84-1.89-1.32-2.98-1.83-.9-.42-1.87-.87-2.07-1.93l-1.05,1.85c2.04-.39,4.06.1,5.78,1.24l.76-2.8c-2.55-.12-5.13.14-7.6.82-2.15.59-4.57,2.09-6.83,1.33l.36,2.74c3.01-2.24,6.23-4.35,9.96-5.11,1.76-.36,3.55-.33,5.29.1s3.46.85,5.17-.05.19-3.49-1.51-2.59h0Z"/>
  </g>
  <g>
    <g>
      <g>
        <g>
          <path class="cls-4" d="M68.9,21.84c-.43-1.65-.77-1.83-2.48-2.53l-2.45-1.01,2.46-.98c1.75-.7,2-.89,2.47-2.55l1.03-3.61,1.03,3.61c.48,1.69.8,1.87,2.44,2.56l2.35.99-2.35.99c-1.64.69-1.96.87-2.44,2.56l-1.07,3.77-1-3.79Z"/>
          <path class="cls-4" d="M69.93,21.57c.59-2.07,1.18-2.47,3.06-3.25-1.87-.79-2.47-1.18-3.06-3.25-.59,2.07-1.14,2.47-3.11,3.25,1.92.79,2.56,1.18,3.11,3.25Z"/>
          <path class="cls-4" d="M67.08,36.4l-1.33-5.5h2.09v-1.37l-1.33.89.09-2.12c.06-1.5.82-2.62,2.04-3.06.41-1.32,1.41-2.07,2.83-2.07.81,0,1.64.32,2.4.93l-.87,1.74v.12c.11,0,.27-.16.29-.27,0,0,0,.01,0,.03v10.67h-6.21Z"/>
          <path class="cls-4" d="M71.47,24.25c-1.23,0-1.77.74-1.92,1.88-1.23.15-1.82,1.04-1.87,2.22.15-.1.39-.2.59-.2.59,0,.64.59.64,1.08v2.75h-1.8l.81,3.35h4.29v-9.6c0-.54.3-.84.79-.84l.2.05c-.49-.39-1.09-.69-1.73-.69Z"/>
        </g>
        <g>
          <path class="cls-4" d="M3.31,41.46c-.13-.69-.19-1.4-.19-2.12v-3.7c0-.79-.11-1.1-.15-1.19h0c-.21,0-.56.03-.98.15l-1.62.48.25-1.67c.19-1.27.67-2.23,1.42-2.84.69-.55,1.68-.83,3.03-.83.59-.74,1.31-1.14,2.09-1.14.39,0,.88.08,1.51.24l.16.04,2.44.67-2.18,1.29s-.07.04-.1.06l-.03.02c-1.34.9-2.01,2.7-2.01,5.36,0,.94.08,1.82.23,2.61l.05.28-.09.27c-.52,1.53-1.34,2.49-2.43,2.85l-1.17.39-.22-1.21Z"/>
          <path class="cls-4" d="M4.37,41.27c.76-.25,1.34-.98,1.75-2.18-.17-.88-.25-1.83-.25-2.81,0-3.05.83-5.14,2.49-6.25.06-.04.12-.08.17-.11-.05-.01-.09-.02-.14-.04-.49-.13-.93-.21-1.24-.21-.54,0-1.08.39-1.53,1.14h-.49c-1.14,0-1.92.2-2.42.59-.54.44-.89,1.18-1.04,2.17.49-.15.94-.2,1.28-.2.89,0,1.23.74,1.23,2.27v3.7c0,.67.06,1.31.17,1.93Z"/>
          <path class="cls-4" d="M33.61,14.47h-1.61l-.08-.39-1.38.7.07-1.82c.06-1.52.8-2.62,2.04-3.06.06-.2.14-.39.23-.56.03-.05.05-.09.08-.14.5-.85,1.38-1.32,2.48-1.32.85,0,1.67.29,2.42.86l2.56,1.93h-3.12v9.86l-3.69-6.06Z"/>
          <path class="cls-4" d="M32.89,13.39h1.33l2.01,3.3v-6.27c0-.54.25-.84.79-.84h.2c-.59-.45-1.18-.64-1.77-.64-.71,0-1.24.25-1.55.78-.02.03-.04.06-.06.1-.1.19-.18.42-.23.68-.02.09-.03.17-.04.27-1.18.15-1.82.94-1.87,2.22.2-.1.39-.2.54-.2.37,0,.58.2.65.59Z"/>
          <path class="cls-4" d="M3.35,41.25l.25-.38.44-.07s.09-.02.14-.03l1.38-.42v2.23l-1.01.33-2.95.95,1.75-2.61Z"/>
          <path class="cls-4" d="M4.22,41.88l.27-.09h0c-.08.02-.16.04-.25.06,0,0-.01.02-.02.03Z"/>
          <path class="cls-4" d="M30.52,30.97l1.33-.04v-13.39l2.68,4.6,2.77,4.75v4.01h5V12.74l-1.43.86.15-2.06c.14-1.93,1.16-2.71,2.06-3.03.34-1.02.96-1.52,1.46-1.77.21-.1.42-.17.63-.22.06-.01.13-.03.21-.04.17-.03.34-.04.51-.04.24,0,.49.03.74.08.08.02.16.04.24.06.26.08.5.19.74.32.16.09.33.2.5.33.06.04.12.09.19.14l-.83,1.48v.36s0,0,.01,0c.13-.06.21-.19.22-.25,0,0,0,.02,0,.03v21.9h14.1l1.28,5.49h-1.94s-.25.01-.25.01l-3.94.02-2.69.02h-1.09s-7.38.05-7.38.05h-.24s-.16,0-.16,0l-3.73.02h-.61s-10.54.06-10.54.06v-5.61Z"/>
          <path class="cls-4" d="M60.96,31.97h-14.32V9c0-.39.16-.66.46-.77.11-.05.24-.07.38-.07l.05.02.09.03s-.09-.07-.14-.1c-.13-.1-.26-.19-.39-.26-.18-.1-.36-.17-.54-.23-.05-.02-.1-.03-.15-.04-.17-.04-.34-.06-.51-.06-.12,0-.24,0-.35.02-.05,0-.1.02-.15.03-.14.03-.27.08-.39.13-.56.27-.91.84-1.04,1.69-1.18.15-1.78.89-1.88,2.22.25-.15.45-.2.59-.2.44,0,.69.34.69,1.08v19.48h-7.15v-4.8l-2.62-4.5-.68-1.17v10.47l-1.04.03h-.28v3.5h1.13s4.46-.03,4.46-.03l3.86-.02h.62s3.73-.03,3.73-.03h.4s.61,0,.61,0h.68s6.09-.04,6.09-.04h1.09s0,0,0,0h.55s0,0,0,0h2.14s3.93-.03,3.93-.03h.25s.59,0,.59,0l-.78-3.35Z"/>
          <path class="cls-4" d="M13.42,49.69c-4.58,0-8.3-2.57-9.71-6.7l-.48-1.42h4.87l.32.44c1.07,1.47,2.67,2.18,4.9,2.18,1.86,0,3.63-.82,4.86-2.25.13-.15.25-.31.36-.46.04-.06.07-.11.11-.15l.05-.07c.62-.95.95-2.06.95-3.2V15.75l-1.37.57.14-1.75c.03-.43.11-.82.24-1.16.14-.39.34-.73.6-1.02.32-.37.73-.65,1.23-.83.44-1.31,1.45-2.08,2.81-2.08.87,0,1.72.35,2.45,1.02l2.05,1.87h-2.64v18.72l5.44-.13v5.62l-5.46.03c-.05,1.22-.18,2.38-.4,3.46-.05.25-.11.51-.18.78-.05.19-.1.4-.16.6-.1.33-.21.67-.33,1.02-.08.2-.15.4-.23.59-1.82,4.34-5.41,6.63-10.4,6.63Z"/>
          <path class="cls-4" d="M24.82,32.17h-.52s-.23.02-.23.02V12.09c0-.54.25-.79.79-.79h.15c-.54-.49-1.14-.74-1.73-.74-1.08,0-1.73.69-1.92,1.87-.56.1-1,.31-1.31.67-.16.19-.3.41-.39.67-.09.26-.15.55-.18.89.14-.06.26-.1.36-.12.09-.02.16-.03.23-.03.13,0,.25.03.34.1.21.14.3.46.3.94v22.52c0,1.4-.42,2.7-1.14,3.8-.06.08-.11.17-.17.25-.13.19-.27.36-.42.54-1.38,1.6-3.45,2.62-5.67,2.62-2.73,0-4.59-1-5.76-2.62h-2.83c1.23,3.6,4.49,5.98,8.69,5.98,5.02,0,7.94-2.45,9.41-5.98.08-.18.14-.35.21-.54.11-.31.22-.63.31-.95.05-.19.1-.37.15-.56.06-.24.12-.49.17-.73.28-1.37.4-2.83.4-4.31l5.44-.03v-3.46l-2.6.06-2.09.05Z"/>
        </g>
        <g>
          <path class="cls-4" d="M82.37,14.6l.08-2.14c.26,0,.49.02.71.04l-.18,2.14-.6-.03Z"/>
          <path class="cls-4" d="M82.43,13.53l.6.03c-.19-.02-.39-.03-.6-.03Z"/>
          <path class="cls-4" d="M86.86,27.68c-.14-.08-.29-.15-.44-.23l.96-1.92c.16.08.31.16.47.24l1.3.67-1.03,1.04-.56.56-.7-.37Z"/>
          <path class="cls-4" d="M87.36,26.73c-.15-.08-.3-.16-.45-.23.15.08.3.16.45.23h0Z"/>
          <path class="cls-4" d="M87.11,27.2c-1.17-.62-2.45-1.14-3.68-1.65-.98-.4-2.06-.84-3.01-1.31-.36-.18-.67-.35-.96-.52l-.11-.06-.59-.57v-8.39l.69-.26c.78-.3,1.7-.45,2.73-.45.25,0,.44,0,.63.02.42.03.83.09,1.22.17l-.24,2.12s.11,0,.23-.08c.1-.06.16-.16.17-.19,0,0-.02.06-.02.23v3.89l1.35-1.28,3.38,3.29-1.89,1.94,1.37,1.39-1.27,1.7Z"/>
          <path class="cls-4" d="M85.5,20.37l-1.92,1.82-.49-.44v-5.47c0-.49.12-.81.35-.95.09-.06.21-.09.34-.09h.01c-.33-.08-.69-.13-1.07-.15-.17-.02-.34-.02-.54-.02-.9,0-1.69.13-2.35.38v7.19l.17.17c.27.16.57.32.89.48.89.44,1.88.85,2.92,1.27,1.27.52,2.58,1.05,3.8,1.7l-2.11-2.14,1.87-1.92-1.87-1.82Z"/>
          <path class="cls-4" d="M77.87,9.8c.04-.62.24-1.39.91-2.01-.21-.44-.31-.94-.31-1.48,0-1.8,1.38-3.36,3.29-3.72.22-.04.36-.08.46-.11,0,0,.28-2.18.28-2.18l1.54,1.54c.58.58.86,1.18.86,1.84,0,.16-.01.31-.05.46.14.23.24.52.24.87,0,.15,0,.49-.2.92l-.45.92h1.14l1.68,3.48h-6.79c-.43,0-.63.14-.77.28l-1.99,1.99.16-2.81ZM82.59,5.95c-.27,0-.55.21-.55.41,0,.19.01.2.11.27l.06.05.06.06s.13.13.37.13h1.31l-.69-.55c-.4-.32-.56-.36-.66-.36Z"/>
          <path class="cls-4" d="M85.55,9.27l-.64-1.33h-2.27c-.45,0-.84-.15-1.14-.45-.39-.3-.54-.64-.54-1.13,0-.84.79-1.48,1.63-1.48.45,0,.84.2,1.33.59.1-.2.1-.35.1-.45,0-.3-.2-.49-.44-.69.2-.2.25-.39.25-.64,0-.35-.15-.69-.54-1.08-.05.39-.2.64-.35.74-.15.1-.49.2-.99.3-1.33.25-2.42,1.33-2.42,2.66,0,.74.24,1.28.79,1.78-.89.35-1.33.94-1.38,1.78.39-.39.89-.59,1.53-.59h5.08Z"/>
          <path class="cls-4" d="M78.76,13.11h-2.64l2.05-1.87c.75-.69,1.54-1.02,2.4-1.02,1.55,0,2.66.97,2.95,2.59l.24,1.34-1.36-.08c-.06,0-.12,0-.17,0h-.05c-.75,0-1.47.07-2.14.2l-1.28.25v-1.4Z"/>
          <path class="cls-4" d="M79.83,12.82v.38c.74-.14,1.53-.22,2.35-.22.09,0,.19,0,.28,0-.2-1.09-.83-1.7-1.89-1.7-.59,0-1.14.25-1.68.74h.2c.49,0,.74.25.74.79Z"/>
          <path class="cls-4" d="M79.53,42.37c-.06-.01-.11-.02-.17-.03l-1.14-.23v-2.28l1.35.35c.08.02.15.04.23.06l.13.03-.4,2.11Z"/>
          <path class="cls-4" d="M79.29,41.23l.43.09c-.15-.03-.29-.06-.43-.1h0Z"/>
          <path class="cls-4" d="M81.61,42.04c-.11,0-.21,0-.32,0-.57-.01-1.14-.08-1.68-.19l-.86-.17v-9.23l1.26-1.22-3.49-3.39,1.35-1.34.72.37c1.15.64,2.44,1.16,3.69,1.66l.08.03c1.07.43,2.07.84,3,1.31.31.16.6.32.86.48l1.17.72-.37.36,1.93,1.93-3.45,3.36-1.34-1.31v3.81c0,.13,0,.3.36.45l2.8,1.19-2.92.83c-.83.24-1.77.35-2.78.35Z"/>
          <path class="cls-4" d="M85.66,31.26c-.24-.15-.51-.3-.79-.44-.9-.46-1.9-.86-2.96-1.29-1.29-.52-2.62-1.06-3.84-1.73l-.02.02,3.5,3.4-1.73,1.68v7.89c.48.1.98.15,1.5.17.09,0,.19,0,.28,0,.94,0,1.77-.11,2.49-.31-.67-.28-1.02-.78-1.02-1.44v-5.43l.49-.44,1.92,1.87,1.92-1.87-1.92-1.92.16-.16Z"/>
          <polygon class="cls-4" points="78.22 14.33 79.1 14 79.87 16.01 79.84 16.02 79.8 16.04 79.77 16.05 78.22 16.82 78.22 14.33"/>
          <path class="cls-4" d="M79.39,15.05s.05-.02.08-.03l-.17.06h0s.06-.02.09-.03Z"/>
        </g>
      </g>
      <g>
        <path class="cls-4" d="M2.66,43.18v-2.35h1.07c.1,0,.2-.01.33-.04.04,0,.08-.02.12-.03l.06-.02s.07-.03.11-.05l.04-.02h.02s.03-.02.03-.02l.05-.03s.05-.03.05-.03l.06-.04h.01s.03-.04.03-.04l.12-.1h0c.07-.07.14-.14.21-.23.03-.04.05-.07.07-.1l.03-.04s.03-.04.04-.06l.02-.04.03-.04s.05-.07.07-.11v-.02c.05-.07.09-.15.13-.23.03-.07.06-.11.08-.16l.03-.08.07-.18c.03-.08.05-.14.08-.21l.04-.11c.06-.2.12-.4.17-.62l1.86-7.65.3-1.23h0l2.91-11.96c.36-1.46.09-1.9.03-1.97-.1-.13-.36-.16-.56-.16h-1.07v-2.35h10.44v2.35h-1.07c-.12,0-.15.03-.16.05-.13.17-.28.8.04,2.08l2.72,11.2v9.53c0,1.45-.42,2.86-1.22,4.08l-.06.1s-.1.14-.13.18c-.08.11-.17.23-.27.35l-.32.4h-3.76v-2.35h1.07c.26,0,.33-.09.37-.14.22-.28.34-1.06.12-2.01l-1.09-4.48h-5.87l-.48,1.96-.23.93-.39,1.6c-.07.28-.12.54-.14.78l-1.07-.09,1.07.12c0,.07-.01.14-.02.21v.07c0,.06,0,.11,0,.17,0,.02,0,.15,0,.15,0,.02,0,.05,0,.07,0,.05.01.11.02.16v.05s.03.08.04.12v.03s.03.06.05.08c.04.08.11.21.54.21h1.07v2.35H2.66ZM14.51,30.51l-1.48-6.11-1.48,6.11h2.97Z"/>
        <path class="cls-4" d="M19.85,27.29l-.19-.77-1.12-4.62-1.05-4.31c-.56-2.29,0-3.46,1.17-3.46v-.2h-8.29v.2c1.57,0,2.13,1.17,1.57,3.46l-2.9,11.91-.21.87h0l-.1.41-1.86,7.66c-.06.23-.12.46-.19.68h0s-.05.14-.05.14c-.03.09-.06.17-.09.25-.03.07-.05.14-.08.21-.01.03-.03.06-.04.09-.03.06-.06.12-.09.19-.05.1-.1.21-.16.31-.04.08-.08.15-.13.22-.03.06-.07.11-.11.16-.04.06-.08.11-.12.16-.12.16-.26.3-.41.43-.03.03-.07.06-.11.09,0,0,0,0-.01.01-.04.03-.08.06-.12.09-.01.01-.03.02-.05.03-.04.03-.09.06-.13.08-.05.03-.1.06-.15.08-.08.04-.15.07-.23.1-.04.01-.08.03-.11.04-.07.02-.14.04-.21.05-.17.04-.35.06-.54.06v.2h5.76v-.2c-.77,0-1.23-.31-1.48-.77-.04-.07-.07-.14-.1-.22,0-.02-.01-.04-.02-.05-.03-.07-.05-.15-.06-.23,0-.02-.01-.04-.01-.06-.02-.09-.03-.19-.04-.28,0-.05,0-.11,0-.16,0-.05,0-.1,0-.15,0-.07,0-.15,0-.22,0-.03,0-.06,0-.09,0-.09.01-.17.02-.26,0-.01,0-.02,0-.04.04-.3.09-.61.17-.91l.39-1.6.23-.93h0l.68-2.78h7.56l.58,2.37.72,2.95c.36,1.57.12,3.46-1.53,3.46v.2h2.17c.08-.1.16-.21.24-.31.04-.06.08-.12.12-.17l.04-.07c.68-1.05,1.05-2.26,1.05-3.5v-9.4l-.33-1.37ZM10.18,31.59l2.85-11.72,2.85,11.72h-5.7Z"/>
        <g>
          <path class="cls-4" d="M26.64,43.18v-2.35h1.07c.76,0,1.26,0,1.26-2.39v-20.85c0-2.39-.5-2.39-1.26-2.39h-1.07v-2.35h7.88l9.39,15.44v4.22h-5.2l-3.41-5.86-3.17-5.43v17.22c0,2.39.5,2.39,1.26,2.39h1.07v2.35h-7.82Z"/>
          <path class="cls-4" d="M42.84,28.6l-6.08-9.99-.54-.88-2.31-3.8h-6.2v.2c1.89,0,2.33,1.17,2.33,3.46v20.85c0,2.29-.44,3.46-2.33,3.46v.2h5.68v-.2c-1.89,0-2.33-1.17-2.33-3.46v-21.2l1.08,1.85.04.07.2.35.54.92.91,1.56,2.39,4.11.54.92,2.57,4.41h3.51v-2.84Z"/>
          <polygon class="cls-4" points="44.93 43.18 40.11 34.92 45.39 34.89 45.55 34.89 45.79 34.88 47.63 34.88 47.63 43.18 44.93 43.18"/>
          <polygon class="cls-4" points="45.8 35.96 45.55 35.96 45.4 35.96 41.98 35.98 45.55 42.1 46.55 42.1 46.55 35.95 45.8 35.96"/>
        </g>
        <g>
          <path class="cls-4" d="M48.22,43.18v-2.35h1.07c.36,0,1.45,0,2.1-2.64l.81-3.34,3.3-.02-.55,2.27-.39,1.6c-.28,1.13-.18,1.78-.02,1.99.08.1.24.15.5.15h1.07v2.35h-7.9Z"/>
          <path class="cls-4" d="M53.52,38.44l.39-1.6.23-.93h-1.09s-.61,2.53-.61,2.53c-.4,1.65-1.25,3.46-3.14,3.46v.2h5.76v-.2c-1.89,0-1.93-1.81-1.53-3.46Z"/>
          <path class="cls-4" d="M61.06,43.18v-2.35h1.07c.26,0,.33-.09.37-.14.22-.28.34-1.06.12-2.01l-.75-3.1-.54-2.2-.08-.33v-.04s-.2-.79-.2-.79l-2.45-10.09-2.52,10.38h-3.3l3.69-15.17c.36-1.46.09-1.9.03-1.97-.1-.13-.36-.16-.56-.16h-1.07v-2.35h10.44v2.35h-1.07c-.12,0-.15.03-.16.05-.13.17-.28.8.04,2.08l5.07,20.85c.3,1.32,1.12,2.64,2.1,2.64h1.07v2.35h-11.28Z"/>
          <path class="cls-4" d="M68.13,38.44l-.76-3.11-.82-3.35-3.5-14.38c-.56-2.29,0-3.46,1.17-3.46v-.2h-8.29v.2c1.57,0,2.13,1.17,1.57,3.46l-3.37,13.85h1.09l3.37-13.85,3.37,13.85.13.54.03.15.15.62.02.06.08.32.54,2.2.76,3.11c.36,1.57.12,3.46-1.53,3.46v.2h9.13v-.2c-1.69,0-2.78-1.89-3.14-3.46Z"/>
        </g>
        <path class="cls-4" d="M81.61,43.58c-.44,0-.88-.03-1.33-.08-.22-.03-.43-.06-.63-.09-.25-.04-.49-.09-.75-.16-1.05-.25-1.97-.61-2.7-.9-.6-.23-1.21-.47-1.52-.49-.03.06-.09.2-.14.45l-.17.86h-2.15v-9.83h2.31l.11.95c.02.19.64,4.69,4.81,5.86.03,0,.05.02.08.02h.06c.14.05.24.08.34.09.02,0,.13.03.13.03.04,0,.08.01.11.02h.06s.06.02.06.02c.03,0,.06.01.1.01h.05c.07.02.14.03.21.03.08,0,.14.01.21.02h.04c.16.02.33.03.47.03.09,0,.18,0,.27,0,.13,0,.26,0,.38,0,.09,0,.16,0,.24-.01h.14s.02,0,.02,0c0,0,.06,0,.06,0,.1,0,.2-.02.29-.03.1-.01.22-.03.33-.05.09-.01.18-.03.26-.05h.04s.02,0,.02,0l.23-.05s.05-.01.08-.02h.06s.07-.03.11-.04h.03s.07-.03.11-.04h.04s.04-.02.04-.02c.03,0,.06-.02.08-.02h.02s.05-.02.07-.03c.05-.02.1-.03.15-.05h.03c.05-.03.11-.05.16-.07h.03c.07-.04.13-.07.2-.1h.03c.06-.04.13-.07.19-.1l.2-.1c.1-.05.2-.11.3-.18.06-.04.1-.06.14-.09.06-.04.11-.07.15-.11.12-.09.23-.18.32-.26.04-.04.08-.07.11-.1v-.02s.07-.05.07-.05c.03-.03.07-.07.1-.1l.03-.04s.08-.09.12-.13c.06-.07.1-.12.14-.17l.04-.05s.04-.06.06-.09l.03-.04.02-.03c.16-.23.3-.48.41-.74.03-.06.05-.12.08-.18.03-.08.05-.14.07-.2l.02-.05s.01-.03.02-.05l.02-.06.03-.07v-.03s.04-.1.05-.15v-.04s.02-.06.03-.09l.02-.09s.02-.08.02-.13c.01-.07.02-.13.03-.19.02-.12.03-.23.04-.35v-.04s0-.04,0-.04c0-.02,0-.04,0-.07v-.04c0-.05,0-.11.01-.16,0-.07,0-.15,0-.22s0-.16,0-.23v-.04s0-.02,0-.02v-.05s0-.06-.01-.09v-.09s-.03-.07-.03-.07v-.06s-.01-.07-.02-.1c-.01-.07-.03-.15-.05-.22v-.02s-.03-.07-.03-.07c-.02-.06-.03-.11-.05-.17v-.03c-.03-.05-.05-.11-.07-.16l-.02-.05s-.04-.09-.07-.14h0c-.03-.06-.05-.11-.08-.15-.04-.06-.08-.14-.13-.21-.05-.07-.1-.13-.15-.2-.04-.05-.08-.1-.12-.14l-.03-.03s-.06-.06-.09-.1l-.03-.03-.03-.03s-.03-.03-.04-.04l-.02-.02s-.08-.08-.13-.12c0,0-.11-.09-.13-.12l-.03-.02-.06-.05s-.09-.07-.13-.11l-.05-.04c-.05-.04-.11-.09-.17-.12l-.03-.02c-.15-.11-.28-.19-.39-.26-.27-.17-.56-.33-.87-.48-.88-.45-1.87-.85-2.92-1.27-1.25-.51-2.55-1.03-3.75-1.68-.16-.09-.31-.17-.47-.26l-.05-.03c-.16-.09-.32-.19-.47-.29-2.8-1.79-4.16-4.2-4.16-7.36,0-3.6,2.32-6.48,6.05-7.52.27-.08.52-.14.77-.18.08-.02.18-.03.28-.05.11-.02.21-.04.32-.05.23-.04.48-.07.73-.09.1-.01.22-.02.34-.03.13,0,.27-.02.42-.02.14,0,.3,0,.46,0,.1,0,.2,0,.29,0,.21,0,.41.01.6.03h.41l.05.05s.18.03.18.03c1.58.22,2.76.76,3.62,1.15.32.15.74.34.96.39.05-.08.13-.23.23-.53l.25-.73h2.04v9.83h-2.43v-.99s0-.05,0-.05c0,0-.01-.09-.01-.11v-.03s-.01-.05-.01-.05c0-.02-.02-.09-.02-.09v-.08s0,.03,0,.03l-.03-.13v.02s0-.05,0-.05c0-.03-.01-.07-.02-.1-.02-.11-.05-.24-.09-.37v-.03s-.01-.03-.01-.03l-.02-.07v-.03s-.03-.07-.03-.07c0-.02,0-.04-.02-.06l-.06-.21v-.03s-.02-.03-.02-.03c0-.03-.02-.06-.03-.09-.03-.09-.06-.17-.09-.24-.03-.07-.05-.12-.07-.17v-.03c-.04-.06-.06-.12-.09-.18-.03-.08-.07-.16-.11-.25-.02-.05-.04-.08-.06-.12v-.03c-.04-.07-.08-.13-.11-.2l-.03-.06c-.04-.07-.09-.16-.14-.24-.03-.06-.07-.11-.1-.17l-.02-.04c-.03-.06-.07-.11-.11-.17l-.02-.03-.03-.04c-.04-.07-.09-.13-.13-.19-.04-.05-.07-.1-.11-.15l-.02-.02-.02-.03s-.06-.08-.1-.12c-.12-.14-.24-.27-.36-.39-.05-.05-.12-.11-.19-.17l-.02-.02c-.06-.05-.11-.1-.17-.14l-.06-.05-.03-.02-.06-.04-.03-.03s-.05-.04-.08-.06l-.07-.05s-.01-.01-.01-.01l-.03-.02c-.06-.04-.13-.09-.19-.13-.1-.06-.19-.12-.29-.17l-.16-.08-.26-.12h-.03s-.02-.02-.02-.02c-.04-.02-.08-.03-.12-.05l-.2-.07h-.01s-.07-.04-.07-.04h-.03s-.02,0-.02,0l-.16-.06c-.09-.03-.19-.05-.28-.07h-.07s-.04-.02-.04-.02c-.07-.02-.15-.03-.22-.04-.09-.02-.16-.03-.23-.03h-.05s-.07-.02-.11-.02h-.04s-.1-.01-.1-.01h-.01s-.09-.01-.14-.02h-.03c-.07,0-.15-.01-.23-.01h-.03c-.06,0-.12,0-.18,0h-.05c-.17,0-.34,0-.49.01-.04,0-.06,0-.09,0h-.04c-.1.01-.19.02-.28.03h-.03s-.03,0-.03,0l-.16.02c-.22.03-.43.08-.61.13-.03,0-.1.03-.1.03-.05.02-.1.03-.14.04-.06.02-.11.04-.15.05l-.18.07-.03.02h-.02s-.17.09-.17.09c-1.12.57-1.67,1.63-1.65,3.15,0,.05,0,.09,0,.13v.11s.02.14.02.14c0,.03,0,.05.01.08v.03s0,.03,0,.03l.04.16c.06.25.16.49.3.71.03.05.04.07.06.1.09.13.17.24.25.32l.03.03v.02s.03.02.03.02l.02.03c.13.15.29.3.47.44.03.03.05.05.07.06l.03.03s.05.04.08.06h.01s.09.07.09.07c.03.02.06.04.09.06l.11.08s.05.04.08.05l.03.02c.11.08.24.16.41.25l.12.07h0c.22.14.48.28.79.43.21.1.41.2.62.29l.19.09h0s.3.13.3.13h0c.22.1.45.19.67.29.35.15.71.29,1.07.44.64.26,1.3.53,1.96.82l.48.21c.16.07.33.15.48.22.15.07.31.15.46.22.17.08.33.16.48.24.32.17.63.34.97.55.39.24.69.44.96.64,2.59,1.85,3.85,4.23,3.85,7.26,0,6.4-5.95,9.31-11.86,9.36-.05,0-.11,0-.16,0ZM83.44,27.84l.04-.04-.06-.06-.03.04.06.06Z"/>
        <path class="cls-4" d="M89.15,27.82c-.28-.21-.58-.4-.88-.58-.3-.18-.6-.35-.91-.51-.15-.08-.3-.16-.45-.23-.15-.08-.31-.15-.46-.22-.15-.07-.31-.14-.46-.21l-.47-.21c-1.01-.44-2.04-.85-3.02-1.25-.25-.11-.51-.21-.75-.32,0,0-.02,0-.03-.01-.14-.06-.28-.12-.41-.18h0c-.23-.1-.45-.21-.66-.31-.35-.17-.65-.33-.92-.5l-.05-.03h0c-.16-.1-.32-.19-.47-.3-.06-.04-.12-.08-.18-.12-.06-.04-.12-.08-.17-.12,0,0-.01-.01-.02-.01-.07-.05-.14-.1-.2-.16-.03-.03-.07-.06-.1-.09-.21-.18-.41-.36-.58-.56-.03-.03-.06-.06-.08-.09-.12-.14-.23-.28-.33-.43-.03-.05-.06-.1-.09-.15-.19-.31-.33-.65-.42-1.02-.01-.05-.02-.1-.03-.14,0-.04-.02-.09-.02-.13,0-.04-.02-.09-.02-.13,0-.06-.01-.13-.02-.19,0-.05,0-.09,0-.14,0-.06,0-.11,0-.17-.03-1.86.7-3.34,2.24-4.12.05-.02.1-.05.15-.07.03-.02.06-.03.09-.04.03-.01.05-.02.08-.03l.12-.05.05-.02c.06-.02.13-.05.19-.07.06-.02.13-.04.19-.06.04-.01.08-.02.12-.03.23-.06.47-.12.73-.16.04,0,.09-.01.13-.02.05,0,.09-.01.13-.02.11-.01.22-.02.34-.03.05,0,.1,0,.14-.01.18-.01.37-.02.56-.02.1,0,.2,0,.29,0,.1,0,.19,0,.29.02.09,0,.19.01.28.02,0,0,.02,0,.03,0,.07,0,.14.01.2.02.09.01.19.02.28.04.1.02.2.03.29.06.02,0,.05,0,.07.02.12.02.24.06.36.09.02,0,.05.01.07.02,0,0,0,0,.01,0,.05.01.09.03.13.04.02,0,.04.01.06.02l.05.02.05.02.05.02.11.04h.03s0,.01.01.01c.06.02.12.04.17.07.06.02.11.05.17.07.02,0,.03.01.05.02.06.03.12.05.17.08.06.03.11.06.17.09.12.06.23.13.34.19.09.05.18.11.26.17.03.02.06.04.1.07,0,0,0,0,.01,0,.06.04.12.09.18.13h0s.02.02.02.02c.04.03.07.06.11.09.08.06.15.12.22.19.08.07.16.15.24.22.14.14.28.3.41.45.05.06.1.12.15.18.05.06.1.13.15.2.06.08.12.16.17.24.01.01.02.03.03.05.05.08.1.16.15.23.04.07.08.13.12.2.06.1.11.2.16.29.05.1.1.2.15.29.02.05.05.1.07.14.05.1.09.19.13.29.03.07.06.14.09.21.03.07.06.14.08.21.03.09.07.18.1.27.02.05.03.09.04.13.01.03.02.07.03.1.02.05.03.1.05.15.01.04.02.08.03.12.01.03.02.07.03.1.01.04.02.08.03.11.05.16.08.31.11.45,0,.03.01.06.02.08,0,.03.01.06.02.09,0,.03.01.06.02.08,0,.03.01.05.01.08,0,.03.01.05.01.07,0,.02,0,.05.01.07,0,.02,0,.04.01.06,0,.04.01.08.02.1,0,.02,0,.04,0,.05,0,.02,0,.03,0,.05,0,.02,0,.03,0,.03h.28v-7.69h-.2c-.94,2.75-2.21.23-5.99-.3-.03,0-.07-.01-.1-.02-.12-.02-.25-.03-.38-.04,0,0-.01,0-.02,0,0,0,0,0,0,0-.19-.02-.39-.03-.6-.03-.08,0-.17,0-.25,0-.15,0-.29,0-.43,0-.13,0-.26.01-.38.02-.1,0-.21.01-.31.02-.23.02-.45.05-.67.08-.09.01-.19.03-.28.05-.09.02-.19.03-.27.05-.24.05-.46.1-.68.16-3.42.96-5.26,3.56-5.26,6.49,0,3.2,1.56,5.1,3.67,6.45.14.09.29.18.43.27,0,0,.01,0,.02.01.15.09.31.18.47.26,2.14,1.16,4.64,1.92,6.65,2.94.33.17.64.34.94.52.16.1.31.2.46.3.09.06.17.12.25.18.08.05.15.11.22.18.02.01.03.02.05.04.06.05.12.1.18.16.06.05.11.1.17.16.04.04.08.08.12.12.05.05.1.11.15.16.06.07.13.14.18.21.06.08.13.17.19.25.06.09.12.18.17.28.04.06.07.13.11.2,0,0,0,.01,0,.02.03.07.07.14.1.21,0,0,0,.02.01.03.03.08.06.15.09.23.03.09.06.17.08.26.01.03.02.07.03.1.02.09.05.19.07.29.01.07.02.14.03.21,0,0,0,.01,0,.02,0,.04.01.09.02.13,0,.01,0,.02,0,.03,0,.05.01.1.01.15,0,.03,0,.06,0,.08,0,.1.01.21.01.32,0,.09,0,.18,0,.26,0,.07,0,.14-.01.21,0,.06,0,.11-.01.17-.01.14-.03.29-.05.43-.01.07-.02.14-.03.21-.01.06-.02.12-.03.19,0,.02-.01.04-.02.06-.01.05-.02.11-.04.16-.02.07-.03.13-.05.2,0,.03-.02.06-.03.09,0,.01,0,.03-.01.04-.01.05-.03.1-.05.14-.03.09-.06.17-.09.25-.03.08-.06.16-.1.24-.14.33-.32.65-.53.95,0,0-.01.01-.02.02-.04.06-.08.12-.13.18-.05.07-.11.14-.17.21-.06.07-.12.14-.18.2-.05.06-.11.12-.17.17-.01.01-.02.03-.04.04-.05.05-.1.1-.16.14-.12.11-.25.22-.39.32-.06.04-.12.09-.17.13-.06.04-.11.08-.17.12-.13.08-.26.16-.39.23l-.2.1c-.08.04-.17.08-.25.12-.09.04-.17.08-.26.11-.07.03-.14.06-.22.08-.08.03-.15.06-.23.08-.01,0-.02,0-.03.01-.06.02-.13.04-.19.06-.06.02-.12.03-.17.05-.06.02-.12.03-.18.05-.06.02-.12.03-.19.04-.04,0-.08.02-.12.03-.04,0-.08.02-.12.02-.1.02-.21.04-.32.06-.12.02-.25.04-.38.05-.1.01-.21.02-.32.03-.05,0-.1,0-.16.01-.02,0-.03,0-.05,0-.09,0-.19.01-.29.02-.14,0-.28,0-.42,0-.1,0-.2,0-.3,0-.19,0-.37-.01-.55-.03-.09,0-.17-.01-.26-.02-.09-.01-.18-.02-.26-.03-.07,0-.15-.02-.22-.03-.07,0-.13-.02-.2-.03-.03,0-.05-.01-.08-.02-.01,0-.02,0-.03,0-.15-.03-.29-.06-.43-.1-.05-.01-.1-.02-.15-.04-4.94-1.38-5.58-6.76-5.58-6.76h-.28v7.69h.2c.53-2.59,2.36-.69,5.66.1.22.05.45.1.68.14.19.03.38.06.58.09.38.05.79.07,1.2.07.04,0,.09,0,.13,0,5.24-.04,10.81-2.5,10.81-8.29,0-3.03-1.42-4.97-3.41-6.39ZM83.69,29.1l-.26.25-1.53-1.53,1.48-1.63,1.63,1.63-1.32,1.28Z"/>
      </g>
    </g>
    <g>
      <g>
        <path class="cls-8" d="M69.93,21.57c.59-2.07,1.18-2.47,3.06-3.25-1.87-.79-2.47-1.18-3.06-3.25-.59,2.07-1.14,2.47-3.11,3.25,1.92.79,2.56,1.18,3.11,3.25Z"/>
        <path class="cls-5" d="M71.47,24.25c-1.23,0-1.77.74-1.92,1.88-1.23.15-1.82,1.04-1.87,2.22.15-.1.39-.2.59-.2.59,0,.64.59.64,1.08v2.75h-1.8l.81,3.35h4.29v-9.6c0-.54.3-.84.79-.84l.2.05c-.49-.39-1.09-.69-1.73-.69Z"/>
      </g>
      <g>
        <path class="cls-16" d="M4.37,41.27c.76-.25,1.34-.98,1.75-2.18-.17-.88-.25-1.83-.25-2.81,0-3.05.83-5.14,2.49-6.25.06-.04.12-.08.17-.11-.05-.01-.09-.02-.14-.04-.49-.13-.93-.21-1.24-.21-.54,0-1.08.39-1.53,1.14h-.49c-1.14,0-1.92.2-2.42.59-.54.44-.89,1.18-1.04,2.17.49-.15.94-.2,1.28-.2.89,0,1.23.74,1.23,2.27v3.7c0,.67.06,1.31.17,1.93Z"/>
        <path class="cls-18" d="M32.89,13.39h1.33l2.01,3.3v-6.27c0-.54.25-.84.79-.84h.2c-.59-.45-1.18-.64-1.77-.64-.71,0-1.24.25-1.55.78-.02.03-.04.06-.06.1-.1.19-.18.42-.23.68-.02.09-.03.17-.04.27-1.18.15-1.82.94-1.87,2.22.2-.1.39-.2.54-.2.37,0,.58.2.65.59Z"/>
        <path class="cls-7" d="M4.22,41.88l.27-.09h0c-.08.02-.16.04-.25.06,0,0-.01.02-.02.03Z"/>
        <path class="cls-13" d="M60.96,31.97h-14.32V9c0-.39.16-.66.46-.77.11-.05.24-.07.38-.07l.05.02.09.03s-.09-.07-.14-.1c-.13-.1-.26-.19-.39-.26-.18-.1-.36-.17-.54-.23-.05-.02-.1-.03-.15-.04-.17-.04-.34-.06-.51-.06-.12,0-.24,0-.35.02-.05,0-.1.02-.15.03-.14.03-.27.08-.39.13-.56.27-.91.84-1.04,1.69-1.18.15-1.78.89-1.88,2.22.25-.15.45-.2.59-.2.44,0,.69.34.69,1.08v19.48h-7.15v-4.8l-2.62-4.5-.68-1.17v10.47l-1.04.03h-.28v3.5h1.13s4.46-.03,4.46-.03l3.86-.02h.62s3.73-.03,3.73-.03h.4s.61,0,.61,0h.68s6.09-.04,6.09-.04h1.09s0,0,0,0h.55s0,0,0,0h2.14s3.93-.03,3.93-.03h.25s.59,0,.59,0l-.78-3.35Z"/>
        <path class="cls-6" d="M24.82,32.17h-.52s-.23.02-.23.02V12.09c0-.54.25-.79.79-.79h.15c-.54-.49-1.14-.74-1.73-.74-1.08,0-1.73.69-1.92,1.87-.56.1-1,.31-1.31.67-.16.19-.3.41-.39.67-.09.26-.15.55-.18.89.14-.06.26-.1.36-.12.09-.02.16-.03.23-.03.13,0,.25.03.34.1.21.14.3.46.3.94v22.52c0,1.4-.42,2.7-1.14,3.8-.06.08-.11.17-.17.25-.13.19-.27.36-.42.54-1.38,1.6-3.45,2.62-5.67,2.62-2.73,0-4.59-1-5.76-2.62h-2.83c1.23,3.6,4.49,5.98,8.69,5.98,5.02,0,7.94-2.45,9.41-5.98.08-.18.14-.35.21-.54.11-.31.22-.63.31-.95.05-.19.1-.37.15-.56.06-.24.12-.49.17-.73.28-1.37.4-2.83.4-4.31l5.44-.03v-3.46l-2.6.06-2.09.05Z"/>
      </g>
      <g>
        <path class="cls-1" d="M82.43,13.53l.6.03c-.19-.02-.39-.03-.6-.03Z"/>
        <path class="cls-15" d="M87.36,26.73c-.15-.08-.3-.16-.45-.23.15.08.3.16.45.23h0Z"/>
        <path class="cls-11" d="M85.5,20.37l-1.92,1.82-.49-.44v-5.47c0-.49.12-.81.35-.95.09-.06.21-.09.34-.09h.01c-.33-.08-.69-.13-1.07-.15-.17-.02-.34-.02-.54-.02-.9,0-1.69.13-2.35.38v7.19l.17.17c.27.16.57.32.89.48.89.44,1.88.85,2.92,1.27,1.27.52,2.58,1.05,3.8,1.7l-2.11-2.14,1.87-1.92-1.87-1.82Z"/>
        <path class="cls-17" d="M85.55,9.27l-.64-1.33h-2.27c-.45,0-.84-.15-1.14-.45-.39-.3-.54-.64-.54-1.13,0-.84.79-1.48,1.63-1.48.45,0,.84.2,1.33.59.1-.2.1-.35.1-.45,0-.3-.2-.49-.44-.69.2-.2.25-.39.25-.64,0-.35-.15-.69-.54-1.08-.05.39-.2.64-.35.74-.15.1-.49.2-.99.3-1.33.25-2.42,1.33-2.42,2.66,0,.74.24,1.28.79,1.78-.89.35-1.33.94-1.38,1.78.39-.39.89-.59,1.53-.59h5.08Z"/>
        <path class="cls-3" d="M79.83,12.82v.38c.74-.14,1.53-.22,2.35-.22.09,0,.19,0,.28,0-.2-1.09-.83-1.7-1.89-1.7-.59,0-1.14.25-1.68.74h.2c.49,0,.74.25.74.79Z"/>
        <path class="cls-2" d="M79.29,41.23l.43.09c-.15-.03-.29-.06-.43-.1h0Z"/>
        <path class="cls-10" d="M85.66,31.26c-.24-.15-.51-.3-.79-.44-.9-.46-1.9-.86-2.96-1.29-1.29-.52-2.62-1.06-3.84-1.73l-.02.02,3.5,3.4-1.73,1.68v7.89c.48.1.98.15,1.5.17.09,0,.19,0,.28,0,.94,0,1.77-.11,2.49-.31-.67-.28-1.02-.78-1.02-1.44v-5.43l.49-.44,1.92,1.87,1.92-1.87-1.92-1.92.16-.16Z"/>
        <path class="cls-14" d="M79.39,15.05s.05-.02.08-.03l-.17.06h0s.06-.02.09-.03Z"/>
      </g>
    </g>
    <g>
      <path class="cls-9" d="M19.85,27.29l-.19-.77-1.12-4.62-1.05-4.31c-.56-2.29,0-3.46,1.17-3.46v-.2h-8.29v.2c1.57,0,2.13,1.17,1.57,3.46l-2.9,11.91-.21.87h0l-.1.41-1.86,7.66c-.06.23-.12.46-.19.68h0s-.05.14-.05.14c-.03.09-.06.17-.09.25-.03.07-.05.14-.08.21-.01.03-.03.06-.04.09-.03.06-.06.12-.09.19-.05.1-.1.21-.16.31-.04.08-.08.15-.13.22-.03.06-.07.11-.11.16-.04.06-.08.11-.12.16-.12.16-.26.3-.41.43-.03.03-.07.06-.11.09,0,0,0,0-.01.01-.04.03-.08.06-.12.09-.01.01-.03.02-.05.03-.04.03-.09.06-.13.08-.05.03-.1.06-.15.08-.08.04-.15.07-.23.1-.04.01-.08.03-.11.04-.07.02-.14.04-.21.05-.17.04-.35.06-.54.06v.2h5.76v-.2c-.77,0-1.23-.31-1.48-.77-.04-.07-.07-.14-.1-.22,0-.02-.01-.04-.02-.05-.03-.07-.05-.15-.06-.23,0-.02-.01-.04-.01-.06-.02-.09-.03-.19-.04-.28,0-.05,0-.11,0-.16,0-.05,0-.1,0-.15,0-.07,0-.15,0-.22,0-.03,0-.06,0-.09,0-.09.01-.17.02-.26,0-.01,0-.02,0-.04.04-.3.09-.61.17-.91l.39-1.6.23-.93h0l.68-2.78h7.56l.58,2.37.72,2.95c.36,1.57.12,3.46-1.53,3.46v.2h2.17c.08-.1.16-.21.24-.31.04-.06.08-.12.12-.17l.04-.07c.68-1.05,1.05-2.26,1.05-3.5v-9.4l-.33-1.37ZM10.18,31.59l2.85-11.72,2.85,11.72h-5.7Z"/>
      <g>
        <path class="cls-9" d="M42.84,28.6l-6.08-9.99-.54-.88-2.31-3.8h-6.2v.2c1.89,0,2.33,1.17,2.33,3.46v20.85c0,2.29-.44,3.46-2.33,3.46v.2h5.68v-.2c-1.89,0-2.33-1.17-2.33-3.46v-21.2l1.08,1.85.04.07.2.35.54.92.91,1.56,2.39,4.11.54.92,2.57,4.41h3.51v-2.84Z"/>
        <polygon class="cls-9" points="45.8 35.96 45.55 35.96 45.4 35.96 41.98 35.98 45.55 42.1 46.55 42.1 46.55 35.95 45.8 35.96"/>
      </g>
      <g>
        <path class="cls-9" d="M53.52,38.44l.39-1.6.23-.93h-1.09s-.61,2.53-.61,2.53c-.4,1.65-1.25,3.46-3.14,3.46v.2h5.76v-.2c-1.89,0-1.93-1.81-1.53-3.46Z"/>
        <path class="cls-9" d="M68.13,38.44l-.76-3.11-.82-3.35-3.5-14.38c-.56-2.29,0-3.46,1.17-3.46v-.2h-8.29v.2c1.57,0,2.13,1.17,1.57,3.46l-3.37,13.85h1.09l3.37-13.85,3.37,13.85.13.54.03.15.15.62.02.06.08.32.54,2.2.76,3.11c.36,1.57.12,3.46-1.53,3.46v.2h9.13v-.2c-1.69,0-2.78-1.89-3.14-3.46Z"/>
      </g>
      <path class="cls-9" d="M89.15,27.82c-.28-.21-.58-.4-.88-.58-.3-.18-.6-.35-.91-.51-.15-.08-.3-.16-.45-.23-.15-.08-.31-.15-.46-.22-.15-.07-.31-.14-.46-.21l-.47-.21c-1.01-.44-2.04-.85-3.02-1.25-.25-.11-.51-.21-.75-.32,0,0-.02,0-.03-.01-.14-.06-.28-.12-.41-.18h0c-.23-.1-.45-.21-.66-.31-.35-.17-.65-.33-.92-.5l-.05-.03h0c-.16-.1-.32-.19-.47-.3-.06-.04-.12-.08-.18-.12-.06-.04-.12-.08-.17-.12,0,0-.01-.01-.02-.01-.07-.05-.14-.1-.2-.16-.03-.03-.07-.06-.1-.09-.21-.18-.41-.36-.58-.56-.03-.03-.06-.06-.08-.09-.12-.14-.23-.28-.33-.43-.03-.05-.06-.1-.09-.15-.19-.31-.33-.65-.42-1.02-.01-.05-.02-.1-.03-.14,0-.04-.02-.09-.02-.13,0-.04-.02-.09-.02-.13,0-.06-.01-.13-.02-.19,0-.05,0-.09,0-.14,0-.06,0-.11,0-.17-.03-1.86.7-3.34,2.24-4.12.05-.02.1-.05.15-.07.03-.02.06-.03.09-.04.03-.01.05-.02.08-.03l.12-.05.05-.02c.06-.02.13-.05.19-.07.06-.02.13-.04.19-.06.04-.01.08-.02.12-.03.23-.06.47-.12.73-.16.04,0,.09-.01.13-.02.05,0,.09-.01.13-.02.11-.01.22-.02.34-.03.05,0,.1,0,.14-.01.18-.01.37-.02.56-.02.1,0,.2,0,.29,0,.1,0,.19,0,.29.02.09,0,.19.01.28.02,0,0,.02,0,.03,0,.07,0,.14.01.2.02.09.01.19.02.28.04.1.02.2.03.29.06.02,0,.05,0,.07.02.12.02.24.06.36.09.02,0,.05.01.07.02,0,0,0,0,.01,0,.05.01.09.03.13.04.02,0,.04.01.06.02l.05.02.05.02.05.02.11.04h.03s0,.01.01.01c.06.02.12.04.17.07.06.02.11.05.17.07.02,0,.03.01.05.02.06.03.12.05.17.08.06.03.11.06.17.09.12.06.23.13.34.19.09.05.18.11.26.17.03.02.06.04.1.07,0,0,0,0,.01,0,.06.04.12.09.18.13h0s.02.02.02.02c.04.03.07.06.11.09.08.06.15.12.22.19.08.07.16.15.24.22.14.14.28.3.41.45.05.06.1.12.15.18.05.06.1.13.15.2.06.08.12.16.17.24.01.01.02.03.03.05.05.08.1.16.15.23.04.07.08.13.12.2.06.1.11.2.16.29.05.1.1.2.15.29.02.05.05.1.07.14.05.1.09.19.13.29.03.07.06.14.09.21.03.07.06.14.08.21.03.09.07.18.1.27.02.05.03.09.04.13.01.03.02.07.03.1.02.05.03.1.05.15.01.04.02.08.03.12.01.03.02.07.03.1.01.04.02.08.03.11.05.16.08.31.11.45,0,.03.01.06.02.08,0,.03.01.06.02.09,0,.03.01.06.02.08,0,.03.01.05.01.08,0,.03.01.05.01.07,0,.02,0,.05.01.07,0,.02,0,.04.01.06,0,.04.01.08.02.1,0,.02,0,.04,0,.05,0,.02,0,.03,0,.05,0,.02,0,.03,0,.03h.28v-7.69h-.2c-.94,2.75-2.21.23-5.99-.3-.03,0-.07-.01-.1-.02-.12-.02-.25-.03-.38-.04,0,0-.01,0-.02,0,0,0,0,0,0,0-.19-.02-.39-.03-.6-.03-.08,0-.17,0-.25,0-.15,0-.29,0-.43,0-.13,0-.26.01-.38.02-.1,0-.21.01-.31.02-.23.02-.45.05-.67.08-.09.01-.19.03-.28.05-.09.02-.19.03-.27.05-.24.05-.46.1-.68.16-3.42.96-5.26,3.56-5.26,6.49,0,3.2,1.56,5.1,3.67,6.45.14.09.29.18.43.27,0,0,.01,0,.02.01.15.09.31.18.47.26,2.14,1.16,4.64,1.92,6.65,2.94.33.17.64.34.94.52.16.1.31.2.46.3.09.06.17.12.25.18.08.05.15.11.22.18.02.01.03.02.05.04.06.05.12.1.18.16.06.05.11.1.17.16.04.04.08.08.12.12.05.05.1.11.15.16.06.07.13.14.18.21.06.08.13.17.19.25.06.09.12.18.17.28.04.06.07.13.11.2,0,0,0,.01,0,.02.03.07.07.14.1.21,0,0,0,.02.01.03.03.08.06.15.09.23.03.09.06.17.08.26.01.03.02.07.03.1.02.09.05.19.07.29.01.07.02.14.03.21,0,0,0,.01,0,.02,0,.04.01.09.02.13,0,.01,0,.02,0,.03,0,.05.01.1.01.15,0,.03,0,.06,0,.08,0,.1.01.21.01.32,0,.09,0,.18,0,.26,0,.07,0,.14-.01.21,0,.06,0,.11-.01.17-.01.14-.03.29-.05.43-.01.07-.02.14-.03.21-.01.06-.02.12-.03.19,0,.02-.01.04-.02.06-.01.05-.02.11-.04.16-.02.07-.03.13-.05.2,0,.03-.02.06-.03.09,0,.01,0,.03-.01.04-.01.05-.03.1-.05.14-.03.09-.06.17-.09.25-.03.08-.06.16-.1.24-.14.33-.32.65-.53.95,0,0-.01.01-.02.02-.04.06-.08.12-.13.18-.05.07-.11.14-.17.21-.06.07-.12.14-.18.2-.05.06-.11.12-.17.17-.01.01-.02.03-.04.04-.05.05-.1.1-.16.14-.12.11-.25.22-.39.32-.06.04-.12.09-.17.13-.06.04-.11.08-.17.12-.13.08-.26.16-.39.23l-.2.1c-.08.04-.17.08-.25.12-.09.04-.17.08-.26.11-.07.03-.14.06-.22.08-.08.03-.15.06-.23.08-.01,0-.02,0-.03.01-.06.02-.13.04-.19.06-.06.02-.12.03-.17.05-.06.02-.12.03-.18.05-.06.02-.12.03-.19.04-.04,0-.08.02-.12.03-.04,0-.08.02-.12.02-.1.02-.21.04-.32.06-.12.02-.25.04-.38.05-.1.01-.21.02-.32.03-.05,0-.1,0-.16.01-.02,0-.03,0-.05,0-.09,0-.19.01-.29.02-.14,0-.28,0-.42,0-.1,0-.2,0-.3,0-.19,0-.37-.01-.55-.03-.09,0-.17-.01-.26-.02-.09-.01-.18-.02-.26-.03-.07,0-.15-.02-.22-.03-.07,0-.13-.02-.2-.03-.03,0-.05-.01-.08-.02-.01,0-.02,0-.03,0-.15-.03-.29-.06-.43-.1-.05-.01-.1-.02-.15-.04-4.94-1.38-5.58-6.76-5.58-6.76h-.28v7.69h.2c.53-2.59,2.36-.69,5.66.1.22.05.45.1.68.14.19.03.38.06.58.09.38.05.79.07,1.2.07.04,0,.09,0,.13,0,5.24-.04,10.81-2.5,10.81-8.29,0-3.03-1.42-4.97-3.41-6.39ZM83.69,29.1l-.26.25-1.53-1.53,1.48-1.63,1.63,1.63-1.32,1.28Z"/>
    </g>
  </g>
</svg>