<?xml version="1.0" encoding="UTF-8"?>
<svg id="Layer_1" data-name="Layer 1" xmlns="http://www.w3.org/2000/svg" baseProfile="tiny" version="1.2" viewBox="0 0 500 500">
  <path d="M454.12,244.84c-.04-.87-.09-1.75-.13-2.62,0,0,0,0,0,0,0,0,0,0,0,0-.15-7.39-.9-14.72-2-22.02-.73-4.86-1.41-9.74-2.79-14.49,0,0,0,0,0,0-.2-1.04-.38-2.08-.61-3.11-1.31-5.94-3.17-11.73-5.1-17.5-.39-1.13-.78-2.26-1.17-3.4-.96-3.07-2.11-6.06-3.42-8.99-.48-1.32-.89-2.66-1.69-3.84h0c-1.61-4.26-3.68-8.31-5.79-12.33h0c-.35-.62-.7-1.25-1.05-1.87-.4-.75-.8-1.51-1.2-2.26h0c-.57-1.35-1.27-2.63-2.16-3.79-.37-1.13-1.06-2.08-1.74-3.04-.69-1.34-1.39-2.66-2.37-3.81,0,0,0,0,0,0,.01-.11-.03-.19-.12-.25h0c-2.45-4.06-5.01-8.06-8.08-11.69.53-1.58.63-2.74-1.03-4.07-2.02-1.63-4.52-3.22-4.58-6.41,0-.55-.48-1.29-.96-1.27-1.25.05-2.09-.98-3.26-1.01-.28-.24-.56-.48-.84-.73h0s0,0,0,0c-1.85-2.26-3.71-4.51-5.91-6.45,0,0,0,0,0,0h-.01c-.47-.81-1.17-1.39-1.89-1.96h0c-1.69-2.29-3.84-4.11-6.05-5.87h0c-.24-.28-.48-.57-.71-.85-.29-.46-.66-.84-1.16-1.07,0,0,0,0,0,0-.26-.24-.52-.48-.78-.72-.01-.09-.02-.18-.03-.27-.69-1.54-1.66-2.75-3.43-3.08,0,0,0,0,0,0,0,0,0,0,0,0-2.59-2.05-5.17-4.11-7.76-6.16,0,0,0,0,0,0-.89-.89-1.79-1.78-3.04-2.16,0,0,0,0,0,0-.27-.33-.49-.73-.82-.97-4.25-3.11-8.48-6.26-13.07-8.87,0,0,0,0,0,0-2.07-1.67-4.37-2.95-6.74-4.13,0,0,0,0,0,0-.14-.1-.28-.19-.42-.29-.5-.55-1.12-.81-1.86-.81,0,0,0,0,0,0-2.12-1.82-4.6-3-7.14-4.09-1.14-.85-2.43-1.43-3.77-1.88,0,0,0,0,0,0h0s0,0,0,0c0,0,0,0,0,0h0c-2.01-1.24-4.18-2.16-6.38-3-.4-.47-1.02-.48-1.54-.72,0,0,0,0,0,0,0,0,0,0,0,0-.09-.05-.18-.07-.28-.06-.89-.78-2.08-.94-3.07-1.53.41-.99-.16-1.34-.98-1.56-1.68-.46-3.38-.86-5.01-1.43-1.03-.36-1.98-.96-3.14-.67h0s0,0,0,0c-1.27.02-2.33-1.04-3.66-.75,0,0,0,0,0,0h0c-.24-.15-.47-.29-.71-.44,0,0,0,0,0,0-.03-.1-.05-.2-.07-.3-1.2-1.84-3.07-1.59-4.87-1.54,0,0,0,0,0,0h0c-.13.01-.25,0-.37-.04.32-.97.09-1.52-1.06-1.48-1.16.04-2.32.02-3.48.03,0,0,0,0,0,0,0,0,0,0,0,0h0c-.65-1.59-2.02-.43-3-.76.22-.49.16-.79-.49-.77-.84.03-1.68.01-2.53.01,0,0,0,0,0,0,0,0,0,0,0,0-1.49-.26-2.98-.52-4.47-.78-1.06-.58-2.21-.77-3.4-.75-.19-.22-.34-.28-.47-.25-6.42-1.27-12.91-2.01-19.41-2.77h0c-.28-.11-.56-.3-.84-.31-4.75-.2-9.47-.91-14.23-.83h0s0,0,0,0c0-.11-.01-.22-.01-.33h-25.56c-.1.8-.7.8-1.27.74-3.48-.36-6.82,1.3-10.31.77-.24-.04-.54-.04-.73.07-1.86,1.13-4.04.91-6.05,1.35-1.41.31-2.69.64-3.81,1.53,0,0,0,0,0,0,0,0,0,0,0,0-1.91.48-3.88.75-5.71,1.51-.47.01-.95.03-1.42.04-3.23-.1-6.23.91-9.17,2.07-.69.27-1.91-.41-2.09.97h0c-1.59.23-3.65-.92-4.52,1.49-.94.1-1.62-1.13-2.5-.67-.88.46-1.77,1.09-2,2.22,0,0,0,0,0,0,0,0,0,0,0,0-.86.8-2.15.69-3.04,1.42,0,0,0,0,0,0-1.99.49-3.86,1.27-5.64,2.26,0,0,0,0,0,0-2.02.44-3.73,1.6-5.63,2.32-.6.01-1.11.23-1.48.71h0s0,0,0,0h0s0,0,0,0h0c-.6.04-1.11.28-1.52.73,0,0,0,0,0,0-.73.26-1.46.52-2.19.78-2.66-.02-4.72,1.49-6.88,2.72-.36.2-.7.53-.66,1.05-.77-.11-1.51.02-2.13.47-1.48,1.1-3.26,1.63-4.8,2.56-1.3.79-2.9,1.38-3.63,2.94h0c-2.09.28-3.78,1.2-4.86,3.07,0,0,0,0,0,0,0,0,0,0,0,0-.5.64-1.13,1.13-1.88,1.46,0,0,0,0,0,0,0,0,0,0,0,0-1.16-.13-1.91.36-2.28,1.47,0,0,0,0,0,0l-1.07.81s0,0,0,0c-1.08-.11-1.74.37-1.95,1.44,0,0,0,0,0,0l-.02.02c-1.12-.04-1.91.39-2.2,1.54-.69-.21-1.13-.03-1.74.5-1.05.9-2.17,1.77-3.31,2.58-2.03,1.46-4.62,2.46-5.48,5.19,0,0,0,0,0,0,0,0,0,0,0,0-.26.24-.52.48-.78.72-.83-.02-1.65-.03-1.45,1.2,0,0,0,0,0,0,0,0,0,0,0,0-.52.6-1.05,1.2-1.57,1.8,0,0,0,0,0,0v-.02c-1.19.4-1.86,1.4-2.63,2.28,0,0,0,0,0,0-2.67,2.45-5.52,4.71-7.8,7.55-2.38,1.64-3.83,4.19-6,6.03,0,0,0,0,0,0,0,0,0,0,0,0-1.75-.24-1.88.96-1.96,2.2h0c-.25.26-.5.51-.74.77-1.57-.46-1.27.56-1.14,1.44h0c-.26.27-.52.54-.78.81-1.49.86-2.99,1.71-2.97,3.76h0l-.8,1.4c-1.02.84-1.78,1.88-2.35,3.06,0,0,0,0,0,0-1.73,1.54-2.69,3.7-4.29,5.35-1.48.02-1.02,1.49-1.62,2.18,0,0,.1.08.1.08h0s0,.02,0,.03c-.03-.04-.06-.08-.09-.12-1.08.4-2.03.88-1.45,2.31,0,0,0,0,0,0,0,0,0,0,0,0-1.61,3.1-4,5.72-5.38,8.96,0,0,0,0,0,0-.7,1.02-1.41,2.04-2.11,3.06-1.47.36-1.65,1.44-1.5,2.7,0,0,0,0,0,0,0,0,0,0,0,0,0,.11-.02.21-.1.29-2.06-.16-1.31,1.34-1.4,2.35,0,0,0,0,0,0h0c-.27.63-.52,1.26-.82,1.87-1.38,2.85-3.02,5.57-4.1,8.56h0c-.4.75-.8,1.5-1.19,2.24-1.36.59-1.8,1.61-1.45,3.02-.24.75-.48,1.5-.73,2.25,0,0,0,0,0,0,0,0,0,0,0,0-.06.09-.08.2-.06.31,0,0,0,0,0,0-.96,1.81-1.78,3.68-2.25,5.69,0,0,0,0,0,0-.49,1.13-.99,2.26-1.48,3.4-2.09.84-1.38,2.66-1.46,4.2.05-.08.09-.16.14-.24-.02.1-.06.18-.14.24-.59,2.78-1.88,5.37-2.31,8.2,0,0,0,0,0,0h0s0,0,0,0c0,0,0,0,0,0-.51.93-.76,1.93-.82,2.99h0c-.71,1.58-1.04,3.25-1.34,4.94,0,0,0,0,0,0-.79,2.15-1.19,4.39-1.58,6.63-1.05,5.92-2.02,11.85-3.02,17.78h0c-.66.08-.81.55-.73,1.08.3,2.01-.52,3.9-.6,5.9-.2,5.1-.03,10.18-.13,15.27.04-.19.1-.37.16-.56-.03.19-.08.38-.16.56.34,8.34.4,16.69,1.47,24.98.6,4.62,1.01,9.26,2.21,13.78,0,0,0,0,0,0-.04,1.65.46,3.21.79,4.8,1.91,9.05,4.28,17.98,7.56,26.64,0,0,0,0,0,0,.75,2.23,1.5,4.46,2.25,6.69.03.62-.33,1.41.7,1.59,0,0,0,0,0,0h0c.12.07.17.18.19.3-.06-.1-.13-.2-.19-.29.34,1.31-.16,2.97,1.53,3.72-.08,1.21.22,2.46-.68,3.67.92-.14,1.38-.83,2.11-.64h0c2.03,4.24,4.06,8.48,6.1,12.72-.22,1.29.63,1.98,1.48,2.68h0s0,0,0,0c.26.49.51.98.77,1.47-.28.72-.52,1.42.74,1.15h0s.08.06.1.1c-.03-.03-.07-.07-.1-.1,0,1.22.03,2.25,1.07,3.34,1.14,1.18,2.06,2.68,2.76,4.29.61,1.43,1.82,2.54,2.92,3.67,0,0,0,0,0,0,.48,1.63,1.21,3.07,2.34,4.41.89,1.07,1.77,2.21,2.56,3.31,1.54,2.14,2.83,4.4,4.75,6.31.54.54.82,1.04,1.62,1h0c.72.76,1.44,1.52,2.16,2.28,0,0,0,0,0,0,2.97,4.31,6.75,7.91,10.3,11.72,2.75,2.96,5.74,5.7,8.62,8.54.08,2.66,2.12,3.17,4.1,3.76.14.13.27.27.41.4-.61,1.8.75,1.04,1.46,1.12h0c.53.45,1.07.91,1.6,1.36.01.05.03.08.05.12.5,1.31,1.3,2.27,2.86,2.29,0,0,0,0,0,0l.02.02s0,0,0,0c.14,1.7,1.32,2.09,2.75,2.16,0,0,0,0,0,0,0,0,0,0,0,0,2.72,1.61,4.94,3.94,7.74,5.44,0,0,0,0,0,0,1.27.96,2.54,1.92,3.82,2.89h0c.13.6.44,1.16.93,1.47,2.44,1.57,5.06,2.88,7.25,4.82.35.31.71.48,1.16.48,1.32,0,2.12.98,2.47,1.94.3.83.84,1.06,1.41,1.24,1.33.43,2.69.8,4.12.57,3.13,1.23,6.01,2.95,9.02,4.41-.16.9.71,1.05,1.15,1.25,2.97,1.34,5.77,3.14,8.92,4,2.02.55,3.76,2.17,6.06,1.63.98.27,1.97.54,2.95.81,0,0,0,0,0,0,.69.45,1.45.69,2.27.79,0,0,0,0,0,0,.39.2.79.4,1.18.6,1.15,1.6,2.8,1.67,4.53,1.51,0,0,0,0,0,0,0,0,0,0,0,0v-.02c.49,1.53,1.73.57,2.62.79,0,0,0,0,0,0,0,0,0,0,0,0l-.02-.02c1.64,1.39,3.58,1.64,5.63,1.55,0,0,0,0,0,0,0,0,0,0,0,0,2.51.3,4.86,1.38,7.4,1.54,3.86,1.22,7.87,1.74,11.85,2.39,6.08,1,12.18,1.84,18.35,2.04h0s0,0,0,0c.62.02,1.24.04,1.86.07l.14.06.15-.05c.99.42,2.03.31,3.06.25,0,0,0,0,0,0,2.61.08,5.23.3,7.84.21,4.67-.17,9.35.25,14-.49h0c.12,0,.25,0,.37-.01h0s0,0,0,0c2.75.13,5.47-.28,8.18-.57,4.51-.48,8.99-1.14,13.49-1.72.15-.11.31-.14.49-.15-.16.05-.33.1-.49.15,1.06.02,2.19.27,3.17,0,1.5-.42,3.3-.02,4.46-1.47,2.39.62,4.48-.1,6.41-1.48,0,0,0,0,0,0h0c3.72-1.02,7.44-2.04,11.17-3.06,1.52.42,2.91-.39,4.37-.49.64-.04.39-.6.22-1,1.46.07,3.12.69,3.79-1.4,3.15-1.28,6.42-2.28,9.47-3.81,4.74-1.68,9.17-4.07,13.77-6.07,1.35.18,2.93.81,3.06-1.5,0,0,0,0,0,0h0c2.11-1.48,4.41-2.63,6.71-3.77,1.9.16,4.27-1.28,4.52-2.74,0,0,0,0,0,0,0,0,0,0,0,0,0-.08.02-.16.05-.24h.19s.19,0,.19,0c.59-.09,1.47.31,1.45-.84,0,0,0,0,0,0,0,0,0,0,0,0,0,0,0,0,0,0,.69.44,1.35.26,2.09.05.83-.24.96-1.07,1.51-1.56,1.21-1.05,2.77-1.75,3.6-3.23.23-.15.46-.3.69-.46h0s0,0,0,0c0,0,0,0,0,0,.02-.01.05-.02.07-.04.35-.06,1.42.86.77-.58.43-.39.79-.89,1.42-1.01.27.56.61,1.29,1.27,1.12.93-.23.13-1.04.28-1.58.05-.17,0-.37,0-.55.12-.12.25-.24.37-.36h0c.89-.13,2.13.23,1.91-1.41h0c1.54-1.27,3.09-2.53,4.63-3.8h0c3.45-2.46,6.64-5.22,9.7-8.15,2.67-2.11,5.05-4.52,7.42-6.95.5-.24.86-.61,1.06-1.13,2.14-2.13,4.27-4.27,6.41-6.4,1.53-.16,2.15-1.17,2.4-2.54-.03-.02-.05-.04-.08-.06,0,0,0,0,.01-.01,0,0,.06.07.06.07,1.38.12,1.55-.74,1.49-1.81.22-.3.45-.6.67-.9h0c1.17.31,1.86-.55,2.68-1.11.07.42.03.94.68.87.09,0,.25-.29.22-.43-.08-.54-.38-.76-.91-.45-.2-.48-.64-1.05.21-1.31,1.06-.32.06-.68.07-1.02l.06.08-.05-.08h0s0,0,0,0c1.49-.19,2.48-.78,1.98-2.52.89-1.26,1.77-2.52,2.66-3.78h0s0,0,0,0c.64-.76,1.27-1.51,1.91-2.27,1.01-.03,2.22.27,2.17-1.42,0-.17.3-.38.5-.52,1.27-.86,1.45-1.6.61-2.65.11-.15.22-.3.33-.44h0s0,0,0,0c1.17.97,1.11-.63,1.73-.88,1.31-.53,1.56-2.17,2.62-3.05.18-.15.06-.77.22-.83,2.19-.88.89-2.72,1.16-4.11h0c.12-.45.29-.87.69-1.15h0,0c.64.19,1.3.34,1.39,1.54.37-1.36.06-2.12-.64-2.75,0,0,0,0,0,0,0,0,0,0,0,0,.11-.63.53-1.1.81-1.63,1.33-2.51,3.14-4.79,3.83-7.62.32-.39.64-.78.96-1.17h0s0,0,0,0c.28-.55.56-1.09.83-1.64,1.34-2.66,2.89-5.23,3.74-8.12.24-.37.53-.71.7-1.1,2.34-5.44,4.68-10.89,6.41-16.57h0,0c.11-.26.22-.51.32-.77,0,0,0,0,0,0,1.94-5.67,3.7-11.4,4.95-17.27h0s0,0,0,0c.4-1.2.78-2.41.81-3.7.8-2.46,1.24-4.99,1.53-7.55h0s0,0,0,0h0s-.01,0-.02,0c.79-2.97,1.25-5.99,1.47-9.05.09-.09.1-.19.03-.3.45-3.49,1.11-6.96,1.14-10.5h0c.48-1.72.34-3.48.38-5.23.33-1.03.33-2.07.2-3.13,0-.13.02-.27.02-.4.05-.99.11-1.99.16-2.98h.16s.16-.01.16-.01v-10.52c-.11-.02-.21-.02-.32-.01ZM292.44,450.04s0,0,0,0c0,0,0,0,0,0h0ZM310.37,442.61s0,0,0,0c-.06.06-.12.11-.17.17-.13-.08-.17-.14.16-.17ZM122.95,403.46s0,0,0,0c0,0,0,0,0,0h0ZM82.34,154.64h0s0,0,0,0h0ZM93.77,127.18s0,0,0-.01c0,0,0,0,0,0,0,0,0,0,0,0ZM199.31,56.88s0,.02,0,.03c-.02,0-.05,0-.07.01h0,0s.04-.03.07-.04ZM155.26,79.52s0,0,0,0c0,0,0,0,0,0ZM261.2,50.54s.02-.02.02-.03c.01.01.02.02.03.03-.02,0-.04,0-.06,0ZM150.66,78.07s0-.05.01-.08c.03,0,.06,0,.09-.01-.03.03-.07.06-.1.09ZM316.13,61.82s.03,0,.05,0c0,.01,0,.03-.01.04-.01-.01-.03-.03-.04-.04ZM151.91,82.54s-.01-.03-.02-.05c.01,0,.03,0,.04,0,0,.02-.01.03-.02.05ZM175.19,71.22s0,0,0,0c0,0,0,0,0,0,0,0,0,0,0,0h0ZM218.8,58.52s0-.05-.01-.08h0s0,0,0,0c0,0,.02,0,.02,0,0,.03,0,.06-.01.08ZM265.02,56.93s0,0,0,0h0s0,0,0,0ZM318.4,69.7h0s0,0,0,0h0ZM343.96,81.71h0s0,0,0,0c0,0,0,0,0,0ZM425.58,168.19s-.02.05-.03.07c-.02-.02-.04-.03-.06-.05.03,0,.06,0,.09-.02ZM445.18,239.62s0,0,0,0c0,0,0,0,0,0,0,0,0,0,0,0ZM109.41,108.06s0,0,0,0c0,0,0,0,0,0,0,0,0,0,0,.01ZM342.42,421.5s.02,0,.02,0c0,0,0,0-.01,0,0,0,0-.01-.01-.02ZM417.71,345.27s0,0,0,0c0,0,0,0,0,0h0ZM332.21,429.48s-.01-.05-.02-.08c.03,0,.07,0,.1,0h0s0,0,0,0c-.03.03-.05.05-.08.08ZM318.39,434.66s-.03.04-.04.06c0-.01,0-.03-.01-.04.02,0,.03-.01.05-.02h0,0ZM241.21,445.01s-.06.1-.08.14c-.07,0-.15,0-.22,0,0,0,0,0,0,0,.07-.06.34-.21.3-.14ZM238.71,448.19s0,0,0,0c0,0,0,0,0,.01,0,0,0,0,0-.01ZM354.3,413.63c.01.11,0,.17-.05.15-.06-.02-.11-.04-.16-.06.08-.03.15-.06.21-.09ZM322.15,429.05h0s0,0,0,0h0ZM292.08,440.35v-.05c.05,0,.1,0,.16,0-.05.01-.1.03-.16.04ZM259.05,444s.02.04.03.07c-.02,0-.05,0-.07-.01.01-.02.03-.04.04-.06ZM199.29,436.97s-.03-.07-.04-.11c0,0,0,0,0,0h0s.05,0,.07.01c-.01.03-.02.07-.03.1ZM135.75,406.02s0-.02,0-.03c0,0,0,0,0,0,0,0,0,0,0,0,0,0,0,0,0,0,0,0,0,.02,0,.02ZM65.74,188.92s.05-.04.08-.07c0,.03,0,.05,0,.08-.03,0-.05,0-.08-.01ZM72.72,167.59s0,0,.01,0c0,0,0,.01,0,.02,0,0,0,0-.01-.01ZM58.31,281.65s0,.03,0,.04c-.01,0-.02-.01-.03-.02.01,0,.02-.01.04-.02ZM119.19,398.95s0,0,0,0h0s0,0,0,0c0,0,0,0,0,0,0,0,0,0,0,0ZM198.82,441.78s.04.02.05.02h0s-.04,0-.05,0c0,0,0-.02,0-.03ZM421.77,337.53c-.05.33-.1.67-.12,1.01-.8,1.36-1.59,2.72-2.39,4.07-.86.17-.92.8-.86,1.5-.02.02-.03.04-.05.06-.36.28-1.74-.05-.63,1.1l-.08-.07.08.07c-.53-.02-1.06-.05-1.6-.07-.21-.53.36-.93.37-1.67-.8.6-1.23,1.02-.38,1.67-.9,1.27-.03,2.85-.74,4.15h0s0,0,0,0c-1.62,3.16-3.69,6.05-5.64,9-1.58.37-2.15,1.5-2.26,2.99h0c-1.12,1.66-2.23,3.32-3.35,4.98,0,0,0,0,0,0-1.76,2.25-3.52,4.5-5.28,6.74,0,0,0,0,0,0,0,0,0,0,0,0-2.63,3-5.26,6.01-7.89,9.01,0,0,0,0,0,0,0,0,0,0,0,0-.12.13-.24.26-.37.38,0,0,0,0,0,0,0,0,0,0,0,0-5.78,5.64-11.53,11.3-17.68,16.54h0c-3.26,2.52-6.52,5.04-9.79,7.55-.55.16-.88.6-1.24.99,0,0,0,0,0,0-.36.24-.71.47-1.07.71,0,0,0,0,0,0-2.11,1.42-4.21,2.84-6.32,4.25-5.39,3.13-10.78,6.26-16.18,9.39,0,0,0,0,0,0,0,0,0,0,0,0-.88.12-1.49.77-2.25,1.13-.79.11-1.45.44-1.98,1.05,0,0,0,0,0,0-.22.13-.43.27-.65.4,0,0,0,0,0,0-.97-.09-1.69.63-2.59.79-2.37.78-5.27.33-6.8,3-.74-.05-1.4.12-1.88.75-1.59-.33-3.06-.38-3.77,1.5,0,0,0,0,0,0,0,0,0,0,0,0-.88.75-2.2.6-3.03,1.46-1.55.37-3.11.69-4.49,1.54h0c-.82.02-1.58.23-2.27.69-5.26,1.41-10.51,2.81-15.77,4.22,0,0,0,0,0,0h0c-10.41,2.32-20.95,3.65-31.56,4.5-2.94-.14-5.85.23-8.78.29-5.86.12-11.71-.22-17.55-.72-.1-.04-.2-.07-.3-.1-1.38-.43-2.89-.31-4.23-.7-3.55-1.03-7.12-1.52-10.79-1.42-.37.01-.81.08-1.11-.09-2.69-1.47-5.84-.95-8.63-2.1-1.77-.73-3.77-.96-5.68-1.32-3.04-.58-5.91-2.1-9.13-1.73,0,0,0,0,0,0-1.71.02-3.16-1.05-4.83-1.18,0,0,0,0,0,0-3.13-1.12-6.27-2.24-9.4-3.35-.09-.07-.19-.12-.29-.14-2.08-1.03-4.25-1.84-6.46-2.54,0,0,0,0,0,0-2.94-1.51-5.92-2.95-9.01-4.12,0,0,0,0,0,0-.86-.81-1.87-1.3-3.04-1.46h0c-3.94-2.38-7.88-4.76-12.01-6.81,0,0,0,0,0,0-1.52-1.15-3.1-2.22-4.86-2.98-.15-.23-.3-.45-.45-.68.02-.85-.56-.82-1.15-.78,0,0,0,0,0,0,0,0,0,0,0,0-.37-.23-.74-.47-1.12-.7-.25-1.22-1.04-1.68-2.23-1.57-1.13-2.11-3.01-3.18-5.22-3.8-.01.02-.02.04-.03.07,0,0,0-.01-.01-.02,0,0,.05-.05.05-.05-.74-1.13-1.4-2.36-3.06-2.22,0,0,0,0,0,0,0,0,0,0,0,0-3.31-2.27-6.21-5.04-9.38-7.49h0s0,0,0,0c-.14-.23-.27-.46-.41-.7-1.08-1.72-2.13-3.47-4.39-3.87,0,0,0,0,0,0-2.41-2.32-5.02-4.45-7.1-7.11-.4-.52-.82-1.13-1.61-1.17h0c0-.12-.02-.23-.05-.34h0s0,0,0,0c-.12-.24-.24-.47-.35-.71,0,0,0,0,0,0-.43-1.67-1.61-2.65-3.06-3.39,0,0,0,0,0,0,0,0,0,0,0,0-1.51-.99-2.25-2.72-3.68-3.79h0c-.37-.52-.74-1.03-1.1-1.54-.09-.73-.54-1.16-1.16-1.47h0s0,0,0,0c-1.25-1.51-2.5-3.02-3.74-4.54,0,0,0,0,0,0-.26-.48-.52-.95-.79-1.43,0,0,0,0,0,0,0,0,0,0,0,0,.12-1.21-.31-2.04-1.6-2.25,0,0,0,0,0,0,0,0,0,0,0,0-1.18-1.23-2.08-2.65-2.93-4.12-.4-1.38-.61-2.89-2.28-3.42,0,0,0,0,0,0,0,0,0,0,0,0-1.55-1.55-2.12-3.78-3.68-5.33h0c-.26-.6-.53-1.2-.79-1.8-.38-2.76-2.07-4.79-3.81-6.79,0,0,0,0,0,0,0,0,0,0,0,0-1.53-2.22-2.64-4.67-3.72-7.13.01-.64-.2-1.17-.75-1.53h0s0,0,0,0c-1.14-2.19-2.22-4.4-2.98-6.76-.05-.06-.09-.13-.12-.21.04.07.08.14.12.21.06-1.38.1-2.75-1.5-3.4.37-1.69-.28-3.02-1.5-4.14-.5-1.13-1-2.25-1.49-3.38,0,0,0,0,0,0-.32-1.32-.69-2.62-1.44-3.78-.11.08-.22.09-.33.07.16-.08.33-.15.5-.23.26-.62.08-1.21-.1-1.81-1.57-5.04-2.95-10.13-4.2-15.26-.18-.72-.31-1.46-.8-2.07-.07-.06-.14-.13-.21-.19.01-.07.02-.14.02-.22-.11-.69-.06-1.39-.11-2.08-.94-4.63-1.57-9.31-2.34-13.96-.52-3.13-.31-6.34-1.2-9.42-.09-.18-.21-.31-.36-.38,0-.23,0-.45-.01-.68-.03-.66.17-1.35-.27-1.94,0-.03,0-.05,0-.08,0-.66.01-1.32.02-1.98.05-1.05.17-2.09.34-3.14.08-.95.4-1.95-.55-2.68-.07.04-.13.08-.19.12,0-.05.02-.09.03-.14-.1-4.85.1-9.69.34-14.53.13-.52.16-1.06.08-1.6.12-2.33.23-4.65.32-6.98.11-.43.18-.85.17-1.27.7-5.11,1.39-10.22,2.09-15.32,0,0,0,0,0,0,.12-.11.22-.24.29-.39.06-.25.1-.51.13-.77.19-.89.19-1.83.52-2.69,1.99-1.52,1.09-3.69,1.28-5.61-.07.19-.13.39-.2.58,0-.21.04-.42.2-.58.5-2,1-3.99,1.49-5.99,1.36-1.4,1.72-3.1,1.48-4.97h0s0,0,0,0c.04-.22.07-.44.11-.66,0,0,0,0,0,0,1.33-1.12,1.58-2.6,1.4-4.22,0,0,0,0,0,0,0,0,0,0,0,0,.62-3.24,2.28-6.13,3.06-9.32h0c2.02-4.75,4.04-9.51,6.06-14.26,0,0,0,0,0,0,1.15-1.89,2.21-3.84,2.98-5.92,1.03-.98,1.28-2.45,2.19-3.51.87-.67,1.69-1.37,1.51-2.64.83-.05.77-.63.72-1.2,0,0,0,0,0,0,0,0,0,0,0,0,.5-.97,1-1.95,1.49-2.92,0,0,0,0,0,0h0c.08-.08.11-.18.09-.29,0,0,0,0,0,0,1.21-1.8,2.42-3.59,3.63-5.39,1.24-.26,1.72-1.03,1.55-2.25.84.02.8-.56.77-1.14,0,0,0,0,0,0,0,0,0,0,0,0,.82-1.49,1.72-2.92,2.94-4.13,1.26-.25,1.71-1.06,1.57-2.27,0,0,0,0,0,0,0,0,0,0,0,0,.21-.25.42-.5.64-.76,0,0,0,0,0,0h0c.54.09.85-.12.9-.68h0s0,0,0,0c.94-.42,1.19-1.96,2.61-1.62.04,0,.25-.35.2-.42-.73-1.17.43-1.51.94-2.06.55-.6.87-1.19.71-2,0,0,0,0,0,0,0,0,0,0,0,0,.78-.97,1.55-1.94,2.33-2.9.96-.46,1.5-1.27,1.88-2.23,0,0,0,0,0,0,1.36-1.54,2.71-3.07,4.07-4.61,2.13-1.86,4.14-3.84,5.97-6,0,0,0,0,0,0,0,0,0,0,0,0l.04-.04s0,0,0,0h0c1.11-.99,2.22-1.99,3.34-2.98,0,0,0,0,0,0,0,0,0,0,0,0,.58.06,1.13.09,1.21-.7,0,0,0,0,0,0,.79-.24,1.33-.71,1.48-1.55,0,0,0,0,0,0h0c1.69-2.34,4-3.98,6.25-5.72,4.82-3.74,9.56-7.58,14.76-10.8,2.17-.02,3.56-1.21,4.55-3.01,0,0,0,0,0,0,0,0,0,0,0,0l.76-.75h0c1.46-.76,2.93-1.52,4.39-2.28,1.37.53,2.51-.8,3.85-.49.43-1.85,2.32-1.76,3.46-2.65,1.14-.89,2.99-1,3.34-2.82l.12-.07h.14c.98.16,1.84.23,2.8-.41,1.49-1,3.12-1.85,4.8-2.45.94-.34,1.79-.45,1.9-1.62.28-.21.55-.43.83-.64,0,0,0,0,0,0,.96-.26,1.91-.54,2.72-1.14,0,0,0,0,0,0,.46.12.64-.35.98-.47h0c.76.11,1.34-.31,1.92-.69,0,0,0,0,0,0,.66-.14,1.33-.26,1.86-.74l-.06-.07s0,0,0,0c.02.03.04.05.06.08,6.13-2,12.27-4.01,18.4-6.01,0,0,0,0,0,0,3.57-.82,7.13-1.68,10.71-2.44,3.45-.74,6.93-1.38,10.39-2.06,0,0,0,0,0,0,3.27-.37,6.54-.79,9.82-1.12,8.97-.89,17.96-1.25,26.97-.9,1.62.04,3.23.08,4.85.12,0,0,0,0,0,0,4.01.38,8.03.76,12.04,1.13,0,0,0,0,0,0,.38.08.76.17,1.14.25,1.35.19,2.7.35,4.05.59,7.15,1.25,14.29,2.56,21.28,4.53,5.28,1.48,10.57,2.94,15.62,5.1.35,1.42,1.49.54,2.25.77.9,1.38,2.36,1.37,3.76,1.5.14,1.05.92.7,1.54.71.2,1.33,1.23.63,1.92.76h0s0,0,0,0c4.67,1.6,8.93,4.1,13.38,6.17,0,0,0,0,0,0,.43.4.92.68,1.53.7h0c.65.43,1.3.86,1.95,1.29h0c.16.86.79.92,1.48.88.56,2.01,2.13,2.26,3.87,2.22,0,0,0,0,0,0,0,0,0,0,0,0,.59.03.97.43,1.38.78.1.93.82,1.03,1.53,1.15,0,0,0,0,0,0,0,0,0,0,0,0,.49.25.98.5,1.47.76.48.91,1.27,1.35,2.26,1.5.25.13.5.27.75.4.12.87.81.98,1.49,1.11,2.67,1.39,5.02,3.29,7.56,4.88,3.5,2.76,7,5.52,10.5,8.28,1.77,1.73,3.52,3.48,5.52,4.95.17.37.45.62.83.76,0,0,0,0,0,0,.26.47.56.9,1.1,1.07,0,0,0,0,0,0,.77.75,1.53,1.5,2.3,2.24h0c.68,1.06,1.65,1.83,2.58,2.65l1.22,1.05h0s0,0,0,0l.02.02h0c4,4.51,8,9.01,12,13.52,0,0,0,0,0,0h0c2.63,3.5,5.27,6.99,7.9,10.49h0c1.19,1.82,2.4,3.64,3.57,5.48,2.15,3.41,4.27,6.83,6.41,10.24-.04.27.04.51.19.73.1.15.2.3.31.44.21.62.59,1.15.98,1.67,0,.02.01.04.02.06.02.16.07.31.15.45.07.09.12.18.16.28,0,.02.02.05.03.07.13.31.16.65.23.98.91,2.13,1.74,4.3,3.23,6.12.11,0,.2,0,.28,0,.12.25.24.5.36.75-.03.09-.07.18-.11.27.02.37.16.7.46.93.09.06.17.11.26.15.42.91.85,1.82,1.27,2.74,0,.13-.03.26-.08.4.02.37.19.67.45.92.14.17.27.34.39.52.78,1.8,1.57,3.59,2.35,5.39.05.22.1.44.14.67.05.16.11.32.2.47.08.11.14.22.2.34.09.35.19.69.37,1,.02.08.05.16.07.24.07.15.15.29.26.42,0,0,0,0,0,0,.32,1.36.85,2.64,1.46,3.89,0,0,0,0,0,.01,1.22,3.79,2.43,7.57,3.65,11.36.02.11.06.22.11.33.18.78.33,1.58.55,2.35,1.53,5.25,2.51,10.63,3.74,15.96,0,.13.01.26.01.39.04.08.08.16.12.24,0,.09.01.18.07.27.57,4.25,1.17,8.5,1.69,12.75.38,3.08.65,6.17.97,9.25.03,1.62.05,3.24.08,4.87,0,0,0,0,0,0,0,0,0,0,0,0,.02,4.63.04,9.26.06,13.89,0,0,0,0,0,0,0,0,0,0,0,0-.06,1.86-.11,3.72-.17,5.57h0c-.69,5.93-1.39,11.85-2.08,17.78-.05.59-.1,1.18-.16,1.77.02.04.04.09.06.13-.08.03-.21.03-.42-.03-1.05,3.13-1.68,6.35-1.91,9.64.04.2.09.4.17.59.01.02.02.03.03.05-.74,2.8-1.48,5.6-2.23,8.4-.09.1-.18.19-.27.28-.72.92-.91,2.01-.99,3.14.15.57.14,1.12-.19,1.63-.01.12,0,.24.04.35-1.08,3.12-2.16,6.23-3.24,9.35-.04.21-.07.42-.11.63,0,0,0,0,0,0-.28.65-.55,1.3-.83,1.95h0c-.19.51-.38,1.03-.57,1.54-.05,0-.11,0-.17,0-.53.47-.83,1.11-1.05,1.75-1.13,3.19-2.71,6.19-3.98,9.32-.94,2.32-2.48,4.36-3.08,6.82ZM403.35,121.58s0,.01,0,.02c0,0-.01-.01-.02-.02,0,0,.01,0,.02,0ZM159.7,71.25s0-.03-.01-.04c.03,0,.06,0,.09,0h0s-.05.03-.07.04ZM144.11,421.74c-.32.04-.54-.12-.71-.36.23.13.47.25.71.36ZM242.84,450.07s0,0,0,0h0s0,0,0,0ZM288.32,447.06s-.03.07-.05.1c-.02-.03-.04-.07-.06-.1h.11ZM369.3,413s.01.05.02.08c-.03,0-.06.01-.1.02.02-.03.05-.07.08-.1ZM434.07,172.38s.01.02.02.03c0-.01-.01-.02-.02-.03ZM428.91,165.23s-.02-.01-.03-.02v-.03s.02.03.03.05ZM345.48,73.51s-.02-.03-.03-.05c.01,0,.02,0,.03,0,0,0,0,0,0,0,0,.02,0,.03,0,.04ZM277.06,50.18s0,0-.01-.01c0,0,.02,0,.03,0,0,0,0,0-.01.01ZM159.62,69.59c.05-.12.15-.17.27-.18-.09.06-.18.12-.27.18ZM124.45,93.01h0s-.01.02-.02.03c0,0-.01-.02-.02-.02.01,0,.02,0,.04,0,0,0,0,0,0,0h0ZM123.32,95.27s-.01.03-.02.04c0,0,0-.02-.01-.03.01,0,.02,0,.03-.01ZM122.74,405.92c.12.21.24.41.35.62-.05.08-.12.12-.19.14-.07-.32-.12-.56-.17-.76ZM304.82,442.64s-.01-.05-.02-.08h.06s-.03.05-.04.08ZM413.16,129.44s-.02,0-.03,0c0,0,0,0,.01-.01,0,0,0,0,.01.01ZM324.36,61.44s.02-.04.03-.06c0,.02.01.03.02.05-.02,0-.03,0-.05,0ZM56.78,191.66c-.15-.1-.29-.17-.42-.22.06-.03.11-.06.16-.1.08.11.17.21.26.32ZM47.75,271.05c.01-.09.02-.18.03-.27.08.1.17.19.26.29-.1-.02-.19-.02-.29-.02ZM62.09,330.53h0s0,0,0,0c0,0,0,0,0,0ZM67.46,338.63c-.05-.07-.08-.15-.11-.23.04.08.07.15.11.23ZM339.12,432.22s.02.08.02.13c-.02,0-.04.02-.05.03,0-.05.02-.1.03-.15ZM453.68,256.88s0,.03,0,.04c0,0-.01,0-.02-.01,0,0,0-.02.02-.03ZM437.12,168.96s0,0,0,0c.03-.03.06-.05.09-.08,0,0-.09.08-.09.08ZM426.54,148.5c.1,0,.25.04.47.13-.16-.05-.31-.09-.47-.13ZM334.21,65.5s-.09-.05-.13-.07c.06,0,.1.03.13.07ZM301.84,52.43s0,0,0,0c0,0,0,0,0,0,0,0,0,0,0,0ZM268.62,47.33s-.06,0-.09,0c.13-.02.26-.04.39-.05-.1.03-.2.05-.3.06ZM189.88,54.71s0,0,0,0h0s0,0,0,0ZM185.35,56.2h0s0,0,0,0c0,0,0,0,0,0ZM185.35,56.2s-.05.03-.08.05c.03-.02.05-.03.08-.05,0,0,0,0,0,0ZM153.79,69.74h0s0,0,0,0c0,0,0,0,0,0ZM143.32,75.79s0,0-.01,0h0s-.07-.08-.07-.08c.03.03.06.06.08.08ZM114.77,97.43s-.02,0-.02.01c0,0,.02,0,.02-.01ZM81.57,135.03s0,0,0,0c0,0,0,0,0,0,0,.04,0,.08,0,.12-.03,0-.07-.01-.1-.02.03-.03.06-.07.09-.1ZM51.8,201.77c-.06-.04-.11-.08-.18-.12.07.04.12.08.18.12ZM72.6,351.59h0ZM117.54,405.62s.08.06.1.11c-.03-.04-.07-.08-.1-.11ZM181.97,442.5s0,0,.01.01c0,0-.07.09-.07.09.02-.03.04-.07.05-.1ZM252.26,453.05s.01.02.02.03c-.02,0-.03,0-.05,0,0,0,.02-.02.03-.03ZM314.6,444.02h0s0,0,0,0c0,0,0,0,0,0ZM401.86,386.25s.05,0,.07,0c0,0,0,0,0,0,0,0,0,0,0,0-.01.02-.03.04-.04.06,0-.02-.02-.04-.03-.06ZM408.49,378.96s0,0,0,0h0s0,0,0,0ZM422.92,358.42s0,0,.01,0h0s0,.02,0,.02c0,0,0,0-.01-.01Z" fill="#fff" stroke-width="0"/>
  <path d="M414.64,125.28c-.19-.66-.42-1.09-1.36-.98.33.58.66.94,1.36.98Z" fill="#fff" stroke-width="0"/>
  <path d="M153.06,324.43c.05,1.99,1.01,3.3,2.93,3.87h0c.26.24.52.49.79.73,0,0,0,0,0,0,0,0,0,0,0,0,.07.52-.24,1.23.47,1.45,1.6.5,2.91,1.9,4.77,1.58h0c1.1.14,2.2.27,3.3.41.63.4,1.34.24,2.01.25,18.14,0,36.27,0,54.41,0,.68,0,1.38.13,2.02-.24,1.53.04,3.06.03,4.57-.24.24,0,.49-.03.72-.15.46-.03.93-.06,1.39-.08.76-.07,1.54.08,2.26-.29,0,0,0,0,0,0,.25-.02.49-.04.74-.07.66-.06,1.36.04,1.97-.31,0,0,0,0,0,0l.14.04.13-.07c.66-.08,1.36.01,1.97-.34,0,0,0,0,0,0l.14.04.13-.07h0c.64-.08,1.32.06,1.9-.35.59-.14,1.24,0,1.8-.31.04-.02.08-.04.12-.07,2.04-.32,4.04-.74,5.98-1.48h0s0,0,0,0c0,0,0,0,0,0,0,0,0,0,0,0,.36-.1.72-.2,1.08-.29.16,0,.31-.01.43-.12,1.19-.27,2.39-.55,3.58-.82.73.11,1.47.17,2.18.33.37.08.59.67,1.11.27,2.33-1.8,4.8-3.3,7.85-3.6.94-.09,1.8-.6,1.4-1.86h0s0,0,0,0c.21-.13.42-.26.64-.39.63-.05,1.5.39,1.57-.77.06-.03.11-.05.17-.07.57-.01,1.76,1.15,1.33-.74h0s0,0,0,0c.39-.43.85-.69,1.44-.7.41.08.56.89,1.02.52.24-.19.16-.8.22-1.22,1.3.51,2.44-.11,2.93-1.6,0,0,0,0,0,0,0,0,0,0,0,0,1.6,1.01,1.75.92,2.32-1.44,2.28-1.88,5.06-3.08,7.15-5.22,1.73-.87,3.03-2.29,4.51-3.49.47-.23.89-.53,1.11-1.03h0,.01c1.79-1.07,3.2-2.54,4.53-4.11.66-.15,1.1-.55,1.38-1.15.43-.49.87-.98,1.3-1.47.37-.34.75-.67,1.12-1.01.37-.42.74-.84,1.11-1.25h0c1.98-1.79,3.79-3.74,5.16-6.05.43-.48.86-.96,1.29-1.45.43-.47,1.01-.82,1.15-1.51h0c1.94-2.21,3.53-4.67,5.05-7.18h0c.12-.07.16-.17.13-.3.53-.56.94-1.19,1.17-1.93h0c.15-.19.32-.38.44-.58,2.93-4.86,5.5-9.89,7.37-15.27.72-.85.98-1.88,1.19-2.94,0,0,0,0,0,0h0s0,0,0,0c0,0,0,0-.01.01.37-.59.72-1.18.71-1.91h0s0,0,0,0c.73-1.81.99-3.71,1.03-5.65.16-.74.16-1.48,0-2.23,0,0,0,0,0,0,0,0,0,0,0,0,.01-1.3-.18-2.56-.65-3.78h0c-.27-1.78-1.35-3.24-1.98-4.88-.15.05-.27.1-.37.14.08-.06.19-.11.37-.14-.36-.71-.71-1.42-1.4-1.89-.15-.25-.3-.49-.45-.74h0,0c-.79-1.19-1.8-2.17-2.96-3.01,0,0,0,0,0,0h0c-1.12-1.33-2.54-2.24-4.05-3.05-1.18-.87-2.36-1.76-3.76-2.25,0,0,0,0,0,0-.94-.67-1.94-1.2-3.05-1.52,0,0,0,0,0,0-2.27-1.29-4.67-2.27-7.2-2.94-.23-.45-.67-.38-1.07-.42h0s0,0,0,0c0,0,0,0,0,0,0,0,0,0,0,0-.09-.06-.17-.09-.26-.11-5.47-2.35-11.27-3.6-16.97-5.16-.83-.5-1.73-.74-2.7-.73,0,0,0,0,0,0-.11-.04-.23-.06-.35-.06,0,0,0,0,0,0-.28-.12-.55-.27-.84-.34-5.1-1.25-10.21-2.5-15.31-3.74h0s0,0,0,0c-2.27-.63-4.53-1.26-6.8-1.89-.69-.8-1.46-1.28-2.57-1.56-2.03-.52-4.07-1.02-6.09-1.55-1.16-.31-2.59-.18-3.46-.87-1.72-1.37-3.56-1.44-5.54-1.24-.36-.01-.71-.03-1.07-.04,0,0,0,0,0,0h-.02c-.54-.48-1.22-.61-1.91-.72h0c-.46-.13-.94,0-1.42-.31-1.88-1.22-4.01-1.87-6.1-2.62-2.24-1.04-4.48-2.09-6.72-3.13h0c-.98-.66-1.86-1.5-3.06-1.8h0s0,0,0,0c-.67-.63-1.41-1.14-2.27-1.46-1.22-1.05-2.7-1.76-3.77-3-.02-1.5-.88-2.02-2.26-1.93,0,0,0,0,0,0,0,0,0,0,0,0-.64-.35-1.1-.87-1.49-1.48,0,0,0,0,0,0,0,0,0,0,0,0-.28-.9-.44-1.88-1.48-2.3,0,0,0,0,0,0-.44-.8-1.03-1.56-1.28-2.41-.23-.78-.66-.54-1.11-.53-.21-.26-.43-.51-.64-.77,0,0,0,0,0,0,0,0,0,0,0,0-.02-.12-.02-.24-.02-.35,0,0,0,0,0,0h0c-.03-.53.29-1.26-.7-1.23h0c-.25-.37-.5-.73-.76-1.1h0s0,0,0,0c.03-.43-.03-.83-.38-1.13-.33-1.12-.65-2.24-.98-3.37,0-.14-.05-.29-.13-.44-.16-2.24-.31-4.49-.47-6.73.02-4.28.04-8.57.06-12.85.06-.04.09-.08.11-.12.31-.37.18-.85.22-1.29h0c.26-.87.53-1.74.79-2.61h0s0,0,0,0c.48-1.01.95-2.03,1.43-3.04.52-.66,1.04-1.32,1.57-1.98.64-.31,1.09-.82,1.48-1.4,1.51-1.24,3.18-2.23,4.93-3.08,1.14-.31,2.28-.63,3.42-.94h0c1.71-.02,3.43-.04,5.14-.05h0c1.38.38,2.77.75,4.15,1.13.74.45,1.47.92,2.34,1.08.75,1.01,1.89,1.56,2.85,2.33,0,0,0,0,0,0l2.44,2.93c.13.37.27.74.4,1.12-.4.81.1,1.19.72,1.5-.28.92-.45,1.81.74,2.25-.02.55-.21,1.15.39,1.55,0,0,0,0,0,0,0,0,0,0,0,0,.05.1.05.19,0,.29,0,5.08-.02,10.16,0,15.23,0,.21.22.42.34.63h0c.23,1.79.38,3.59,1.09,5.27h0c.16.7.33,1.39.49,2.09-.51.88-2.02,1.37-.97,2.86.4-1.16.63-.78,1.02.07.77,1.67.42,3.93,2.68,4.87.35-.4.47-1.73,1.69-.86,0,0,.12-.1.12-.1.01,0,.02.02.04.03-.05.02-.1.05-.15.07.06.3.13.6.17.91.14,1.03,1.41,1.47,1.47,2.35.17,2.51.38,2.77,2.67,2.2,1.21-.3,1.67.15,1.6,1.45-.04.68.59,1.26,1.04.87,1.05-.91,2.29-.26,3.35-.7,0,0,0,0,0,0,0,0,0,0,0,0,.48.14.96.27,1.44.41h0s0,0,0,0c.07.05.13.08.18.11,1.91,1.18,4.12,1.68,6.14,2.63,2.6,2.4,5.85,2.73,9.16,2.86h0s0,0,0,0c.2.01.41.02.61.03,1.36,1,2.93,1.27,4.52,1.73,4.08,1.18,8.32,1.53,12.4,2.71.83.24,1.23,1.28,2.03,1.03,1.48-.46,2.98.18,4.44-.23,0,0,0,0,0,0,0,0,0,0,0,0,.57-.11,1.1.02,1.66.15,3.27.75,6.54,1.46,9.82,2.19.9.25,1.8.5,2.7.75h0l8.01,2.57c.08.06.16.11.25.14.53.3,1.06.6,1.59.89.92,1.99,1.82,2.45,4.58,2.32,0,0,0,0,0,0,0,0,0,0,0,0,2.73,1.14,4.89,3.02,6.73,5.29.27.7.83,1.12,1.42,1.52h0s0,0,0,0c.74,1.76,1.49,3.51,2.23,5.27h0s0,0,0,0c0,0,0,0,0,0h0s.01,0,.01,0c0,.12,0,.24,0,.37,0,0,0,0,0,0,0,0,0,0,0,0,.01,1.06-.04,2.13.72,3.3v-1.83c.01-.74.02-1.49.03-2.23h0s0,0,0,0c.23-4.79.31-9.58-.32-14.35h0c.11-.62.06-1.22-.15-1.81-.02,0-.05,0-.07,0h0s.05,0,.07,0c.06-1.91-.31-3.77-.67-5.63-.06-.67.01-1.36-.31-1.98,0,0,0,0,0,0,.06-.1.05-.19-.03-.27-.09-.65,0-1.34-.35-1.94,0,0,0,0,0,0,.04-.12.01-.22-.09-.3-.07-.48.12-1.02-.32-1.42,0,0,0,0,0,0h0c-.66-.55-.09-1.34-.37-1.96-.15-1.56-.6-3.04-1.11-4.51h0,0c-.23-2.55-1.72-4.7-2.25-7.15h0s0,0,0,0c-.4-2.44-1.68-4.54-2.62-6.77,0,0,0,0,0,0-.96-3.22-2.52-6.15-4.24-9,0,0,0,0,0,0-.11-.25-.21-.49-.32-.74-.15-.75-.55-1.37-1.09-1.91h0c-.15-.54-.32-1.07-.78-1.44h0s0,0,0,0c-1.04-1.94-2.09-3.87-3.7-5.43,0,0,0,0,0,0,.03-.09.02-.17-.03-.25,0,0,0,0,0,0-.38-1.48-1.73-2.35-2.29-3.71.04-.61.02-1.18-.83-1.13,0,0,0,0,0,0,0,0,0,0,0,0-.23-.35-.47-.7-.7-1.05,0,0,0,0,0,0,0,0,0,0,0,0,.35-1.54-.55-2.64-2.24-2.73,0,0,0,0,0,0,0,0,0,0,0,0-1.21-1.28-2.42-2.57-3.63-3.85,0,0,0,0,0,0-.04-.2-.09-.39-.13-.59,0,0,0,0,0,0,.15-1.65-.61-2.4-2.24-2.31.14-1.17-.61-1.43-1.54-1.5,0,0,0,0,0,0,0,0,0,0,0,0-.24-.23-.48-.47-.72-.7-.06-.94-.32-1.7-1.5-1.55,0,0,0,0,0,0,0,0,0,0,0,0h0c.34-1.58-1.53-3.24-3.4-3.01,0,0,0,0,0,0,0,0,0,0,0,0-2.43-1.67-4.52-3.8-7.08-5.3,0,0,0,0,0,0-.95-1.01-2.12-1.69-3.33-2.31-.53-.45-1.06-.91-1.59-1.36-1.1-1.02-1.8-2.7-3.77-2.3,0,0,0,0,0,0,0,0,0,0,0,0-.25-.1-.49-.2-.74-.3,0,0,0,0,0,0-2.16-1.28-4.29-2.61-6.65-3.51-2.17-1.25-4.4-2.38-6.84-3.01h0s0,0,0,0c0,0,0,0,0,0,0,0,0,0,0,0-.99-.82-2.24-.99-3.39-1.41,0,0,0,0,0,0,0,0,0,0,0,0-.1-.07-.21-.1-.32-.08,0,0,0,0,0,0-2.13-1.12-4.45-1.7-6.76-2.27,0,0,0,0,0,0-5.86-1.96-11.88-3.23-18.04-3.77,0,0,0,0,0,0-3.1-.73-6.25-.77-9.41-.73-.59-.53-1.31-.31-1.97-.31-17.8,0-35.59,0-53.39,0-.75,0-1.51-.07-2.19.34-.77.06-1.59-.21-2.27.37,0,0,0,0,0,0-.92.27-1.93.36-2.65,1.12-.57.1-1.11.26-1.48.75,0,0,0,0,0,0-.75.05-1.15.57-1.54,1.12,0,0,0,0,0,0-1.05.27-1.6,1.12-2.23,1.89,0,0,0,0,0,0-.1.13-.21.26-.31.39h0c-.34.66-1.16,1-1.2,1.86,0,0,0,0,0,0-.9,1.13-1.47,2.41-1.75,3.82h0c-.76,1.92-.98,3.92-.78,5.97,0,0,0,0,0,0-.02.12-.06.25-.06.37-.01,19.98-.05,39.95.01,59.93,0,2.41.38,4.87,1.79,6.99,0,0,0,0,0,0,1.12,2.67,2.79,4.88,5.32,6.38h0c.54.86,1.38,1.33,2.26,1.75h0s0,0,0,0c2.39,1.84,5.05,3.19,7.89,4.18,0,0,0,0,0,0,2.5,1.35,5.19,2.24,7.85,3.2,0,0,0,0,0,0,3.32,1.33,6.75,2.32,10.18,3.29,3.72,1.35,7.44,2.69,11.27,3.7h0c1.25.52,2.4,1.3,3.79,1.48,0,0,0,0,0,0,1.61,1.08,3.43,1.66,5.26,2.22h0c2.63,1.39,5.25,2.77,7.88,4.16,1.12.78,2.24,1.56,3.36,2.34h0s0,0,0,0c.13.14.26.28.38.42h0c.11.75.7.87,1.29,1,0,0,0,0,0,0,0,0,0,0,0,0,.1-.01.17.03.22.12,0,1.02,1.17,1.34,1.3,2.43.09.76.65-.2,1.02-.33,0,0,0,0,0,0,0,0,0,0,0,0h0c-.03.88.65,1.17,1.22,1.54,0,0,0,0,0,0,0,0,0,0,0,0,.32.26.64.53.97.79-.02.71.57.86,1.03,1.13,0,0,0,0,0,0,.53.77,1.05,1.54,1.58,2.31,0,0,0,0,0,0h0c-.15.18-.3.37-.45.55,1.18.6,1.13,2.24,2.38,2.78,0,0,0,0,0,0,0,0,0,0,0,0,1.63,2.95,2.3,6.17,2.71,9.46.51,4.1.08,8.22.32,12.33-.03,7.11-.06,14.23-.1,21.34-.08.12-.1.24-.07.34-.11.52-.22,1.05-.32,1.57h0c-.41,2.02-1.77,3.67-2.26,5.66,0,0,0,0,0,0-.11.11-.22.23-.33.34-.72.34-1.09.99-1.46,1.63,0,0,0,0,0,0h0c-1.02.82-2.03,1.65-3.05,2.47,0,0,0,0,0,0-1.51.77-3.02,1.54-4.53,2.31h0s0,0,0,0c-.24.01-.47.03-.71.04-.67.03-1.36-.11-1.97.32,0,0,0,0,0,0-.35.01-.69.02-1.04.03-.87,0-1.73-.02-2.6-.03,0,0,0,0,0,0h0s0,0,0,0c0,0,0,0-.01.01-.69-.52-1.52-.23-2.27-.4,0,0,0,0,0,0-.71-.38-1.45-.66-2.27-.68-1-.51-2-1.03-2.99-1.54h0c-.24-.46-.58-.76-1.14-.73h0c-.73-.76-1.28-1.71-2.27-2.2h0s0,0,0,0c-.2-.16-.39-.33-.59-.49h0c-.21-.85-.67-1.57-1.29-2.18h0c-.48-1.05-.97-2.1-1.45-3.15,0,0,0,0,0,0-.19-1.04-.42-2.08-.55-3.12-.48-3.93,0-7.87-.26-11.81,0,0,0,0,0,0,.15-6.39.15-12.78-.02-19.17-.15-1,.2-2.05-.32-3.01,0,0,0,0,0,0-.1-.65.05-1.34-.37-1.93,0,0,0,0,0-.01.03-.12,0-.21-.12-.27,0,0,0,0,0,0,0,0,0,0,0,0,0-1.74-.91-3.13-1.76-4.54,0,0,0,0,0,0-.32-1.86-1.64-3.12-2.74-4.5,0,0,0,0,0,0-.88-1.35-2.05-2.43-3.33-3.38-.79-1.03-1.8-1.78-3.01-2.26-.57-.76-1.31-1.26-2.24-1.47h0s0,0,0,0l-.02-.02h0s0,0,0,0c-.86-.71-1.73-1.39-2.87-1.56-1.4-1.02-2.84-1.92-4.58-2.25,0,0,0,0,0,0h0s0,0,0,0c0,0,0,0,0,0-.4-.47-.91-.72-1.53-.72h0s0,0,0,0c-.27-.12-.54-.24-.8-.37,0,0,0,0,0,0,0,0,0,0,0,0-.95-.86-2.16-1.12-3.33-1.48,0,0,0,0,0,0h0c-2.01-1.13-4.13-1.99-6.31-2.7,0,0,0,0,0,0-4.03-2.1-8.15-4.06-11.36-7.41,0,0,0,0,0,0h0c-1.17-.7-1.1-2.14-1.86-3.09,0,0,0,0,0,0h0c-.08-.48.05-1.1-.72-1.25,0,3.72,0,7.34,0,10.97,0,0,0,0,0,0,0,2.78.01,5.55.02,8.33h0c0,8.52,0,17.05,0,25.57,0,3.26,0,6.52,0,9.77,0,0,0,0,0,0,0,8.26,0,16.52,0,24.77h0c0,1.14,0,2.27,0,3.41,0,.74,0,1.49,0,2.23,0,0,0,0,0,0h0c0,1.26,0,2.52,0,3.78,0,.62,0,1.24,0,1.85,0,0,0,0,0,0h0c0,1.39,0,2.77,0,4.16,0,.87,0,1.74,0,2.61,0,0,0,0,0,0-.17,4.84-.47,9.69,1.88,14.19ZM152.03,315.11c.03-4.07.01-8.15.04-12.22v12.31s-.05-.03-.04-.09ZM231.24,156.88s0,0,0,0c0,0,0,0,0,0h0ZM284.14,309.02s.06-.1.09-.14c.01,0,.02.01.03.02-.02.03-.04.07-.06.1-.02,0-.04.02-.06.02ZM179.71,211.39s0,.01-.01.02c0,0,0,0-.01,0,0,0,.01,0,.02-.01ZM325.9,213.28h0s.03.02.05.03c-.02,0-.03.01-.05.02,0-.02,0-.04,0-.05,0,0,0,0,0,0ZM324.41,210.28s-.03-.06-.04-.09c.03-.01.06-.03.09-.04-.02.04-.04.08-.05.13ZM197.6,166.26c.01.33.02.63-.04.9-.04-.49-.05-1-.05-1.51.03.2.06.41.09.61ZM246.53,213.87s-.09-.01-.14-.02c.02,0,.05,0,.07,0,.02,0,.04.02.07.03ZM284.29,308.86s-.02-.02-.03-.03c0,0,0,0,0,0,.01.01.02.02.03.03,0,0,0,0,0,0ZM269.53,145.63s0,0,0,0h0s0,0,0,0ZM286.65,172.05s.09,0,.13.02c0,.02-.02.03-.02.05-.04-.02-.07-.04-.11-.07ZM239.48,143.39s-.01,0-.02,0c0,0,0,0,0-.01,0,0,0,0,.02.01ZM246.6,130.6s-.05,0-.07,0c0-.02,0-.03-.01-.05.03.02.06.03.08.05ZM240.79,129.63c.06.06.12.13.17.22-.05,0-.1,0-.15,0,0-.09,0-.16-.02-.23ZM245.1,145.63s0,0,0,.01c0,0-.01-.01-.02-.02,0,0,.02,0,.02,0ZM266.9,168.18s0,0,0,0c0,0,0,0,0,0,0,0,0,0,0,0ZM186.47,127.97c-.05.01-.1.03-.15.04.01-.03.02-.05.03-.08.04.01.08.02.12.04ZM185.34,129.09s0,0-.01,0c0,0,0,0-.01,0,0,0,.02,0,.02,0ZM210.14,126.09s-.06.07-.09.1c0-.03,0-.07,0-.1h.1,0ZM174.04,127.59s.01,0,.02,0c0,0-.01,0-.02.01,0,0,0,0,0-.01ZM275.54,171.19s.04,0,.06,0c.01.08.02.17.02.24-.03-.09-.06-.17-.08-.25ZM304.32,189.9c.11-.05.22-.1.32-.13-.08.05-.2.09-.32.13ZM250.24,129.94s.1.03.15.04c-.06,0-.11-.01-.15-.04ZM244.33,127.59s0,0,0-.01c0,0,0,0,.01.01,0,0-.01,0-.02,0ZM237.9,127.15s.04.04.06.06c0,0,0,0,0,0h0s-.06,0-.08,0c0-.02.02-.03.03-.05ZM220.29,125.36s0-.01-.01-.02c0,0,.01,0,.02,0,0,0,0,.01,0,.02ZM225.94,315.13s0,0,.01.01c0,0-.01,0-.02,0,0,0,0,0,0-.01ZM195.27,317.77s-.07.04-.1.06c-.02-.02-.04-.04-.06-.06.06,0,.11,0,.16,0ZM258.93,252.61s-.09-.08-.15-.12c.07.02.13.04.19.06-.02.02-.03.04-.04.06ZM293.96,244.14s0-.02,0-.03c0,0,.01,0,.02,0,0,0-.01.02-.02.03ZM278.93,236.21s0,0,0,.01c0,0,0,0,0-.01h.01ZM252.61,231.32s-.04,0-.06,0c0,0,0-.01,0-.02.02,0,.03.01.05.02ZM258.87,255.31s.04-.05.05-.08c.01.01.02.03.03.04-.03.01-.06.03-.09.04ZM293.59,242.23s0,0,0,0c0,0,0,0,0,0,0,0,0,0,0,0ZM267.22,258.3s.04.05.05.08h0s-.09,0-.14,0c.03-.03.06-.06.08-.09ZM277.7,268.05s.06.07.09.11h0s0,0,0,0c-.05-.01-.1-.03-.16-.04.02-.02.05-.05.07-.07ZM287.63,278.86c0,.15.01.3.02.45-.04-.15-.05-.3-.02-.45ZM294.71,241.85h0s0,0,0,0h0ZM178.97,249.81s-.02-.04-.02-.07c.03,0,.05.02.08.03-.02.01-.04.02-.05.03ZM168.47,239.96s-.02.03-.02.05c0-.01-.01-.03-.02-.04,0,0,0,0,0,0h0s0,0,0,0c.02,0,.03,0,.05,0ZM237.59,223.07s0,0,0,0c0,0,.02,0,.03,0,0,0-.01,0-.02.01ZM231.25,129.85s0,.02,0,.04c-.02-.01-.04-.02-.06-.04h.06ZM298.09,159.16s0,0,0,0c0,0,0,0,0,0h0ZM194.4,123.04s0,.02,0,.03c-.01,0-.03,0-.04.01.01-.01.03-.03.04-.04ZM161.28,314.01s-.04.05-.06.08c.01-.03.03-.06.05-.09,0,0,0,0,.01.01ZM191.59,320.77s.1,0,.14,0c-.03.07-.06.15-.09.22-.02-.07-.04-.15-.06-.23ZM307.94,249.25s.01.08.02.12c-.03,0-.06,0-.09,0,.02-.04.05-.08.07-.12ZM234.21,220.43s0,0,0,0c0,0,0,0,0,0,0,0,0,0,0,0ZM206.39,130.97s0,0-.01,0c0,0,0,0,0,0,0,0,.01,0,.02,0h0s0,0,0,0ZM249.98,165.17s0,0,0,0c0,0,0,0,0,0,0,0,0,0,0,0ZM223.29,123.83s0,0,0,0c0,0,0,0,0,0,0,0,0,0-.01,0,0,0,0,0,0,0,0,0,0,0,0,0ZM221.08,124.89s0,.05.01.07c-.02,0-.04,0-.06,0h0s.03-.04.04-.06ZM243.59,294.09s0,0,0,0c0,0,0,0,0,0,0,0,0,0,0,0ZM196.61,268.16c0,.05,0,.1,0,.15,0,0,0,0,0,.01,0-.06.01-.11.01-.17ZM196.61,268.16s0,0,0,0c0,0,0,0,0,0,0,0,0,0,0,0h0ZM257.88,308s0,.01,0,.02c0,0,0,0,0-.01,0,0,.01,0,.02,0ZM209.34,207.25s0-.03.01-.04c.01.02.02.04.04.06-.02,0-.03-.01-.05-.02ZM240.39,165.56s.08.01.11.02c-.14.09-.27.08-.4.04.1-.02.19-.04.29-.06ZM299.03,149.48s0-.04-.01-.07c-.03-.17.04-.18.13-.13-.02.07-.06.14-.12.2ZM259.59,128.67c.06-.01.12-.03.17-.05,0,.03,0,.07,0,.1-.05-.02-.11-.03-.16-.05ZM153.12,248.45s0,0,0,0c0,0,0,0,0,0h0ZM195.17,330.9c.13.02.24.07.27.23-.18.15-.41.2-.66.2.14-.13.27-.28.39-.43ZM195.75,330.1c-.02.2-.11.3-.23.34.09-.13.16-.24.23-.34ZM229.04,328.71s.01-.01.02-.02c0,.01,0,.02,0,.03,0,0-.02,0-.03-.01ZM312.37,194.49s0,0,0,0c0,0,0,0,0-.01,0,0,0,.01,0,.02ZM292.08,150.45v.07s-.03-.03-.04-.05c.01,0,.03-.01.04-.02ZM155.27,178.71s0,.02,0,.02c0,0,0,0-.01,0,0,0,0-.01.01-.02ZM162.04,189.56s0,.03,0,.04c-.01-.01-.02-.02-.03-.03.01,0,.03,0,.04-.01ZM198.82,207.22s.03.03.05.05h0s0,0,0,0c0,0,0,0,0,0-.03,0-.05,0-.08,0,0-.02.02-.03.03-.05ZM236.45,230.19s0,0,0,0c0,0,0,0,0,0,0,0,0,0,0,0ZM240.96,239.59s0,0-.01,0c0,0,0-.01,0-.02,0,0,0,.01.01.02ZM195.91,263.84c-.19-.31-.25-.84,0-1.23-.06.42-.06.83,0,1.23ZM152.07,296.55c0-.54,0-1.09,0-1.63v1.63ZM167.87,331.09s-.07.01-.11.02c0-.03.02-.05.02-.08,0,0,0,0,0,0,.03.02.05.04.08.06ZM296.65,226.42c-.02-.08-.04-.17-.05-.26.01.09.03.17.05.26ZM236.51,209.53s0,.09,0,.13c-.02-.04-.04-.08-.06-.13h0s0,0,0,0c.02,0,.04,0,.05,0ZM259.38,187.19c0-.07,0-.14,0-.22.02.02.05.03.07.05-.02.06-.04.11-.07.17ZM295.85,145.26s0,0,0,0h0s0,0,0,0c0,0,0,0,0,0ZM230.89,114.24s0,0-.01,0c0,0,0,0,0,0,0,0,0,0,0,0ZM216.16,118.19s0,0,0,0c0,0,0,0,0,0,0,0,0,0,0,0ZM169.53,195.97s.01.02.02.03c0,0-.01,0-.02,0,0,0,0-.02,0-.03ZM205.25,220.06s0,0,0,0c0,0,0,.01,0,.02,0,0,0,0-.01-.01,0,0,0,0,0-.01ZM213.13,301.36c-.3-.17-.21-.24-.04-.3-.02.09,0,.15.06.18,0,.04-.01.08-.02.12ZM181.1,234.42c.02-.07.07-.14.17-.2-.06.06-.12.12-.17.2ZM244.64,316.35s0-.05,0-.08h.09s-.06.05-.09.08ZM267.6,321.45h0s0,0,0,0c0,0,0,0,0,0ZM287.47,206.58s0,0,0,0c0,0,0,0,0,0,.02-.01.04-.02.06-.03-.01.02-.02.03-.03.05,0,0-.02,0-.03-.01ZM326.29,200.87s0,0,0,0h0s-.01-.02-.02-.03c.01,0,.02.02.03.03ZM314.57,168.24s0,0,0,0h0s.07-.07.07-.07c-.02.02-.05.05-.07.07ZM199.68,112.57s-.03.03-.04.05c0-.02,0-.03,0-.05,0,0,0,0,0,0,.02,0,.04,0,.05,0ZM177.09,229.8s-.08-.03-.12-.05c.04,0,.08.02.12.05h0ZM151.9,220.74v.03s-.02,0-.03,0c.01-.01.02-.02.03-.03Z" fill="#fff" stroke-width="0"/>
  <path d="M416.85,224.08c-.67-4.51-1.55-8.98-2.41-13.45-.24-1.23-.05-2.76-.77-3.75-1.62-2.23-1.83-4.72-1.93-7.28-.03-.64-.03-1.2-.6-1.64-1.02-.78-1.21-1.94-1.47-3.12-.3-1.37-.07-3.13-1.97-3.68,0,0,0,0,0,0h0c-1.81-4.31-3.52-8.66-5.64-12.83-.58-1.37-1.16-2.74-1.75-4.11-.23-1.8-.51-3.57-2.4-4.47,0,0,0,0,0,0h0c-.2-.39-.41-.77-.61-1.16,0,0,0,0,0,0,.1-.56-.11-1.06-.36-1.54-.11-.71-.42-1.38-.26-2.16.06-.28.02-1.27-.66-.95-.79.37-.74-.1-1.01-.51-1.09-1.7-2.18-3.39-3.02-5.24-.26-.59-.59-1.28-1.49-.89-.46-.53-.91-1.05-1.37-1.58,0,0,0,0,0,0,0,0,0,0,0,0-.29-.59-.58-1.17-.87-1.76,0,0,0,0,0,0h0c-.47-2.35-1.66-4.17-3.84-5.28,0,0,0,0,0,0,0,0,0,0,0,0-.22-.26-.44-.51-.66-.77.33-1.84-.94-2.46-2.31-3.01,0,0,0,0,0,0h0c-.74-.86-1.48-1.72-2.22-2.57.16-1.08.04-2.21-.92-2.76-1.88-1.08-2.8-3.08-4.5-4.31-.6-.43-.57-1.05-.56-1.67-.05-.46-.12-.91-.55-1.19-.07.15-.13.29-.2.44-.76-.2-1.31-1.01-2.22-.78-.02.04-.05.08-.07.12,0-.01-.02-.02-.02-.03,0,0,.09-.09.09-.09.11-1.42-.87-2.19-1.9-2.71-.7-.36-.71-1.06-1.19-1.47,1.2-.97-.19-.96-.48-.98-.8-.05-1.55-.23-2.02-.82-.91-1.15-2.11-2.07-3.21-2.21h0s0,0,0,0c-.11.01-.19-.03-.24-.13.04-1.6-1.02-1.98-2.33-2.09,0,0,0,0,0,0,0,0,0,0,0,0,.09-.53-.16-.8-.67-.85h0s0,0,0,0c-.17-1.36-1.3-2.1-2.22-2.69-2.47-1.58-4.51-3.73-7.13-5.16-.88-.48-1.51-1.32-2.66-1.18-.02.05-.05.1-.07.15-.01-.01-.03-.02-.04-.03h0s.11-.12.11-.12c-.18-.31-.58-.7-.5-.91.66-1.69-.23-1.13-1.04-.77-.22.1-.47.11-.71.16-.02.05-.05.1-.07.14,0-.01-.02-.02-.03-.03h0s.1-.11.1-.11c-.1-.67-.34-1.12-1.13-.76l-.1.13s-.01,0-.02-.01c.04-.04.08-.08.13-.12-1.8-1.59-3.48-3.39-6.06-3.69-.63-1.16-1.43-1.95-2.82-2.43-1.11-.38-2.49-.63-3.27-1.88-.35-.57-1.15-.71-1.82-.17,0,0,0,0,0,0,0,0,0,0,0,0h0c-.04-.35.28-1,.06-.97-1.11.16-1.95-1.01-3.07-.56h0s0,0,0,0c-.23-.02-.46-.03-.69-.05-.27-.22-.53-.45-.8-.67-.63-1.3-1.75-1.63-3.08-1.51,0,0,0,0,0,0,0,0,0,0,0,0-.8-.28-1.61-.57-2.41-.85-1.09-.66-2.19-1.32-3.49-1.5,0,0,0,0,0,0h0s0,0,0,0c0,0,0,0,.01,0h0s0,0,0,0c-1.14-.8-2.44-1.22-3.76-1.59,0,0,0,0,0,0-.88-.45-1.95-.36-2.77-.99,0,0,0,0,0,0,0,0,0,0,0,0-2.44-1.22-5.01-2.1-7.67-2.68,0,0,0,0,0,0-2.45-1.06-4.99-1.8-7.61-2.28,0,0,0,0,0,0-.29-.11-.57-.23-.86-.34-2.74-1.05-5.73-.97-8.5-1.88-.16-.1-.31-.13-.45-.13-2.56-.72-5.16-1.19-7.82-1.37-.82-.56-1.77-.33-2.67-.41,0,0,0,0,0,0-.23-.09-.44-.25-.68-.28-8.75-1.05-17.53-1.75-26.35-1.53-1.19.03-2.41-.17-3.57.22-.1.02-.21.05-.31.11-1.87.1-3.76-.2-5.6.37h0s0,0,0,0c-2.43.04-4.86.12-7.23.68-.11-.03-.23,0-.35.08-.86.04-1.76-.19-2.54.37-.94-.05-1.89-.11-2.76.37,0,0,0,0,0,0-.33.03-.66.06-.99.09-.74.16-1.48.32-2.21.49,1.97.6,3.96.65,5.96.58.47.02.93.05,1.4.07.88.4,1.81.34,2.74.29,3.86.54,7.72,1.09,11.58,1.63h0c1.12.39,2.26.69,3.46.67h0s0,0,0,0l.1.09.12-.04c1,.48,2.06.67,3.15.72h0c4.26,1.24,8.52,2.49,12.78,3.73,1.41.74,2.89,1.27,4.45,1.6,0,0,0,0,0,0h0s0,0,0,0h0s0-.01,0-.01c.43.46.99.6,1.59.66,0,0,0,0,0,0,0,0,0,0,0,0,.68.51,1.49.72,2.29.96.1-.02.2-.03.3-.04-.1.02-.2.03-.3.04,2.12.93,4.24,1.87,6.35,2.8.41.43.9.69,1.5.76.42.42.9.7,1.51.74h0c.41.43.91.68,1.5.75,0,0,0,0,0,0,.76.49,1.51.98,2.27,1.46.22,1.05,1.08,1.06,1.89,1.17.24.14.49.28.73.42.27.5.44,1.18,1.24.65h0c.11-.02.19,0,.25.1.02.47-.12,1.1.74.75,0,0,0,0,0,0,0,0,0,0,0,0,1.52,2.02,3.61,3.13,6,3.76.04-.06.07-.12.11-.18.01,0,.02.02.03.03h0c-.04.05-.09.1-.14.15,1.12,1.57,2.45,2.82,4.48,3.03.03-.04.05-.07.08-.11,0,0,.01.01.02.02h0s-.1.09-.1.09c.62,1.27,1.04,2.8,3.01,2.26l.09-.1h0s.01,0,.02,0c-.04.03-.07.06-.11.09.09.44-.44,1.1.27,1.3,1.51.42,2.37,1.65,3.43,2.62.55.51.55-.18.83-.18.03-.05.06-.1.09-.15,0,0,.01.02.02.03,0,0-.12.12-.12.12.49,1.98,2.27,2.51,3.77,3.36.65.74,1.15,1.67,2.25,1.86.35.59,1,.78,1.51,1.14,1,1.01,2.01,2.03,3.01,3.04,0,0,0,0,0,0,.76.86,1.52,1.71,2.28,2.57.19,1.38,1.18,2.22,2.09,3.13.97.97,1.87,1.99,2.42,3.27,0,0,0,0,0,0,1.03,1.24,2.15,2.39,3.07,3.74.53.78,1.18,1.58,2.15,1.94,0,0,.11-.1.11-.1,0,0,.02.02.02.03-.04.03-.09.05-.13.08.07.48.13.94.31,1.42.52,1.38,2.03,2.07,2.46,3.32.47,1.39,1.1,2.53,2.15,3.49.81,1.06,1.41,2.31,2.59,3.05,0,0,.12-.11.12-.11,0,.01.01.02.02.03-.05.03-.09.05-.14.08-.12.14-.38.36-.35.39,1.44,2.07,2.14,4.64,4.19,6.31,1.16,1.92,2.21,3.89,2.98,6.01-.09.95.1,1.83.55,2.69.34.64,1.11,1.18.91,1.98-.34,1.35.53,1.72,1.46,2.11,0,0,0,0,0,0h0c.06.11.08.24.08.36.33.6-.81,1.79.76,1.89,1.09,1.77,1.54,3.78,2.2,5.71,2.31,6.73,3.77,13.68,5.21,20.64.1,1.81.31,3.6.8,5.35,0,0,0,0,0,0,.03.46.07.92.1,1.38.2,2.03.16,4.08.65,6.08h0c.27,6.99.3,13.98-.01,20.97h0c-.23,1.51-.45,3.01-.68,4.52-1.35,1.79-1.1,4.03-1.42,6.02-.75,4.63-1.27,9.28-2.85,13.73-.37,1.03-.65,2.1-.22,3.2,0,0,0,0,0,0,0,0,0,0,0,0-.02.12-.05.24-.07.36,0,0,0,0,0,0,0,0,0,0,0,0-1.34,1.26-1.68,2.84-1.44,4.6,0,0,0,0,0,0,0,0,0,0,0,0-.49,2.2-1.22,4.31-2.29,6.3-.27-.06-.6-.31-.74.17-.47,1.65-.98,3.3-1.96,4.7-1.01,1.43-.55,3.69-1.79,4.54-1.3.89-.64,1.71-.81,2.58.04.02.09.03.13.05,0,.01-.01.02-.02.04,0,0-.11-.08-.11-.08-1.27.78-1.64,2.04-1.85,3.4-1.04.75-1.27,1.9-1.49,3.05,0,0,0,0,0,0,0,0,0,0,0,0-.13.24-.25.48-.38.72,0,0,0,0,0,0-1.2.51-1.46,1.53-1.48,2.69,0,0,0,0,0,0,0,0,0,0,0,0-.06.47-.29.84-.67,1.11,0,0,0,0,0,0-.46.07-3.22,2.51-3.25,2.97-.11,1.96-1.5,3.17-2.63,4.52-.34.4-.48.66-.26,1.11h0s0,0,0,0c-1.96,1.07-3.08,2.93-4.01,4.79-1.05,2.11-2.76,3.73-4.28,5.29-1.64,1.68-2.67,3.97-4.82,5.17-.47.26-.43.86-.38,1.37h0s0,0,0,0c0,.11-.02.21-.03.32h0s0,0,0,0c-1.1,1.01-2.21,2.02-3.31,3.03-1.81.22-2.47,1.79-3.48,2.95,0,0,.12.12.12.12,0,0,0,0,0,0h0s-.02.02-.03.03c-.03-.05-.06-.1-.09-.15-.52-.03-.91-.13-1.39.47-.94,1.18-2.04,2.29-3.28,3.14-2.43,1.68-4.69,3.55-6.95,5.44-2.63.52-4.61,2.39-6.66,3.79-2.06,1.4-4.21,2.55-6.29,3.86-1.26.8-2.96,1.3-3.54,2.98,0,0,0,0,0,0-.4.21-.79.43-1.18.64,0,0,0,0,0,0h0c-1.89.17-3.71.5-4.88,2.24l.07.1-.03.02s-.03-.08-.04-.11c-.93.37-1.85-1.19-2.53-.31-1.07,1.42-2.34,2.24-4.05,2.54-.42.07-.53.48-.51.89h0c-.28.21-.56.43-.84.64,0,0,0,0,0,0-1.7.52-3.4,1.04-5.11,1.57-.87-.02-1.71.06-2.58.22-2.36.41-4.42,1.65-6.73,2.25-1.61.42-3.28.08-4.75.68-2.75,1.12-5.73,1.17-8.53,2.05-1.67.52-3.44.02-5.24.6-1.25.4-2.65.94-4.09.93-3.36-.02-6.73,0-10.1,0-1.86,0-3.75.35-5.57.21-3.85-.28-7.68-.17-11.52-.21-.22-.49-.59-.75-1.13-.74-3.14.48-6.24-.3-9.19-.95-2.82-.63-5.54-1.44-8.45-1.33.24-.62-.05-.74-.61-.74-.62,0-1.29.06-1.84-.15-4.91-1.91-10.08-3-14.95-5.02-1.6-.66-3.09-1.82-4.7-2.09-2.3-.39-3.85-2.05-5.93-2.78-.84-.29-1.48-.82-2.41-.48-.02.05-.04.1-.06.15-.01-.01-.02-.02-.03-.04,0,0,.09-.11.09-.11-1.44-1.96-4.01-2.26-5.69-3.86-.45-.42-.89-.68-1.47-.26-2.31-1.5-4.32-3.5-7.11-4.18,0,0-.07.1-.07.1,0,0-.01,0-.02,0,.03-.03.06-.06.09-.09-2.42-2.6-5.36-4.59-8.09-6.81-1.24-1.01-2.78-1.94-3.96-2.95-1.19-1.02-2.34-1.95-3.74-2.62-.01-2.09-1.76-2.09-3.1-2.59,0,0,0,0,0,0,0,0,0,0,0,0-.46-.3-.92-.59-1.38-.89,0,0,0,0,0,0-1.04-1.17-2.08-2.35-3.11-3.52-1.02-2.08-2.28-3.95-4.44-5.04-.04-1.96-1.47-2.72-2.96-3.43,0,0-.07.07-.07.07,0,0,0,0-.01-.01.03-.02.05-.04.08-.06-.51-2.75-2.41-4.45-4.53-5.99-.03.03-.07.07-.1.1,0,0,0,0,0,0,0,0,.11-.1.11-.1-.96-2.2-2.33-4.18-3.76-6.05-.55-.72-.49-2.26-2.01-2.13,0,0,0,0,0,0,0,0,0,0,0,0-.56-.78-1.11-1.56-1.67-2.34,0,0,0,0,0,0-.77-1.93-2.03-3.58-3.09-5.34,0,0,0,0,0,0-1.01-2.59-2.39-4.99-3.79-7.39-.09.02-.16.04-.23.06.07-.02.14-.04.23-.06-.36-1.92-1.38-3.56-2.18-5.3,0,0,0,0,0,0-.02-.25-.05-.5-.07-.75,0-.83,0-1.66-.81-2.2,0,0,0,0,0,0,0,0,0,0,0,0,0,0,0,.02,0,.02,0,0,0,0,0,0,.1-.63-.08-1.2-.22-1.81-.51-2.28-1.81-4.27-2.31-6.58-.18-.82-.04-2.07-1.2-2.54,0,0,0,0,0,0,0,0,0,0,0,0-.25-.75-.49-1.5-.74-2.25-.02-.51.14-1.1-.69-1.28-.03.57-.06,1.1-.08,1.64,0,0,0,0,0,0,0,0,0,0,0,0-.61.93-.37,1.92-.19,2.89.55,3,.3,6.05.85,9.08.34,1.86.67,3.83.72,5.77.07,2.97,1.82,5.61,1.7,8.62-.01.28.19.58.34.84.64,1.13.79,2.4,1.15,3.61.68,2.28,1.48,4.52,2.23,6.77,0,.25,0,.5,0,.75-.05.85-.96,1.99.75,2.25.91,2.68,1.7,5.4,2.79,8,.3.71-.58,1.51.31,1.94,1.05.51,1.28,1.4,1.42,2.43.3,2.16,1.06,4.09,2.85,5.45.06.07.14.14.25.19,1.59,2.71,2.61,5.72,4.39,8.33,0,0,0,0,0,0,.7,1.94,1.88,3.63,2.87,5.41,3.18,5.7,6.97,11.01,10.67,16.38.36,2.5,1.2,4.04,3.09,4.06,0,1.59,1.38,3.25,2.89,3.47l.02.02c.05,1.66,1.94,2.33,2.13,3.91.17-.06.34-.12.52-.19h0s0,0,0,0c.02.79.65,1.15,1.11,1.64,1.8,1.93,3.8,3.72,5.26,5.87.67.99,1.04,1.03,1.89.76h0c.13.13.26.26.39.38-.15.34-.28.65.06,1,1.69,1.7,3.7,3.05,5.22,4.94.35.44.47-.37.8-.41,0,0,0,0,0,0,0,0,0,0,0,0,0,0,0,0,0,0,.62,1.75,1.75,2.9,3.68,3.1h0c.02.53.19,1.07.6,1.33,2.37,1.51,3.89,4.15,6.64,5.11.8.28,1.1,1.69,2.29,1.01,0,0,0,0,0,0,0,0,0,0,0,0,.97.42,1.8,1.06,2.56,1.78.02,1.6,1.3,1.38,2.29,1.58.72,2.19,3.06,3.7,5.29,3.42,1.69.91,3.38,1.81,5.06,2.72,0,0,0,0,0,0,1.88,1.38,3.98,2.37,6.07,3.4h0s0,0,0,0c.41.42.88.72,1.5.71.47.34.91.73,1.54.74h0s0,0,0,0h0s0,0,0,0c1.53.97,3.13,1.77,4.86,2.29h0s0-.01,0-.01c.71.37,1.41.76,2.14,1.09,6.99,3.16,14.3,5.46,21.57,7.84,1.28,1.78,3.28,1.34,5.05,1.73,5.52,1.22,10.94,2.88,16.61,3.37,4.82.41,9.6,1.32,14.47.95,0,0,0,0,0,0,0,0,0,0,0,0,6.21,0,12.42,0,18.62,0,3.28.28,6.59.1,9.81-.28,2.87-.34,5.79-.49,8.64-1.14,1.65-.37,3.85,0,5.02-.64,1.92-1.05,3.91-.67,5.72-1.42,1.63-.67,3.57-.36,5.03-1.12,3.69-1.92,7.93-1.86,11.63-3.72,2.71-1.36,5.9-1.7,8.4-3.63-.03-.04-.07-.07-.1-.11,0,0,0,0,.01,0,0,0,.09.11.09.11,1.71.11,2.99-1.47,4.78-1.21.33.05.8-.58.4-1.17.27-.22.53-.44.8-.65,0,0,0,0,0,0,0,0,0,0,0,0,.25,0,.49-.02.74-.03.04-.04.09-.08.14-.1-.05.03-.09.07-.14.1.53.06,1.03.24,1.61-.03,1.58-.72,3.52-1,4.72-2.1.95-.87,2.87-.67,2.97-2.47l.08.04-.03-.02c1.41.48,2.27-.04,2.62-1.48,1.43-.12,2.93-.06,4.06-1.14,1.03-.98,2.08-1.97,3.35-2.54,2.09-.93,3.69-2.56,5.62-3.71,1.24-.75,2.51-1.76,3.77-2.44,1.49-.8,2.23-2.49,3.92-2.89.49.56,1.09.03,1.8.35-.31-.51-.49-.81-.67-1.11.25-.38.5-.75.75-1.13,2.24-1.15,3.76-3.43,6.35-4.04.14-.03.34-.17.37-.3.72-2.68,3.14-3.49,4.95-4.96.7.74-.34,1.12.21,1.98.61-1.84,1.15-3.44,1.69-5.05-.03-.02-.06-.04-.1-.06,0,0,.02-.01.02-.02,0,0,.07.07.07.07.66-.14,1.66.28,1.94-.3.67-1.42,2.36-1.95,2.92-3,1.15-2.14,2.97-3.7,4.12-5.76,0,0,0,0,0,0,1.94-.42,1.93-3.03,3.88-3.44-.46-1.77,1.1-2.25,2.03-3.07.8-.71,1.7-2.23,1.65-3.23-.04-.02-.08-.04-.12-.06.01,0,.02-.01.03-.02h0s.09.08.09.08c2.27-1.07,3.2-3.07,3.69-5.37h0c1.39-2.25,2.78-4.49,4.16-6.74.36-.43.83-.79.76-1.45.25-.38.49-.77.74-1.15h0c.52-.19.65-.63.75-1.11h0c.88-.99,1.48-2.14,1.93-3.37,0,0,0,0,0,0,.43-.66.87-1.31,1.3-1.97h0c.42.12.67.46,1.15-.25,1.16-1.71,1.74-3.68,2.61-5.5.71-1.48,2.07-2.89,1.59-4.81h0c.27-1.2.8-2.28,1.43-3.33h0c1.4-.64,1.05-2.52,1.9-3.17,1.65-1.26,1.8-2.58,1.26-4.29-.06-.02-.11-.04-.17-.06,0-.02.02-.04.02-.05,0,0,.14.11.14.11.93-.61,1.48-1.35,1.53-2.58.05-1.22.23-2.56,1.71-3.03-.29-.49-1.08.02-.98-.75-.05-.04-.1-.09-.15-.13h0s0,0,0,0c.05.05.1.09.15.14.77-.87,1.28-1.96,1.37-3.04.29-3.4,2.14-6.32,2.64-9.74.49-3.32,1.58-6.66,2.2-10.05.41-2.22,1.05-4.49,1.12-6.66.09-2.92.99-5.7.9-8.62-.23-7.17.6-14.31.16-21.51-.39-6.39-.73-12.76-1.67-19.09ZM337.44,294.37s.01.03.02.05c-.01,0-.02,0-.03,0,0,0,0,0,0,0,0,0,0,0,0,0,0-.02,0-.03.01-.05ZM329.06,140.29c.03-.1.06-.22.08-.34.1.11.12.22-.08.34ZM387.12,156.88s-.05-.02-.07-.02c0-.01.02-.03.03-.04.01.02.03.04.04.06ZM386.46,171.04c.01.05.02.1.03.15,0,0-.01-.01-.02-.02,0-.04-.01-.09-.01-.13ZM307.05,102.68s.05.07.06.11h0s0,0,0,0h0s-.07-.03-.11-.04c.01-.02.03-.05.04-.07ZM247.03,390.64s-.02,0-.04.01c0,0,0,0-.01,0,0,0,0,0,0,0,0,0,0,0,.01,0,.01,0,.03-.01.04-.02,0,0,0,0,0,0ZM229.99,389.07c-.11-.06-.21-.14-.3-.27-.02,0-.04,0-.06,0,0-.01,0-.02,0-.04.02,0,.03.02.05.03.09,0,.18,0,.27,0,0,.11,0,.2.03.27ZM235.25,385.65c.09,0,.17,0,.25,0-.02.04-.04.09-.05.14-.07-.04-.13-.09-.2-.14ZM237.96,378.66s0,0,0,0c0,0,0,0,0,0h0ZM231.94,378.66s-.07.04-.11.06c0-.02,0-.04,0-.06.03,0,.07,0,.1,0ZM293.64,362.42s0,.03.01.05c-.02,0-.05.02-.07.02.02-.02.04-.05.06-.07ZM307.11,355.73s-.01.04-.02.06c-.03,0-.06,0-.09,0,.04-.02.08-.04.11-.06ZM310.9,354.36c-.07.09-.15.17-.24.25.08-.08.16-.17.24-.25ZM326.56,360s0-.07,0-.1c.02.01.04.02.06.03-.02.02-.04.05-.06.07ZM304.86,353.85s.05-.05.07-.07c0,.02,0,.04,0,.07-.02,0-.04,0-.07,0ZM257.51,374.14s0,0,0,0c0,0,0,0,0,0,0,0,0,0,0,0ZM198.87,379.03s-.01,0-.02,0c0,0,0,0,0,0,0,0,0,0,.01,0ZM392.05,277.18s0,0,0-.01c.01,0,.03,0,.05,0-.02,0-.03,0-.04,0ZM336.8,325.29s0,0,0,0c0,0,0,0,0,0,0,0,0,0,0,0ZM234.95,388.05s.01,0,.02,0h0s0,0-.01,0h0ZM234.95,388.06h0s0,0,0,0c0,0,0,0,0,0-.02.02-.04.03-.06.05,0-.02-.02-.04-.03-.05.03,0,.05,0,.08,0ZM280.05,365.13s0,0,0,0c0,0,0,0,0,0,0,0,0,0,0,0ZM363.49,145.26s0,0,0,0c0,0,0,0,0,0,0,0,0,0,0,0ZM361.26,292.18s.01.02.02.03c-.01,0-.03,0-.04,0,0-.01.01-.02.02-.04ZM349.21,307.25s0-.03,0-.04c.01,0,.03,0,.04,0-.01.02-.02.03-.04.05ZM172.56,374.89s0,0,0,0h0s0,0,0,0c0,0,0,0,0,0,0,0,0,0,0,0ZM395.81,211.03c0,.07,0,.14,0,.22-.03-.02-.06-.04-.09-.05.03-.05.06-.11.1-.16ZM391.28,187.48s.08-.02.12-.03c0,.07,0,.13,0,.2-.04-.06-.09-.11-.13-.17ZM346.17,134.3s.02.04.03.06c-.01,0-.03,0-.04-.01,0-.02,0-.03.01-.05ZM316.91,340.31s-.02,0-.03,0c0-.01.02-.02.03-.04,0,0,0,.02,0,.03ZM234.25,373.31s0,.05,0,.08c-.02,0-.04,0-.05,0,.02-.03.03-.06.05-.08ZM162.04,370.39s-.02,0-.02,0c0,0,0-.01,0-.02,0,0,.01.01.02.02ZM397.31,219.06s0-.09,0-.14c.02.03.04.07.07.1-.02.01-.04.02-.07.04ZM394.49,199.24c.05-.08.11-.16.19-.24h0c.01.07.03.14.04.21-.09,0-.16.02-.23.03ZM334.11,120.43s0-.06,0-.1c.02.04.04.07.06.11-.02,0-.04-.01-.06-.02ZM198.87,373.39s0,0,0,0h0s0,0,0,0ZM128.21,346.33s0,0-.01,0c0,0,0,0,0-.01,0,0,0,0,.01.01ZM240.99,404.2s0,.01,0,.02c0,0-.02,0-.02,0,0,0,.02-.01.03-.02ZM399.68,232.35c0-.08,0-.15,0-.23.05.02.1.02.15.03-.04.06-.09.13-.14.2ZM388.29,174.95s0,0,0,0c0,0,0,0,0,0h0ZM359.47,270.87c-.05.06-.1.1-.17.13.06-.04.11-.09.17-.13ZM328.92,328.65s0,0,.01,0c0,0-.01.01-.02.02,0,0,0-.01,0-.02ZM397.3,208.02s0,0,0,0c0,0,0,0,0,0,0,0,0,0,0,0ZM328.91,319.27s0,0,0,0c0,0,0,0,0,0h0ZM136.14,348.83c.14-.06.29-.1.45-.12-.15.03-.3.07-.45.12ZM253.3,406.47s.01-.06.02-.09c.01.03.03.05.04.09-.02,0-.04,0-.06,0ZM413.86,265.1h0s0,0,0,0c0,0,0,0,0,0ZM317.61,104.61c-.03-.22-.16-.52-.34-.93.3,0,.54.09.54.49,0,.23-.08.36-.19.44ZM355.15,280.95s.02.06.03.09c-.03-.02-.05-.04-.07-.06.02,0,.03-.02.05-.03ZM240.89,363.96s0,0,0-.01c0-.02.02-.04.02-.06.02,0,.04,0,.06,0-.02.02-.05.04-.07.06ZM272.38,415.35c-.05.02-.11.04-.16.06,0-.04,0-.07,0-.11.05.02.11.03.16.05ZM416.48,258.05s0-.02,0-.04c.01,0,.02,0,.04,0-.01.01-.02.02-.04.03ZM401.07,185.51s-.02-.02-.03-.03c.01,0,.02,0,.03-.01,0,0,0,0,0,0,0,0,0,0,0,0h0s0,.03,0,.04ZM377.36,142.27s.02-.02.03-.03c0,0,0,0,0,0h0s.07.09.1.12c-.04-.02-.09-.05-.14-.09ZM356.75,121.62s-.02-.03-.02-.04c.01.01.03.01.04.02,0,0-.01.01-.02.02ZM352.21,127.57s0,.01,0,.02h0s-.01-.01-.02-.02c0,0,.01,0,.02,0ZM268.78,85.87h0s.09,0,.14.01c0,.01,0,.02.01.04-.05-.02-.1-.03-.15-.05ZM296.2,108.8s.01,0,.02,0c0,0-.01,0-.02,0,0,0,0,0,0-.01ZM305.84,334.04s-.06,0-.09.01c.02-.02.04-.03.07-.05,0,.01.02.02.02.04ZM155.65,351.22s.04-.04.05-.06c.02.02.04.04.06.06-.04,0-.08,0-.12,0,0,0,0,0,0,0h0ZM86.12,276.84s0-.03,0-.04h0s.02.02.04.03c0,0-.02,0-.03.01ZM340.95,158.47s0,0,0,0c-.01-.01-.03-.03-.04-.04.01.01.03.02.04.04ZM356.73,230.92s.03.01.04.02c-.01,0-.02,0-.04,0v-.03ZM119.96,327.78s-.06,0-.08,0c-.02,0-.03-.01-.05-.02.04,0,.09.02.13.03ZM116.18,326.41s0,0-.01,0c0,0,0,0,.01,0,0,0,0,0,0,0ZM83.9,268.14s0,0,0,0c0,0,0,0,0,0h0ZM329.2,398.84h0s0,0,0,0c0,0,0,0,0,0,0,0,0,0,0,0,0,0,0,0,0,0ZM331.87,397.38h0s0,0,0,0ZM271.25,84.18c-.3-.06-.59-.13-.89-.19.32-.01.62.03.89.19ZM247.71,87.69s.02.03.03.05c-.01,0-.03,0-.04,0,0-.02,0-.03,0-.05ZM286.77,103.59s.02-.02.04-.04c0,0,.01,0,.02,0-.01.02-.02.04-.04.06,0,0-.01-.02-.02-.03ZM258.97,357.57s.01,0,.02,0c0,0-.01.01-.02.02-.02,0-.03-.02-.05-.03,0,0,0,0,0,0,0,0,0,0,0,0h.04ZM183.88,359.88s-.03,0-.05-.01h0s.04,0,.07,0c0,0-.01.01-.02.02ZM193.71,397.66c.01.11.03.22.05.31-.13-.03-.25-.08-.37-.14.13-.06.23-.11.32-.17ZM280.8,415.55s.01-.02.02-.03h.08s0,0,0,0h0s-.07.02-.1.02ZM320.79,402.79s0,0,0-.01c0,0,0,0,0,0,0,0,0,0,0,0,0,0,0,0,0,0,0,0,0,0-.01,0ZM354.43,382.31s0,0,0,0h0s0,0,0,0c0,0,0,0,0,0Z" fill="#fff" stroke-width="0"/>
  <path d="M332.18,299.18c.04-.41-.1-.61-.34-.7-.29-.1-.48.09-.54.34-.09.34.06.64.41.67.17.01.36-.23.48-.31Z" fill="#fff" stroke-width="0"/>
  <path d="M371.61,369.54c.7-.3,1.11-.48,1.66-.71-.73-.41-1.21-.48-1.66.71Z" fill="#fff" stroke-width="0"/>
  <path d="M270.52,321.07c-.14.17-.33.32-.39.52-.09.27.09.45.37.5.27-.09.42-.27.31-.56-.06-.16-.19-.31-.28-.46Z" fill="#fff" stroke-width="0"/>
  <path d="M368.63,372.55c-.01.36.46.53.95.33-.11-.15-.19-.29-.29-.4-.26-.28-.63-.67-.66.07Z" fill="#fff" stroke-width="0"/>
  <polygon points="229.69 388.8 229.69 388.8 229.69 388.8 229.69 388.8" fill="#fff" stroke-width="0"/>
  <polygon points="229.69 388.8 229.69 388.8 229.69 388.8 229.69 388.8" fill="#fff" stroke-width="0"/>
</svg>