<?xml version="1.0" encoding="UTF-8"?>
<svg id="Layer_1" data-name="Layer 1" xmlns="http://www.w3.org/2000/svg" baseProfile="tiny" version="1.2" viewBox="0 0 500 500">
  <path d="M368.58,65.11c22.6,8.57,39.02,23.33,42.15,50.95.25,2.18.31,4.38.32,6.58.16,37.89.09,75.79.09,113.68,0,1.26.02-.87-.17,3.71-.32,7.81-4.48,8.02-8.85,8.35-4.73.36-10.35-2.07-10.41-8.53-.11-12.92-.07-25.84-.07-38.76,0-25.52.09-51.05-.04-76.57-.14-27.77-19.36-44.16-49.13-40.33-64.06,8.26-128.75,6.1-193.04-.23-28.87-2.84-47.1,13.23-47.17,40.47-.09,36.55-.14,73.1-.04,109.65,0,3.08-.05,5.64-.24,7.95-.33,3.94-6.44,7.21-9.86,7.48-3.79.29-8.78-2.23-9.12-6.85-.2-2.73-.44-5.95-.45-9.08-.04-35.29.19-70.58-.09-105.87-.23-29.74,11.09-51.87,39.75-62.32,1.97-.5,1.49-.55,2.95-.76h240.75c1.43.1,1.92.24,2.67.48h0Z" fill="#fff" stroke-width="0"/>
  <path d="M15.45,338.9c69.88-26.28,136.75-14.96,201.98,16.29,4.83,2.31,9.57,4.83,14.21,7.5,12.59,7.26,25.08,7.19,37.7.07,25.94-14.63,52.99-26.66,82.45-31.97,41.27-7.44,82.59-11.17,123.06,4.46,4.13,1.59,11.17,1.08,9.43,9-1.6,7.25-9.14,13.49-15.63,12.26-12.99-2.47-25.77-6.15-38.81-8.23-47.27-7.54-92.18.97-135.18,21.09-5.99,2.8-12.03,5.61-17.64,9.08-17.95,11.1-34.98,9.4-53.59.09-20.16-10.09-41.27-18.97-62.85-25.41-34.4-10.26-69.62-10.27-104.65-1.65-3.67.9-7.51,1.34-11.01,2.66-12.47,4.69-22.64,2.86-29.47-9.57v-5.67h0Z" fill="#fff" stroke-width="0"/>
  <path d="M143.46,435.37c-3.3,0-8.55-.91-11.66-2.02l-4.67-1.67c-23.51-8.32-35.66-25.72-39.81-49.55-1-5.71-.56-11.25,6.16-12.87,6.73-1.62,9.17,3.31,11.44,8.61,3.08,7.18,5.9,14.73,10.42,20.98,6.6,9.11,16.4,13.54,27.83,13.55,68.97.03,137.94.07,206.91-.02,15.76-.02,26.78-7.98,33.8-21.73,2.14-4.19,3.74-8.67,5.53-13.03,2.16-5.27,4.96-10.1,11.7-8.3,6.84,1.83,6.8,7.4,5.64,13.02-5.01,24.24-17.44,42.23-42.07,49.99l-4.32,1.38c-2.86.91-7.65,1.66-10.65,1.66h-206.26,0Z" fill="#fff" stroke-width="0"/>
  <path d="M336.95,315.63c-4.35,2.83-9.04-3.02-5.33-6.65,19.16-18.77,42.79-31.1,70.96-36.06,17.78-3.13,36.56-1.25,54.84-.57,6.89.25,12.5,4.5,11.02,13.18-1.26,7.39-6.88,11.5-15.35,9.78-43.53-8.82-82.11-1.81-116.14,20.33h0Z" fill="#fff" stroke-width="0"/>
  <path d="M152.97,311.84c5.22,3.07,10.45-4.02,5.89-8.02-18.12-15.88-39.9-26.42-65.41-30.92-17.78-3.13-36.56-1.25-54.84-.57-6.89.25-12.5,4.5-11.02,13.18,1.26,7.39,6.88,11.5,15.35,9.78,40.94-8.3,77.51-2.59,110.03,16.55h0Z" fill="#fff" stroke-width="0"/>
  <g>
    <path d="M169.13,229.54c-4.71,3.91-11.69,4.23-16.23.13-.88-.8-1.53-1.63-1.81-2.56-1.19-3.92-.61-9.97,1.8-13.12,12.03-15.74,24.89-30.86,37.5-46.15,13.98-16.94,27.98-33.86,42.03-50.74,4.46-5.36,9.78-8.62,16.8-4.86,5.71,3.06,7.05,8.3,5.29,14.12-.76,2.5-2.69,4.75-4.41,6.84-25.04,30.35-50.05,60.72-75.3,90.9-1.65,1.97-3.57,3.7-5.67,5.45h0Z" fill="#fff" stroke-width="0"/>
    <path d="M267.18,151.61c4.13,4.06,4.81,10.48,1.84,15.45-.46.76-.93,1.47-1.47,2.13-12.88,15.84-25.87,31.58-38.98,47.23-5.17,6.17-12.51,7.22-17.69,2.48-5.67-5.19-5.67-11.4-1.01-17.15,13.24-16.33,26.41-32.73,40.39-48.41,2.73-3.06,9.38-4.72,13.51-3.81,1.22.27,2.34,1.04,3.39,2.09h.02Z" fill="#fff" stroke-width="0"/>
    <path d="M284.19,263.29c-4.45,5.14-12.62,5.73-17.81,1.34-4.1-3.47-5.34-8.92-1.92-13.41,13.99-18.37,28.95-36.03,44.18-53.4,4.21-4.8,10.83-4.11,15.6.6,4.76,4.7,5.1,10.38.8,15.64-13.47,16.49-27.01,32.93-40.79,49.16-.02.03-.04.05-.07.08h.01Z" fill="#fff" stroke-width="0"/>
    <path d="M229.53,271.67c-4.6,3.79-11.59,3.31-15.94-.76-.88-.82-1.52-1.69-1.73-2.65-.97-4.42-.28-10.65,2.33-14.15,9.86-13.19,20.77-25.6,31.31-38.28,2.93-3.52,5.77-7.14,8.97-10.4,5-5.1,10.86-5.88,16.35-1.13,5.1,4.4,5.77,10.51,1.68,15.64-13.72,17.18-27.81,34.07-42.03,50.83-.28.33-.59.63-.93.91h-.01Z" fill="#fff" stroke-width="0"/>
    <path d="M184.73,264.26c.13,7.41-8.69,17.41-15.61,17.71-6.43.27-12.06-5.47-11.96-12.2.11-7.35,9.46-17.65,16.17-17.12,6.8.54,11.27,4.14,11.41,11.6h0Z" fill="#fff" stroke-width="0"/>
    <path d="M208.88,234.93c.11,7.65-8.49,17.44-15.53,17.68-6.55.23-12.1-5.42-12-12.2.11-7.03,9.79-17.38,16.25-17.35,6.15.02,11.18,5.32,11.28,11.87h0Z" fill="#fff" stroke-width="0"/>
    <path d="M254.56,270.04c6.22.86,10.53,4.47,10.73,11.78.21,7.67-8.92,17.24-16.22,17-7.31-.24-11.25-4.28-11.38-11.57-.15-7.88,8.83-17.3,16.88-17.21h-.01Z" fill="#fff" stroke-width="0"/>
    <path d="M231,299.65c5.51.05,9.41,4.22,10.08,11.18.69,7.12-8.86,17.37-15.87,17.38-7.35.02-11.36-3.96-11.8-11.17-.49-7.98,8.06-17.25,17.6-17.4h-.01Z" fill="#fff" stroke-width="0"/>
    <path d="M212.8,288.97c-.05,6.79-8.91,16.06-16.26,15.76-7.3-.3-11.18-4.42-11.33-11.6-.17-7.51,9.35-17.57,16.31-17.01,6.94.56,11.16,4.42,11.29,12.85h0Z" fill="#fff" stroke-width="0"/>
    <path d="M281.11,320.05c-4.71,3.91-11.69,4.23-16.23.13-.88-.8-1.53-1.63-1.81-2.56-1.19-3.92-.61-9.97,1.8-13.12,12.03-15.74,24.89-30.86,37.5-46.15,13.98-16.94,27.98-33.86,42.03-50.74,4.46-5.36,9.78-8.62,16.8-4.86,5.71,3.06,7.05,8.3,5.29,14.12-.76,2.5-2.69,4.75-4.41,6.84-25.04,30.35-50.05,60.72-75.3,90.9-1.65,1.97-3.57,3.7-5.67,5.45h0Z" fill="#fff" stroke-width="0"/>
  </g>
</svg>