<?xml version="1.0" encoding="UTF-8"?>
<svg id="Layer_1" data-name="Layer 1" xmlns="http://www.w3.org/2000/svg" version="1.1" xmlns:xlink="http://www.w3.org/1999/xlink" viewBox="0 0 384.99 207.52">
  <defs>
    <style>
      .cls-1 {
        stroke-width: 2.83px;
      }

      .cls-1, .cls-2 {
        fill: none;
        stroke: #fff;
        stroke-linecap: round;
        stroke-linejoin: round;
      }

      .cls-3 {
        fill: url(#radial-gradient-8);
      }

      .cls-3, .cls-4, .cls-5, .cls-6, .cls-7, .cls-8, .cls-9, .cls-10, .cls-11, .cls-12, .cls-13, .cls-14, .cls-15, .cls-16, .cls-17, .cls-18, .cls-19 {
        stroke-width: 0px;
      }

      .cls-4 {
        fill: url(#radial-gradient-13);
      }

      .cls-5 {
        fill: url(#radial-gradient-12);
      }

      .cls-20 {
        filter: url(#drop-shadow-1);
      }

      .cls-2 {
        stroke-width: 22.96px;
      }

      .cls-6 {
        fill: url(#radial-gradient-2);
      }

      .cls-7 {
        fill: url(#radial-gradient-7);
      }

      .cls-8 {
        fill: url(#radial-gradient-5);
      }

      .cls-9 {
        fill: url(#radial-gradient);
      }

      .cls-10 {
        fill: url(#radial-gradient-14);
      }

      .cls-11 {
        fill: url(#radial-gradient-10);
      }

      .cls-12 {
        fill: #fff;
      }

      .cls-21 {
        display: none;
      }

      .cls-13 {
        fill: #000a14;
      }

      .cls-14 {
        fill: url(#radial-gradient-6);
      }

      .cls-15 {
        fill: url(#radial-gradient-15);
      }

      .cls-16 {
        fill: url(#radial-gradient-9);
      }

      .cls-17 {
        fill: url(#radial-gradient-3);
      }

      .cls-18 {
        fill: url(#radial-gradient-11);
      }

      .cls-19 {
        fill: url(#radial-gradient-4);
      }
    </style>
    <filter id="drop-shadow-1" filterUnits="userSpaceOnUse">
      <feOffset dx="2" dy="2"/>
      <feGaussianBlur result="blur" stdDeviation="3"/>
      <feFlood flood-color="#000" flood-opacity=".39"/>
      <feComposite in2="blur" operator="in"/>
      <feComposite in="SourceGraphic"/>
    </filter>
    <radialGradient id="radial-gradient" cx="277.75" cy="81.28" fx="277.75" fy="81.28" r="11.81" gradientUnits="userSpaceOnUse">
      <stop offset="0" stop-color="#0086e6"/>
      <stop offset=".28" stop-color="#007fda"/>
      <stop offset=".78" stop-color="#006dbc"/>
      <stop offset="1" stop-color="#0065ad"/>
    </radialGradient>
    <radialGradient id="radial-gradient-2" cx="278.66" cy="124.05" fx="278.66" fy="124.05" r="16.66" xlink:href="#radial-gradient"/>
    <radialGradient id="radial-gradient-3" cx="36.26" cy="145.24" fx="36.26" fy="145.24" r="17.75" xlink:href="#radial-gradient"/>
    <radialGradient id="radial-gradient-4" cx="145.61" cy="60.83" fx="145.61" fy="60.83" r="12.53" xlink:href="#radial-gradient"/>
    <radialGradient id="radial-gradient-5" cx="33.44" cy="168.97" fx="33.44" fy="168.97" r=".37" xlink:href="#radial-gradient"/>
    <radialGradient id="radial-gradient-6" cx="191.13" cy="93.2" fx="191.13" fy="93.2" r="54.19" xlink:href="#radial-gradient"/>
    <radialGradient id="radial-gradient-7" cx="81.03" cy="123.3" fx="81.03" fy="123.3" r="59.84" xlink:href="#radial-gradient"/>
    <radialGradient id="radial-gradient-8" cx="325.54" cy="63.54" fx="325.54" fy="63.54" r=".8" xlink:href="#radial-gradient"/>
    <radialGradient id="radial-gradient-9" cx="341.95" cy="112.22" fx="341.95" fy="112.22" r=".67" xlink:href="#radial-gradient"/>
    <radialGradient id="radial-gradient-10" cx="329.22" cy="90.04" fx="329.22" fy="90.04" r="17.95" xlink:href="#radial-gradient"/>
    <radialGradient id="radial-gradient-11" cx="323.73" cy="36.29" fx="323.73" fy="36.29" r="12.93" xlink:href="#radial-gradient"/>
    <radialGradient id="radial-gradient-12" cx="317.88" cy="58.7" fx="317.88" fy="58.7" r="5.33" xlink:href="#radial-gradient"/>
    <radialGradient id="radial-gradient-13" cx="313.53" cy="166.84" fx="313.53" fy="166.84" r=".58" xlink:href="#radial-gradient"/>
    <radialGradient id="radial-gradient-14" cx="325.57" cy="141.17" fx="325.57" fy="141.17" r="21.29" xlink:href="#radial-gradient"/>
    <radialGradient id="radial-gradient-15" cx="313.05" cy="69.13" fx="313.05" fy="69.13" r=".25" xlink:href="#radial-gradient"/>
  </defs>
  <g class="cls-21">
    <g>
      <path class="cls-2" d="M-308.66-75.88c3.23,3.01,28.98-40.88,33.87-36.32.12.12-34.99,29.49-27.32,36.64,4.57,4.26,23.93-32.62,27.4-29.38,13.33,12.43-33.8,17.96-21.57,29.37,0,0,21.69-25.38,22.75-24.39,10.63,9.91-24.63,16.17-15.82,24.38,4.34,4.05,17.55-27.01,21.63-23.2,11.13,10.38-30.82,12.82-19.69,23.19,4.03,3.76,20.81-23.38,21.34-22.88"/>
      <path class="cls-2" d="M-90.28-100.6c7.03,6.56,29.34-50.5,38.83-41.64,10.06,9.38-44.92,26.19-32.76,37.53,10.82,10.09,22.89-46.25,33.71-36.15,15.66,14.6-47.65,19.2-30.63,35.08,2.01,1.88,21.84-42.69,31.45-33.73"/>
      <path class="cls-2" d="M-89.89-175.23c.22.21,20.53-25.56,22.3-23.91,1.39,1.29-23.3,22.82-21.75,24.26.98.91,17.63-28.42,22.38-24,1.28,1.2-27.65,21.93-13.98,34.68,6.08,5.67,21.81-29.51,24.87-26.66,7.78,7.26-37.78,15.87-24.1,28.63,4.94,4.61,23.51-26.4,24.1-25.85"/>
      <path class="cls-2" d="M-129.95-140.73c13.13,12.24,29.46-68.49,47.86-51.33,4.42,4.12-62.88,37.65-43.36,55.86.04.03,38.78-53.13,44.54-47.76,24.47,22.82-60.16,34.34-37.74,55.25,9.96,9.29,34.55-59.43,45.71-49.02,24.67,23-46.39,48.55-40.98,53.59,12.26,11.43,37.47-56.67,45.69-49"/>
      <path class="cls-2" d="M-114.46-107.09c16.96,15.82,29.22-67.71,47.36-50.79,8.54,7.97-31.46,15.1-19.96,25.82,8.58,8-.52-36.76,18.09-19.4,26.22,24.46-71.71,30.99-45.49,55.44,17.03,15.88,48.74-59.28,52.23-56.01"/>
      <path class="cls-2" d="M-123.72-78.55c4.66,4.34,21.96-24.06,22.22-23.82,10.47,9.76-15.55,18.41-5.08,28.18,6.63,6.19,25.95-29.91,26.99-28.94,9.24,8.62-14.27,25.99-13.85,26.38,19.32,18.02,27.69-68.43,47.01-50.42,6.12,5.71-70.45,28.45-45.26,51.94,17.44,16.27,42.61-52.62,46.07-49.4,23.78,22.18-66.82,26.58-43.04,48.75,15.82,14.75,42.99-46.19,43.04-46.15,21.91,20.44-51.47,33.9-39.42,45.14,13.74,12.81,31.17-49.44,39.15-41.99"/>
      <path class="cls-2" d="M-143.95-100.84c5.66,5.27,22.35-27.44,24.08-25.82,3.21,3-33.27,20.73-19.02,34.02,5.46,5.1,19.17-29.68,23.72-25.44"/>
      <path class="cls-2" d="M-180.41-75.88c.5.47,45.42-75.95,59.01-63.28,22.33,20.83-47.59,63.35-47.33,63.6,2.51,2.34,31.73-34.03,31.73-34.03,7.89,7.36-35.3,23.5-24.03,34.02,0,0,24.03-30.01,26.14-28.03,10.85,10.12-20.67,17.89-9.82,28.01,0,0,22.56-45.13,33-35.39,16.29,15.19-27.05,35.38-27.05,35.38,6.52,6.08,24.96-36.46,29.8-31.95"/>
      <path class="cls-2" d="M-96.56-197.95c2.24,2.09,17.71-28.66,22.53-24.16,3.2,2.98-24.64,19.63-19.78,24.16,3.85,3.59,16.86-25.8,20.71-22.21,1.95,1.82-28.07,12.53-17.69,22.21,1.27,1.19,16.11-22.5,18.72-20.07"/>
      <path class="cls-2" d="M-136.47-157.18c13.23,12.34,30.21-71.04,49.49-53.07,22.52,21-66.37,40.12-49.05,56.27,1.05.98,42.19-62.34,50.72-54.39"/>
      <path class="cls-2" d="M-115.26-210.03c2.22,2.07,22.57-44.65,32.77-35.14,7.85,7.32-36.8,40.9-34.85,42.72,9.77,9.11,28.25-48.5,37.33-40.03"/>
      <path class="cls-2" d="M-162.44-165.36c9.61,8.97,27.48-37.46,31.46-33.74,16.67,15.55-47.14,19.11-31.44,33.75,9.61,8.96,28.5-36.47,31.45-33.73,1.89,1.76-27.18,34.16-23.75,37.36,7.16,6.68,20.51-34.78,26.89-28.84,15.25,14.22-37.3,21.63-23.7,34.31,7.39,6.89,20.61-38.51,28.79-30.88,16.23,15.14-27.8,34.6-27.8,34.6,11.53,10.75,33.4-60.13,45.53-48.82"/>
      <path class="cls-2" d="M-188.01-147.32s23.75-45.29,33.63-36.07-51.54,27.57-31.04,46.69c3.77,3.52,32.08-36.61,33.18-35.58,19.33,18.02-49.17,25.95-31.51,42.42,2.32,2.16,33.18-35.58,33.18-35.58,8.45,7.88-43.28,27.64-32.71,37.5s22.65-45.41,33.18-35.58"/>
      <path class="cls-2" d="M-194.77-100.76c3.44,3.21,29.31-67.98,47.54-50.98,23.6,22-39.61,50.94-39.61,50.94,20.09,18.73,39.91-81.91,59.42-63.72,20,18.65-53.66,24.45-33.66,43.09,11.05,10.31-10.66-36.4,13.2-14.15,1.53,1.42-45.31,25.12-26.99,42.2,15.88,14.81,49.18-61.3,53.45-57.32"/>
      <path class="cls-2" d="M-212.47-92.82c9.32,8.69-17.14-27.12,5.55-5.96.09.08-20.38,21.36-18.38,23.22,11.96,11.15,23.88-49.57,35.83-38.42,18.01,16.79-31.47,37.81-30.82,38.41,5.89,5.49,24.43-35.48,29.06-31.16,12.83,11.97-19.65,27.91-16.19,31.14.7.66,17.95-26.66,21.65-23.21,7.28,6.79-19.18,13-15.05,16.86.5.47,1.91-3.98,2.87-3.08"/>
      <path class="cls-2" d="M-203.51-180.13c3.57,3.33,19.9-24.22,21.33-22.88,13.8,12.87-24.39,26.4-16.09,34.14,6.02,5.61,22.03-43.33,31.86-34.17,6.04,5.63-21.2,12.17-14.89,18.06,11.24,10.49-1.6-20.83,9.65-10.34,8.69,8.1-28.82,35.5-28.82,35.5,8.33,7.77,32.1-50.87,40.3-43.22,15.7,14.64-60.9,33.91-42.26,51.29,18.39,17.15,33.44-64.73,47.84-51.3,3.99,3.72-38.81,43.16-32.54,49.01,7.24,6.75-.65-17,8.18-8.77"/>
      <path class="cls-2" d="M-222.67-100.56c14.51,13.53,31.97-51.59,40.6-43.54,1.26,1.18-49.4,28.98-33.05,44.23,10.68,9.96,29.31-39.74,33.45-35.87"/>
      <path class="cls-2" d="M-246.02-199.7c1.81,1.69-11-10.67.2-.22,1.09,1.02-13.83,16.46-4.48,25.18,9.3,8.68,24.16-44.73,33.55-35.98,1.07,1-46.74,42.49-33.55,54.79,6.31,5.89,24.49-44.45,33.56-35.99,11.45,10.68-51.81,25.83-33.56,42.85,10.74,10.02,33.41-36.14,33.57-36"/>
      <path class="cls-2" d="M-273.25-107.91c16.29,15.19,27.52-44.17,34.83-37.35,20.22,18.86-37.67,39.84-32.17,44.98,4.42,4.12,39.34-71.33,53.88-57.77,25.52,23.79-64.79,33.88-39.28,57.67,13.81,12.88,25.48-55.01,39.29-42.13,21,19.58-51.74,30.26-39.02,42.13,3.52,3.29,25.35-54.58,39.02-41.84l-26.77,31.03c7.74,7.22-4.62-17.41,6.54-7.01,12.12,11.31-18.37,23.83-10.03,31.6,11.32,10.55,28.52-65.33,45.85-49.17,6.43,5.99-49.34,50.23-40.31,58.65,2.39,2.23,19.38-30.84,24.39-26.16,10.89,10.15-36.3,15.41-23.1,27.71,5.14,4.79,17.97-29.57,23.11-24.78,10.74,10.01-33.09,13.86-21.38,24.78,4.21,3.93,17.32-26.72,21.38-22.93"/>
      <path class="cls-2" d="M-306.51-100.09c21.72,20.26,48.76-79.82,62.49-67.01,5.53,5.15-72.78,52.51-57.28,66.96,16.28,15.18,34.77-86.51,59.32-63.61,32.85,30.64-59.13,67.56-58,68.62,25.11,23.42,35.53-87.9,60.37-64.74"/>
      <path class="cls-2" d="M-308.66-180.13c.57.53,21.35-22.9,21.35-22.9,5.02,4.68,9.38-14.09,15.89-8.02,12.9,12.03-6.88-19.57,6.56-7.04,9.81,9.15-56.05,25.58-35.15,45.07,11.58,10.8,33.21-56.96,43.85-47.03,23.66,22.06-58.47,33.94-43.83,47.59,8.48,7.91,27.76-62.74,44.2-47.4,26.07,24.31-62.31,45.27-44.18,62.18,16.56,15.45,33.51-57.82,44.42-47.64s-70.39,31.17-44.42,55.38c8.51,7.94,27.86-63.09,44.43-47.64,29.67,27.67-49.44,63.21-44.43,67.89,0,0,33.6-64.15,47.62-51.07,20.89,19.48-67.42,32.94-47.62,51.41,13.35,12.45,40.74-57.74,47.75-51.2"/>
      <path class="cls-2" d="M-334.79-172.53c7.1,6.62,30.86-44.21,36.4-39.04,6.21,5.79-39.73,45.26-36.37,48.39,2.79,2.6,25.7-44.1,33.95-36.4"/>
      <path class="cls-2" d="M-357.81-138.85c9.14,8.53,26.8-44.84,34.83-37.35,17.2,16.04-40.03,39.81-32.52,46.81,15.75,14.68,32.63-79.24,54.7-58.66"/>
      <path class="cls-2" d="M-362.52-109.04c25.84,24.1,37.06-89.21,61.73-66.2,30.35,28.3-67.32,50.1-50.06,66.19,19.59,18.27,39.28-63.77,50.07-53.7,26.65,24.85-75.94,28.84-49.29,53.7,2.03,1.89,43.14-58.59,49.29-52.86,12.57,11.72-20.58,27.54-20.58,27.54,17.95,16.74-2.26-28.23,13.03-13.97,11.21,10.45-60.44,32.49-36.35,54.96,15.21,14.19,40.93-49.87,43.91-47.09"/>
      <path class="cls-2" d="M-400.06-73.71c5.03,4.69,36.16-50.4,41.96-44.99,8.53,7.95-54.04,30.06-32.16,50.47,8.36,7.79,27.89-32.36,29.12-31.22,12.08,11.26-37.63,24.68-21.05,40.14,7.15,6.67,26.87-28.81,26.87-28.81,14.16,13.21-34.32,20.06-20.8,32.67,5,4.66,26.36-33.09,28.77-30.85,0,0-29.4,29.61-27.35,31.52,3.23,3.02,20.86-39.34,29.32-31.44,15.24,14.21-25.64,32.87-25.64,32.87,2.75,2.56,26.51-37.71,31.14-33.39.74.69-10.86,13.57-4.84,19.19,0,0,32.66-134.39,82.23-88.18,8.59,8.01-130.47,71.04-94.7,104.4,20.53,19.15,51.28-64.69,56.12-60.18,29.04,27.08-67.83,47.77-54.56,60.14,0,0,43.54-68.5,54.41-58.35.26.25-28.85,25.87-21.35,32.86.99.92-8.45-8.58.35-.37"/>
      <path class="cls-2" d="M-406.25-107.93c4.87,4.54,24.41-37.35,29.98-32.15,13.2,12.31-20.78,32.45-20.34,32.86,9.52,8.88,45.66-101.17,71.7-76.89,23.96,22.35-113.93,52.13-71.4,91.79,17.34,16.17,28.54-65.37,45.88-49.2"/>
      <path class="cls-2" d="M-373.31-180.07c4.21,3.93,21.14-23.16,21.39-22.93,0,0-26.35,20.81-15.39,31.03,4.63,4.31,25.39-34.36,28.95-31.04,16.95,15.81-43.59,22.14-26.63,37.95,10.49,9.78,9.24-32,20.26-21.73,15.92,14.85-47.25,25.09-29.17,41.94,24.43,22.79,55.05-80.87,65.94-70.71,14.13,13.18-36.56,19.29-25.13,29.94,30.02,27.99-20.42-38.28,9.6-10.29"/>
    </g>
    <path class="cls-12" d="M-224.66-221.18c-.69.36-1.52.09-2.23-.08-.92-.23-1.83-.45-2.78-.55-1.82-.19-3.69,0-5.46.44-3.69.92-6.95,3-9.96,5.25-1.03.77-.94,2.31.36,2.74,2.54.85,4.96-.22,7.36-1.01,2.55-.84,5.19-1.17,7.87-1.04,1.57.08,1.92-2.02.76-2.8-2.4-1.6-5.27-2.09-8.09-1.54-.84.16-1.19,1.1-1.05,1.85.25,1.36,1.2,2.38,2.33,3.12s2.51,1.02,3.48,1.96l.66-2.51c-2.79.51-5.55,1.14-8.29,1.89-1.38.38-1.48,2.57,0,2.89,2.6.57,5.21.21,7.55-1.07,1.07-.59.93-2.51-.36-2.74-3.2-.59-6.12-.19-8.6,2.06-1.86,1.69-3.76,5.18-2.53,7.71.62,1.27,2.01,1.96,3.4,1.91,1.57-.05,2.86-1.08,3.77-2.28,2.24-2.97,2.01-6.6,2.12-10.13.02-.77-.71-1.56-1.5-1.5-2.23.17-3.2,2.5-3.97,4.31-.45,1.05-.81,2.12-1.06,3.23-.24,1.05-.51,2.21.26,3.11.62.74,1.65.96,2.55.67,1.05-.34,1.7-1.35,2.41-2.12,1.58-1.68,3.36-3.11,5.32-4.32.69-.42.96-1.34.54-2.05-1.03-1.75-3.38-.9-3.58.93-.09.81.75,1.49,1.5,1.5.88,0,1.41-.7,1.5-1.5l.02-.16-.2.76-.74.52-.76-.2-.32-.33.54-2.05c-2.48,1.52-4.73,3.39-6.64,5.58-.43.49-.71.45-.1.97.69.6.47.12.61-.5.16-.69.35-1.37.59-2.04s.52-1.29.84-1.92c.16-.31.34-.62.52-.93.14-.22.49-.47.18-.45l-1.5-1.5c-.07,2.24.22,4.89-.71,6.98-.36.81-.93,1.79-1.73,2.25-.53.3-1.15.3-1.19-.38-.1-1.57,1.1-3.26,2.27-4.18,1.63-1.28,3.42-1.41,5.4-1.05l-.36-2.74c-1.62.88-3.43,1.16-5.24.77v2.89c2.73-.75,5.5-1.38,8.29-1.89,1.12-.2,1.43-1.77.66-2.51-.87-.84-1.89-1.32-2.98-1.83-.9-.42-1.87-.87-2.07-1.93l-1.05,1.85c2.04-.39,4.06.1,5.78,1.24l.76-2.8c-2.55-.12-5.13.14-7.6.82-2.15.59-4.57,2.09-6.83,1.33l.36,2.74c3.01-2.24,6.23-4.35,9.96-5.11,1.76-.36,3.55-.33,5.29.1s3.46.85,5.17-.05.19-3.49-1.51-2.59h0Z"/>
  </g>
  <g>
    <g>
      <polyline class="cls-1" points="163.84 155.39 357.7 43.46 171.5 160.14 368.63 46.32 175.49 166.99 367.99 55.86 179.49 173.85 367.81 65.13 184.49 180.13 368.08 74.13 200.36 180.13 368.78 82.89 216.24 180.13 369.91 91.41 232.11 180.13 371.44 99.69 247.99 180.13 372.23 108.39 263.86 180.13 376.8 114.92 279.73 180.13 379.73 122.39 295.61 180.13 381.56 130.5 312.12 179.76 381.7 139.59 324.79 181.61 379.4 150.08 344.38 179.46 371.07 164.05"/>
      <polyline class="cls-1" points="119.14 180.13 357.3 42.63 135.01 180.13 161.37 164.91 150.89 180.13 161.37 174.07"/>
      <polyline class="cls-1" points="319.93 6.4 324.11 3.99 304.63 24.4 339.5 4.27 303.57 34.18 345.24 10.12 301.24 44.69 348.71 17.28"/>
      <polyline class="cls-1" points="281.17 15.48 283.53 14.12 277.91 26.52 286.03 21.84 274.77 37.5 288.27 29.71"/>
      <polyline class="cls-1" points="215.49 46.63 217.88 45.25 215.49 55.79 233.76 45.25 215.49 64.96 249.63 45.25 215.49 74.12 265.51 45.25 219.12 81.19 291.1 39.64 216.53 91.86 293.34 47.51 213.93 102.52 349.8 24.08"/>
      <line class="cls-1" x1="210.53" y1="44.32" x2="210.72" y2="44.21"/>
      <polyline class="cls-1" points="45.69 46.63 48.09 45.25 45.69 55.79 63.96 45.25 45.69 64.96 79.83 45.25 45.69 74.12 115.65 33.73 49.32 81.2 123.87 38.15 46.73 91.86 158.79 27.16 19.75 116.6 168.05 30.98 13.84 129.17 199.17 22.18 12.27 139.25 207.73 26.4 10.76 149.28 202.66 38.49 19.27 153.53 198.85 49.86 20.95 161.73 210.72 52.16 11.75 176.2 210.73 61.32 3.38 190.2 210.74 70.48 31.11 183.36 210.75 79.64 36.16 189.6 210.75 88.8 42.51 195.11 210.76 97.96 50.39 199.72 210.77 107.12 60.39 203.11 353.18 34.07 74.09 204.37 356.63 41.24"/>
    </g>
    <g>
      <g>
        <g>
          <path class="cls-12" d="M273.98,94.43c-1.62-6.15-2.87-6.84-9.23-9.45l-9.14-3.75,9.17-3.67c6.51-2.6,7.44-3.3,9.22-9.52l3.85-13.47,3.84,13.47c1.79,6.29,3,6.97,9.1,9.54l8.75,3.69-8.75,3.69c-6.1,2.57-7.3,3.25-9.1,9.54l-4,14.04-3.71-14.12Z"/>
          <path class="cls-12" d="M277.85,93.41c2.2-7.72,4.41-9.19,11.39-12.13-6.98-2.94-9.19-4.41-11.39-12.13-2.21,7.72-4.23,9.19-11.58,12.13,7.17,2.94,9.55,4.41,11.58,12.13Z"/>
          <path class="cls-12" d="M267.19,148.7l-4.97-20.5h7.81v-5.12l-4.94,3.33.35-7.91c.23-5.6,3.07-9.75,7.61-11.4,1.53-4.93,5.26-7.7,10.54-7.7,3.02,0,6.11,1.19,8.94,3.46l-3.24,6.49v.44c.4-.03,1-.58,1.07-.99,0,0,0,.04,0,.12v39.78h-23.15Z"/>
          <path class="cls-12" d="M283.58,103.4c-4.59,0-6.61,2.76-7.17,6.99-4.59.55-6.8,3.86-6.98,8.27.55-.37,1.47-.73,2.21-.73,2.2,0,2.39,2.2,2.39,4.04v10.23h-6.72l3.03,12.5h16v-35.78c0-2.02,1.1-3.13,2.94-3.13l.74.19c-1.84-1.47-4.05-2.58-6.44-2.58Z"/>
        </g>
        <g>
          <path class="cls-12" d="M29.57,167.56c-.47-2.56-.7-5.22-.7-7.9v-13.79c0-2.95-.39-4.08-.57-4.45h-.03c-.8,0-2.08.1-3.64.56l-6.03,1.8.93-6.23c.71-4.74,2.49-8.3,5.29-10.58,2.57-2.07,6.26-3.08,11.29-3.11,2.19-2.75,4.9-4.23,7.78-4.23,1.44,0,3.28.3,5.64.91l.58.16,9.09,2.51-8.12,4.79c-.12.07-.24.15-.36.23l-.1.07c-4.98,3.34-7.5,10.05-7.5,19.97,0,3.5.29,6.77.85,9.71l.2,1.04-.34,1c-1.94,5.71-4.99,9.29-9.06,10.63l-4.36,1.44-.83-4.52Z"/>
          <path class="cls-12" d="M33.51,166.84c2.82-.93,5.01-3.65,6.53-8.12-.63-3.29-.92-6.81-.92-10.46,0-11.37,3.08-19.14,9.27-23.29.21-.15.43-.29.65-.42-.18-.05-.35-.09-.52-.14-1.81-.47-3.45-.78-4.63-.78-2.02,0-4.04,1.47-5.69,4.23h-1.84c-4.23,0-7.17.73-9.01,2.21-2.02,1.65-3.31,4.41-3.86,8.08,1.84-.55,3.49-.73,4.78-.73,3.31,0,4.6,2.76,4.6,8.45v13.79c0,2.48.22,4.88.64,7.18Z"/>
          <path class="cls-12" d="M142.49,66.95h-6l-.28-1.44-5.14,2.6.26-6.79c.21-5.67,2.99-9.76,7.59-11.41.23-.74.52-1.44.86-2.1.11-.2.2-.35.29-.51,1.88-3.17,5.15-4.9,9.23-4.9,3.17,0,6.21,1.08,9.02,3.2l9.53,7.19h-11.61v36.74l-13.74-22.58Z"/>
          <path class="cls-12" d="M139.78,62.95h4.96l7.49,12.31v-23.35c0-2.02.92-3.12,2.94-3.12h.73c-2.2-1.66-4.41-2.39-6.61-2.39-2.66,0-4.61.95-5.77,2.91-.07.12-.14.24-.21.37-.38.72-.67,1.55-.85,2.52-.07.32-.12.65-.16,1-4.41.55-6.8,3.49-6.98,8.27.73-.37,1.47-.73,2.02-.73,1.39,0,2.15.73,2.44,2.21Z"/>
          <path class="cls-12" d="M29.72,166.77l.93-1.41,1.62-.25c.18-.03.34-.08.5-.13l5.15-1.55v8.29l-3.76,1.23-11,3.55,6.54-9.72Z"/>
          <path class="cls-12" d="M32.95,169.13l.99-.32h0c-.3.08-.6.16-.92.22-.02.03-.05.07-.07.1Z"/>
          <path class="cls-12" d="M130.97,128.45l4.94-.14v-49.9l10,17.15,10.31,17.69v14.96h18.65V60.51l-5.34,3.2.57-7.69c.54-7.18,4.31-10.11,7.67-11.29,1.25-3.81,3.57-5.67,5.45-6.58.77-.37,1.55-.63,2.35-.8.22-.05.49-.1.77-.15.64-.09,1.27-.14,1.91-.14.9,0,1.83.11,2.77.32.29.06.58.14.89.24.95.3,1.88.7,2.75,1.18.6.33,1.24.74,1.87,1.22.23.17.47.35.7.54l-3.09,5.53v1.35s.03,0,.04-.01c.49-.21.8-.71.83-.94,0,.03,0,.07,0,.11v81.63h52.56l4.77,20.48-7.21.03h-.92s-14.68.09-14.68.09l-10.04.06-4.05.03-27.51.15h-.91s-.6,0-.6,0l-13.89.08-2.29.02-39.26.21v-20.92Z"/>
          <path class="cls-12" d="M244.39,132.2h-53.38V46.57c0-1.47.59-2.46,1.7-2.88.41-.17.88-.25,1.43-.25l.2.07.35.12c-.17-.14-.34-.27-.51-.39-.48-.36-.98-.69-1.47-.96-.66-.37-1.33-.65-2-.86-.19-.06-.37-.11-.55-.15-.63-.14-1.27-.22-1.9-.22-.45,0-.88.03-1.29.09-.19.03-.38.07-.56.11-.52.11-1,.28-1.44.49-2.09,1.01-3.38,3.13-3.88,6.3-4.41.55-6.62,3.31-6.99,8.27.92-.55,1.66-.73,2.21-.73,1.65,0,2.57,1.28,2.57,4.04v72.58h-26.65v-17.88l-9.77-16.76-2.55-4.37v39.01l-3.89.1-1.05.03v13.01l4.22-.02,16.62-.09,14.39-.08,2.3-.02,13.91-.08h1.49s2.26-.02,2.26-.02h2.55s22.69-.14,22.69-.14l4.05-.03h2.06s.01,0,.01,0l7.98-.05,14.66-.08h.94s2.2-.02,2.2-.02l-2.91-12.5Z"/>
          <path class="cls-12" d="M67.24,198.22c-17.07,0-30.93-9.57-36.18-24.98l-1.8-5.29h18.16l1.2,1.65c3.98,5.47,9.95,8.12,18.25,8.12,6.92,0,13.52-3.05,18.11-8.38.49-.57.94-1.14,1.34-1.71.16-.22.28-.4.4-.58l.18-.27c2.31-3.55,3.55-7.69,3.55-11.91v-83.16l-5.11,2.11.52-6.51c.13-1.59.42-3.04.88-4.33.52-1.44,1.27-2.71,2.22-3.79,1.21-1.37,2.74-2.41,4.57-3.09,1.65-4.89,5.42-7.74,10.47-7.74,3.24,0,6.4,1.31,9.13,3.8l7.64,6.96h-9.82v69.77l20.27-.5v20.96l-20.35.12c-.18,4.56-.69,8.88-1.5,12.88-.18.92-.4,1.88-.66,2.92-.17.71-.38,1.47-.59,2.22-.36,1.24-.76,2.48-1.24,3.8-.28.76-.56,1.48-.87,2.2-6.77,16.16-20.17,24.71-38.76,24.71Z"/>
          <path class="cls-12" d="M109.74,132.94l-1.93.05-.86.02V58.08c0-2.03.92-2.94,2.94-2.94h.55c-2.02-1.84-4.23-2.76-6.44-2.76-4.04,0-6.43,2.57-7.16,6.98-2.09.36-3.72,1.17-4.88,2.49-.61.69-1.1,1.51-1.45,2.48-.34.96-.56,2.06-.66,3.31.51-.21.96-.36,1.36-.44.32-.08.6-.12.85-.12.5,0,.92.12,1.26.37.77.54,1.13,1.71,1.13,3.49v83.94c0,5.2-1.57,10.05-4.24,14.15-.21.31-.41.62-.63.92-.49.69-1.02,1.36-1.57,2-5.15,5.98-12.85,9.77-21.14,9.77-10.17,0-17.09-3.74-21.48-9.77h-10.54c4.57,13.42,16.74,22.27,32.39,22.27,18.7,0,29.58-9.14,35.08-22.27.28-.66.54-1.32.79-2,.42-1.16.81-2.34,1.16-3.55.2-.69.39-1.39.56-2.1.23-.9.44-1.81.62-2.73,1.04-5.1,1.5-10.53,1.5-16.06l20.27-.12v-12.88l-9.69.24-7.79.19Z"/>
        </g>
        <g>
          <path class="cls-12" d="M324.19,67.47l.28-7.99c.95.01,1.82.06,2.64.15l-.67,7.97-2.25-.13Z"/>
          <path class="cls-12" d="M324.42,63.47l2.25.13c-.72-.08-1.47-.12-2.25-.13Z"/>
          <path class="cls-12" d="M340.92,116.19c-.53-.28-1.08-.56-1.63-.84l3.58-7.16c.59.29,1.16.59,1.74.88l4.85,2.51-3.83,3.88-2.09,2.09-2.62-1.37Z"/>
          <path class="cls-12" d="M342.8,112.64c-.56-.29-1.12-.58-1.69-.86.57.29,1.13.58,1.68.87h.01Z"/>
          <path class="cls-12" d="M341.85,114.42c-4.36-2.3-9.12-4.25-13.73-6.14-3.64-1.48-7.68-3.12-11.23-4.89-1.33-.66-2.49-1.29-3.56-1.92l-.4-.24-2.19-2.12v-31.27l2.58-.98c2.9-1.1,6.32-1.66,10.16-1.66.95,0,1.66.03,2.35.09,1.57.1,3.09.32,4.53.65l-.88,7.9c.06,0,.42-.02.84-.29.39-.23.59-.6.63-.7,0,0-.08.24-.08.85v14.49l5.05-4.79,12.6,12.27-7.04,7.23,5.1,5.17-4.72,6.35Z"/>
          <path class="cls-12" d="M335.87,88.95l-7.17,6.8-1.84-1.65v-20.4c0-1.83.46-3.01,1.32-3.53.35-.22.77-.33,1.25-.33h.04c-1.24-.28-2.56-.47-3.97-.56-.62-.06-1.25-.08-2.03-.08-3.36,0-6.29.47-8.74,1.4v26.81l.64.62c1.01.6,2.11,1.19,3.3,1.78,3.32,1.65,6.99,3.15,10.88,4.73,4.74,1.94,9.61,3.93,14.17,6.34l-7.85-7.96,6.98-7.17-6.98-6.8Z"/>
          <path class="cls-12" d="M307.43,49.57c.13-2.31.9-5.17,3.37-7.49-.78-1.66-1.17-3.49-1.17-5.52,0-6.71,5.16-12.53,12.27-13.85.81-.16,1.36-.3,1.73-.4,0-.01,1.05-8.11,1.05-8.11l5.75,5.75c2.15,2.15,3.19,4.39,3.19,6.87,0,.6-.06,1.17-.17,1.7.52.86.9,1.94.9,3.26,0,.55,0,1.84-.76,3.41l-1.67,3.44h4.26l6.24,12.96h-25.3c-1.62,0-2.36.52-2.87,1.04l-7.42,7.42.6-10.48ZM325.02,35.23c-1.02,0-2.06.77-2.06,1.52,0,.71.06.75.42,1.02l.24.18.21.21c.12.12.47.48,1.39.48h4.87l-2.58-2.06c-1.48-1.18-2.1-1.33-2.47-1.33Z"/>
          <path class="cls-12" d="M336.05,47.59l-2.39-4.96h-8.45c-1.66,0-3.13-.55-4.23-1.66-1.47-1.1-2.02-2.38-2.02-4.22,0-3.13,2.94-5.52,6.06-5.52,1.66,0,3.13.74,4.97,2.21.36-.74.36-1.29.36-1.66,0-1.1-.73-1.83-1.65-2.57.73-.74.92-1.47.92-2.39,0-1.29-.55-2.57-2.02-4.04-.19,1.47-.74,2.39-1.29,2.75-.55.37-1.84.74-3.68,1.11-4.96.92-9,4.96-9,9.92,0,2.76.91,4.78,2.94,6.62-3.31,1.29-4.97,3.49-5.15,6.62,1.47-1.47,3.31-2.21,5.7-2.21h18.93Z"/>
          <path class="cls-12" d="M310.73,61.89h-9.82l7.64-6.96c2.81-2.56,5.73-3.8,8.94-3.8,5.79,0,9.9,3.6,10.98,9.64l.89,4.99-5.06-.29c-.21-.01-.43-.01-.65-.01h-.18c-2.8,0-5.48.25-7.97.74l-4.77.93v-5.23Z"/>
          <path class="cls-12" d="M314.73,60.83v1.43c2.76-.54,5.69-.81,8.74-.81.35,0,.71,0,1.06.02-.73-4.08-3.08-6.34-7.04-6.34-2.21,0-4.23.92-6.25,2.76h.73c1.84,0,2.76.92,2.76,2.94Z"/>
          <path class="cls-12" d="M313.61,170.96c-.21-.04-.42-.08-.62-.12l-4.26-.85v-8.5l5.04,1.31c.28.08.57.15.86.21l.49.1-1.5,7.86Z"/>
          <path class="cls-12" d="M312.73,166.7l1.6.32c-.55-.1-1.08-.23-1.6-.37v.05Z"/>
          <path class="cls-12" d="M321.37,169.7c-.4,0-.79-.01-1.18-.02-2.13-.06-4.24-.29-6.26-.7l-3.21-.65v-34.38l4.69-4.56-13.02-12.65,5.02-4.98,2.7,1.38c4.28,2.37,9.09,4.31,13.74,6.19l.3.12c3.97,1.6,7.72,3.12,11.19,4.89,1.17.59,2.23,1.18,3.21,1.78l4.35,2.68-1.37,1.34,7.18,7.18-12.87,12.52-5.01-4.88v14.19c0,.49,0,1.1,1.36,1.68l10.42,4.44-10.9,3.09c-3.09.88-6.58,1.32-10.37,1.32Z"/>
          <path class="cls-12" d="M336.47,129.54c-.91-.56-1.89-1.1-2.94-1.63-3.36-1.72-7.09-3.22-11.03-4.81-4.82-1.95-9.78-3.95-14.32-6.46l-.07.07,13.05,12.68-6.43,6.25v29.42c1.78.36,3.65.57,5.58.62.35.01.7.02,1.06.02,3.52,0,6.6-.41,9.28-1.17-2.49-1.06-3.79-2.89-3.79-5.36v-20.22l1.84-1.65,7.17,6.98,7.17-6.98-7.17-7.17.6-.59Z"/>
          <polygon class="cls-12" points="308.73 66.44 311.99 65.23 314.86 72.7 314.75 72.76 314.62 72.8 314.52 72.85 308.73 75.75 308.73 66.44"/>
          <path class="cls-12" d="M313.08,69.11c.1-.05.2-.09.3-.13l-.65.24v.05c.12-.06.23-.11.35-.16Z"/>
        </g>
      </g>
      <g>
        <path class="cls-12" d="M27.13,173.97v-8.75h4c.38,0,.76-.04,1.21-.14.15-.03.3-.07.45-.11l.23-.08c.12-.05.28-.11.43-.18l.15-.07.07-.03.1-.06.18-.1s.19-.12.19-.12l.21-.14.05-.05.12-.09.46-.39h.01c.26-.25.51-.53.77-.86.12-.15.2-.25.27-.37l.11-.16c.05-.07.1-.13.14-.21l.08-.14.11-.16c.09-.13.17-.27.25-.42l.05-.09c.15-.27.3-.56.43-.85.12-.24.21-.43.29-.61l.13-.29.25-.66c.12-.29.2-.54.29-.8l.14-.42c.23-.73.45-1.51.65-2.31l6.93-28.51,1.1-4.59h.01l10.84-44.58c1.34-5.44.33-7.09.12-7.36-.39-.49-1.35-.6-2.08-.6h-4v-8.75h38.9v8.75h-4c-.47,0-.55.11-.61.18-.5.64-1.03,2.99.14,7.77l10.15,41.73v35.51c0,5.4-1.57,10.66-4.55,15.22l-.23.36s-.35.51-.48.68c-.29.41-.63.85-.99,1.3l-1.2,1.51h-14.03v-8.75h4c.96,0,1.21-.32,1.37-.52.83-1.05,1.25-3.96.44-7.49l-4.06-16.7h-21.88l-1.78,7.31-.84,3.48-1.45,5.97c-.25,1.03-.43,2.01-.54,2.92l-3.99-.32,3.98.44c-.03.26-.05.52-.07.78v.24c-.02.21-.03.42-.03.63,0,.08.02.57.02.57,0,.09,0,.18.01.26.02.2.05.41.08.61l.04.18c.03.15.07.3.12.44l.04.1c.04.1.08.21.14.31.16.3.42.79,2.01.79h4v8.75h-29.45ZM71.3,126.75l-5.53-22.76-5.53,22.76h11.06Z"/>
        <path class="cls-12" d="M91.21,114.74l-.7-2.87-4.18-17.2-3.91-16.07c-2.1-8.55,0-12.9,4.35-12.9v-.75h-30.9v.75c5.85,0,7.95,4.35,5.85,12.9l-10.8,44.4-.78,3.23h-.01l-.37,1.54-6.94,28.53c-.21.84-.45,1.7-.72,2.55h0s-.17.51-.17.51c-.11.32-.22.63-.34.93-.1.26-.2.52-.3.77-.05.12-.1.23-.15.34-.1.23-.21.46-.32.69-.18.39-.38.78-.59,1.15-.15.28-.31.55-.49.81-.12.21-.26.41-.4.6-.14.21-.29.41-.45.61-.46.59-.96,1.13-1.52,1.61-.13.12-.26.23-.4.33-.01.01-.02.03-.05.04-.14.12-.29.23-.45.33-.05.04-.11.09-.18.12-.16.11-.32.21-.49.3-.19.12-.37.22-.57.3-.28.14-.57.26-.87.37-.14.05-.28.1-.42.14-.26.08-.52.14-.8.2-.64.13-1.3.22-2.02.22v.75h21.45v-.75c-2.88,0-4.59-1.14-5.53-2.89-.14-.26-.26-.54-.37-.83-.02-.07-.05-.13-.07-.2-.09-.28-.17-.57-.23-.86-.02-.08-.04-.15-.05-.23-.07-.34-.11-.7-.15-1.06-.02-.2-.02-.4-.03-.61,0-.19-.02-.38-.02-.57,0-.27,0-.55.02-.83,0-.11,0-.21.01-.32.02-.32.05-.64.08-.97,0-.05.01-.09.02-.14.13-1.12.35-2.27.63-3.4l1.45-5.96.84-3.48h0l2.53-10.38h28.16l2.15,8.82,2.67,10.98c1.35,5.85.45,12.9-5.7,12.9v.75h8.1c.31-.39.61-.78.88-1.16.16-.22.3-.43.44-.63l.16-.25c2.55-3.9,3.9-8.42,3.9-13.03v-35.03l-1.24-5.11ZM55.15,130.75l10.62-43.69,10.62,43.69h-21.24Z"/>
        <g>
          <path class="cls-12" d="M116.52,173.95v-8.75h4c2.83,0,4.7,0,4.7-8.9v-77.7c0-8.9-1.87-8.9-4.7-8.9h-4v-8.75h29.35l35.01,57.54v15.71h-19.38l-12.73-21.85-11.8-20.25v64.19c0,8.9,1.87,8.9,4.7,8.9h4v8.75h-29.15Z"/>
          <path class="cls-12" d="M176.88,119.61l-22.65-37.22-2-3.29-8.61-14.15h-23.1v.75c7.05,0,8.7,4.35,8.7,12.9v77.7c0,8.55-1.65,12.9-8.7,12.9v.75h21.15v-.75c-7.05,0-8.7-4.35-8.7-12.9v-79l4.02,6.9.16.27.76,1.31,2,3.43,3.4,5.83,8.92,15.3,2,3.43,9.57,16.43h13.08v-10.59Z"/>
          <polygon class="cls-12" points="184.67 173.95 166.72 143.16 186.39 143.05 186.99 143.05 187.87 143.04 194.71 143.02 194.71 173.95 184.67 173.95"/>
          <polygon class="cls-12" points="187.91 147.04 186.99 147.05 186.41 147.05 173.66 147.12 186.97 169.95 190.71 169.95 190.71 147.03 187.91 147.04"/>
        </g>
        <g>
          <path class="cls-12" d="M196.92,173.95v-8.75h4c1.34,0,5.41,0,7.81-9.85l3.03-12.46,12.28-.06-2.04,8.44-1.45,5.97c-1.03,4.22-.68,6.63-.06,7.41.28.36.91.54,1.87.54h4v8.75h-29.45Z"/>
          <path class="cls-12" d="M216.67,156.3l1.45-5.96.84-3.48-4.05.02-2.29,9.42c-1.5,6.15-4.65,12.9-11.7,12.9v.75h21.45v-.75c-7.05,0-7.2-6.75-5.7-12.9Z"/>
          <path class="cls-12" d="M244.77,173.95v-8.75h4c.96,0,1.21-.32,1.37-.52.83-1.05,1.25-3.96.44-7.49l-2.81-11.55-2-8.2-.29-1.23-.04-.15-.71-2.95-9.15-37.59-9.41,38.67h-12.28l13.75-56.54c1.34-5.44.33-7.09.12-7.36-.39-.49-1.35-.6-2.08-.6h-4v-8.75h38.9v8.75h-4c-.46,0-.55.11-.61.18-.5.64-1.03,2.99.14,7.77l18.89,77.71c1.13,4.92,4.18,9.84,7.81,9.84h4v8.75h-42.04Z"/>
          <path class="cls-12" d="M271.11,156.3l-2.82-11.6-3.04-12.5-13.03-53.6c-2.1-8.55,0-12.9,4.35-12.9v-.75h-30.9v.75c5.85,0,7.95,4.35,5.85,12.9l-12.55,51.6h4.05l12.55-51.6,12.55,51.6.49,2,.13.55.56,2.31.06.23.29,1.21,2,8.2,2.82,11.6c1.35,5.85.45,12.9-5.7,12.9v.75h34.04v-.75c-6.3,0-10.35-7.05-11.7-12.9Z"/>
        </g>
        <path class="cls-12" d="M321.37,175.45c-1.63,0-3.29-.1-4.95-.3-.81-.1-1.6-.22-2.36-.35-.92-.16-1.83-.35-2.81-.58-3.93-.94-7.33-2.27-10.07-3.34-2.22-.87-4.51-1.77-5.66-1.82-.12.24-.33.75-.52,1.69l-.65,3.2h-8.02v-36.65h8.6l.42,3.52c.09.7,2.38,17.5,17.91,21.83.1.03.2.06.3.08l.22.05c.51.14.91.23,1.27.3.08.01.47.09.47.09.16.03.28.05.42.07l.22.03.21.05c.11.03.24.04.36.05l.17.02c.26.04.52.07.79.1.28.03.53.05.78.07h.16c.59.08,1.21.1,1.75.11.33,0,.66.02,1,.02.48,0,.96,0,1.43-.03.33,0,.61-.02.88-.05l.51-.04h.06s.23,0,.23,0c.37-.03.74-.06,1.1-.1.36-.05.8-.11,1.23-.18.34-.05.66-.11.99-.17l.14-.03h.07s.84-.19.84-.19c.1-.02.2-.05.29-.07l.21-.05c.13-.03.26-.06.39-.1l.12-.03c.11-.03.26-.07.4-.12l.14-.05.15-.04c.1-.03.21-.06.31-.09l.07-.02c.09-.03.17-.06.26-.09.18-.06.37-.12.54-.19l.12-.04c.2-.07.4-.15.59-.23l.1-.04c.25-.1.5-.21.75-.32l.1-.04c.24-.11.47-.22.71-.34l.74-.38c.36-.19.75-.43,1.1-.66.21-.14.36-.24.52-.35.23-.16.39-.28.55-.4.46-.34.84-.66,1.19-.97.15-.14.29-.26.42-.38l.05-.06.2-.19c.13-.12.26-.25.38-.38l.13-.14c.15-.16.31-.32.44-.49.22-.26.37-.44.5-.63l.13-.17c.09-.11.16-.22.23-.33l.11-.16.08-.1c.6-.86,1.11-1.79,1.54-2.76.1-.22.2-.45.28-.68.11-.3.2-.52.28-.75l.06-.18c.02-.06.04-.13.06-.19l.06-.23.1-.27.03-.11c.05-.18.1-.36.15-.55l.03-.14c.03-.11.05-.21.07-.32l.08-.35c.03-.12.06-.3.09-.47.05-.28.08-.49.12-.7.07-.44.12-.84.15-1.3v-.13s.03-.13.03-.13c0-.08.01-.17.01-.25v-.13c.02-.19.03-.4.04-.6,0-.26.02-.54.02-.83s0-.58-.03-.86v-.16s-.01-.07-.01-.07v-.2c-.02-.11-.03-.22-.05-.32l-.04-.32-.06-.25v-.22c-.02-.12-.04-.25-.06-.36-.05-.27-.13-.56-.2-.83l-.03-.06-.07-.24c-.06-.21-.12-.43-.2-.63l-.04-.1c-.07-.2-.15-.4-.24-.59l-.07-.17c-.08-.17-.16-.34-.25-.51l-.02-.04c-.09-.18-.19-.36-.29-.53-.14-.23-.31-.51-.49-.77-.18-.25-.36-.5-.56-.75-.14-.18-.29-.36-.46-.54l-.11-.12c-.1-.12-.22-.24-.34-.36l-.1-.1-.09-.11c-.05-.05-.1-.1-.15-.15l-.09-.08c-.15-.15-.32-.31-.48-.46,0,0-.4-.35-.5-.44l-.11-.08-.21-.18c-.16-.14-.33-.27-.5-.39l-.18-.14c-.2-.16-.41-.32-.62-.46l-.12-.08c-.56-.4-1.03-.71-1.47-.98-1-.62-2.09-1.22-3.23-1.8-3.29-1.68-6.98-3.17-10.88-4.75-4.67-1.88-9.49-3.83-13.99-6.27-.59-.32-1.17-.64-1.73-.97l-.18-.11c-.6-.35-1.19-.71-1.77-1.08-10.43-6.69-15.5-15.66-15.5-27.42,0-13.41,8.63-24.15,22.53-28.04,1.01-.28,1.95-.51,2.87-.69.29-.06.66-.13,1.04-.19.4-.08.79-.14,1.2-.2.86-.14,1.77-.25,2.72-.33.36-.04.82-.08,1.28-.1.48-.03,1.02-.06,1.55-.07.51-.02,1.1-.03,1.7-.03.37,0,.74,0,1.1.02.8.01,1.54.05,2.24.12h1.54l.18.18c.07,0,.68.1.68.1,5.88.83,10.28,2.83,13.5,4.3,1.19.54,2.77,1.26,3.57,1.45.18-.28.49-.86.87-1.96l.93-2.7h7.61v36.65h-9.05v-3.6l-.02-.09v-.19s-.04-.32-.05-.41l-.03-.1-.02-.17c-.01-.07-.06-.34-.06-.34l-.04-.29.02.11-.1-.5.02.06-.05-.19c-.03-.12-.05-.24-.08-.38-.09-.43-.2-.89-.34-1.39l-.03-.11-.02-.11-.08-.27-.02-.1-.08-.25c-.02-.07-.04-.15-.06-.22l-.24-.79-.05-.13-.03-.11c-.03-.11-.07-.23-.11-.34-.11-.34-.21-.62-.32-.9-.1-.26-.17-.45-.25-.64l-.05-.12c-.08-.22-.18-.45-.27-.67-.12-.29-.26-.6-.41-.92-.09-.2-.15-.32-.21-.44l-.05-.1c-.11-.24-.24-.49-.37-.73l-.12-.24c-.14-.27-.33-.59-.51-.9-.13-.22-.25-.42-.37-.62l-.08-.14c-.12-.21-.26-.41-.4-.62l-.08-.1-.11-.17c-.16-.24-.32-.47-.5-.71-.15-.2-.28-.38-.41-.54l-.08-.09-.07-.1c-.11-.15-.24-.29-.36-.43-.46-.54-.89-1.02-1.33-1.46-.19-.18-.43-.42-.69-.64l-.09-.08c-.21-.19-.42-.36-.63-.54l-.22-.18-.13-.09-.21-.14-.11-.11c-.1-.08-.2-.15-.3-.22l-.26-.17s-.05-.04-.05-.05l-.1-.07c-.23-.16-.48-.32-.72-.47-.38-.23-.72-.43-1.07-.62l-.59-.3-.97-.44-.1-.04-.09-.04c-.14-.06-.28-.11-.43-.17l-.75-.25-.05-.05-.26-.09h-.1s-.07-.01-.07-.01l-.6-.22c-.35-.09-.7-.19-1.06-.26l-.26-.05-.14-.04c-.27-.06-.54-.11-.82-.16-.32-.06-.59-.09-.86-.13l-.18-.02c-.14-.02-.27-.04-.41-.05h-.15s-.36-.04-.36-.04l-.06-.02c-.17-.02-.34-.03-.52-.04h-.11c-.28-.03-.56-.05-.84-.06h-.11c-.23-.02-.45-.02-.69-.02h-.18c-.63,0-1.25.02-1.84.05-.14,0-.24.01-.34.02h-.16c-.35.04-.71.07-1.05.12l-.13.02h-.13s-.6.1-.6.1c-.83.13-1.59.29-2.27.48-.11.03-.39.12-.39.12-.2.06-.36.1-.52.16-.23.08-.4.13-.57.2l-.65.26-.12.06-.08.03-.65.31c-4.16,2.12-6.24,6.07-6.16,11.73,0,.2,0,.33.01.47l.02.4.06.52c.01.11.03.2.05.28l.02.12.02.12.13.61c.24.95.6,1.81,1.11,2.64.1.17.16.27.24.38.33.49.62.88.91,1.21l.11.12.04.06.06.06.09.1c.49.55,1.08,1.11,1.74,1.65.12.1.2.17.28.23l.13.1c.1.08.2.16.3.24l.05.03.32.25c.11.08.22.16.32.23l.4.28c.1.07.19.14.29.2l.11.07c.42.28.9.58,1.52.94l.45.26.02.02c.84.49,1.8,1.01,2.93,1.57.77.39,1.54.74,2.32,1.1l.71.32h0c.11.06,1.11.5,1.11.5h.02c.82.37,1.66.72,2.51,1.08,1.3.54,2.63,1.09,3.98,1.64,2.39.98,4.86,1.99,7.31,3.05l1.78.8c.61.27,1.21.55,1.81.83.56.26,1.14.55,1.72.83.64.32,1.22.61,1.79.91,1.18.62,2.35,1.28,3.62,2.04,1.44.88,2.57,1.63,3.59,2.38,9.63,6.9,14.33,15.76,14.33,27.06,0,23.85-22.18,34.7-44.18,34.89-.2,0-.41.01-.61.01ZM328.19,116.8l.13-.13-.23-.23-.13.14.22.22Z"/>
        <path class="cls-12" d="M349.46,116.72c-1.05-.77-2.15-1.48-3.28-2.17-1.1-.66-2.22-1.3-3.38-1.91-.56-.29-1.12-.58-1.69-.86-.57-.28-1.14-.56-1.72-.83-.57-.27-1.15-.54-1.73-.8l-1.74-.78c-3.77-1.64-7.6-3.15-11.24-4.67-.95-.4-1.89-.8-2.81-1.2-.03-.02-.07-.03-.1-.05-.52-.23-1.03-.45-1.53-.68h-.01c-.84-.39-1.66-.77-2.45-1.17-1.29-.64-2.41-1.24-3.43-1.85l-.2-.12h-.01c-.6-.36-1.19-.72-1.75-1.1-.22-.14-.44-.3-.66-.45-.21-.15-.43-.3-.64-.46-.03-.02-.05-.04-.07-.05-.26-.19-.51-.38-.75-.58-.13-.1-.26-.21-.39-.32-.8-.66-1.53-1.35-2.18-2.08-.11-.11-.22-.23-.31-.35-.45-.51-.85-1.05-1.22-1.6-.13-.19-.24-.37-.35-.56-.71-1.17-1.24-2.43-1.58-3.8-.04-.18-.08-.36-.12-.54-.03-.16-.07-.33-.09-.49-.03-.16-.06-.33-.08-.49-.03-.23-.05-.47-.08-.71-.01-.17-.02-.34-.03-.52-.01-.21-.02-.42-.02-.63-.1-6.93,2.61-12.43,8.36-15.36.18-.09.37-.18.55-.27.12-.06.23-.11.35-.16.1-.05.2-.09.3-.13l.44-.17.2-.08c.23-.09.47-.17.71-.25.23-.08.47-.15.71-.22.15-.05.29-.09.44-.13.86-.24,1.77-.43,2.73-.58.16-.03.33-.05.49-.07.17-.02.33-.05.5-.06.41-.05.83-.09,1.25-.12.18-.02.36-.03.54-.04.67-.04,1.37-.06,2.08-.06.37,0,.73,0,1.09.02.36,0,.72.03,1.07.06.35.02.69.05,1.03.09.03,0,.07,0,.1.01.26.02.51.05.76.09.35.04.7.09,1.04.15.37.06.73.13,1.08.21.09.01.18.03.27.06.46.09.91.21,1.35.33.09.02.18.05.26.08.02,0,.03.01.05.01.17.05.33.1.49.15.07.02.14.04.22.07l.18.06.2.07.2.07.4.15.1.03s.03,0,.04.02c.22.08.43.16.64.25.22.08.42.18.63.27.06.03.12.05.18.08.21.1.43.2.63.3.21.11.42.21.62.32.43.23.85.47,1.25.72.33.2.66.41.97.63.12.08.24.16.36.25.01.01.03.02.04.03.22.16.44.32.66.49l.02.02s.06.04.09.07c.14.1.27.21.4.32.28.23.56.46.83.71.31.27.6.55.89.83.54.54,1.05,1.1,1.53,1.67.19.22.38.44.55.67.2.24.39.49.57.74.22.3.43.59.63.9.04.05.08.11.12.17.2.29.39.58.56.87.16.25.31.5.46.76.21.36.42.73.61,1.09.19.37.38.73.55,1.09.09.18.18.36.26.54.17.36.33.72.48,1.07.11.26.22.53.32.79.11.26.21.52.3.77.13.34.25.67.36,1,.06.17.11.33.16.49.05.13.09.26.13.39.06.19.12.38.17.56.05.15.09.3.13.45.04.13.08.26.11.39.04.14.08.28.11.42.17.61.3,1.17.41,1.68.02.11.04.21.06.3.03.11.05.23.07.33.03.11.05.21.06.31.02.1.04.2.05.29.02.1.04.19.05.27.01.09.03.17.04.25.02.08.03.16.04.23.02.15.04.28.06.39.01.08.02.14.02.2.01.07.02.12.02.17.02.09.02.13.02.13h1.05v-28.65h-.75c-3.51,10.25-8.22.86-22.33-1.13-.13-.02-.26-.04-.39-.06-.46-.06-.94-.12-1.43-.16-.02,0-.04-.01-.07,0-.01-.01-.02-.01-.03,0-.72-.08-1.47-.12-2.25-.13-.31-.02-.63-.02-.95-.02-.55,0-1.09.01-1.62.03-.48.01-.96.04-1.43.07-.39.02-.78.05-1.16.09-.85.07-1.67.17-2.48.3-.35.05-.69.1-1.03.17-.35.06-.69.12-1.02.19-.88.17-1.73.38-2.55.61-12.75,3.57-19.61,13.27-19.61,24.19,0,11.94,5.8,19.01,13.66,24.05.53.34,1.07.67,1.62.99.02.01.05.03.07.04.57.34,1.15.66,1.74.98,7.97,4.32,17.31,7.15,24.78,10.97,1.22.62,2.39,1.27,3.5,1.95.59.36,1.15.74,1.7,1.13.32.21.63.44.93.68.28.2.56.42.83.66.06.04.12.09.18.14.23.19.45.39.67.58.21.19.42.39.62.59.16.15.31.3.44.45.2.2.39.4.56.6.24.26.47.53.68.8.24.31.47.62.69.93.22.33.44.68.65,1.03.14.24.27.48.4.73.01.02.02.04.03.06.13.26.26.53.38.8.01.03.03.07.04.1.12.28.24.57.34.86.12.32.22.65.31.98.05.12.08.25.11.37.09.35.18.71.25,1.07.05.26.09.53.13.8,0,.02.01.04.01.06.02.16.04.33.06.49,0,.04.01.07.01.11.02.18.04.37.05.56.01.1.02.21.02.31.03.38.04.78.04,1.18,0,.33-.01.66-.02.98-.01.26-.02.52-.04.77-.01.21-.02.42-.05.63-.04.54-.1,1.08-.19,1.61-.04.26-.08.52-.13.78-.04.23-.08.46-.13.69-.02.08-.04.15-.06.23-.04.2-.09.4-.14.61-.06.25-.13.5-.2.74-.03.12-.07.24-.11.35-.01.05-.03.11-.05.16-.05.19-.11.36-.17.54-.1.32-.22.63-.34.94-.11.3-.24.6-.37.9-.54,1.24-1.2,2.42-1.98,3.53-.02.03-.04.05-.06.08-.15.23-.31.46-.49.68-.19.26-.4.52-.62.78-.21.26-.44.51-.67.75-.2.23-.41.44-.63.65-.04.05-.09.1-.14.15-.19.18-.39.36-.59.54-.46.42-.95.82-1.46,1.2-.21.16-.43.32-.65.47-.21.15-.42.29-.64.43-.47.31-.96.6-1.46.87l-.75.39c-.31.16-.62.31-.94.45-.32.15-.65.29-.98.42-.26.11-.53.21-.81.31-.28.11-.57.21-.86.3-.04.01-.07.03-.11.04-.23.07-.47.15-.71.21-.21.07-.43.13-.65.19-.23.06-.45.12-.68.17-.22.06-.45.12-.69.16-.15.03-.3.07-.45.1-.15.03-.3.07-.45.09-.39.08-.79.15-1.19.21-.46.07-.94.14-1.42.2-.39.04-.8.08-1.21.11-.19.02-.38.03-.58.04-.06,0-.12.02-.18,0-.35.03-.71.05-1.07.06-.52.02-1.05.03-1.58.03-.38,0-.75-.01-1.11-.02-.7-.02-1.38-.05-2.05-.12-.32-.02-.64-.05-.96-.08-.33-.04-.66-.08-.98-.13-.27-.03-.55-.07-.81-.13-.25-.03-.49-.07-.73-.12-.1-.02-.19-.04-.29-.06-.04-.01-.07-.01-.11-.02-.55-.1-1.08-.23-1.6-.37-.19-.04-.37-.09-.55-.14-18.41-5.14-20.81-25.21-20.81-25.21h-1.05v28.65h.75c1.96-9.66,8.8-2.57,21.11.38.83.2,1.68.38,2.55.53.7.12,1.42.23,2.16.32,1.43.17,2.93.27,4.48.27.16,0,.33,0,.49-.01,19.51-.14,40.3-9.32,40.3-30.89,0-11.28-5.3-18.53-12.7-23.83ZM329.11,121.48l-.96.93-5.7-5.7,5.51-6.07,6.07,6.07-4.92,4.77Z"/>
      </g>
    </g>
    <g class="cls-20">
      <g>
        <g>
          <path class="cls-9" d="M277.85,93.41c2.2-7.72,4.41-9.19,11.39-12.13-6.98-2.94-9.19-4.41-11.39-12.13-2.21,7.72-4.23,9.19-11.58,12.13,7.17,2.94,9.55,4.41,11.58,12.13Z"/>
          <path class="cls-6" d="M283.58,103.4c-4.59,0-6.61,2.76-7.17,6.99-4.59.55-6.8,3.86-6.98,8.27.55-.37,1.47-.73,2.21-.73,2.2,0,2.39,2.2,2.39,4.04v10.23h-6.72l3.03,12.5h16v-35.78c0-2.02,1.1-3.13,2.94-3.13l.74.19c-1.84-1.47-4.05-2.58-6.44-2.58Z"/>
        </g>
        <g>
          <path class="cls-17" d="M33.51,166.84c2.82-.93,5.01-3.65,6.53-8.12-.63-3.29-.92-6.81-.92-10.46,0-11.37,3.08-19.14,9.27-23.29.21-.15.43-.29.65-.42-.18-.05-.35-.09-.52-.14-1.81-.47-3.45-.78-4.63-.78-2.02,0-4.04,1.47-5.69,4.23h-1.84c-4.23,0-7.17.73-9.01,2.21-2.02,1.65-3.31,4.41-3.86,8.08,1.84-.55,3.49-.73,4.78-.73,3.31,0,4.6,2.76,4.6,8.45v13.79c0,2.48.22,4.88.64,7.18Z"/>
          <path class="cls-19" d="M139.78,62.95h4.96l7.49,12.31v-23.35c0-2.02.92-3.12,2.94-3.12h.73c-2.2-1.66-4.41-2.39-6.61-2.39-2.66,0-4.61.95-5.77,2.91-.07.12-.14.24-.21.37-.38.72-.67,1.55-.85,2.52-.07.32-.12.65-.16,1-4.41.55-6.8,3.49-6.98,8.27.73-.37,1.47-.73,2.02-.73,1.39,0,2.15.73,2.44,2.21Z"/>
          <path class="cls-8" d="M32.95,169.13l.99-.32h0c-.3.08-.6.16-.92.22-.02.03-.05.07-.07.1Z"/>
          <path class="cls-14" d="M244.39,132.2h-53.38V46.57c0-1.47.59-2.46,1.7-2.88.41-.17.88-.25,1.43-.25l.2.07.35.12c-.17-.14-.34-.27-.51-.39-.48-.36-.98-.69-1.47-.96-.66-.37-1.33-.65-2-.86-.19-.06-.37-.11-.55-.15-.63-.14-1.27-.22-1.9-.22-.45,0-.88.03-1.29.09-.19.03-.38.07-.56.11-.52.11-1,.28-1.44.49-2.09,1.01-3.38,3.13-3.88,6.3-4.41.55-6.62,3.31-6.99,8.27.92-.55,1.66-.73,2.21-.73,1.65,0,2.57,1.28,2.57,4.04v72.58h-26.65v-17.88l-9.77-16.76-2.55-4.37v39.01l-3.89.1-1.05.03v13.01l4.22-.02,16.62-.09,14.39-.08,2.3-.02,13.91-.08h1.49s2.26-.02,2.26-.02h2.55s22.69-.14,22.69-.14l4.05-.03h2.06s.01,0,.01,0l7.98-.05,14.66-.08h.94s2.2-.02,2.2-.02l-2.91-12.5Z"/>
          <path class="cls-7" d="M109.74,132.94l-1.93.05-.86.02V58.08c0-2.03.92-2.94,2.94-2.94h.55c-2.02-1.84-4.23-2.76-6.44-2.76-4.04,0-6.43,2.57-7.16,6.98-2.09.36-3.72,1.17-4.88,2.49-.61.69-1.1,1.51-1.45,2.48-.34.96-.56,2.06-.66,3.31.51-.21.96-.36,1.36-.44.32-.08.6-.12.85-.12.5,0,.92.12,1.26.37.77.54,1.13,1.71,1.13,3.49v83.94c0,5.2-1.57,10.05-4.24,14.15-.21.31-.41.62-.63.92-.49.69-1.02,1.36-1.57,2-5.15,5.98-12.85,9.77-21.14,9.77-10.17,0-17.09-3.74-21.48-9.77h-10.54c4.57,13.42,16.74,22.27,32.39,22.27,18.7,0,29.58-9.14,35.08-22.27.28-.66.54-1.32.79-2,.42-1.16.81-2.34,1.16-3.55.2-.69.39-1.39.56-2.1.23-.9.44-1.81.62-2.73,1.04-5.1,1.5-10.53,1.5-16.06l20.27-.12v-12.88l-9.69.24-7.79.19Z"/>
        </g>
        <g>
          <path class="cls-3" d="M324.42,63.47l2.25.13c-.72-.08-1.47-.12-2.25-.13Z"/>
          <path class="cls-16" d="M342.8,112.64c-.56-.29-1.12-.58-1.69-.86.57.29,1.13.58,1.68.87h.01Z"/>
          <path class="cls-11" d="M335.87,88.95l-7.17,6.8-1.84-1.65v-20.4c0-1.83.46-3.01,1.32-3.53.35-.22.77-.33,1.25-.33h.04c-1.24-.28-2.56-.47-3.97-.56-.62-.06-1.25-.08-2.03-.08-3.36,0-6.29.47-8.74,1.4v26.81l.64.62c1.01.6,2.11,1.19,3.3,1.78,3.32,1.65,6.99,3.15,10.88,4.73,4.74,1.94,9.61,3.93,14.17,6.34l-7.85-7.96,6.98-7.17-6.98-6.8Z"/>
          <path class="cls-18" d="M336.05,47.59l-2.39-4.96h-8.45c-1.66,0-3.13-.55-4.23-1.66-1.47-1.1-2.02-2.38-2.02-4.22,0-3.13,2.94-5.52,6.06-5.52,1.66,0,3.13.74,4.97,2.21.36-.74.36-1.29.36-1.66,0-1.1-.73-1.83-1.65-2.57.73-.74.92-1.47.92-2.39,0-1.29-.55-2.57-2.02-4.04-.19,1.47-.74,2.39-1.29,2.75-.55.37-1.84.74-3.68,1.11-4.96.92-9,4.96-9,9.92,0,2.76.91,4.78,2.94,6.62-3.31,1.29-4.97,3.49-5.15,6.62,1.47-1.47,3.31-2.21,5.7-2.21h18.93Z"/>
          <path class="cls-5" d="M314.73,60.83v1.43c2.76-.54,5.69-.81,8.74-.81.35,0,.71,0,1.06.02-.73-4.08-3.08-6.34-7.04-6.34-2.21,0-4.23.92-6.25,2.76h.73c1.84,0,2.76.92,2.76,2.94Z"/>
          <path class="cls-4" d="M312.73,166.7l1.6.32c-.55-.1-1.08-.23-1.6-.37v.05Z"/>
          <path class="cls-10" d="M336.47,129.54c-.91-.56-1.89-1.1-2.94-1.63-3.36-1.72-7.09-3.22-11.03-4.81-4.82-1.95-9.78-3.95-14.32-6.46l-.07.07,13.05,12.68-6.43,6.25v29.42c1.78.36,3.65.57,5.58.62.35.01.7.02,1.06.02,3.52,0,6.6-.41,9.28-1.17-2.49-1.06-3.79-2.89-3.79-5.36v-20.22l1.84-1.65,7.17,6.98,7.17-6.98-7.17-7.17.6-.59Z"/>
          <path class="cls-15" d="M313.08,69.11c.1-.05.2-.09.3-.13l-.65.24v.05c.12-.06.23-.11.35-.16Z"/>
        </g>
      </g>
      <g>
        <path class="cls-13" d="M91.21,114.74l-.7-2.87-4.18-17.2-3.91-16.07c-2.1-8.55,0-12.9,4.35-12.9v-.75h-30.9v.75c5.85,0,7.95,4.35,5.85,12.9l-10.8,44.4-.78,3.23h-.01l-.37,1.54-6.94,28.53c-.21.84-.45,1.7-.72,2.55h0s-.17.51-.17.51c-.11.32-.22.63-.34.93-.1.26-.2.52-.3.77-.05.12-.1.23-.15.34-.1.23-.21.46-.32.69-.18.39-.38.78-.59,1.15-.15.28-.31.55-.49.81-.12.21-.26.41-.4.6-.14.21-.29.41-.45.61-.46.59-.96,1.13-1.52,1.61-.13.12-.26.23-.4.33-.01.01-.02.03-.05.04-.14.12-.29.23-.45.33-.05.04-.11.09-.18.12-.16.11-.32.21-.49.3-.19.12-.37.22-.57.3-.28.14-.57.26-.87.37-.14.05-.28.1-.42.14-.26.08-.52.14-.8.2-.64.13-1.3.22-2.02.22v.75h21.45v-.75c-2.88,0-4.59-1.14-5.53-2.89-.14-.26-.26-.54-.37-.83-.02-.07-.05-.13-.07-.2-.09-.28-.17-.57-.23-.86-.02-.08-.04-.15-.05-.23-.07-.34-.11-.7-.15-1.06-.02-.2-.02-.4-.03-.61,0-.19-.02-.38-.02-.57,0-.27,0-.55.02-.83,0-.11,0-.21.01-.32.02-.32.05-.64.08-.97,0-.05.01-.09.02-.14.13-1.12.35-2.27.63-3.4l1.45-5.96.84-3.48h0l2.53-10.38h28.16l2.15,8.82,2.67,10.98c1.35,5.85.45,12.9-5.7,12.9v.75h8.1c.31-.39.61-.78.88-1.16.16-.22.3-.43.44-.63l.16-.25c2.55-3.9,3.9-8.42,3.9-13.03v-35.03l-1.24-5.11ZM55.15,130.75l10.62-43.69,10.62,43.69h-21.24Z"/>
        <g>
          <path class="cls-13" d="M176.88,119.61l-22.65-37.22-2-3.29-8.61-14.15h-23.1v.75c7.05,0,8.7,4.35,8.7,12.9v77.7c0,8.55-1.65,12.9-8.7,12.9v.75h21.15v-.75c-7.05,0-8.7-4.35-8.7-12.9v-79l4.02,6.9.16.27.76,1.31,2,3.43,3.4,5.83,8.92,15.3,2,3.43,9.57,16.43h13.08v-10.59Z"/>
          <polygon class="cls-13" points="187.91 147.04 186.99 147.05 186.41 147.05 173.66 147.12 186.97 169.95 190.71 169.95 190.71 147.03 187.91 147.04"/>
        </g>
        <g>
          <path class="cls-13" d="M216.67,156.3l1.45-5.96.84-3.48-4.05.02-2.29,9.42c-1.5,6.15-4.65,12.9-11.7,12.9v.75h21.45v-.75c-7.05,0-7.2-6.75-5.7-12.9Z"/>
          <path class="cls-13" d="M271.11,156.3l-2.82-11.6-3.04-12.5-13.03-53.6c-2.1-8.55,0-12.9,4.35-12.9v-.75h-30.9v.75c5.85,0,7.95,4.35,5.85,12.9l-12.55,51.6h4.05l12.55-51.6,12.55,51.6.49,2,.13.55.56,2.31.06.23.29,1.21,2,8.2,2.82,11.6c1.35,5.85.45,12.9-5.7,12.9v.75h34.04v-.75c-6.3,0-10.35-7.05-11.7-12.9Z"/>
        </g>
        <path class="cls-13" d="M349.46,116.72c-1.05-.77-2.15-1.48-3.28-2.17-1.1-.66-2.22-1.3-3.38-1.91-.56-.29-1.12-.58-1.69-.86-.57-.28-1.14-.56-1.72-.83-.57-.27-1.15-.54-1.73-.8l-1.74-.78c-3.77-1.64-7.6-3.15-11.24-4.67-.95-.4-1.89-.8-2.81-1.2-.03-.02-.07-.03-.1-.05-.52-.23-1.03-.45-1.53-.68h-.01c-.84-.39-1.66-.77-2.45-1.17-1.29-.64-2.41-1.24-3.43-1.85l-.2-.12h-.01c-.6-.36-1.19-.72-1.75-1.1-.22-.14-.44-.3-.66-.45-.21-.15-.43-.3-.64-.46-.03-.02-.05-.04-.07-.05-.26-.19-.51-.38-.75-.58-.13-.1-.26-.21-.39-.32-.8-.66-1.53-1.35-2.18-2.08-.11-.11-.22-.23-.31-.35-.45-.51-.85-1.05-1.22-1.6-.13-.19-.24-.37-.35-.56-.71-1.17-1.24-2.43-1.58-3.8-.04-.18-.08-.36-.12-.54-.03-.16-.07-.33-.09-.49-.03-.16-.06-.33-.08-.49-.03-.23-.05-.47-.08-.71-.01-.17-.02-.34-.03-.52-.01-.21-.02-.42-.02-.63-.1-6.93,2.61-12.43,8.36-15.36.18-.09.37-.18.55-.27.12-.06.23-.11.35-.16.1-.05.2-.09.3-.13l.44-.17.2-.08c.23-.09.47-.17.71-.25.23-.08.47-.15.71-.22.15-.05.29-.09.44-.13.86-.24,1.77-.43,2.73-.58.16-.03.33-.05.49-.07.17-.02.33-.05.5-.06.41-.05.83-.09,1.25-.12.18-.02.36-.03.54-.04.67-.04,1.37-.06,2.08-.06.37,0,.73,0,1.09.02.36,0,.72.03,1.07.06.35.02.69.05,1.03.09.03,0,.07,0,.1.01.26.02.51.05.76.09.35.04.7.09,1.04.15.37.06.73.13,1.08.21.09.01.18.03.27.06.46.09.91.21,1.35.33.09.02.18.05.26.08.02,0,.03.01.05.01.17.05.33.1.49.15.07.02.14.04.22.07l.18.06.2.07.2.07.4.15.1.03s.03,0,.04.02c.22.08.43.16.64.25.22.08.42.18.63.27.06.03.12.05.18.08.21.1.43.2.63.3.21.11.42.21.62.32.43.23.85.47,1.25.72.33.2.66.41.97.63.12.08.24.16.36.25.01.01.03.02.04.03.22.16.44.32.66.49l.02.02s.06.04.09.07c.14.1.27.21.4.32.28.23.56.46.83.71.31.27.6.55.89.83.54.54,1.05,1.1,1.53,1.67.19.22.38.44.55.67.2.24.39.49.57.74.22.3.43.59.63.9.04.05.08.11.12.17.2.29.39.58.56.87.16.25.31.5.46.76.21.36.42.73.61,1.09.19.37.38.73.55,1.09.09.18.18.36.26.54.17.36.33.72.48,1.07.11.26.22.53.32.79.11.26.21.52.3.77.13.34.25.67.36,1,.06.17.11.33.16.49.05.13.09.26.13.39.06.19.12.38.17.56.05.15.09.3.13.45.04.13.08.26.11.39.04.14.08.28.11.42.17.61.3,1.17.41,1.68.02.11.04.21.06.3.03.11.05.23.07.33.03.11.05.21.06.31.02.1.04.2.05.29.02.1.04.19.05.27.01.09.03.17.04.25.02.08.03.16.04.23.02.15.04.28.06.39.01.08.02.14.02.2.01.07.02.12.02.17.02.09.02.13.02.13h1.05v-28.65h-.75c-3.51,10.25-8.22.86-22.33-1.13-.13-.02-.26-.04-.39-.06-.46-.06-.94-.12-1.43-.16-.02,0-.04-.01-.07,0-.01-.01-.02-.01-.03,0-.72-.08-1.47-.12-2.25-.13-.31-.02-.63-.02-.95-.02-.55,0-1.09.01-1.62.03-.48.01-.96.04-1.43.07-.39.02-.78.05-1.16.09-.85.07-1.67.17-2.48.3-.35.05-.69.1-1.03.17-.35.06-.69.12-1.02.19-.88.17-1.73.38-2.55.61-12.75,3.57-19.61,13.27-19.61,24.19,0,11.94,5.8,19.01,13.66,24.05.53.34,1.07.67,1.62.99.02.01.05.03.07.04.57.34,1.15.66,1.74.98,7.97,4.32,17.31,7.15,24.78,10.97,1.22.62,2.39,1.27,3.5,1.95.59.36,1.15.74,1.7,1.13.32.21.63.44.93.68.28.2.56.42.83.66.06.04.12.09.18.14.23.19.45.39.67.58.21.19.42.39.62.59.16.15.31.3.44.45.2.2.39.4.56.6.24.26.47.53.68.8.24.31.47.62.69.93.22.33.44.68.65,1.03.14.24.27.48.4.73.01.02.02.04.03.06.13.26.26.53.38.8.01.03.03.07.04.1.12.28.24.57.34.86.12.32.22.65.31.98.05.12.08.25.11.37.09.35.18.71.25,1.07.05.26.09.53.13.8,0,.02.01.04.01.06.02.16.04.33.06.49,0,.04.01.07.01.11.02.18.04.37.05.56.01.1.02.21.02.31.03.38.04.78.04,1.18,0,.33-.01.66-.02.98-.01.26-.02.52-.04.77-.01.21-.02.42-.05.63-.04.54-.1,1.08-.19,1.61-.04.26-.08.52-.13.78-.04.23-.08.46-.13.69-.02.08-.04.15-.06.23-.04.2-.09.4-.14.61-.06.25-.13.5-.2.74-.03.12-.07.24-.11.35-.01.05-.03.11-.05.16-.05.19-.11.36-.17.54-.1.32-.22.63-.34.94-.11.3-.24.6-.37.9-.54,1.24-1.2,2.42-1.98,3.53-.02.03-.04.05-.06.08-.15.23-.31.46-.49.68-.19.26-.4.52-.62.78-.21.26-.44.51-.67.75-.2.23-.41.44-.63.65-.04.05-.09.1-.14.15-.19.18-.39.36-.59.54-.46.42-.95.82-1.46,1.2-.21.16-.43.32-.65.47-.21.15-.42.29-.64.43-.47.31-.96.6-1.46.87l-.75.39c-.31.16-.62.31-.94.45-.32.15-.65.29-.98.42-.26.11-.53.21-.81.31-.28.11-.57.21-.86.3-.04.01-.07.03-.11.04-.23.07-.47.15-.71.21-.21.07-.43.13-.65.19-.23.06-.45.12-.68.17-.22.06-.45.12-.69.16-.15.03-.3.07-.45.1-.15.03-.3.07-.45.09-.39.08-.79.15-1.19.21-.46.07-.94.14-1.42.2-.39.04-.8.08-1.21.11-.19.02-.38.03-.58.04-.06,0-.12.02-.18,0-.35.03-.71.05-1.07.06-.52.02-1.05.03-1.58.03-.38,0-.75-.01-1.11-.02-.7-.02-1.38-.05-2.05-.12-.32-.02-.64-.05-.96-.08-.33-.04-.66-.08-.98-.13-.27-.03-.55-.07-.81-.13-.25-.03-.49-.07-.73-.12-.1-.02-.19-.04-.29-.06-.04-.01-.07-.01-.11-.02-.55-.1-1.08-.23-1.6-.37-.19-.04-.37-.09-.55-.14-18.41-5.14-20.81-25.21-20.81-25.21h-1.05v28.65h.75c1.96-9.66,8.8-2.57,21.11.38.83.2,1.68.38,2.55.53.7.12,1.42.23,2.16.32,1.43.17,2.93.27,4.48.27.16,0,.33,0,.49-.01,19.51-.14,40.3-9.32,40.3-30.89,0-11.28-5.3-18.53-12.7-23.83ZM329.11,121.48l-.96.93-5.7-5.7,5.51-6.07,6.07,6.07-4.92,4.77Z"/>
      </g>
    </g>
  </g>
</svg>